<svg xmlns="http://www.w3.org/2000/svg" width="111.565" height="112.109" viewBox="0 0 111.565 112.109">
	<path d="M23.945,46.332a22.525,22.525,0,0,0,22.5,22.5,2.5,2.5,0,0,1,0,5,27.5,27.5,0,1,1,27.5-27.5,2.5,2.5,0,1,1-5,0,22.5,22.5,0,1,0-45,0ZM28.19,85.158C17.008,72.973,5.445,60.371,5.445,46.332a41,41,0,1,1,82,0,2.5,2.5,0,1,0,5,0,46,46,0,1,0-92,0c0,15.985,12.232,29.315,24.061,42.207,7.043,7.675,13.7,14.925,17.841,22.577a2.5,2.5,0,1,0,4.4-2.381C42.3,100.539,35.129,92.72,28.19,85.158Zm83.156.679a2.5,2.5,0,0,1-3.533.139l-2.507-2.318V99.933A12.508,12.508,0,0,1,92.8,112.441H66.837A12.508,12.508,0,0,1,54.329,99.933V82.94l-3.2,2.961a2.5,2.5,0,1,1-3.4-3.671l30-27.74c.032-.031.07-.051.1-.079a2.587,2.587,0,0,1,.233-.176c.061-.039.122-.073.185-.106a2.288,2.288,0,0,1,.245-.117c.069-.028.14-.051.211-.072a2.393,2.393,0,0,1,.246-.062c.076-.015.153-.024.231-.032s.16-.013.241-.013.16.006.241.013.154.017.231.032a2.312,2.312,0,0,1,.245.062c.071.021.142.044.212.072a2.384,2.384,0,0,1,.245.117c.062.033.124.067.183.106a2.479,2.479,0,0,1,.235.176c.033.028.071.049.1.079l30.082,27.815A2.5,2.5,0,0,1,111.346,85.837Zm-11.04-6.8L79.43,59.731l-20.1,18.586V99.933a7.516,7.516,0,0,0,7.508,7.508H92.8a7.516,7.516,0,0,0,7.508-7.508ZM72.34,94.226H86.3V80.27H72.34Z" transform="translate(-0.445 -0.332)"/>
</svg>