<svg xmlns="http://www.w3.org/2000/svg" width="24" height="24" viewBox="0 0 24 24">
  <g transform="translate(-660 -694)">
    <rect width="24" height="24" transform="translate(660 694)" fill="none"/>
    <path d="M4.044,8.184a.734.734,0,0,1,.091-1.037L8.489,3.506a.737.737,0,1,1,.95,1.127L5.085,8.274A.74.74,0,0,1,4.044,8.184Zm22.564-1.03L22.253,3.512A.737.737,0,1,0,21.3,4.64l4.354,3.64a.737.737,0,1,0,.95-1.128ZM19.487,18.3,15.758,16.15V10.8a.739.739,0,0,0-1.477,0v5.774c0,.009,0,.017,0,.025a.705.705,0,0,0,.008.076.69.69,0,0,0,.012.069.578.578,0,0,0,.021.066c.008.022.016.047.026.069a.583.583,0,0,0,.033.06.673.673,0,0,0,.038.061.655.655,0,0,0,.045.055c.016.018.031.036.049.053a.649.649,0,0,0,.053.043.733.733,0,0,0,.063.046c.007,0,.012.01.02.014l4.1,2.357a.737.737,0,1,0,.739-1.275Zm6.744-2.176a10.938,10.938,0,1,1-10.938-10.9,10.918,10.918,0,0,1,10.938,10.9Zm-1.477,0a9.461,9.461,0,1,0-9.461,9.427,9.444,9.444,0,0,0,9.461-9.427Z" transform="translate(656.629 690.666)"/>
  </g>
</svg>
