<svg viewBox="0 0 24 24" xmlns="http://www.w3.org/2000/svg">
<path d="M11.5861 23C9.05039 22.9989 6.6045 22.0614 4.7179 20.3672C2.8313 18.673 1.63715 16.3415 1.36439 13.8206C1.09162 11.2996 1.75981 8.76679 3.24036 6.70825C4.72092 4.64971 6.9096 3.21042 9.38636 2.66699C9.50757 2.64073 9.63249 2.63877 9.75452 2.66089C9.87656 2.68301 9.99302 2.72876 10.0973 2.7959C10.2016 2.86304 10.2918 2.95007 10.3624 3.052C10.4331 3.15393 10.4831 3.26893 10.5094 3.39014C10.5357 3.51135 10.5379 3.63651 10.5158 3.75854C10.4936 3.88058 10.4476 3.99704 10.3805 4.10132C10.3134 4.2056 10.2261 4.29556 10.1242 4.36621C10.0222 4.43686 9.90747 4.48668 9.78626 4.51294C7.76823 4.96132 5.9865 6.13812 4.78187 7.81812C3.57724 9.49811 3.03411 11.5635 3.25697 13.6187C3.47982 15.6739 4.45265 17.5748 5.98939 18.9575C7.52612 20.3403 9.51883 21.1076 11.5861 21.113C13.6182 21.1795 15.6019 20.4829 17.1461 19.1604C18.6904 17.8379 19.6836 15.9852 19.9303 13.967C19.9421 13.8423 19.9786 13.7211 20.0377 13.6106C20.0968 13.5001 20.1773 13.4023 20.2745 13.3232C20.3718 13.2442 20.4839 13.1855 20.6041 13.1501C20.7244 13.1148 20.8507 13.1037 20.9752 13.1177C21.0998 13.1316 21.2202 13.1702 21.3297 13.2312C21.4392 13.2922 21.5356 13.3745 21.6129 13.4731C21.6903 13.5718 21.7472 13.6848 21.7804 13.8057C21.8136 13.9265 21.8224 14.0527 21.8063 14.177C21.5132 16.6587 20.3013 18.9408 18.4098 20.5737C16.5183 22.2067 14.0839 23.0722 11.5861 23ZM22.3663 11.668C22.455 11.5717 22.5227 11.4583 22.5651 11.3345C22.6074 11.2107 22.6235 11.0793 22.6124 10.949C21.7654 0.926974 12.6515 1.002 12.5685 1C12.3213 1.00523 12.0856 1.10728 11.9127 1.28394C11.7398 1.46059 11.6431 1.69787 11.6432 1.94507V11.03C11.6437 11.1586 11.6702 11.2859 11.7213 11.4038C11.7725 11.5218 11.8475 11.6281 11.941 11.7163C12.0346 11.8045 12.145 11.8726 12.2658 11.9167C12.3865 11.9609 12.5148 11.9802 12.6432 11.9731H21.671C21.8021 11.9743 21.9324 11.9481 22.0529 11.8965C22.1734 11.8448 22.2817 11.7688 22.3712 11.6731L22.3663 11.668ZM13.5324 2.95117C15.4414 3.19517 19.6811 4.38296 20.6061 10.085H13.5324V2.95117Z"/>
</svg>
