<svg xmlns="http://www.w3.org/2000/svg" width="24" height="24" viewBox="0 0 24 24">
  <g transform="translate(-484 -797)">
    <rect width="24" height="24" transform="translate(484 797)" fill="none"/>
    <path d="M178.758,244.848a11.006,11.006,0,0,1-1.347-21.93.752.752,0,1,1,.182,1.494,9.5,9.5,0,1,0,10.64,10.145.752.752,0,1,1,1.5.112,11.045,11.045,0,0,1-10.976,10.179Zm12.294-11.983a.754.754,0,0,0,.2-.573c-.931-11.018-10.909-10.94-11.019-10.942a.752.752,0,0,0-.736.752v10.253a.762.762,0,0,0,.814.749c.021,0,.042,0,.064,0H190.5A.753.753,0,0,0,191.052,232.865ZM181,222.892c2.051.2,7.663,1.4,8.661,8.711H181Z" transform="translate(316.5 575.9)"/>
  </g>
</svg>
