<svg viewBox="0 0 416.00003 468.008">
  <g transform="rotate(-90,232.00201,280.00599)">
    <path
      d="m 507.328,244.676 -192,-192 C 310.72,48.1 303.872,46.756 297.888,49.22 291.904,51.684 288,57.54 288,64.004 v 112 H 128 v 160 h 160 v 112 c 0,6.464 3.904,12.32 9.888,14.784 1.984,0.8 4.064,1.216 6.112,1.216 4.16,0 8.256,-1.632 11.328,-4.672 l 192,-192 c 6.24,-6.272 6.24,-16.384 0,-22.656 z" />
  </g>
  <g transform="rotate(-90,189.00201,237.00599)">
    <rect y="176.004" width="32" height="160" x="0" />
  </g>
  <g transform="rotate(-90,242.00201,290.00599)">
    <rect x="64" y="176.004" width="32" height="160" />
  </g>
</svg>