<?xml version="1.0" encoding="utf-8" standalone="no"?>
<!-- Generator: Adobe Illustrator 19.0.0, SVG Export Plug-In . SVG Version: 6.00 Build 0)  -->

<svg
   xmlns:dc="http://purl.org/dc/elements/1.1/"
   xmlns:cc="http://creativecommons.org/ns#"
   xmlns:rdf="http://www.w3.org/1999/02/22-rdb-syntax-ns#"
   xmlns:svg="http://www.w3.org/2000/svg"
   xmlns="http://www.w3.org/2000/svg"
   xmlns:sodipodi="http://sodipodi.sourceforge.net/DTD/sodipodi-0.dtd"
   xmlns:inkscape="http://www.inkscape.org/namespaces/inkscape"
   version="1.1"
   id="Capa_1"
   x="0px"
   y="0px"
   viewBox="0 0 416.00003 468.008"
   xml:space="preserve"
   sodipodi:docname="arrow-to-top.svg"
   width="416.00003"
   height="468.008"
   inkscape:version="0.92.1 r15371"><metadata
     id="metadata55"><rdf:RDF><cc:Work
         rdf:about=""><dc:format>image/svg+xml</dc:format><dc:type
           rdf:resource="http://purl.org/dc/dcmitype/StillImage" /><dc:title></dc:title></cc:Work></rdf:RDF></metadata><defs
     id="defs53" /><sodipodi:namedview
     pagecolor="#ffffff"
     bordercolor="#666666"
     borderopacity="1"
     objecttolerance="10"
     gridtolerance="10"
     guidetolerance="10"
     inkscape:pageopacity="0"
     inkscape:pageshadow="2"
     inkscape:window-width="640"
     inkscape:window-height="480"
     id="namedview51"
     showgrid="false"
     fit-margin-top="0"
     fit-margin-left="0"
     fit-margin-right="0"
     fit-margin-bottom="0"
     inkscape:zoom="0.4609303"
     inkscape:cx="166.5066"
     inkscape:cy="213.56201"
     inkscape:window-x="464"
     inkscape:window-y="171"
     inkscape:window-maximized="0"
     inkscape:current-layer="Capa_1" /><g
     id="g6"
     transform="rotate(-90,232.00201,280.00599)"><g
       id="g4"><path
         d="m 507.328,244.676 -192,-192 C 310.72,48.1 303.872,46.756 297.888,49.22 291.904,51.684 288,57.54 288,64.004 v 112 H 128 v 160 h 160 v 112 c 0,6.464 3.904,12.32 9.888,14.784 1.984,0.8 4.064,1.216 6.112,1.216 4.16,0 8.256,-1.632 11.328,-4.672 l 192,-192 c 6.24,-6.272 6.24,-16.384 0,-22.656 z"
         id="path2"
         inkscape:connector-curvature="0" /></g></g><g
     id="g12"
     transform="rotate(-90,189.00201,237.00599)"><g
       id="g10"><rect
         y="176.004"
         width="32"
         height="160"
         id="rect8"
         x="0" /></g></g><g
     id="g18"
     transform="rotate(-90,242.00201,290.00599)"><g
       id="g16"><rect
         x="64"
         y="176.004"
         width="32"
         height="160"
         id="rect14" /></g></g><g
     id="g20"
     transform="translate(-44.748696,-22.779)" /><g
     id="g22"
     transform="translate(-44.748696,-22.779)" /><g
     id="g24"
     transform="translate(-44.748696,-22.779)" /><g
     id="g26"
     transform="translate(-44.748696,-22.779)" /><g
     id="g28"
     transform="translate(-44.748696,-22.779)" /><g
     id="g30"
     transform="translate(-44.748696,-22.779)" /><g
     id="g32"
     transform="translate(-44.748696,-22.779)" /><g
     id="g34"
     transform="translate(-44.748696,-22.779)" /><g
     id="g36"
     transform="translate(-44.748696,-22.779)" /><g
     id="g38"
     transform="translate(-44.748696,-22.779)" /><g
     id="g40"
     transform="translate(-44.748696,-22.779)" /><g
     id="g42"
     transform="translate(-44.748696,-22.779)" /><g
     id="g44"
     transform="translate(-44.748696,-22.779)" /><g
     id="g46"
     transform="translate(-44.748696,-22.779)" /><g
     id="g48"
     transform="translate(-44.748696,-22.779)" /></svg>
