<svg xmlns="http://www.w3.org/2000/svg" viewBox="0 0 213 213">
    <rect width="213" height="213" fill="none" />
    <path
        d="M154.5,129.6a46.717,46.717,0,0,1-14.3,34.5,47.427,47.427,0,0,1-34.5,14.3H84.3a26.771,26.771,0,0,1-26.8-26c-.2-8.6-.5-17.4-.5-22.7,0-15.1,6-27.7,17.9-37.8a45.906,45.906,0,0,1,25.4-10.7c15.7-1.4,28.9,3.2,39.8,14a48.151,48.151,0,0,1,10.7,15.7A50.261,50.261,0,0,1,154.5,129.6ZM105.7,99.1a30.973,30.973,0,0,0-12,2.4,30.762,30.762,0,0,0-18.5,28.1,29.644,29.644,0,0,0,2.4,11.8,31.263,31.263,0,0,0,16.1,16.3,30.951,30.951,0,0,0,23.9,0,32.086,32.086,0,0,0,9.7-6.6,30.081,30.081,0,0,0,6.5-9.7,30.208,30.208,0,0,0,0-23.6,30.751,30.751,0,0,0-16.2-16.3A30.125,30.125,0,0,0,105.7,99.1ZM57,43.1V72.3a9.1,9.1,0,0,0,18.2,0V43.1a9.1,9.1,0,0,0-18.2,0Z"
        fill="#1a1a1a" />
</svg>