<svg viewBox="0 0 41 40" xmlns="http://www.w3.org/2000/svg">
    <path opacity="0.2" fill-rule="evenodd" clip-rule="evenodd"
          d="M17.5075 0.0368695C11.6722 0.273618 8.0774 1.44853 6.04076 3.78476C3.99362 6.13309 3.01206 9.0703 1.08134 18.6248C-0.50501 26.4755 -0.350103 31.5169 1.57348 34.6377C4.04044 38.6402 8.81962 39.996 20.4741 40C30.5863 40.0034 35.3456 39.0052 38.123 36.2982C39.5914 34.8671 40.4329 33.0662 40.8553 30.4509C41.0495 29.2484 41.0479 25.941 40.8523 24.2133C40.4233 20.425 38.7912 12.563 37.7157 9.10422C35.6985 2.61696 32.492 0.515604 23.9218 0.0644602C22.556 -0.0074477 18.9787 -0.0228454 17.5075 0.0368695ZM12.638 8.46768C13.3668 8.76445 13.6213 9.23928 13.704 10.457C13.7692 11.4157 13.8421 11.8038 14.0859 12.4909C14.7596 14.3899 16.2418 15.7244 18.3934 16.3695C19.0603 16.5695 19.2104 16.5848 20.5142 16.5848C21.8123 16.5848 21.9701 16.5689 22.622 16.3732C25.0396 15.6475 26.5326 14.1525 27.1386 11.8504C27.2029 11.6065 27.2851 10.9904 27.3214 10.4812C27.4103 9.23365 27.6588 8.76563 28.3904 8.46768C29.0667 8.19216 29.8643 8.37646 30.3554 8.92156C30.731 9.33862 30.8071 9.66307 30.751 10.609C30.4666 15.4112 27.3947 18.8601 22.5559 19.8097C21.4715 20.0226 19.3886 20.0023 18.2726 19.7682C14.6427 19.0066 11.8709 16.6635 10.8174 13.4662C10.3299 11.9866 10.1116 10.0542 10.3604 9.41929C10.5028 9.05576 10.8616 8.67692 11.2535 8.4762C11.5635 8.31738 12.2585 8.31308 12.638 8.46768Z"
    />
</svg>
