<svg xmlns="http://www.w3.org/2000/svg" viewBox="0 0 115.694 116">
  <path d="M71.307,101.021a13.5,13.5,0,1,1-26.83,0Zm43.361,13.647h0a3.5,3.5,0,0,0,0-4.949L5.975,1.025a3.5,3.5,0,0,0-4.95,0h0a3.5,3.5,0,0,0,0,4.95L109.719,114.668A3.5,3.5,0,0,0,114.668,114.668Zm0,.154h0a3.5,3.5,0,0,0,0-4.95L5.975,1.178a3.5,3.5,0,0,0-4.95,0h0a3.5,3.5,0,0,0,0,4.95L109.719,114.822A3.5,3.5,0,0,0,114.668,114.822Zm-79.752-94.7A27.44,27.44,0,0,1,85.384,33.233c.015,21.577,3.791,35,13.968,45.174,1.376,1.377.984,4.07-.319,5.832l5.727,5.726a31.079,31.079,0,0,0,2.11-5.113c1.4-4.2,0-8.593-3.222-11.815C97.718,67.107,92.91,60.151,92.9,33.3h.007A34.95,34.95,0,0,0,29.5,14.71ZM70.873,85.948h-51v-.022c-3.222,0-5.37-5.37-3.222-7.519,8.146-8.145,12.183-18.382,13.481-33.2l-7.087-7.087c-.559,22.9-5.131,29.361-10.69,34.92C9.13,76.259,7.729,80.651,9.13,84.852c1.845,5.536,3.339,7.547,5.287,8.257a3.475,3.475,0,0,0,1.515.358h.6c.537.02,1.112.012,1.734,0h60.13Z" transform="translate(0)"/>
</svg>
