<svg xmlns="http://www.w3.org/2000/svg" viewBox="0 0 98.824 116">
  <path d="M103.313,73.037C97.382,67.107,92.574,60.151,92.565,33.3h.007a34.946,34.946,0,0,0-69.815,0h.007c-.009,26.855-4.817,33.811-10.748,39.741-3.222,3.222-4.622,7.614-3.222,11.815,1.846,5.537,3.34,7.547,5.288,8.257a3.472,3.472,0,0,0,1.515.358h.6c.536.02,1.111.012,1.734,0H97.4c.622.012,1.2.02,1.733,0h.677a3.463,3.463,0,0,0,1.759-.491c1.793-.815,3.221-2.9,4.963-8.124C107.935,80.651,106.535,76.259,103.313,73.037Zm-87,5.37c10.176-10.176,13.952-23.6,13.968-45.174a27.438,27.438,0,0,1,54.767,0c.016,21.577,3.792,35,13.968,45.174,2.149,2.149,0,7.519-3.222,7.519v.022H19.535v-.022C16.313,85.926,14.165,80.556,16.313,78.407Zm54.659,22.614a13.5,13.5,0,1,1-26.83,0Z" transform="translate(-8.253)"/>
</svg>
