<svg xmlns="http://www.w3.org/2000/svg" width="24" height="24" viewBox="0 0 24 24">
  <g transform="translate(-248 -619)">
    <rect width="24" height="24" transform="translate(248 619)" fill="none"/>
    <path d="M121.843,222.708c-2.059,0-3.528-2-3.59-2.084a.713.713,0,1,1,1.153-.837,3.713,3.713,0,0,0,2.437,1.5h.01a2.907,2.907,0,0,0,2.193-1.491.713.713,0,0,1,1.159.83,4.208,4.208,0,0,1-3.353,2.087Zm-.1-4.624c11.033-.076,11.371-4.145,11.371-4.608v-.035a3.086,3.086,0,0,0-2.08-2.661,5.5,5.5,0,0,1-2.244-3.931c-.175-8.014-6.772-8.138-7.076-8.14-.281,0-6.877.124-7.052,8.116a5.443,5.443,0,0,1-2.245,3.955,3.088,3.088,0,0,0-2.08,2.661v.035c0,.464.34,4.534,11.389,4.608Zm-8.8-5.98a.7.7,0,0,0,.158-.073,6.842,6.842,0,0,0,2.983-5.152c.143-6.531,5.073-6.742,5.644-6.745s5.492.214,5.635,6.768a6.836,6.836,0,0,0,2.982,5.129.771.771,0,0,0,.155.071,1.736,1.736,0,0,1,1.186,1.36c-.042.253-.731,3.132-9.956,3.2h-.008c-9.372-.063-9.938-3.032-9.962-3.184A1.73,1.73,0,0,1,112.946,212.1Z" transform="translate(138.261 420.292)"/>
  </g>
</svg>
