<svg xmlns="http://www.w3.org/2000/svg" viewBox="0 0 24 24">
  <g transform="translate(-248 -619)">
    <path d="M175.048,389.276a.713.713,0,0,1-.025.792,4.208,4.208,0,0,1-3.353,2.087h-.009c-2.059,0-3.529-2-3.59-2.084a.712.712,0,0,1,.695-1.121l1.651.276a6.851,6.851,0,0,0,2.259,0l1.651-.276A.709.709,0,0,1,175.048,389.276Zm7.887-6.388a3.086,3.086,0,0,0-2.08-2.661,5.5,5.5,0,0,1-2.244-3.932c-.175-8.01-6.772-8.138-7.077-8.141-.281,0-6.878.13-7.052,8.114a5.5,5.5,0,0,1-2.246,3.957,3.088,3.088,0,0,0-2.08,2.661v.035c0,.464.34,4.534,11.384,4.609h.022c11.033-.076,11.372-4.145,11.374-4.609,0-.011,0-.024,0-.034Z" transform="translate(88.444 250.845)"/>
  </g>
</svg>
