<svg xmlns="http://www.w3.org/2000/svg" width="55.637" height="68" viewBox="0 0 55.637 68">
	<path d="M64.205,49c-1.769-2.638-4.19-6.255-4.19-16.543V27.819A21.668,21.668,0,0,0,44.56,7.093V6.182a6.182,6.182,0,1,0-12.364,0v.911A21.668,21.668,0,0,0,16.742,27.819v4.636c0,10.288-2.42,13.9-4.19,16.543-1.023,1.529-1.993,2.973-1.993,5.094,0,5.039,10.5,6.807,19.02,7.416a9.208,9.208,0,0,0,17.6,0C55.692,60.9,66.2,59.13,66.2,54.092,66.2,51.971,65.228,50.527,64.205,49ZM35.288,6.182a3.091,3.091,0,1,1,6.182,0v.247a19.478,19.478,0,0,0-6.182,0ZM38.379,64.91A6.128,6.128,0,0,1,32.986,61.7c2.19.092,4.092.117,5.393.117s3.2-.026,5.393-.117A6.129,6.129,0,0,1,38.379,64.91Zm0-6.182c-14.154,0-24.728-2.448-24.728-4.636,0-1.131.477-1.893,1.47-3.373,1.876-2.8,4.712-7.035,4.712-18.263V27.819a18.546,18.546,0,1,1,37.092,0v4.636c0,11.229,2.837,15.462,4.712,18.263.993,1.48,1.47,2.242,1.47,3.373C63.108,56.28,52.532,58.728,38.379,58.728Z" transform="translate(-10.559)"/>
</svg>