<svg viewBox="0 0 17 17" xmlns="http://www.w3.org/2000/svg">
<path d="M2.4987 5.16016C2.13051 5.16016 1.83203 5.45863 1.83203 5.82682V7.82682C1.83203 8.19501 2.13051 8.49349 2.4987 8.49349H7.16536C7.53356 8.49349 7.83203 8.19501 7.83203 7.82682V5.82682C7.83203 5.45863 7.53356 5.16016 7.16536 5.16016H2.4987Z" />
<path d="M9.16536 5.82682C9.16536 5.45863 9.46384 5.16016 9.83203 5.16016H14.4987C14.8669 5.16016 15.1654 5.45863 15.1654 5.82682V7.82682C15.1654 8.19501 14.8669 8.49349 14.4987 8.49349H9.83203C9.46384 8.49349 9.16536 8.19501 9.16536 7.82682V5.82682Z" />
<path d="M3.16536 9.82682C2.79717 9.82682 2.4987 10.1253 2.4987 10.4935V15.1602C2.4987 15.5283 2.79717 15.8268 3.16536 15.8268H7.16536C7.53356 15.8268 7.83203 15.5283 7.83203 15.1602V10.4935C7.83203 10.1253 7.53356 9.82682 7.16536 9.82682H3.16536Z" />
<path d="M9.83203 9.82682C9.46384 9.82682 9.16536 10.1253 9.16536 10.4935V15.1602C9.16536 15.5283 9.46384 15.8268 9.83203 15.8268H13.832C14.2002 15.8268 14.4987 15.5283 14.4987 15.1602V10.4935C14.4987 10.1253 14.2002 9.82682 13.832 9.82682H9.83203Z" />
<g opacity="0.5">
<path d="M4.73075 1.19025C4.40219 1.24755 4.0993 1.43556 3.93203 1.68599C3.74689 1.96316 3.64901 2.45588 3.71689 2.76889C3.88836 3.55948 4.8985 3.96515 6.30261 3.80736C7.21472 3.70485 7.7194 3.4938 7.90131 3.13877C7.96759 3.00943 7.9749 2.97623 7.96358 2.85623C7.94595 2.6695 7.85308 2.51242 7.63587 2.30192C7.33484 2.0102 6.95186 1.76296 6.41413 1.51319C5.74534 1.20257 5.22855 1.10341 4.73075 1.19025Z" />
<path d="M9.92837 1.86743C10.4877 1.51013 11.0501 1.27743 11.5677 1.18913C11.7816 1.15264 12.1951 1.16347 12.3698 1.21015C12.8898 1.34905 13.2097 1.73853 13.2933 2.3347C13.368 2.86769 13.1012 3.34341 12.5914 3.58604C12.1477 3.7972 11.4578 3.88569 10.7814 3.8182C9.83961 3.72423 9.24527 3.48187 9.08636 3.12698C8.91164 2.73677 9.16817 2.35303 9.92837 1.86743Z" />
</g>
</svg>
