<svg viewBox="0 0 22 22" xmlns="http://www.w3.org/2000/svg">
<path d="M10.9974 0.921875C9.00311 0.921875 7.0536 1.51325 5.3954 2.62122C3.73721 3.72919 2.4448 5.304 1.68162 7.14648C0.918431 8.98897 0.718748 11.0164 1.10782 12.9724C1.49688 14.9283 2.45723 16.725 3.86741 18.1352C5.27759 19.5454 7.07427 20.5057 9.03024 20.8948C10.9862 21.2839 13.0136 21.0842 14.8561 20.321C16.6986 19.5578 18.2734 18.2654 19.3814 16.6072C20.4894 14.949 21.0807 12.9995 21.0807 11.0052C21.0807 8.33094 20.0184 5.76621 18.1274 3.87522C16.2364 1.98422 13.6717 0.921875 10.9974 0.921875V0.921875ZM10.9974 2.83404C12.8216 2.8339 14.5929 3.44734 16.0262 4.57571L4.5679 16.034C3.6233 14.8289 3.03668 13.3824 2.87504 11.8597C2.71339 10.337 2.98325 8.79955 3.65377 7.42294C4.3243 6.04632 5.36847 4.88603 6.66703 4.07459C7.96558 3.26315 9.46617 2.83326 10.9974 2.83404ZM10.9974 19.1764C9.14835 19.1775 7.35416 18.5483 5.91082 17.3925L17.3847 5.91863C18.3439 7.12045 18.9442 8.56869 19.1165 10.0966C19.2888 11.6246 19.0261 13.1702 18.3588 14.5554C17.6914 15.9407 16.6464 17.1093 15.3441 17.9268C14.0417 18.7443 12.535 19.1775 10.9974 19.1764Z"/>
</svg>
