<svg viewBox="0 0 20 20" xmlns="http://www.w3.org/2000/svg">
    <path
        d="M9.99935 18.3334C8.84657 18.3334 7.76324 18.1147 6.74935 17.6772C5.73546 17.2397 4.85352 16.6459 4.10352 15.8959C3.35352 15.1459 2.75977 14.264 2.32227 13.2501C1.88477 12.2362 1.66602 11.1529 1.66602 10.0001C1.66602 8.8473 1.88477 7.76397 2.32227 6.75008C2.75977 5.73619 3.35352 4.85425 4.10352 4.10425C4.85352 3.35425 5.73546 2.7605 6.74935 2.323C7.76324 1.8855 8.84657 1.66675 9.99935 1.66675C11.1521 1.66675 12.2355 1.8855 13.2493 2.323C14.2632 2.7605 15.1452 3.35425 15.8952 4.10425C16.6452 4.85425 17.2389 5.73619 17.6764 6.75008C18.1139 7.76397 18.3327 8.8473 18.3327 10.0001C18.3327 11.1529 18.1139 12.2362 17.6764 13.2501C17.2389 14.264 16.6452 15.1459 15.8952 15.8959C15.1452 16.6459 14.2632 17.2397 13.2493 17.6772C12.2355 18.1147 11.1521 18.3334 9.99935 18.3334ZM9.99935 16.6667C11.8605 16.6667 13.4368 16.0209 14.7285 14.7292C16.0202 13.4376 16.666 11.8612 16.666 10.0001C16.666 9.25008 16.5445 8.52786 16.3014 7.83341C16.0584 7.13897 15.7077 6.50008 15.2493 5.91675L5.91602 15.2501C6.49935 15.7084 7.13824 16.0591 7.83268 16.3022C8.52713 16.5452 9.24935 16.6667 9.99935 16.6667ZM4.74935 14.0834L14.0827 4.75008C13.4993 4.29175 12.8605 3.94105 12.166 3.698C11.4716 3.45494 10.7493 3.33341 9.99935 3.33341C8.13824 3.33341 6.56185 3.97925 5.27018 5.27091C3.97852 6.56258 3.33268 8.13897 3.33268 10.0001C3.33268 10.7501 3.45421 11.4723 3.69727 12.1667C3.94032 12.8612 4.29102 13.5001 4.74935 14.0834Z" />
</svg>