<svg xmlns="http://www.w3.org/2000/svg" viewBox="0 0 24 24">
  <g transform="translate(-311 -210)">
    <rect width="24" height="24" transform="translate(311 210)" fill="none"/>
    <g transform="translate(312.4 211)">
      <path d="M366.376,3.5l-8.771-4.948a1.829,1.829,0,0,0-1.812.008L347,3.624a1.829,1.829,0,0,0-.917,1.585v8.272a1.829,1.829,0,0,0,.923,1.589l8.782,5a1.829,1.829,0,0,0,1.811,0l8.781-4.994a1.829,1.829,0,0,0,.925-1.59v-8.4a1.829,1.829,0,0,0-.932-1.593Zm-9.682,5.686L353.521,7.43l8.218-4.655,3.187,1.8Zm-.079-9.2a.183.183,0,0,1,.181,0l3.269,1.843-8.234,4.665-3.321-1.838Zm-8.789,13.654a.183.183,0,0,1-.091-.159V6.108l8.14,4.506v7.614Zm17.742.011-8.048,4.578V10.61l8.14-4.564v7.445a.183.183,0,0,1-.093.16Z" transform="translate(-346.087 1.684)" />
      <path d="M367.631,57.1l-2.8-1.588a.823.823,0,0,0-.812,1.432l2.8,1.588a.823.823,0,0,0,.812-1.432Z" transform="translate(-360.396 -44.959)" />
    </g>
  </g>
</svg>
