<svg viewBox="0 0 45 48" xmlns="http://www.w3.org/2000/svg">
<path d="M25.1619 9.4103C19.399 6.39829 14.684 3.91076 14.684 3.88236L21.4533 0.457052C22.0212 0.169706 22.6919 0.169787 23.2597 0.457269L33.631 5.70831L43.6327 10.7956C44.3036 11.1368 44.726 11.8258 44.726 12.5784L44.7251 23.9235L44.7271 35.3339C44.7272 36.0853 44.3061 36.7734 43.637 37.1152L33.1288 42.4838L23.1242 47.5414C22.5542 47.8296 21.8808 47.8282 21.312 47.5376L11.1595 42.3508L1.11113 37.2337C0.444621 36.8943 0.0232579 36.2147 0.0198006 35.4667C0.00997403 33.3408 -0.00707839 28.7026 0.00316547 23.8034V12.7143C0.00316547 11.9759 0.410017 11.2976 1.06144 10.9499L9.27653 6.5652L19.967 12.1821L30.6573 17.7991L30.6604 23.5732C30.6637 29.8783 30.6604 29.9174 30.6604 29.9174L35.9555 27.3202C35.9555 27.3202 35.9594 26.7163 35.9594 21.1545V15.0796C35.9594 15.0796 30.9248 12.4222 25.1619 9.4103Z"/>
</svg>
