<svg viewBox="0 0 60 60" xmlns="http://www.w3.org/2000/svg">
<path fill-rule="evenodd" clip-rule="evenodd" d="M32.7423 5.63864C31.5584 3.45379 28.4416 3.45379 27.2577 5.63864L20.8576 17.4507C20.4084 18.2798 19.6126 18.8617 18.6903 19.0356L5.55148 21.5121C3.12122 21.9702 2.15806 24.9538 3.85668 26.7622L13.04 36.5389C13.6846 37.2252 13.9886 38.1668 13.8678 39.1034L12.1477 52.446C11.8296 54.9139 14.3512 56.7579 16.5848 55.6907L28.6605 49.921C29.5082 49.516 30.4918 49.516 31.3395 49.921L43.4152 55.6907C45.6488 56.7579 48.1704 54.9139 47.8523 52.446L46.1322 39.1034C46.0114 38.1668 46.3154 37.2252 46.96 36.5389L56.1433 26.7622C57.8419 24.9538 56.8788 21.9702 54.4485 21.5121L41.3097 19.0356C40.3874 18.8617 39.5916 18.2798 39.1424 17.4507L32.7423 5.63864ZM27.2917 34.1611C27.4037 34.9879 28.1029 35.6016 28.9328 35.6016H29.3855C29.9293 35.6016 30.3982 35.2105 30.5 34.6722C30.5863 34.2155 30.9424 33.8609 31.3894 33.7434C34.5524 32.9124 36.1442 31.1183 36.1648 28.361C36.1785 26.5371 35.5771 25.1184 34.3607 24.1051C33.1443 23.0918 31.516 22.5851 29.476 22.5851C27.3704 22.5851 25.5314 23.1786 23.959 24.3656C23.1524 24.9744 23.1582 26.1417 23.8339 26.8847C24.568 27.6919 25.8088 27.6785 26.7668 27.145C27.5938 26.6844 28.4594 26.4542 29.3636 26.4542C30.1796 26.4542 30.8088 26.6292 31.2513 26.9792C31.6939 27.3109 31.9129 27.7899 31.9082 28.4163C31.8964 29.9867 30.2958 30.8423 27.1064 30.9828C27.0519 30.9853 26.9989 31.0078 26.9598 31.0465C26.9099 31.0956 26.8861 31.1655 26.8954 31.2348L27.2917 34.1611ZM26.5361 39.9681C26.5269 41.1892 27.503 42.179 28.7161 42.179H28.8295C30.0427 42.179 31.0335 41.1892 31.0427 39.9681C31.0518 38.7471 30.0758 37.7572 28.8626 37.7572H28.7492C27.5361 37.7572 26.5452 38.7471 26.5361 39.9681Z" />
</svg>
