<svg xmlns="http://www.w3.org/2000/svg" viewBox="0 0 117.059 129.218">
    <path
        d="M-43.471,67.716A33.024,33.024,0,0,0-76.495,100.74a33.024,33.024,0,0,0,33.024,33.024A33.024,33.024,0,0,0-10.447,100.74,33.024,33.024,0,0,0-43.471,67.716Zm0,61.048A28.055,28.055,0,0,1-71.495,100.74,28.055,28.055,0,0,1-43.471,72.716,28.055,28.055,0,0,1-15.447,100.74,28.055,28.055,0,0,1-43.471,128.764Zm9.7-19.774a2.5,2.5,0,0,1,0,3.536,2.5,2.5,0,0,1-3.536,0l-8.291-8.292a2.492,2.492,0,0,1-.732-1.774V87.325a2.5,2.5,0,0,1,2.5-2.5,2.5,2.5,0,0,1,2.5,2.5v14.106Zm-50.226,6.556h-32.921a5.59,5.59,0,0,1-5.59-5.59V41.233h93.735V60.216a2.5,2.5,0,0,0,2.5,2.5,2.5,2.5,0,0,0,2.5-2.5V38.734h0V27.514a10.7,10.7,0,0,0-10.7-10.7H-47.423V7.189a2.6,2.6,0,0,0-2.242-2.63,2.5,2.5,0,0,0-2.758,2.487v9.765H-98.777V7.189a2.6,2.6,0,0,0-2.242-2.63,2.5,2.5,0,0,0-2.758,2.487v9.765h-13.139a10.59,10.59,0,0,0-10.59,10.59v82.555a10.59,10.59,0,0,0,10.59,10.59h32.921a2.5,2.5,0,0,0,2.5-2.5A2.5,2.5,0,0,0-83.995,115.546ZM-122.506,27.4a5.59,5.59,0,0,1,5.59-5.59h82.442a5.7,5.7,0,0,1,5.7,5.7v8.719h-93.735Z"
        transform="translate(127.506 -4.546)" />
</svg>