<svg xmlns="http://www.w3.org/2000/svg" viewBox="0 0 24 24">
  <g transform="translate(-517 -729)">
    <path d="M99.115,321.107h-2.29v-2.292a.728.728,0,1,0-1.457,0v2.292H85.335v-2.292a.728.728,0,1,0-1.457,0v2.292H81.593a2.242,2.242,0,0,0-2.239,2.239V339.5a2.241,2.241,0,0,0,2.239,2.239H99.115a2.241,2.241,0,0,0,2.239-2.239V323.345A2.241,2.241,0,0,0,99.115,321.107Zm-17.521,1.457H99.115a.783.783,0,0,1,.782.782v2.435H80.811v-2.435a.783.783,0,0,1,.782-.782Zm17.521,17.721H81.593a.783.783,0,0,1-.782-.782V327.237H99.9V339.5A.783.783,0,0,1,99.115,340.284Z" transform="translate(438.646 410.914)"/>
  </g>
</svg>
