<svg viewBox="0 0 20 20" xmlns="http://www.w3.org/2000/svg">
<mask id="mask0_5275_2116" style="mask-type:alpha" maskUnits="userSpaceOnUse" x="0" y="0" width="20" height="20">
<rect width="20" height="20" fill="#D9D9D9"/>
</mask>
<g mask="url(#mask0_5275_2116)">
<path d="M14.1667 18.3346V15.8346H11.6667V14.168H14.1667V11.668H15.8333V14.168H18.3333V15.8346H15.8333V18.3346H14.1667ZM4.16667 16.668C3.70833 16.668 3.31583 16.5049 2.98917 16.1788C2.66306 15.8521 2.5 15.4596 2.5 15.0013V5.0013C2.5 4.54297 2.66306 4.15075 2.98917 3.82464C3.31583 3.49797 3.70833 3.33464 4.16667 3.33464H5V1.66797H6.66667V3.33464H11.6667V1.66797H13.3333V3.33464H14.1667C14.625 3.33464 15.0175 3.49797 15.3442 3.82464C15.6703 4.15075 15.8333 4.54297 15.8333 5.0013V10.0846C15.5556 10.043 15.2778 10.0221 15 10.0221C14.7222 10.0221 14.4444 10.043 14.1667 10.0846V8.33464H4.16667V15.0013H10C10 15.2791 10.0208 15.5569 10.0625 15.8346C10.1042 16.1124 10.1806 16.3902 10.2917 16.668H4.16667ZM4.16667 6.66797H14.1667V5.0013H4.16667V6.66797Z"/>
</g>
</svg>
