<svg xmlns="http://www.w3.org/2000/svg" width="24" height="21.972" viewBox="0 0 24 21.972"><path d="M0,.973A.973.973,0,0,1,.973,0H22.982a.973.973,0,1,1,0,1.945H.973A.973.973,0,0,1,0,.973ZM23.027,20.027H1.018a.973.973,0,0,0,0,1.945H23.027a.973.973,0,1,0,0-1.945ZM24,16.384c0,.007,0,.013,0,.019a.973.973,0,0,1-.973.973H1.018a.963.963,0,0,1-.584-.2A.971.971,0,0,1,0,16.368V5.713A.973.973,0,0,1,.973,4.74l.023,0,.023,0H23.027A.973.973,0,0,1,24,5.713V16.368C24,16.374,24,16.379,24,16.384ZM1.945,15.431H22.054V6.685H1.945Z"/></svg>