<svg viewBox="0 0 20 20" xmlns="http://www.w3.org/2000/svg">
    <path
        d="M3.33268 16.6666C2.87435 16.6666 2.48199 16.5034 2.1556 16.177C1.82921 15.8506 1.66602 15.4583 1.66602 14.9999V4.99992C1.66602 4.54159 1.82921 4.14922 2.1556 3.82284C2.48199 3.49645 2.87435 3.33325 3.33268 3.33325H16.666C17.1243 3.33325 17.5167 3.49645 17.8431 3.82284C18.1695 4.14922 18.3327 4.54159 18.3327 4.99992V14.9999C18.3327 15.4583 18.1695 15.8506 17.8431 16.177C17.5167 16.5034 17.1243 16.6666 16.666 16.6666H3.33268ZM10.8327 14.9999H12.916V4.99992H10.8327V14.9999ZM7.08268 14.9999H9.16602V4.99992H7.08268V14.9999ZM3.33268 14.9999H5.41602V4.99992H3.33268V14.9999ZM14.5827 14.9999H16.666V4.99992H14.5827V14.9999Z" />
</svg>