<svg xmlns="http://www.w3.org/2000/svg" width="12.989" height="14" viewBox="0 0 12.989 14">
<path d="M16.284,1.011H13.562V.664a.664.664,0,1,0-1.328,0v.347H9.064V.664A.664.664,0,0,0,8.4,0h0a.664.664,0,0,0-.664.664v.347H4.985a.845.845,0,0,0-.845.845v11.3A.845.845,0,0,0,4.985,14h11.3a.845.845,0,0,0,.845-.845V1.856a.845.845,0,0,0-.845-.845ZM7.737,2.338v.352a.664.664,0,0,0,.664.664h0a.664.664,0,0,0,.664-.664V2.338h3.17v.352a.664.664,0,1,0,1.328,0V2.338H15.8V5.758H5.468V2.338ZM5.468,12.672V7.085H15.8v5.587Z" transform="translate(-4.14)"/></svg>