<svg xmlns="http://www.w3.org/2000/svg" viewBox="0 0 103.735 116">
    <path
        d="M103.732 34.185V22.966a10.7 10.7 0 00-10.7-10.7H80.083V2.5a2.5 2.5 0 00-5 0v9.766H28.73V2.5a2.5 2.5 0 00-5 0v9.766H10.591A10.59 10.59 0 000 22.856v82.555A10.591 10.591 0 0010.591 116h82.554a10.59 10.59 0 0010.591-10.588V34.186zM10.587 17.264h82.442a5.709 5.709 0 015.7 5.7v8.719H4.994v-8.829a5.59 5.59 0 015.59-5.59zM93.142 111H10.587a5.591 5.591 0 01-5.59-5.588V36.685h93.735v68.724a5.589 5.589 0 01-5.589 5.589z" />
</svg>