<svg viewBox="0 0 24 24" xmlns="http://www.w3.org/2000/svg">
<path d="M20.4209 9.78149C20.4209 10.0491 20.3147 10.3059 20.1255 10.4951C19.9363 10.6843 19.6795 10.7905 19.4119 10.7905H4.55981C4.29208 10.7905 4.03551 10.6842 3.84619 10.4949C3.65687 10.3056 3.55054 10.0487 3.55054 9.78101C3.55054 9.51327 3.65687 9.25646 3.84619 9.06714C4.03551 8.87782 4.29208 8.77148 4.55981 8.77148H19.4119C19.5445 8.77148 19.6759 8.79762 19.7983 8.84839C19.9208 8.89916 20.032 8.97358 20.1257 9.06738C20.2194 9.16118 20.2938 9.27249 20.3445 9.39502C20.3951 9.51755 20.421 9.64891 20.4209 9.78149ZM23.0688 7.05664V20.4514C23.0675 21.3924 22.6931 22.2947 22.0276 22.96C21.3621 23.6253 20.4601 23.9994 19.519 24.0005H4.54883C3.6079 23.9994 2.70586 23.6253 2.04053 22.96C1.37519 22.2946 1.00106 21.3923 1 20.4514V7.05664C1.00053 6.21855 1.3338 5.41479 1.92651 4.82227C2.51923 4.22974 3.32279 3.89675 4.16089 3.89648H5.41602V1.00952C5.41602 0.741785 5.52235 0.484972 5.71167 0.295654C5.90099 0.106336 6.1578 0 6.42554 0C6.69327 0 6.94984 0.106336 7.13916 0.295654C7.32848 0.484972 7.43481 0.741785 7.43481 1.00952V3.89648H16.635V1.00952C16.635 0.741918 16.7412 0.485367 16.9304 0.296143C17.1196 0.106918 17.3764 0.000488281 17.644 0.000488281C17.9116 0.000488281 18.1682 0.106918 18.3574 0.296143C18.5466 0.485367 18.6528 0.741918 18.6528 1.00952V3.89648H19.9128C20.7502 3.89675 21.5534 4.22914 22.146 4.8208C22.7386 5.41247 23.0724 6.21509 23.074 7.05249L23.0688 7.05664ZM21.0498 7.05664C21.0493 6.75393 20.9289 6.46356 20.7148 6.24951C20.5008 6.03546 20.2107 5.91508 19.908 5.91455H4.16089C3.85817 5.91508 3.56806 6.03546 3.354 6.24951C3.13995 6.46356 3.01957 6.75393 3.01904 7.05664V20.4514C3.01931 20.8574 3.18047 21.2469 3.46753 21.5339C3.75459 21.821 4.14384 21.9822 4.5498 21.9824H19.52C19.9259 21.9819 20.3148 21.8205 20.6018 21.5334C20.8888 21.2464 21.0505 20.8573 21.051 20.4514L21.0498 7.05664Z" />
</svg>
