<svg xmlns="http://www.w3.org/2000/svg" viewBox="0 0 24 24">
  <g transform="translate(-545 -742)">
    <path d="M188.671,222.965h-2.29v-2.292a.728.728,0,0,0-1.457,0v2.292H174.892v-2.292a.728.728,0,0,0-1.457,0v2.292h-2.286a2.242,2.242,0,0,0-2.239,2.239v16.157a2.241,2.241,0,0,0,2.239,2.239h7.07a.728.728,0,1,0,0-1.457h-7.07a.783.783,0,0,1-.782-.782V229.1h19.086v2.245a.728.728,0,0,0,1.457,0V225.2A2.242,2.242,0,0,0,188.671,222.965Zm-18.3,4.674V225.2a.783.783,0,0,1,.782-.782h17.522a.783.783,0,0,1,.782.782v2.435Zm20.395,8.546-5.414,7.129a.727.727,0,0,1-.518.285l-.062,0a.729.729,0,0,1-.5-.2l-3.321-3.1a.728.728,0,1,1,1-1.064l2.729,2.552L189.6,235.3a.728.728,0,1,1,1.16.881Z" transform="translate(377.09 522.156)"/>
  </g>
</svg>
