<svg xmlns="http://www.w3.org/2000/svg" viewBox="0 0 19.629 17.09">
  <path d="M17.715,13.386H1.913A1.913,1.913,0,0,0,0,15.3V26.2a1.914,1.914,0,0,0,1.913,1.914h15.8A1.914,1.914,0,0,0,19.629,26.2V15.3A1.913,1.913,0,0,0,17.715,13.386Zm.9,13.029c0,.3-.416.508-.721.508H1.9c-.3,0-.721-.2-.721-.508V15.079c0-.3.416-.508.721-.508H17.893c.3,0,.721.2.721.508ZM9.984,16.263a4.716,4.716,0,0,0-4.738,4.569,4.569,4.569,0,0,0,9.137,0A4.427,4.427,0,0,0,9.984,16.263Zm-.169,7.953A3.384,3.384,0,1,1,13.2,20.832a3.384,3.384,0,0,1-3.384,3.384Zm4.23-11.337c-.338-1.015-.963-1.858-1.942-1.858H7.526c-.979,0-1.6.843-1.942,1.858l-.677,1.692h9.814Zm-4.23,1.186H6.33l.439-1.017c.242-.533.427-.846,1.015-.846h4.061c.588,0,.773.313,1.015.846l.439,1.017Z" transform="translate(0 -11.021)" />
</svg>
