<svg viewBox="0 0 20 20" xmlns="http://www.w3.org/2000/svg">
    <g>
        <path
            d="M7 14.1667L10 11.1667L13 14.1667L14.1667 13L11.1667 10L14.1667 7L13 5.83333L10 8.83333L7 5.83333L5.83333 7L8.83333 10L5.83333 13L7 14.1667ZM4.16667 17.5C3.70833 17.5 3.31583 17.3369 2.98917 17.0108C2.66306 16.6842 2.5 16.2917 2.5 15.8333V4.16667C2.5 3.70833 2.66306 3.31583 2.98917 2.98917C3.31583 2.66306 3.70833 2.5 4.16667 2.5H15.8333C16.2917 2.5 16.6842 2.66306 17.0108 2.98917C17.3369 3.31583 17.5 3.70833 17.5 4.16667V15.8333C17.5 16.2917 17.3369 16.6842 17.0108 17.0108C16.6842 17.3369 16.2917 17.5 15.8333 17.5H4.16667ZM4.16667 15.8333H15.8333V4.16667H4.16667V15.8333Z" />
    </g>
</svg>