<svg viewBox="0 0 40 40" xmlns="http://www.w3.org/2000/svg">
    <g>
        <path
            d="M13.9987 28.334L19.9987 22.334L25.9987 28.334L28.332 26.0007L22.332 20.0007L28.332 14.0007L25.9987 11.6673L19.9987 17.6673L13.9987 11.6673L11.6654 14.0007L17.6654 20.0007L11.6654 26.0007L13.9987 28.334ZM19.9987 36.6673C17.6931 36.6673 15.5265 36.2295 13.4987 35.354C11.4709 34.4795 9.70703 33.2923 8.20703 31.7923C6.70703 30.2923 5.51981 28.5284 4.64536 26.5007C3.76981 24.4729 3.33203 22.3062 3.33203 20.0007C3.33203 17.6951 3.76981 15.5284 4.64536 13.5007C5.51981 11.4729 6.70703 9.70898 8.20703 8.20898C9.70703 6.70898 11.4709 5.52121 13.4987 4.64565C15.5265 3.77121 17.6931 3.33398 19.9987 3.33398C22.3043 3.33398 24.4709 3.77121 26.4987 4.64565C28.5265 5.52121 30.2904 6.70898 31.7904 8.20898C33.2904 9.70898 34.4776 11.4729 35.352 13.5007C36.2276 15.5284 36.6654 17.6951 36.6654 20.0007C36.6654 22.3062 36.2276 24.4729 35.352 26.5007C34.4776 28.5284 33.2904 30.2923 31.7904 31.7923C30.2904 33.2923 28.5265 34.4795 26.4987 35.354C24.4709 36.2295 22.3043 36.6673 19.9987 36.6673ZM19.9987 33.334C23.7209 33.334 26.8737 32.0423 29.457 29.459C32.0404 26.8756 33.332 23.7229 33.332 20.0007C33.332 16.2784 32.0404 13.1257 29.457 10.5423C26.8737 7.95898 23.7209 6.66732 19.9987 6.66732C16.2765 6.66732 13.1237 7.95898 10.5404 10.5423C7.95703 13.1257 6.66536 16.2784 6.66536 20.0007C6.66536 23.7229 7.95703 26.8756 10.5404 29.459C13.1237 32.0423 16.2765 33.334 19.9987 33.334Z" />
    </g>
</svg>