<svg viewBox="0 0 20 20" xmlns="http://www.w3.org/2000/svg">
    <g>
        <path
            d="M9.17318 7.49479V4.99479H6.67318V3.32812H9.17318V0.828125H10.8398V3.32812H13.3398V4.99479H10.8398V7.49479H9.17318ZM5.83984 18.3281C5.38151 18.3281 4.98929 18.1651 4.66318 17.839C4.33651 17.5123 4.17318 17.1198 4.17318 16.6615C4.17318 16.2031 4.33651 15.8106 4.66318 15.484C4.98929 15.1578 5.38151 14.9948 5.83984 14.9948C6.29818 14.9948 6.6904 15.1578 7.01651 15.484C7.34318 15.8106 7.50651 16.2031 7.50651 16.6615C7.50651 17.1198 7.34318 17.5123 7.01651 17.839C6.6904 18.1651 6.29818 18.3281 5.83984 18.3281ZM14.1732 18.3281C13.7148 18.3281 13.3226 18.1651 12.9965 17.839C12.6698 17.5123 12.5065 17.1198 12.5065 16.6615C12.5065 16.2031 12.6698 15.8106 12.9965 15.484C13.3226 15.1578 13.7148 14.9948 14.1732 14.9948C14.6315 14.9948 15.024 15.1578 15.3507 15.484C15.6768 15.8106 15.8398 16.2031 15.8398 16.6615C15.8398 17.1198 15.6768 17.5123 15.3507 17.839C15.024 18.1651 14.6315 18.3281 14.1732 18.3281ZM5.83984 14.1615C5.21484 14.1615 4.73568 13.887 4.40234 13.3381C4.06901 12.7898 4.06207 12.2448 4.38151 11.7031L5.50651 9.66146L2.50651 3.32812H0.839844V1.66146H3.56901L7.11068 9.16146H12.9648L16.194 3.32812L17.6523 4.11979L14.4232 9.95312C14.2704 10.2309 14.069 10.4462 13.819 10.599C13.569 10.7517 13.2843 10.8281 12.9648 10.8281H6.75651L5.83984 12.4948H15.8398V14.1615H5.83984Z" />
    </g>
</svg>