<svg xmlns="http://www.w3.org/2000/svg" viewBox="0 0 18.157 19.012">
  <path d="M7.034,2.591h0a.574.574,0,0,1,.027.811L4.852,5.761a.563.563,0,0,1-.148.111l-.034.02-.008,0a.572.572,0,0,1-.608-.063L2.84,4.872a.574.574,0,1,1,.711-.9l.807.638L6.223,2.617a.574.574,0,0,1,.811-.027ZM6.224,12.8,4.36,14.794l-.807-.638a.574.574,0,0,0-.806.094h0a.574.574,0,0,0,.094.806l1.214.96a.572.572,0,0,0,.608.063l.008,0,.035-.02a.566.566,0,0,0,.148-.111l2.209-2.36a.574.574,0,1,0-.838-.784Zm.995-1.806a.574.574,0,0,1-.574.574H3.254a.574.574,0,0,1-.574-.574h0V7.6a.574.574,0,0,1,.574-.574h3.39a.574.574,0,0,1,.574.574V11ZM3.828,8.178v2.243H6.071V8.178ZM9.187,4.763h5.927a.574.574,0,0,0,0-1.147H9.188a.574.574,0,0,0,0,1.147Zm0,5.111h5.927a.574.574,0,0,0,0-1.147H9.188a.574.574,0,0,0,0,1.147ZM13.7,0H4.453A4.453,4.453,0,0,0,0,4.453V14.559a4.453,4.453,0,0,0,4.453,4.453h6.812a.492.492,0,0,0,.492-.492v-.164a.492.492,0,0,0-.492-.492H4.579A3.483,3.483,0,0,1,1.1,14.382V4.63A3.483,3.483,0,0,1,4.579,1.147h9A3.483,3.483,0,0,1,17.061,4.63v6.686a.492.492,0,0,0,.492.492h.111a.492.492,0,0,0,.493-.493V4.453A4.453,4.453,0,0,0,13.7,0Zm3.574,14.746H15.491V12.959a.574.574,0,1,0-1.147,0v1.787H12.557a.574.574,0,0,0,0,1.147h1.787v1.788a.574.574,0,0,0,1.147,0V15.893h1.788a.574.574,0,0,0,0-1.147Z" />
</svg>
