<svg xmlns="http://www.w3.org/2000/svg" viewBox="0 0 21 21">
  <g transform="translate(1161 -1493)">
    <path d="M414.991,272.366h-7.746v-1.259a.775.775,0,0,0-.988-.745l-9.491,2.711a.775.775,0,0,0-.562.744v14.029a.775.775,0,0,0,.562.745l9.491,2.711a.775.775,0,0,0,.988-.744V289.3h7.746a.678.678,0,0,0,.678-.678V273.044A.678.678,0,0,0,414.991,272.366Zm-9.3,17.166-7.942-2.269V274.4l7.942-2.269Zm8.617-1.588h-7.067v-4.2l3.79.039h.007a.678.678,0,1,0,.007-1.356l-3.8-.039v-3.135l3.792.029h.005a.678.678,0,1,0,0-1.356l-3.8-.029v-4.172h7.068Z" transform="translate(-1556.205 1222.667)"/>
  </g>
</svg>
