<svg viewBox="0 0 60 60" xmlns="http://www.w3.org/2000/svg">
    <g>
        <path
            d="M14.1203 33.6312C14.3504 35.319 15.787 36.5719 17.4922 36.5719H18.4225C19.5397 36.5719 20.5033 35.7734 20.7124 34.6744C20.8897 33.7423 21.6213 33.0183 22.5399 32.7786C29.0389 31.0821 32.3096 27.4195 32.3521 21.7909C32.3801 18.0675 31.1445 15.1715 28.6451 13.1029C26.1457 11.0343 22.8001 10 18.6084 10C14.282 10 10.5033 11.2115 7.27247 13.6346C5.61519 14.8776 5.62708 17.2604 7.01552 18.7772C8.52384 20.425 11.0734 20.3975 13.0417 19.3085C14.741 18.3683 16.5195 17.8982 18.3774 17.8982C20.0541 17.8982 21.347 18.2555 22.2561 18.9701C23.1656 19.6471 23.6155 20.625 23.6058 21.9038C23.5816 25.1096 20.2929 26.8561 13.7396 27.1431C13.6275 27.148 13.5188 27.1941 13.4383 27.2729C13.3359 27.3733 13.2868 27.5159 13.3061 27.6573L14.1203 33.6312Z"/>
        <path
            d="M12.5677 45.4856C12.5489 47.9782 14.5544 49.9989 17.047 49.9989H17.2801C19.7727 49.9989 21.8087 47.9782 21.8275 45.4856C21.8463 42.993 19.8408 40.9723 17.3481 40.9723H17.1151C14.6224 40.9723 12.5865 42.993 12.5677 45.4856Z"/>
        <path
            d="M32.0077 42C29.7986 42 28.0077 43.7909 28.0077 46C28.0077 48.2091 29.7986 50 32.0077 50L50.0077 50C52.2169 50 54.0077 48.2091 54.0077 46C54.0077 43.7909 52.2169 42 50.0077 42L32.0077 42Z"/>
        <path
            d="M34.0077 34C34.0077 31.7909 35.7986 30 38.0077 30L50.0077 30C52.2169 30 54.0077 31.7909 54.0077 34C54.0077 36.2091 52.2169 38 50.0077 38L38.0077 38C35.7986 38 34.0077 36.2091 34.0077 34Z"/>
        <path
            d="M43.0077 18C40.7986 18 39.0077 19.7909 39.0077 22C39.0077 24.2091 40.7986 26 43.0077 26L50.0077 26C52.2169 26 54.0077 24.2091 54.0077 22C54.0077 19.7909 52.2169 18 50.0077 18L43.0077 18Z"/>
    </g>
</svg>
