<svg xmlns="http://www.w3.org/2000/svg" viewBox="0 0 116.004 114.41">
	<path d="M44.325,61.134a3.5,3.5,0,0,1-2.549,4.243h0l-19.3,4.813a3.5,3.5,0,0,1-1.7-6.789l19.3-4.812A3.5,3.5,0,0,1,44.325,61.134ZM31.939,79.168,20.77,81.952a3.5,3.5,0,1,0,1.694,6.793L33.632,85.96a3.5,3.5,0,1,0-1.645-6.8ZM22.464,51.952l19.282-4.808a3.5,3.5,0,0,0-1.694-6.792L20.77,45.16a3.5,3.5,0,0,0,1.694,6.792Zm0-18.233,19.282-4.808A3.5,3.5,0,0,0,44.3,24.668h0a3.5,3.5,0,0,0-4.243-2.549h0L20.77,26.927a3.5,3.5,0,1,0,1.694,6.792Zm93.538-7v74.672a13.1,13.1,0,0,1-11.614,13.019,22.032,22.032,0,0,1-6.116-.907l-38.4-10.332a7.344,7.344,0,0,0-3.73,0L17.732,113.5a22.032,22.032,0,0,1-6.116.907A13.1,13.1,0,0,1,0,101.391V26.715A16.775,16.775,0,0,1,13.016,10.121L46.2,1.47a48.1,48.1,0,0,1,23.6,0l33.187,8.651A16.775,16.775,0,0,1,116,26.715Zm-7,1.147c0-4-1.653-8.9-7.162-10.741l-31.76-8.5a47.982,47.982,0,0,0-24.156,0l-31.76,8.5C8.655,18.962,7,23.858,7,27.862v72.382a7.219,7.219,0,0,0,.7,3.108c1.469,3.091,3.532,4.487,8.667,3.311L54.5,96.615V19.89a3.5,3.5,0,1,1,7,0V96.615l38.135,10.048c5.135,1.176,7.2-.22,8.667-3.311a7.219,7.219,0,0,0,.7-3.108Z"/>
</svg>