<svg 
	xmlns="http://www.w3.org/2000/svg" 
	viewBox="0 0 110.789 116"
>
	<path d="M19.752,24.81a3.5,3.5,0,0,1,4.916-.575l4.924,3.894L40.972,15.97a3.5,3.5,0,0,1,4.947-.164h0a3.5,3.5,0,0,1,.164,4.947l-13.477,14.4a3.434,3.434,0,0,1-.9.676c-.07.042-.138.083-.21.12l-.05.021a3.493,3.493,0,0,1-3.711-.385l-7.407-5.858A3.5,3.5,0,0,1,19.752,24.81Zm21.223,53.3L29.6,90.266l-4.924-3.894a3.5,3.5,0,0,0-4.916.575h0a3.5,3.5,0,0,0,.574,4.916l7.408,5.858a3.49,3.49,0,0,0,3.711.385l.049-.021c.072-.037.141-.078.211-.12a3.456,3.456,0,0,0,.9-.676l13.477-14.4a3.5,3.5,0,1,0-5.111-4.783ZM47.043,46.4V67.086h0a3.5,3.5,0,0,1-3.5,3.5H22.857a3.5,3.5,0,0,1-3.5-3.5h0V46.4a3.5,3.5,0,0,1,3.5-3.5H43.543A3.5,3.5,0,0,1,47.043,46.4ZM26.357,49.9V63.586H40.043V49.9ZM95.221,22.061H59.06a3.5,3.5,0,0,0,0,7H95.221a3.5,3.5,0,0,0,0-7Zm0,31.182H59.06a3.5,3.5,0,0,0,0,7H95.221a3.5,3.5,0,0,0,0-7Zm0,30.955H59.06a3.5,3.5,0,1,0,0,7H95.221a3.5,3.5,0,0,0,0-7ZM113.789,27.08V88.92A27.08,27.08,0,0,1,86.709,116H30.08A27.08,27.08,0,0,1,3,88.92V27.08A27.08,27.08,0,0,1,30.08,0H86.709A27.08,27.08,0,0,1,113.789,27.08ZM107.1,28.3A21.3,21.3,0,0,0,85.806,7H30.941a21.3,21.3,0,0,0-21.3,21.3V87.7a21.3,21.3,0,0,0,21.3,21.3H85.806a21.3,21.3,0,0,0,21.3-21.3Z" transform="translate(-3)"/>
</svg>
