<svg viewBox="0 0 24 24" xmlns="http://www.w3.org/2000/svg">
<path d="M10.1215 17.7696L7.52953 20.3626C7.01094 20.8636 6.31631 21.1409 5.59527 21.1348C4.87423 21.1286 4.18446 20.8394 3.67452 20.3296C3.16458 19.8198 2.87528 19.1301 2.86892 18.4091C2.86256 17.6881 3.13966 16.9934 3.64053 16.4746L8.82653 11.2887C9.0818 11.0333 9.38487 10.8308 9.71842 10.6926C10.052 10.5544 10.4095 10.4833 10.7705 10.4833C11.1316 10.4833 11.4891 10.5544 11.8226 10.6926C12.1562 10.8308 12.4593 11.0333 12.7145 11.2887C12.7999 11.374 12.9012 11.4417 13.0127 11.4879C13.1243 11.5341 13.2438 11.5579 13.3645 11.5579C13.4852 11.5579 13.6048 11.5341 13.7163 11.4879C13.8278 11.4417 13.9292 11.374 14.0145 11.2887C14.0999 11.2033 14.1676 11.1019 14.2138 10.9904C14.26 10.8789 14.2838 10.7594 14.2838 10.6386C14.2838 10.5179 14.26 10.3984 14.2138 10.2869C14.1676 10.1753 14.0999 10.074 14.0145 9.98865C13.1551 9.12927 11.9894 8.64648 10.774 8.64648C9.55862 8.64648 8.39299 9.12927 7.53353 9.98865L2.34353 15.1776C1.48356 16.0372 1.00028 17.2032 1 18.4191C0.999719 19.635 1.48246 20.8012 2.34203 21.6611C3.20159 22.5211 4.36757 23.0044 5.58347 23.0047C6.79936 23.005 7.96556 22.5222 8.82553 21.6626L11.4185 19.0626C11.5039 18.9773 11.5716 18.8759 11.6178 18.7644C11.664 18.6529 11.6878 18.5334 11.6878 18.4126C11.6878 18.2919 11.664 18.1724 11.6178 18.0609C11.5716 17.9493 11.5039 17.848 11.4185 17.7626C11.3332 17.6773 11.2318 17.6096 11.1203 17.5634C11.0088 17.5172 10.8892 17.4934 10.7685 17.4934C10.6478 17.4934 10.5283 17.5172 10.4167 17.5634C10.3052 17.6096 10.2039 17.6773 10.1185 17.7626L10.1215 17.7696Z"/>
<path d="M21.6592 2.34225C20.7996 1.48281 19.6338 1 18.4182 1C17.2026 1 16.0369 1.48281 15.1772 2.34225L12.0672 5.45224C11.8948 5.62464 11.798 5.85845 11.798 6.10225C11.798 6.34604 11.8948 6.57985 12.0672 6.75224C12.2396 6.92464 12.4734 7.02148 12.7172 7.02148C12.961 7.02148 13.1948 6.92464 13.3672 6.75224L16.4772 3.64225C16.7309 3.37956 17.0343 3.17002 17.3698 3.02585C17.7053 2.88168 18.0661 2.80578 18.4313 2.80256C18.7964 2.79934 19.1585 2.86887 19.4965 3.0071C19.8345 3.14533 20.1416 3.34948 20.3998 3.60766C20.658 3.86583 20.8623 4.17284 21.0006 4.51079C21.1389 4.84874 21.2085 5.21085 21.2054 5.57599C21.2023 5.94113 21.1265 6.302 20.9824 6.63753C20.8383 6.97306 20.6288 7.27653 20.3662 7.53025L14.6662 13.2302C14.4109 13.4856 14.1079 13.6881 13.7743 13.8263C13.4408 13.9645 13.0833 14.0356 12.7222 14.0356C12.3612 14.0356 12.0037 13.9645 11.6701 13.8263C11.3366 13.6881 11.0335 13.4856 10.7782 13.2302C10.6058 13.0579 10.372 12.961 10.1282 12.961C9.88442 12.961 9.6506 13.0579 9.47821 13.2302C9.30582 13.4026 9.20898 13.6364 9.20898 13.8802C9.20898 14.124 9.30582 14.3579 9.47821 14.5302C10.3377 15.3896 11.5033 15.8724 12.7187 15.8724C13.9341 15.8724 15.0997 15.3896 15.9592 14.5302L21.6592 8.83025C22.0858 8.40455 22.4242 7.89891 22.6551 7.34226C22.886 6.78561 23.0049 6.18889 23.0049 5.58625C23.0049 4.9836 22.886 4.38688 22.6551 3.83023C22.4242 3.27358 22.0858 2.76794 21.6592 2.34225Z" />
</svg>
