<svg viewBox="0 0 16 16" xmlns="http://www.w3.org/2000/svg">
<path d="M8.00352 15.9972C7.10495 15.998 6.21274 15.8473 5.36431 15.5513C5.29158 15.5266 5.22688 15.5018 5.15852 15.4785L1.08572 15.8706C0.967021 15.8837 0.846997 15.866 0.737171 15.8191C0.627344 15.7722 0.531391 15.6978 0.458761 15.603C0.38505 15.5092 0.336235 15.3982 0.316538 15.2805C0.296841 15.1629 0.306871 15.0422 0.346012 14.9295L1.25741 12.3054C0.301413 10.8083 -0.129142 9.03558 0.0336895 7.26672C0.196521 5.49786 0.943483 3.83356 2.15674 2.53609C3.37 1.23863 4.98053 0.381725 6.73452 0.100731C8.4885 -0.180264 10.286 0.130549 11.8439 0.984073C13.4018 1.8376 14.6313 3.18538 15.3386 4.81485C16.0458 6.44432 16.1906 8.26282 15.7502 9.98369C15.3097 11.7046 14.309 13.2299 12.9059 14.3193C11.5027 15.4086 9.77703 15.9999 8.00067 16L8.00352 15.9972ZM5.26026 14.04C5.35229 14.0396 5.44359 14.0574 5.52873 14.0923C5.62763 14.1331 5.73016 14.171 5.8327 14.2074C7.31307 14.725 8.92968 14.6964 10.3909 14.1271C11.8522 13.5578 13.0618 12.4851 13.8018 11.1025C14.5418 9.71979 14.7635 8.11815 14.4266 6.5865C14.0898 5.05486 13.2167 3.69396 11.9648 2.74934C10.713 1.80471 9.16487 1.33859 7.59957 1.43489C6.03428 1.53119 4.55483 2.18359 3.42823 3.27455C2.30162 4.3655 1.60194 5.82323 1.45539 7.38462C1.30883 8.946 1.72513 10.5082 2.62904 11.7898C2.69491 11.8818 2.73777 11.9882 2.75422 12.1002C2.77066 12.2121 2.76013 12.3264 2.7235 12.4334L2.05962 14.3455L5.19563 14.0437C5.21767 14.0424 5.23964 14.0424 5.26168 14.0437L5.26026 14.04ZM9.36644 6.50625C9.36644 6.31761 9.29156 6.13662 9.15817 6.00323C9.02478 5.86984 8.84379 5.79496 8.65515 5.79496H5.33519C5.14655 5.79496 4.96556 5.86984 4.83217 6.00323C4.69878 6.13662 4.62389 6.31761 4.62389 6.50625C4.62389 6.69489 4.69878 6.87587 4.83217 7.00926C4.96556 7.14265 5.14655 7.21754 5.33519 7.21754H8.65444C8.74846 7.21802 8.84163 7.19985 8.92859 7.16409C9.01554 7.12834 9.09453 7.07575 9.16101 7.00926C9.22749 6.94278 9.28026 6.8638 9.31602 6.77684C9.35177 6.68989 9.36994 6.59654 9.36946 6.50252L9.36644 6.50625ZM11.3817 9.48813C11.3817 9.39472 11.3633 9.30223 11.3276 9.21593C11.2918 9.12964 11.2395 9.05116 11.1734 8.98511C11.1074 8.91906 11.0289 8.86674 10.9426 8.83099C10.8563 8.79525 10.7638 8.77684 10.6704 8.77684H5.33519C5.14655 8.77684 4.96556 8.85172 4.83217 8.98511C4.69878 9.1185 4.62389 9.29949 4.62389 9.48813C4.62389 9.67677 4.69878 9.85758 4.83217 9.99096C4.96556 10.1244 5.14655 10.1992 5.33519 10.1992H10.6704C10.8587 10.1989 11.0392 10.1238 11.1722 9.99043C11.3052 9.85706 11.3798 9.67645 11.3796 9.48813H11.3817Z" />
</svg>
