<svg  viewBox="0 0 22 22" xmlns="http://www.w3.org/2000/svg" >
<path fill-rule="evenodd" clip-rule="evenodd" d="M17 2H5C3.34315 2 2 3.34315 2 5V17C2 18.6569 3.34315 20 5 20H17C18.6569 20 20 18.6569 20 17V5C20 3.34315 18.6569 2 17 2ZM5 0C2.23858 0 0 2.23858 0 5V17C0 19.7614 2.23858 22 5 22H17C19.7614 22 22 19.7614 22 17V5C22 2.23858 19.7614 0 17 0H5Z"/>
<path fill-rule="evenodd" clip-rule="evenodd" d="M16.7032 6.289C17.0959 6.67736 17.0994 7.31051 16.711 7.70319L9.78793 14.7032C9.60008 14.8931 9.34405 15 9.07692 15C8.80979 15 8.55376 14.8931 8.36592 14.7032L5.289 11.5921C4.90064 11.1994 4.90413 10.5662 5.29681 10.1779C5.68949 9.78953 6.32264 9.79302 6.711 10.1857L9.07692 12.5779L15.289 6.29681C15.6774 5.90413 16.3105 5.90064 16.7032 6.289Z" />
</svg>
