<svg viewBox="0 0 16 16" xmlns="http://www.w3.org/2000/svg">
<path d="M7.99989 16C6.41764 16 4.87091 15.5306 3.55531 14.6516C2.23972 13.7725 1.21452 12.523 0.609024 11.0612C0.00352281 9.59942 -0.15498 7.99101 0.153702 6.43916C0.462383 4.88732 1.22433 3.46179 2.34315 2.34297C3.46197 1.22415 4.8875 0.4622 6.43935 0.153519C7.99119 -0.155163 9.59961 0.00333971 11.0614 0.608841C12.5232 1.21434 13.7727 2.23978 14.6517 3.55537C15.5308 4.87097 15.9999 6.4177 15.9999 7.99995C15.9999 10.1217 15.1572 12.1564 13.6569 13.6567C12.1566 15.157 10.1216 16 7.99989 16ZM7.99989 1.36787C6.68792 1.36768 5.40553 1.75654 4.31459 2.48531C3.22365 3.21407 2.37315 4.25005 1.87099 5.46211C1.36883 6.67418 1.2374 8.00786 1.4933 9.29463C1.74921 10.5814 2.38103 11.7634 3.30873 12.6911C4.23643 13.6188 5.41845 14.2506 6.70522 14.5065C7.99198 14.7624 9.32567 14.631 10.5377 14.1289C11.7498 13.6267 12.7858 12.7762 13.5145 11.6853C14.2433 10.5943 14.6322 9.31192 14.632 7.99995C14.6317 6.24112 13.9328 4.55443 12.6891 3.31075C11.4454 2.06706 9.75873 1.36814 7.99989 1.36787V1.36787ZM7.40004 10.6469L11.786 6.32588C11.8564 6.26457 11.9135 6.18962 11.9538 6.10542C11.994 6.02123 12.0166 5.92964 12.0202 5.83638C12.0237 5.74312 12.0082 5.64997 11.9745 5.56294C11.9408 5.47592 11.8896 5.39678 11.8241 5.33028C11.7586 5.26377 11.6801 5.2113 11.5936 5.17622C11.5072 5.14115 11.4145 5.1243 11.3212 5.12642C11.2279 5.12854 11.136 5.14972 11.0512 5.18867C10.9664 5.22763 10.8904 5.28358 10.828 5.35298L6.92299 9.19795L5.1769 7.45796C5.11463 7.38911 5.03912 7.33356 4.95473 7.29488C4.87034 7.25619 4.77898 7.2351 4.68617 7.23286C4.59337 7.23063 4.50108 7.24736 4.41493 7.28194C4.32878 7.31652 4.25046 7.36826 4.18495 7.43404C4.11945 7.49981 4.06805 7.57821 4.03383 7.66451C3.99961 7.7508 3.98336 7.84319 3.98598 7.93599C3.98859 8.02878 4.00993 8.12007 4.04897 8.2043C4.088 8.28853 4.14392 8.364 4.21303 8.42598L6.43788 10.6438C6.56593 10.7704 6.73897 10.8415 6.91908 10.8415C7.09919 10.8415 7.27199 10.7704 7.40004 10.6438V10.6469Z" />
</svg>
