<svg xmlns="http://www.w3.org/2000/svg" viewBox="0 0 273.5 260">
    <path d="M130,20A110,110,0,1,0,240,130a10,10,0,0,1,20,0A129.962,129.962,0,1,1,199.882,20.363a10,10,0,1,1-10.764,16.855A109.448,109.448,0,0,0,130,20ZM270.571,49.929a10,10,0,0,1,0,14.142l-115,115a10,10,0,0,1-14.142,0l-43.5-43.5a10,10,0,0,1,14.142-14.142L148.5,157.858,256.429,49.929A10,10,0,0,1,270.571,49.929Zm-42-3a10,10,0,0,1,0,14.142L147,142.642,132.857,128.5l81.571-81.571A10,10,0,0,1,228.571,46.929Zm-168.642,75.5a10,10,0,0,1,14.142,0l39.5,39.5a10,10,0,0,1-14.142,14.142l-39.5-39.5A10,10,0,0,1,59.929,122.429Z"
          fill-rule="evenodd"/>
</svg>
