<svg viewBox="0 0 16 16" xmlns="http://www.w3.org/2000/svg">
    <path fill-rule="evenodd" clip-rule="evenodd"
        d="M8 16C12.4183 16 16 12.4183 16 8C16 3.58172 12.4183 0 8 0C3.58172 0 0 3.58172 0 8C0 12.4183 3.58172 16 8 16ZM8 2.48047C8.40166 2.48047 8.72727 2.80608 8.72727 3.20774V7.76871L10.5738 9.61526C10.8578 9.89928 10.8578 10.3598 10.5738 10.6438C10.2898 10.9278 9.82932 10.9278 9.5453 10.6438L7.48574 8.58422C7.33486 8.43334 7.26413 8.23265 7.27356 8.03508C7.27301 8.02346 7.27273 8.01176 7.27273 8V3.20774C7.27273 2.80608 7.59834 2.48047 8 2.48047Z" />
</svg>