<svg viewBox="0 0 16 16" xmlns="http://www.w3.org/2000/svg">
    <path fill-rule="evenodd" clip-rule="evenodd"
        d="M8 16C12.4183 16 16 12.4183 16 8C16 3.58172 12.4183 0 8 0C3.58172 0 0 3.58172 0 8C0 12.4183 3.58172 16 8 16ZM12.0607 6.24258C12.295 6.00824 12.2949 5.62835 12.0606 5.39405C11.8262 5.15976 11.4463 5.1598 11.2121 5.39414L6.90404 9.703L4.79184 7.55101C4.55972 7.31452 4.17984 7.31098 3.94335 7.54309C3.70686 7.77521 3.70331 8.15509 3.93543 8.39158L6.4719 10.9758C6.58405 11.0901 6.73723 11.1548 6.89734 11.1555C7.05744 11.1563 7.21121 11.093 7.32441 10.9798L12.0607 6.24258Z" />
</svg>