<svg viewBox="0 0 16 16" xmlns="http://www.w3.org/2000/svg">
    <path fill-rule="evenodd" clip-rule="evenodd"
        d="M8 16C12.4183 16 16 12.4183 16 8C16 3.58172 12.4183 0 8 0C3.58172 0 0 3.58172 0 8C0 12.4183 3.58172 16 8 16ZM8.47482 4.37244C8.32514 3.91178 7.67344 3.91178 7.52376 4.37244L6.96857 6.08115C6.90163 6.28716 6.70965 6.42665 6.49304 6.42665H4.69639C4.21203 6.42665 4.01064 7.04645 4.4025 7.33115L5.85602 8.3872C6.03126 8.51452 6.10459 8.7402 6.03765 8.94621L5.48246 10.6549C5.33278 11.1156 5.86002 11.4986 6.25188 11.2139L7.7054 10.1579C7.88064 10.0306 8.11794 10.0306 8.29318 10.1579L9.7467 11.2139C10.1386 11.4986 10.6658 11.1156 10.5161 10.6549L9.96093 8.94621C9.89399 8.7402 9.96732 8.51452 10.1426 8.3872L11.5961 7.33115C11.9879 7.04645 11.7866 6.42665 11.3022 6.42665H9.50554C9.28893 6.42665 9.09695 6.28716 9.03001 6.08115L8.47482 4.37244Z" />
</svg>