<svg 
	xmlns="http://www.w3.org/2000/svg" 
	viewBox="0 0 88.381 102.191"
>
  <path d="M93.238,6.905H22.762a8.952,8.952,0,0,0-8.952,8.952v84.286a8.952,8.952,0,0,0,8.952,8.952H93.238a8.952,8.952,0,0,0,8.952-8.952V15.857A8.952,8.952,0,0,0,93.238,6.905ZM95.19,95.286V96.1a5.932,5.932,0,0,1-5.932,5.932H26.742A5.932,5.932,0,0,1,20.81,96.1V19.866a5.932,5.932,0,0,1,5.932-5.932H89.258a5.932,5.932,0,0,1,5.932,5.932v75.42ZM52.453,40.178H34.076a3.5,3.5,0,0,1-3.5-3.5h0a3.5,3.5,0,0,1,3.5-3.5H52.453a3.5,3.5,0,0,1,3.5,3.5h0A3.5,3.5,0,0,1,52.453,40.178ZM81.924,29.131H34.076a3.5,3.5,0,0,1-3.5-3.5h0a3.5,3.5,0,0,1,3.5-3.5H81.924a3.5,3.5,0,0,1,3.5,3.5h0A3.5,3.5,0,0,1,81.924,29.131ZM45.96,89.883a3.47,3.47,0,0,1-3.4,2.688h0a3.491,3.491,0,0,1-3.435-4.2,19.339,19.339,0,0,1,37.75,0,3.491,3.491,0,0,1-3.435,4.2h0a3.47,3.47,0,0,1-3.4-2.688,12.337,12.337,0,0,0-24.08,0ZM58,47.793A11.048,11.048,0,1,0,69.048,58.841,11.049,11.049,0,0,0,58,47.793Zm0,16.548a5.5,5.5,0,1,1,5.5-5.5A5.5,5.5,0,0,1,58,64.341Z" transform="translate(-13.81 -6.905)"/>
</svg>
