<svg viewBox="0 0 24 24" xmlns="http://www.w3.org/2000/svg">
<path d="M12.475 12.8404C14.8994 12.8404 17.4636 9.68722 17.4636 6.70492C17.4636 3.50526 15.2725 1 12.475 1C9.63876 1 7.41673 3.4569 7.41673 6.5932C7.41497 9.68726 9.967 12.8404 12.475 12.8404ZM12.475 2.77674C14.2763 2.77674 15.6869 4.50249 15.6869 6.70599C15.6869 8.9535 13.6832 11.0645 12.475 11.0645C11.1031 11.0645 9.19348 8.81165 9.19348 6.59406C9.19348 4.41784 10.6015 2.7776 12.475 2.7776V2.77674ZM21.9787 19.0356C20.6535 20.4867 16.4129 22.1084 12.4423 22.1198H12.3972C8.45923 22.1198 4.24339 20.5358 2.9102 19.1075C2.74947 18.9571 2.62232 18.7744 2.53724 18.5713C2.45215 18.3682 2.41104 18.1495 2.4165 17.9293C2.50673 16.6156 2.9741 15.3559 3.7627 14.3013C4.5513 13.2467 5.62782 12.442 6.86244 11.984C7.0841 11.9152 7.32352 11.9359 7.53017 12.0416C7.73682 12.1473 7.894 12.3295 7.96802 12.5495C8.04203 12.7695 8.02709 13.0096 7.92634 13.2187C7.82559 13.4278 7.64693 13.5892 7.42876 13.6684C6.55295 14.0053 5.7877 14.5785 5.21804 15.3242C4.64837 16.0698 4.29662 16.9588 4.20183 17.8924C4.79407 18.5964 8.43288 20.3405 12.3955 20.3405H12.4372C16.4455 20.3282 20.0929 18.5453 20.6764 17.8307C20.6072 16.9163 20.2805 16.0402 19.7341 15.3038C19.1876 14.5673 18.4438 14.0005 17.5887 13.6692C17.4737 13.6375 17.3663 13.5829 17.2728 13.5088C17.1794 13.4346 17.1017 13.3422 17.0447 13.2374C16.9876 13.1326 16.9522 13.0174 16.9407 12.8986C16.9291 12.7799 16.9415 12.6601 16.9772 12.5463C17.013 12.4324 17.0713 12.3271 17.1487 12.2362C17.226 12.1454 17.3212 12.0711 17.4279 12.0178C17.5347 11.9644 17.6509 11.933 17.77 11.9256C17.8891 11.9182 18.0085 11.9347 18.121 11.9744C19.3386 12.4193 20.3989 13.2116 21.1705 14.2532C21.9421 15.2948 22.3908 16.5401 22.4617 17.8344C22.4707 18.0567 22.4324 18.2784 22.3491 18.4847C22.2658 18.6911 22.1396 18.8773 21.9787 19.0311V19.0356Z"/>
</svg>
