<svg viewBox="0 0 20 20" xmlns="http://www.w3.org/2000/svg">
<path d="M10 0C8.02219 0 6.08879 0.58649 4.4443 1.6853C2.79981 2.78412 1.51809 4.3459 0.761209 6.17316C0.0043335 8.00042 -0.193701 10.0111 0.192152 11.9509C0.578003 13.8907 1.53041 15.6725 2.92894 17.0711C4.32746 18.4696 6.10929 19.422 8.0491 19.8078C9.98891 20.1937 11.9996 19.9957 13.8268 19.2388C15.6541 18.4819 17.2159 17.2002 18.3147 15.5557C19.4135 13.9112 20 11.9778 20 10C20 7.34783 18.9464 4.8043 17.0711 2.92893C15.1957 1.05357 12.6522 0 10 0V0Z" fill="#34C759"/>
<path d="M7.71875 9.24521C7.2355 9.24521 6.84375 8.85346 6.84375 8.37021C6.84375 7.88696 7.2355 7.49521 7.71875 7.49521C8.202 7.49521 8.59375 7.88696 8.59375 8.37021C8.59375 8.85346 8.202 9.24521 7.71875 9.24521Z" fill="white"/>
<path d="M12.2812 9.24521C11.798 9.24521 11.4062 8.85346 11.4062 8.37021C11.4062 7.88696 11.798 7.49521 12.2812 7.49521C12.7645 7.49521 13.1562 7.88696 13.1562 8.37021C13.1562 8.85346 12.7645 9.24521 12.2812 9.24521Z" fill="white"/>
<path d="M9.99739 12.5667C10.4469 12.5656 10.8882 12.4465 11.2772 12.2213C11.6663 11.9961 11.9893 11.6726 12.2141 11.2833H13.2827C13.025 11.9451 12.5735 12.5136 11.9873 12.9144C11.4011 13.3152 10.7075 13.5296 9.99739 13.5296C9.28726 13.5296 8.59369 13.3152 8.00748 12.9144C7.42127 12.5136 6.96976 11.9451 6.71206 11.2833H7.78364C8.00815 11.6722 8.33073 11.9954 8.71919 12.2206C9.10765 12.4458 9.54838 12.5651 9.99739 12.5667ZM10.0038 3.58335C11.2726 3.58462 12.5126 3.96203 13.567 4.66787C14.6213 5.37371 15.4428 6.3763 15.9275 7.54891C16.4121 8.72151 16.5383 10.0115 16.29 11.2558C16.0417 12.5001 15.43 13.6428 14.5324 14.5395C13.6348 15.4363 12.4914 16.0468 11.2469 16.2939C10.0023 16.5409 8.71248 16.4135 7.54036 15.9276C6.36824 15.4418 5.36647 14.6193 4.66168 13.5643C3.95689 12.5092 3.58073 11.2688 3.58072 10C3.58034 9.15672 3.74626 8.32162 4.069 7.54253C4.39173 6.76343 4.86494 6.05562 5.46154 5.45962C6.05814 4.86362 6.76641 4.39112 7.54583 4.06916C8.32525 3.74721 9.16051 3.58212 10.0038 3.58335ZM9.99739 15.1333C11.0127 15.1333 12.0051 14.8323 12.8493 14.2682C13.6935 13.7042 14.3514 12.9025 14.74 11.9645C15.1285 11.0265 15.2302 9.99432 15.0321 8.99855C14.834 8.00278 14.3451 7.08811 13.6272 6.3702C12.9093 5.65229 11.9946 5.16339 10.9989 4.96532C10.0031 4.76725 8.97094 4.86891 8.03295 5.25744C7.09496 5.64597 6.29324 6.30392 5.72918 7.14809C5.16512 7.99226 4.86406 8.98474 4.86406 10C4.86406 11.3615 5.40489 12.6671 6.36758 13.6298C7.33026 14.5925 8.63595 15.1333 9.99739 15.1333Z" fill="white"/>
</svg>
