<svg viewBox="0 0 24 24" xmlns="http://www.w3.org/2000/svg">
<path d="M21.8915 16.387C22.0927 15.9731 21.6358 15.5705 21.2108 15.7471C19.9117 16.287 18.4868 16.5851 16.9922 16.5851C10.9171 16.5851 5.99219 11.6602 5.99219 5.58511C5.99219 4.79127 6.07628 4.01708 6.23604 3.27094C6.33239 2.82093 5.85333 2.44452 5.48257 2.71714C2.75944 4.71944 0.992188 7.94589 0.992188 11.5851C0.992188 17.6602 5.91706 22.5851 11.9922 22.5851C16.3457 22.5851 20.1085 20.0561 21.8915 16.387Z" />
<path d="M12.0433 10.2752H13.0292C13.2297 10.2752 13.3922 10.4378 13.3922 10.6382C13.3922 10.8387 13.2297 11.0012 13.0292 11.0012H11.3814C11.1664 11.0012 10.9922 10.827 10.9922 10.6121C10.9922 10.5297 11.0184 10.4494 11.0669 10.3828L12.2742 8.72725H11.4159C11.2155 8.72725 11.0529 8.56473 11.0529 8.36425C11.0529 8.16377 11.2155 8.00125 11.4159 8.00125H12.9426C13.1574 8.00125 13.3314 8.17532 13.3314 8.39005C13.3314 8.47269 13.3051 8.55318 13.2563 8.61985L12.0433 10.2752Z"/>
<path d="M19.409 7.54925H17.2446L19.8412 4.24175C19.9472 4.10667 20.0048 3.9399 20.0048 3.76817C20.0048 3.34461 19.6615 3.00125 19.2379 3.00125H15.8484C15.4474 3.00125 15.1224 3.32629 15.1224 3.72725C15.1224 4.1282 15.4474 4.45325 15.8484 4.45325H17.7394L15.1549 7.76095C15.0495 7.89592 14.9922 8.0623 14.9922 8.23359C14.9922 8.65755 15.3359 9.00125 15.7598 9.00125H19.409C19.81 9.00125 20.135 8.6762 20.135 8.27525C20.135 7.87429 19.81 7.54925 19.409 7.54925Z"/>
</svg>
