<svg viewBox="0 0 20 20" xmlns="http://www.w3.org/2000/svg">
<path d="M10 0C11.9778 0 13.9112 0.58649 15.5557 1.6853C17.2002 2.78412 18.4819 4.3459 19.2388 6.17316C19.9957 8.00042 20.1937 10.0111 19.8078 11.9509C19.422 13.8907 18.4696 15.6725 17.0711 17.0711C15.6725 18.4696 13.8907 19.422 11.9509 19.8078C10.0111 20.1937 8.00042 19.9957 6.17316 19.2388C4.3459 18.4819 2.78412 17.2002 1.6853 15.5557C0.58649 13.9112 0 11.9778 0 10C0 7.34783 1.05357 4.8043 2.92893 2.92893C4.8043 1.05357 7.34783 0 10 0V0Z" fill="#FFC107"/>
<path d="M15.8757 13.5291C14.705 13.5039 13.5621 13.168 12.564 12.5558C11.5658 11.9435 10.7483 11.077 10.1952 10.0449C9.66241 9.03744 9.41322 7.90419 9.47424 6.76615C9.53527 5.62811 9.90423 4.52801 10.5417 3.58331C8.86335 3.62468 7.26665 4.31633 6.08846 5.51238C4.91026 6.70842 4.24269 8.31534 4.22656 9.99415C4.22656 10.084 4.2394 10.1738 4.2394 10.2636C4.64932 10.0888 5.08992 9.99719 5.53556 9.99415C5.53622 9.04855 5.79972 8.12176 6.29663 7.31726C6.79355 6.51276 7.50432 5.86223 8.34956 5.43831C7.92875 7.19553 8.17115 9.04624 9.03031 10.6358C9.97811 12.4123 11.5708 13.758 13.4806 14.396C12.6617 14.8791 11.7282 15.1338 10.7774 15.1333C10.4526 15.1326 10.1285 15.1026 9.80906 15.0435C9.5649 15.4934 9.19087 15.8593 8.73573 16.0935C9.39348 16.305 10.0801 16.4132 10.771 16.4143C11.8519 16.4178 12.9171 16.155 13.8724 15.6491C14.8277 15.1433 15.6438 14.41 16.2485 13.514C16.1382 13.5227 16.0064 13.5291 15.8757 13.5291Z" fill="white"/>
<path d="M6.6586 13.5035H6.5711C6.48192 13.2526 6.32549 13.0311 6.11891 12.8631C5.91233 12.6951 5.66355 12.5871 5.39975 12.551C5.13596 12.5148 4.8673 12.5519 4.62313 12.6581C4.37897 12.7643 4.16869 12.9355 4.01529 13.1532C3.86189 13.3708 3.77126 13.6264 3.75331 13.8921C3.73535 14.1577 3.79077 14.4232 3.9135 14.6595C4.03623 14.8958 4.22154 15.0938 4.4492 15.2319C4.67686 15.37 4.93809 15.4428 5.20435 15.4425H6.6586C6.91573 15.4425 7.16233 15.3404 7.34414 15.1585C7.52596 14.9767 7.6281 14.7301 7.6281 14.473C7.6281 14.2159 7.52596 13.9693 7.34414 13.7875C7.16233 13.6056 6.91573 13.5035 6.6586 13.5035Z" fill="white"/>
</svg>
