<svg viewBox="0 0 48 48" xmlns="http://www.w3.org/2000/svg">
    <path fill-rule="evenodd" clip-rule="evenodd"
        d="M12.6002 0.930768C15.7171 0.23808 19.4983 0 24 0C28.5017 0 32.2829 0.23808 35.3998 0.930768C38.544 1.62953 41.1571 2.8224 43.1674 4.83259C45.1776 6.84278 46.3704 9.45605 47.0693 12.6002C47.7619 15.7171 48 19.4983 48 24C48 28.5017 47.7619 32.2829 47.0693 35.3998C46.3704 38.544 45.1776 41.1571 43.1674 43.1674C41.1571 45.1776 38.544 46.3704 35.3998 47.0693C32.2829 47.7619 28.5017 48 24 48C19.4983 48 15.7171 47.7619 12.6002 47.0693C9.45605 46.3704 6.84278 45.1776 4.83259 43.1674C2.8224 41.1571 1.62953 38.544 0.930768 35.3998C0.23808 32.2829 0 28.5017 0 24C0 19.4983 0.23808 15.7171 0.930768 12.6002C1.62953 9.45605 2.8224 6.84278 4.83259 4.83259C6.84278 2.8224 9.45605 1.62953 12.6002 0.930768ZM16.8 22.8C16.8 19.4863 19.4863 16.8 22.8 16.8C26.1137 16.8 28.8 19.4863 28.8 22.8C28.8 26.1137 26.1137 28.8 22.8 28.8C19.4863 28.8 16.8 26.1137 16.8 22.8ZM22.8 12C16.8353 12 12 16.8353 12 22.8C12 28.7647 16.8353 33.6 22.8 33.6C24.9132 33.6 26.8848 32.993 28.5497 31.944L31.903 35.297C32.8402 36.2342 34.3598 36.2342 35.297 35.297C36.2342 34.3598 36.2342 32.8402 35.297 31.903L31.944 28.5497C32.993 26.8848 33.6 24.9132 33.6 22.8C33.6 16.8353 28.7647 12 22.8 12Z" />
</svg>