<svg viewBox="0 0 24 24" xmlns="http://www.w3.org/2000/svg">
<path fill-rule="evenodd" clip-rule="evenodd" d="M11.9961 23C18.0712 23 22.9961 18.0751 22.9961 12C22.9961 5.92487 18.0712 1 11.9961 1C5.92096 1 0.996094 5.92487 0.996094 12C0.996094 18.0751 5.92096 23 11.9961 23ZM7.99609 7C8.54838 7 8.99609 7.44772 8.99609 8V12C8.99609 12.5523 8.54838 13 7.99609 13C7.44381 13 6.99609 12.5523 6.99609 12V8C6.99609 7.44772 7.44381 7 7.99609 7ZM15.9961 7C16.5484 7 16.9961 7.44772 16.9961 8V12C16.9961 12.5523 16.5484 13 15.9961 13C15.4438 13 14.9961 12.5523 14.9961 12V8C14.9961 7.44772 15.4438 7 15.9961 7ZM8.99609 17C8.99609 15.3431 10.3392 14 11.9961 14C13.6529 14 14.9961 15.3431 14.9961 17V18C14.9961 18.5523 14.5484 19 13.9961 19H9.99609C9.44381 19 8.99609 18.5523 8.99609 18V17Z"/>
</svg>
