<svg viewBox="0 0 25 24" xmlns="http://www.w3.org/2000/svg">
<path fill-rule="evenodd" clip-rule="evenodd" d="M9.7593 1.36272C4.93006 2.68886 1.49609 7.11382 1.49609 12.0103C1.49609 17.9681 6.5327 23 12.4961 23C18.4595 23 23.4961 17.9681 23.4961 12.0103C23.4961 4.95967 16.4757 -0.481937 9.7593 1.36272ZM9.24401 9.10755C10.0719 10.0214 9.08599 11.4119 7.83275 11.0976C7.52158 11.0198 7.15156 10.7027 7.01046 10.393C6.41709 9.09181 8.26579 8.0277 9.24401 9.10755ZM17.826 9.2013C18.0973 9.61518 18.1289 9.8962 17.9553 10.3522C17.5179 11.5017 15.788 11.355 15.4834 10.1425C15.1583 8.84806 17.0862 8.0733 17.826 9.2013ZM9.8214 14.7758C9.97455 14.96 10.5598 15.2864 11.1221 15.501C12.3881 15.9839 13.5095 15.8322 14.7535 15.0098C16.0035 14.1832 16.8422 14.3617 16.7387 15.4318C16.6782 16.0563 16.4639 16.2964 15.4025 16.9285C14.3168 17.5753 13.9247 17.6808 12.6221 17.6764C10.25 17.6686 8.20972 16.5929 8.20972 15.3501C8.20972 14.4695 9.25698 14.0964 9.8214 14.7758Z"/>
</svg>
