<svg viewBox="0 0 20 20" xmlns="http://www.w3.org/2000/svg">
<path d="M10 0C11.9778 0 13.9112 0.58649 15.5557 1.6853C17.2002 2.78412 18.4819 4.3459 19.2388 6.17316C19.9957 8.00042 20.1937 10.0111 19.8078 11.9509C19.422 13.8907 18.4696 15.6725 17.0711 17.0711C15.6725 18.4696 13.8907 19.422 11.9509 19.8078C10.0111 20.1937 8.00042 19.9957 6.17316 19.2388C4.3459 18.4819 2.78412 17.2002 1.6853 15.5557C0.58649 13.9112 0 11.9778 0 10C0 7.34783 1.05357 4.8043 2.92893 2.92893C4.8043 1.05357 7.34783 0 10 0V0Z" fill="#FF2D55"/>
<path d="M9.99479 3.58334C8.7257 3.58334 7.4851 3.95967 6.42989 4.66475C5.37467 5.36982 4.55223 6.37197 4.06657 7.54446C3.58091 8.71695 3.45383 10.0071 3.70142 11.2518C3.94901 12.4966 4.56014 13.6399 5.45753 14.5373C6.35491 15.4347 7.49825 16.0458 8.74297 16.2934C9.98768 16.541 11.2779 16.4139 12.4503 15.9282C13.6228 15.4426 14.625 14.6201 15.3301 13.5649C16.0351 12.5097 16.4115 11.2691 16.4115 10C16.4115 8.2982 15.7354 6.6661 14.5321 5.46274C13.3287 4.25938 11.6966 3.58334 9.99479 3.58334V3.58334ZM9.99479 4.80018C11.1557 4.80008 12.2828 5.19046 13.195 5.90851L5.90329 13.2002C5.30219 12.4333 4.92888 11.5127 4.82602 10.5438C4.72315 9.57479 4.89488 8.59641 5.32158 7.72038C5.74828 6.84435 6.41275 6.10599 7.2391 5.58962C8.06545 5.07324 9.02037 4.79968 9.99479 4.80018ZM9.99479 15.1998C8.81813 15.2006 7.67637 14.8002 6.75788 14.0647L14.0595 6.76309C14.6698 7.52789 15.0518 8.4495 15.1615 9.42183C15.2711 10.3942 15.104 11.3777 14.6793 12.2592C14.2546 13.1408 13.5896 13.8844 12.7608 14.4047C11.9321 14.9249 10.9733 15.2005 9.99479 15.1998Z" fill="white"/>
</svg>
