<svg viewBox="0 0 20 20" xmlns="http://www.w3.org/2000/svg">
<path d="M10 0C11.9778 0 13.9112 0.58649 15.5557 1.6853C17.2002 2.78412 18.4819 4.3459 19.2388 6.17317C19.9957 8.00043 20.1937 10.0111 19.8079 11.9509C19.422 13.8907 18.4696 15.6725 17.0711 17.0711C15.6725 18.4696 13.8907 19.422 11.9509 19.8079C10.0111 20.1937 8.00043 19.9957 6.17317 19.2388C4.3459 18.4819 2.78412 17.2002 1.6853 15.5557C0.58649 13.9112 0 11.9778 0 10C0 7.34783 1.05357 4.8043 2.92893 2.92893C4.8043 1.05357 7.34783 0 10 0V0Z" fill="#FF5640"/>
<path d="M9.9987 4.86668C11.014 4.86668 12.0065 5.16774 12.8506 5.7318C13.6948 6.29586 14.3528 7.09757 14.7413 8.03557C15.1298 8.97356 15.2315 10.0057 15.0334 11.0015C14.8353 11.9972 14.3464 12.9119 13.6285 13.6298C12.9106 14.3477 11.9959 14.8366 11.0002 15.0347C10.0044 15.2328 8.97225 15.1311 8.03426 14.7426C7.09627 14.3541 6.29455 13.6961 5.73049 12.8519C5.16643 12.0078 4.86537 11.0153 4.86537 10C4.86722 8.63913 5.40865 7.33453 6.37093 6.37224C7.33322 5.40996 8.63783 4.86853 9.9987 4.86668ZM9.9987 3.58334C8.7296 3.58334 7.48901 3.95967 6.43379 4.66475C5.37858 5.36982 4.55614 6.37197 4.07047 7.54446C3.58481 8.71695 3.45774 10.0071 3.70533 11.2518C3.95292 12.4966 4.56405 13.6399 5.46143 14.5373C6.35882 15.4347 7.50216 16.0458 8.74687 16.2934C9.99158 16.541 11.2818 16.4139 12.4543 15.9282C13.6267 15.4426 14.6289 14.6201 15.334 13.5649C16.039 12.5097 16.4154 11.2691 16.4154 10C16.4154 8.2982 15.7393 6.6661 14.536 5.46274C13.3326 4.25938 11.7005 3.58334 9.9987 3.58334ZM8.71537 9.35834V7.43334C8.71537 7.26316 8.64776 7.09995 8.52743 6.97962C8.40709 6.85928 8.24388 6.79168 8.0737 6.79168C7.90352 6.79168 7.74031 6.85928 7.61997 6.97962C7.49964 7.09995 7.43203 7.26316 7.43203 7.43334V9.35834C7.43203 9.52852 7.49964 9.69173 7.61997 9.81207C7.74031 9.93241 7.90352 10 8.0737 10C8.24388 10 8.40709 9.93241 8.52743 9.81207C8.64776 9.69173 8.71537 9.52852 8.71537 9.35834ZM12.5654 9.35834V7.43334C12.5654 7.34908 12.5488 7.26564 12.5165 7.18779C12.4843 7.10994 12.437 7.0392 12.3774 6.97962C12.3178 6.92003 12.2471 6.87277 12.1693 6.84052C12.0914 6.80827 12.008 6.79168 11.9237 6.79168C11.7535 6.79168 11.5903 6.85928 11.47 6.97962C11.3496 7.09995 11.282 7.26316 11.282 7.43334V9.35834C11.282 9.44261 11.2986 9.52605 11.3309 9.6039C11.3631 9.68175 11.4104 9.75249 11.47 9.81207C11.5296 9.87165 11.6003 9.91892 11.6781 9.95117C11.756 9.98341 11.8394 10 11.9237 10C12.0939 10 12.2571 9.93241 12.3774 9.81207C12.4978 9.69173 12.5654 9.52852 12.5654 9.35834ZM11.282 12.5667C11.2811 12.2266 11.1456 11.9007 10.9051 11.6602C10.6647 11.4198 10.3388 11.2843 9.9987 11.2833C9.65862 11.2843 9.33274 11.4198 9.09227 11.6602C8.8518 11.9007 8.71629 12.2266 8.71537 12.5667V13.85H11.282V12.5667Z" fill="white"/>
</svg>
