<svg viewBox="0 0 24 24" xmlns="http://www.w3.org/2000/svg">
<path fill-rule="evenodd" clip-rule="evenodd" d="M9.25781 1.36274C4.42969 2.68891 0.996094 7.11372 0.996094 12.0102C0.996094 17.968 6.03125 22.9999 11.9961 22.9999C17.9609 22.9999 22.9961 17.968 22.9961 12.0102C22.9961 4.95967 15.9766 -0.481984 9.25781 1.36274ZM8.74219 9.10762C9.57031 10.0214 8.58594 11.4118 7.33203 11.0976C7.02344 11.0197 6.65234 10.7026 6.51172 10.393C5.91797 9.09175 7.76562 8.02754 8.74219 9.10762ZM17.3242 9.20137C17.5977 9.61518 17.6289 9.89619 17.457 10.3522C17.0195 11.5017 15.2891 11.3549 14.9844 10.1425C14.6602 8.84809 16.5859 8.07319 17.3242 9.20137ZM9.75536 17.1508C10.4476 16.3432 11.253 16 11.9961 16C12.7392 16 13.5446 16.3432 14.2369 17.1508C14.5963 17.5701 15.2276 17.6187 15.6469 17.2592C16.0662 16.8998 16.1148 16.2685 15.7554 15.8492C14.7333 14.6568 13.3959 14 11.9961 14C10.5963 14 9.25893 14.6568 8.23686 15.8492C7.87743 16.2685 7.92599 16.8998 8.34532 17.2593C8.76464 17.6187 9.39594 17.5701 9.75536 17.1508Z"/>
</svg>
