<svg viewBox="0 0 20 20" xmlns="http://www.w3.org/2000/svg">
<path d="M10 0C11.9778 0 13.9112 0.58649 15.5557 1.6853C17.2002 2.78412 18.4819 4.3459 19.2388 6.17316C19.9957 8.00042 20.1937 10.0111 19.8078 11.9509C19.422 13.8907 18.4696 15.6725 17.0711 17.0711C15.6725 18.4696 13.8907 19.422 11.9509 19.8078C10.0111 20.1937 8.00042 19.9957 6.17316 19.2388C4.3459 18.4819 2.78412 17.2002 1.6853 15.5557C0.58649 13.9112 0 11.9778 0 10C0 7.34783 1.05357 4.8043 2.92893 2.92893C4.8043 1.05357 7.34783 0 10 0V0Z" fill="#67768C"/>
<path d="M12.2785 9.11153C12.5984 9.11153 12.8577 8.85219 12.8577 8.53228C12.8577 8.21237 12.5984 7.95303 12.2785 7.95303C11.9586 7.95303 11.6992 8.21237 11.6992 8.53228C11.6992 8.85219 11.9586 9.11153 12.2785 9.11153Z" fill="white"/>
<path d="M7.68081 9.11153C8.00072 9.11153 8.26006 8.85219 8.26006 8.53228C8.26006 8.21237 8.00072 7.95303 7.68081 7.95303C7.3609 7.95303 7.10156 8.21237 7.10156 8.53228C7.10156 8.85219 7.3609 9.11153 7.68081 9.11153Z" fill="white"/>
<path d="M9.99479 11.2833C9.28473 11.2834 8.59123 11.4978 8.00504 11.8985C7.41885 12.2992 6.96729 12.8676 6.70946 13.5292H7.78104C8.00431 13.1392 8.32661 12.8151 8.71535 12.5898C9.10408 12.3644 9.54545 12.2457 9.99479 12.2457C10.4441 12.2457 10.8855 12.3644 11.2742 12.5898C11.663 12.8151 11.9853 13.1392 12.2085 13.5292H13.2801C13.0223 12.8676 12.5707 12.2992 11.9846 11.8985C11.3984 11.4978 10.7049 11.2834 9.99479 11.2833ZM9.98838 3.58332C8.71956 3.58459 7.47959 3.962 6.42522 4.66784C5.37085 5.37368 4.54941 6.37627 4.06473 7.54888C3.58005 8.72148 3.45389 10.0115 3.70221 11.2557C3.95052 12.5 4.56215 13.6428 5.45979 14.5395C6.35744 15.4363 7.50079 16.0468 8.74532 16.2938C9.98986 16.5409 11.2797 16.4134 12.4518 15.9276C13.6239 15.4417 14.6257 14.6193 15.3305 13.5642C16.0353 12.5092 16.4115 11.2688 16.4115 9.99999C16.4118 9.15669 16.2459 8.32159 15.9232 7.5425C15.6005 6.7634 15.1273 6.05559 14.5307 5.45959C13.9341 4.86359 13.2258 4.39109 12.4464 4.06913C11.6669 3.74718 10.8317 3.58209 9.98838 3.58332ZM9.99479 15.1333C8.97952 15.1333 7.98704 14.8323 7.14287 14.2682C6.2987 13.7041 5.64074 12.9024 5.25221 11.9644C4.86368 11.0264 4.76203 9.99429 4.9601 8.99852C5.15817 8.00275 5.64707 7.08808 6.36498 6.37017C7.08289 5.65226 7.99756 5.16336 8.99333 4.96529C9.9891 4.76722 11.0212 4.86888 11.9592 5.25741C12.8972 5.64593 13.6989 6.30389 14.263 7.14806C14.8271 7.99223 15.1281 8.98471 15.1281 9.99999C15.1281 11.3614 14.5873 12.6671 13.6246 13.6298C12.6619 14.5925 11.3562 15.1333 9.99479 15.1333Z" fill="white"/>
</svg>
