<svg viewBox="0 0 48 48" xmlns="http://www.w3.org/2000/svg">
    <path fill-rule="evenodd" clip-rule="evenodd"
        d="M24 0C19.5 0 15.7188 0.238037 12.6016 0.930664C9.45703 1.62964 6.84375 2.82251 4.83203 4.83252C2.82422 6.84277 1.62891 9.45605 0.929688 12.6001C0.238281 15.717 0 19.4983 0 24C0 28.5017 0.238281 32.283 0.929688 35.3997C1.30469 37.0823 1.82031 38.6128 2.52734 39.9802C3.14062 41.1682 3.89844 42.2329 4.83203 43.1675C6.84375 45.1775 9.45703 46.3704 12.6016 47.0693C15.7188 47.762 19.5 48 24 48C26.4531 48 28.6914 47.9294 30.7227 47.7532C32.4219 47.606 33.9805 47.3848 35.3984 47.0693C38.543 46.3704 41.1562 45.1775 43.168 43.1675C45.1758 41.1572 46.3711 38.5439 47.0703 35.3997C47.7617 32.283 48 28.5017 48 24C48 19.4983 47.7617 15.717 47.0703 12.6001C46.3711 9.45605 45.1758 6.84277 43.168 4.83252C41.1562 2.82251 38.543 1.62964 35.3984 0.930664C32.2812 0.238037 28.5 0 24 0ZM13.8787 13.8787C15.0503 12.7071 16.9497 12.7071 18.1213 13.8787L24 19.7574L29.8787 13.8787C31.0503 12.7071 32.9497 12.7071 34.1213 13.8787C35.2929 15.0503 35.2929 16.9497 34.1213 18.1213L28.2426 24L34.1213 29.8787C35.2929 31.0503 35.2929 32.9497 34.1213 34.1213C32.9497 35.2929 31.0503 35.2929 29.8787 34.1213L24 28.2426L18.1213 34.1213C16.9497 35.2929 15.0503 35.2929 13.8787 34.1213C12.7071 32.9497 12.7071 31.0503 13.8787 29.8787L19.7574 24L13.8787 18.1213C12.7071 16.9497 12.7071 15.0503 13.8787 13.8787Z" />
</svg>