<svg viewBox="0 0 24 24" xmlns="http://www.w3.org/2000/svg">
<path fill-rule="evenodd" clip-rule="evenodd" d="M11.9961 23C18.0703 23 22.9961 18.0752 22.9961 12C22.9961 5.9248 18.0703 1 11.9961 1C5.92188 1 0.996094 5.9248 0.996094 12C0.996094 18.0752 5.92188 23 11.9961 23ZM5.10547 10.1882C5.03516 10.2737 4.99609 10.3821 4.99609 10.5V13.5C4.99609 13.7761 5.21875 14 5.49609 14H18.4961C18.7734 14 18.9961 13.7761 18.9961 13.5V10.5C18.9961 10.2239 18.7734 10 18.4961 10H5.49609C5.33594 10 5.19531 10.0735 5.10547 10.1882Z"/>
</svg>
