<svg xmlns="http://www.w3.org/2000/svg" width="50.292" height="50.308" viewBox="0 0 50.292 50.308">
  <path id="mode" d="M42.372,35.669a7.541,7.541,0,1,0-11.277,0,13.567,13.567,0,0,0-7.9,11.6A3.036,3.036,0,0,0,26.228,50.3H47.213a3.036,3.036,0,0,0,3.036-3.036h.028a13.568,13.568,0,0,0-7.9-11.6Zm-5.638-9.544a4.551,4.551,0,1,1-4.553,4.553,4.551,4.551,0,0,1,4.553-4.553ZM26.246,47.265a10.513,10.513,0,0,1,20.975,0Zm.416-21.47h0l0,0-8.127,8.126a1.518,1.518,0,0,1-2.147-2.147l7.236-7.237V9.09a1.518,1.518,0,0,1,3.036,0Zm-7.184,22.25a1.518,1.518,0,0,1-1.911,1.069,25.143,25.143,0,1,1,32.655-25.61,1.5,1.5,0,0,1-1.54,1.575,1.521,1.521,0,0,1-1.474-1.431A22.117,22.117,0,1,0,18.458,46.22a1.51,1.51,0,0,1,1.02,1.826Z" transform="translate(0.015 0.007)" />
</svg>
