<svg viewBox="0 0 43 48" xmlns="http://www.w3.org/2000/svg">
    <g>
        <path
            d="M28.2678 0.732233C29.2441 1.70854 29.2441 3.29146 28.2678 4.26777L26.8616 5.67391C36.1415 8.05598 43 16.477 43 26.5C43 38.3741 33.3741 48 21.5 48C9.62588 48 0 38.3741 0 26.5C0 23.047 0.815859 19.7774 2.26758 16.8801C2.8861 15.6457 4.3882 15.1464 5.62263 15.7649C6.85705 16.3834 7.35635 17.8855 6.73783 19.1199C5.62658 21.3377 5 23.8421 5 26.5C5 35.6127 12.3873 43 21.5 43C30.6127 43 38 35.6127 38 26.5C38 17.3873 30.6127 10 21.5 10C20.811 10 20.1871 9.72127 19.7349 9.27042L19.7296 9.26511C19.4912 9.02604 19.3112 8.75073 19.1897 8.45696C19.0675 8.16219 19 7.83897 19 7.5C19 6.8138 19.2765 6.19216 19.7241 5.74041L19.733 5.73149L24.7322 0.732233C25.7085 -0.244078 27.2915 -0.244078 28.2678 0.732233Z"/>
        <path fill-rule="evenodd" clip-rule="evenodd"
              d="M33.5 26.5C33.5 33.1274 28.1274 38.5 21.5 38.5C14.8726 38.5 9.5 33.1274 9.5 26.5C9.5 19.8726 14.8726 14.5 21.5 14.5C28.1274 14.5 33.5 19.8726 33.5 26.5ZM21.5 18.3154C22.0523 18.3154 22.5 18.7631 22.5 19.3154V26.0858L25.2071 28.7929C25.5976 29.1834 25.5976 29.8166 25.2071 30.2071C24.8166 30.5976 24.1834 30.5976 23.7929 30.2071L20.7929 27.2071C20.6054 27.0196 20.5 26.7652 20.5 26.5V19.3154C20.5 18.7631 20.9477 18.3154 21.5 18.3154Z"/>
    </g>
</svg>
