<svg viewBox="0 0 24 24" xmlns="http://www.w3.org/2000/svg">
<path d="M22.8601 10.3314C22.8345 10.163 22.7637 10.0047 22.6552 9.87331C22.5467 9.74194 22.4046 9.64245 22.2441 9.58543L20.5111 8.96943C20.4095 8.68171 20.2934 8.39935 20.1631 8.12343L20.9521 6.46343C21.0252 6.30957 21.0552 6.13879 21.039 5.96923C21.0228 5.79968 20.961 5.63767 20.8601 5.50043C20.1966 4.59822 19.3994 3.80242 18.4961 3.14043C18.3588 3.03952 18.1968 2.97775 18.0272 2.96172C17.8576 2.9457 17.6868 2.97601 17.5331 3.04943L15.8741 3.83743C15.5982 3.70748 15.3158 3.59166 15.0281 3.49043L14.4141 1.75643C14.3572 1.59616 14.258 1.45427 14.1271 1.34581C13.9961 1.23736 13.8382 1.16639 13.6701 1.14043C12.5646 0.95319 11.4356 0.95319 10.3301 1.14043C10.1619 1.16632 10.0038 1.23726 9.87266 1.34571C9.7415 1.45416 9.64213 1.59608 9.58509 1.75643L8.96809 3.48943C8.68037 3.59061 8.398 3.70643 8.12209 3.83643L6.46209 3.04943C6.308 2.97543 6.13665 2.94479 5.96646 2.96083C5.79627 2.97686 5.63366 3.03895 5.49609 3.14043C4.59525 3.80297 3.80048 4.59874 3.13909 5.50043C3.03822 5.63767 2.9764 5.79968 2.9602 5.96923C2.944 6.13879 2.97403 6.30957 3.04709 6.46343L3.83609 8.12343C3.70587 8.39937 3.58972 8.68173 3.48809 8.96943L1.75509 9.58643C1.59455 9.64345 1.45248 9.74294 1.34401 9.87431C1.23553 10.0057 1.16472 10.164 1.13909 10.3324C1.04874 10.8839 1.00093 11.4416 0.996094 12.0004C0.999579 12.5595 1.04605 13.1175 1.13509 13.6694C1.16072 13.8379 1.23153 13.9962 1.34001 14.1276C1.44848 14.2589 1.59055 14.3584 1.75109 14.4154L3.48409 15.0314C3.58588 15.3191 3.70203 15.6014 3.83209 15.8774L3.04309 17.5364C2.97022 17.6902 2.9403 17.8608 2.9565 18.0301C2.97269 18.1995 3.03441 18.3613 3.13509 18.4984C3.79747 19.4015 4.59361 20.1983 5.49609 20.8614C5.63329 20.9624 5.79537 21.0243 5.96499 21.0403C6.13461 21.0563 6.3054 21.026 6.45909 20.9524L8.11809 20.1644C8.39402 20.2944 8.67639 20.4102 8.96409 20.5114L9.58109 22.2444C9.63803 22.4048 9.73737 22.5468 9.86855 22.6553C9.99973 22.7637 10.1578 22.8346 10.3261 22.8604C10.8784 22.9498 11.4367 22.9966 11.9961 23.0004C12.5555 22.997 13.1138 22.9505 13.6661 22.8614C13.8343 22.8356 13.9925 22.7647 14.1236 22.6563C14.2548 22.5478 14.3542 22.4058 14.4111 22.2454L15.0281 20.5124C15.3158 20.4112 15.5982 20.2954 15.8741 20.1654L17.5331 20.9534C17.6868 21.0269 17.8576 21.0572 18.0272 21.0411C18.1968 21.0251 18.3588 20.9633 18.4961 20.8624C19.3996 20.1998 20.1967 19.4034 20.8601 18.5004C20.9608 18.3633 21.0225 18.2015 21.0387 18.0321C21.0549 17.8628 21.025 17.6922 20.9521 17.5384L20.1631 15.8794C20.2933 15.6035 20.4095 15.3211 20.5111 15.0334L22.2441 14.4174C22.4046 14.3604 22.5467 14.2609 22.6552 14.1296C22.7637 13.9982 22.8345 13.8399 22.8601 13.6714C22.9483 13.1187 22.9937 12.5601 22.9961 12.0004C22.9936 11.4414 22.9482 10.8835 22.8601 10.3314ZM21.0681 12.8314L19.4421 13.4094C19.302 13.4591 19.1757 13.5413 19.0735 13.6493C18.9713 13.7572 18.8961 13.8878 18.8541 14.0304C18.7137 14.5099 18.523 14.9731 18.2851 15.4124C18.2138 15.5431 18.1745 15.6888 18.1703 15.8376C18.1662 15.9863 18.1973 16.134 18.2611 16.2684L18.9961 17.8204C18.641 18.2489 18.2473 18.6439 17.8201 19.0004L16.2691 18.2634C16.1349 18.1994 15.9875 18.1681 15.8388 18.1721C15.6902 18.1761 15.5446 18.2153 15.4141 18.2864C14.9743 18.5237 14.5107 18.7141 14.0311 18.8544C13.8885 18.8964 13.7579 18.9716 13.6499 19.0738C13.542 19.176 13.4598 19.3023 13.4101 19.4424L12.8311 21.0694C12.2781 21.1295 11.7201 21.1295 11.1671 21.0694L10.5881 19.4424C10.5382 19.3024 10.456 19.1762 10.3481 19.074C10.2402 18.9718 10.1096 18.8966 9.96709 18.8544C9.48741 18.7142 9.02385 18.5238 8.58409 18.2864C8.45363 18.215 8.30805 18.1757 8.15937 18.1717C8.0107 18.1677 7.86321 18.1991 7.72909 18.2634L6.17909 19.0004C5.74968 18.6439 5.3537 18.2489 4.99609 17.8204L5.73309 16.2694C5.79693 16.135 5.82803 15.9873 5.82386 15.8385C5.81969 15.6898 5.78036 15.5441 5.70909 15.4134C5.47133 14.9741 5.28061 14.5108 5.14009 14.0314C5.09803 13.8889 5.02282 13.7583 4.92063 13.6504C4.81843 13.5424 4.69215 13.4602 4.55209 13.4104L2.92609 12.8324C2.86549 12.2794 2.86549 11.7214 2.92609 11.1684L4.55709 10.5904C4.69715 10.5407 4.82343 10.4584 4.92563 10.3505C5.02782 10.2426 5.10303 10.112 5.14509 9.96943C5.28591 9.48981 5.47662 9.02628 5.71409 8.58643C5.78528 8.45592 5.82456 8.31041 5.82873 8.16181C5.8329 8.01321 5.80184 7.86573 5.73809 7.73143L4.99609 6.18043C5.35367 5.75189 5.74965 5.35692 6.17909 5.00043L7.73009 5.73743C7.86427 5.80149 8.01173 5.83281 8.16036 5.82881C8.30899 5.82481 8.45455 5.78561 8.58509 5.71443C9.0245 5.47702 9.48773 5.28663 9.96709 5.14643C10.1096 5.10429 10.2402 5.02906 10.3481 4.92688C10.456 4.82469 10.5382 4.69844 10.5881 4.55843L11.1671 2.93143C11.7201 2.8707 12.2781 2.8707 12.8311 2.93143L13.4101 4.55843C13.4599 4.69844 13.5422 4.82469 13.6501 4.92688C13.758 5.02906 13.8886 5.10429 14.0311 5.14643C14.5108 5.28663 14.9743 5.47702 15.4141 5.71443C15.5446 5.78585 15.6901 5.82518 15.8388 5.82918C15.9875 5.83318 16.135 5.80173 16.2691 5.73743L17.8201 5.00043C18.2471 5.35724 18.6407 5.75221 18.9961 6.18043L18.2591 7.73143C18.1953 7.86573 18.1643 8.01321 18.1685 8.16181C18.1726 8.31041 18.2119 8.45592 18.2831 8.58643C18.5207 9.02587 18.7114 9.48909 18.8521 9.96843C18.8941 10.111 18.9693 10.2416 19.0715 10.3496C19.1737 10.4575 19.3 10.5397 19.4401 10.5894L21.0661 11.1674C21.1267 11.7204 21.1267 12.2784 21.0661 12.8314H21.0681Z"/>
<path d="M11.9998 7.41211C11.1365 7.41211 10.2925 7.66811 9.5747 8.14775C8.85688 8.62738 8.29741 9.3091 7.96703 10.1067C7.63666 10.9043 7.55022 11.782 7.71864 12.6287C7.88706 13.4754 8.30279 14.2532 8.91325 14.8636C9.5237 15.4741 10.3015 15.8898 11.1482 16.0582C11.9949 16.2267 12.8726 16.1402 13.6702 15.8098C14.4678 15.4795 15.1495 14.92 15.6291 14.2022C16.1088 13.4844 16.3648 12.6404 16.3648 11.7771C16.3634 10.6198 15.9031 9.51036 15.0848 8.69205C14.2665 7.87374 13.157 7.41343 11.9998 7.41211ZM11.9998 14.2561C11.5095 14.2555 11.0304 14.1096 10.6231 13.8367C10.2158 13.5639 9.89853 13.1764 9.71142 12.7232C9.52431 12.2701 9.47576 11.7716 9.57192 11.2909C9.66807 10.8102 9.90461 10.3687 10.2516 10.0224C10.5986 9.67611 11.0405 9.44047 11.5215 9.34528C12.0024 9.2501 12.5008 9.29965 12.9535 9.48767C13.4063 9.6757 13.7931 9.99375 14.0652 10.4016C14.3372 10.8095 14.4822 11.2889 14.4818 11.7791C14.481 12.4369 14.2191 13.0674 13.7537 13.5322C13.2884 13.997 12.6575 14.2581 11.9998 14.2581V14.2561Z"/>
</svg>
