<svg xmlns="http://www.w3.org/2000/svg" viewBox="0 0 20 19">
    <path d="M.75 2h14.5a.75.75 0 1 1 0 1.5H.75a.75.75 0 0 1 0-1.5z"></path>
    <path
        d="M17.5 5a2.5 2.5 0 1 1 0-5 2.5 2.5 0 0 1 0 5zm0-1.5a1 1 0 1 0 0-2 1 1 0 0 0 0 2zM12.75 9h6.5a.75.75 0 1 1 0 1.5h-6.5a.75.75 0 1 1 0-1.5zm-12 0h7.5a.75.75 0 1 1 0 1.5H.75a.75.75 0 0 1 0-1.5z">
    </path>
    <path
        d="M10.5 12a2.5 2.5 0 1 1 0-5 2.5 2.5 0 0 1 0 5zm0-1.5a1 1 0 1 0 0-2 1 1 0 0 0 0 2zM4.75 16h14.5a.75.75 0 1 1 0 1.5H4.75a.75.75 0 1 1 0-1.5z">
    </path>
    <path d="M2.5 19a2.5 2.5 0 1 1 0-5 2.5 2.5 0 0 1 0 5zm0-1.5a1 1 0 1 0 0-2 1 1 0 0 0 0 2z"></path>
</svg>