<svg viewBox="0 0 22 20" xmlns="http://www.w3.org/2000/svg">
<path d="M3.126 4.00001C3.34699 3.14048 3.84756 2.37886 4.5489 1.83503C5.25024 1.29121 6.11252 0.996063 7 0.996063C7.88748 0.996063 8.74976 1.29121 9.4511 1.83503C10.1524 2.37886 10.653 3.14048 10.874 4.00001H21C21.2652 4.00001 21.5196 4.10537 21.7071 4.2929C21.8946 4.48044 22 4.73479 22 5.00001C22 5.26523 21.8946 5.51958 21.7071 5.70712C21.5196 5.89465 21.2652 6.00001 21 6.00001H10.874C10.653 6.85953 10.1524 7.62116 9.4511 8.16498C8.74976 8.70881 7.88748 9.00395 7 9.00395C6.11252 9.00395 5.25024 8.70881 4.5489 8.16498C3.84756 7.62116 3.34699 6.85953 3.126 6.00001H1C0.734784 6.00001 0.48043 5.89465 0.292893 5.70712C0.105357 5.51958 0 5.26523 0 5.00001C0 4.73479 0.105357 4.48044 0.292893 4.2929C0.48043 4.10537 0.734784 4.00001 1 4.00001H3.126ZM11.126 14C11.347 13.1405 11.8476 12.3789 12.5489 11.835C13.2502 11.2912 14.1125 10.9961 15 10.9961C15.8875 10.9961 16.7498 11.2912 17.4511 11.835C18.1524 12.3789 18.653 13.1405 18.874 14H21C21.2652 14 21.5196 14.1054 21.7071 14.2929C21.8946 14.4804 22 14.7348 22 15C22 15.2652 21.8946 15.5196 21.7071 15.7071C21.5196 15.8947 21.2652 16 21 16H18.874C18.653 16.8595 18.1524 17.6212 17.4511 18.165C16.7498 18.7088 15.8875 19.004 15 19.004C14.1125 19.004 13.2502 18.7088 12.5489 18.165C11.8476 17.6212 11.347 16.8595 11.126 16H1C0.734784 16 0.48043 15.8947 0.292893 15.7071C0.105357 15.5196 0 15.2652 0 15C0 14.7348 0.105357 14.4804 0.292893 14.2929C0.48043 14.1054 0.734784 14 1 14H11.126ZM15 17C15.3956 17 15.7822 16.8827 16.1111 16.6629C16.44 16.4432 16.6964 16.1308 16.8478 15.7654C16.9991 15.3999 17.0387 14.9978 16.9616 14.6098C16.8844 14.2219 16.6939 13.8655 16.4142 13.5858C16.1345 13.3061 15.7781 13.1156 15.3902 13.0384C15.0022 12.9613 14.6001 13.0009 14.2346 13.1523C13.8692 13.3036 13.5568 13.56 13.3371 13.8889C13.1173 14.2178 13 14.6044 13 15C13 15.5304 13.2107 16.0392 13.5858 16.4142C13.9609 16.7893 14.4696 17 15 17ZM7 7.00001C7.39556 7.00001 7.78224 6.88271 8.11114 6.66295C8.44004 6.44319 8.69638 6.13083 8.84776 5.76538C8.99913 5.39992 9.03874 4.99779 8.96157 4.60983C8.8844 4.22187 8.69392 3.8655 8.41421 3.5858C8.13451 3.30609 7.77814 3.11561 7.39018 3.03844C7.00222 2.96127 6.60009 3.00087 6.23463 3.15225C5.86918 3.30363 5.55682 3.55997 5.33706 3.88887C5.1173 4.21777 5 4.60445 5 5.00001C5 5.53044 5.21071 6.03915 5.58579 6.41422C5.96086 6.7893 6.46957 7.00001 7 7.00001Z" />
</svg>
