<svg xmlns="http://www.w3.org/2000/svg" width="24" height="24" viewBox="0 0 24 24">
  <g id="_1" data-name="1" transform="translate(-16 -72)">
    <rect id="Прямоугольник_9587" data-name="Прямоугольник 9587" width="24" height="24" transform="translate(16 72)" fill="none"/>
    <path id="_1-2" data-name="1" d="M10.265,16.589H.746a.73.73,0,0,1-.73-.728h0V.172a.73.73,0,0,1,.73-.73h9.52a.73.73,0,0,1,.73.73V15.86a.73.73,0,0,1-.73.73ZM1.476,15.13h8.06V.9H1.476Zm8.789,8.312H.746a.73.73,0,0,1-.73-.73V19.265a.73.73,0,0,1,.73-.73h9.519a.73.73,0,0,1,.73.73v3.447a.73.73,0,0,1-.73.73Zm-8.789-1.46h8.06V19.995H1.476ZM23.286,6.295H13.767a.73.73,0,0,0-.73.73h0V22.712a.73.73,0,0,0,.73.73h9.52a.73.73,0,0,0,.73-.73V7.024a.73.73,0,0,0-.73-.73ZM14.5,7.754h8.06V21.982H14.5ZM23.286-.558H13.767a.73.73,0,0,0-.73.73V3.619a.73.73,0,0,0,.73.73h9.519a.73.73,0,0,0,.73-.73V.172a.73.73,0,0,0-.73-.73ZM14.5.9h8.06V2.888H14.5Z" transform="translate(15.984 72.558)" />
  </g>
</svg>
