<svg xmlns="http://www.w3.org/2000/svg" viewBox="0 0 24 24">
  <g transform="translate(-747 -703)">
    <rect width="24" height="24" transform="translate(747 703)" fill="none"/>
    <path d="M14,8.084Q14,8.042,14,8V7a1,1,0,0,0-1-1H4A1,1,0,0,0,3,7v8a1,1,0,0,0,1,1h.337a3.5,3.5,0,0,1,6.326,0h3.674a3.5,3.5,0,0,1,6.235-.18A1,1,0,0,0,21,15V13.333a3,3,0,0,0-.6-1.8l-1-1.332A3,3,0,0,0,17,9H16v1.959a1,1,0,0,1-2,0ZM14.035,18h-3.07a3.5,3.5,0,0,1-6.93,0H4a3,3,0,0,1-3-3V7A3,3,0,0,1,4,4h9a3,3,0,0,1,3,3h1a5,5,0,0,1,4,2l1,1.334a5,5,0,0,1,1,3V15a3,3,0,0,1-2.016,2.835A3.5,3.5,0,0,1,14.035,18ZM7.5,19A1.5,1.5,0,1,0,6,17.5,1.5,1.5,0,0,0,7.5,19Zm10,0A1.5,1.5,0,1,0,16,17.5,1.5,1.5,0,0,0,17.5,19Z" transform="translate(747 702.5)" />
  </g>
</svg>
