<svg viewBox="0 0 24 24" xmlns="http://www.w3.org/2000/svg">
<path d="M21.6548 16.822V20.4221C21.6708 20.9656 21.4834 21.4955 21.1292 21.908C20.7749 22.3204 20.2794 22.5858 19.7397 22.6521H4.25977C3.72011 22.5858 3.22483 22.3204 2.87061 21.908C2.51638 21.4955 2.32871 20.9656 2.34473 20.4221V16.822C2.34473 16.5714 2.44436 16.331 2.62158 16.1538C2.7988 15.9766 3.03917 15.877 3.28979 15.877C3.54042 15.877 3.78079 15.9766 3.95801 16.1538C4.13523 16.331 4.23486 16.5714 4.23486 16.822V20.4221C4.2504 20.5459 4.29863 20.6631 4.37476 20.762H19.6218C19.6987 20.6634 19.7475 20.5461 19.7629 20.4221V16.822C19.7629 16.5714 19.8623 16.331 20.0396 16.1538C20.2168 15.9766 20.4571 15.877 20.7078 15.877C20.9584 15.877 21.1988 15.9766 21.376 16.1538C21.5532 16.331 21.6528 16.5714 21.6528 16.822H21.6548ZM23.0007 7.52197V14.2061C23.0007 14.4567 22.9013 14.697 22.7241 14.8743C22.5469 15.0515 22.3065 15.1511 22.0559 15.1511H1.94873C1.6981 15.1511 1.45774 15.0515 1.28052 14.8743C1.1033 14.697 1.00391 14.4567 1.00391 14.2061V7.52197C1.0047 6.87562 1.26171 6.25611 1.71875 5.79907C2.17579 5.34203 2.79554 5.08478 3.44189 5.08398H7.81592V2.55713C7.81592 2.22243 7.94888 1.90122 8.18555 1.66455C8.42222 1.42788 8.74318 1.29492 9.07788 1.29492H14.9287C15.2634 1.29492 15.5846 1.42788 15.8213 1.66455C16.058 1.90122 16.1909 2.22243 16.1909 2.55713V5.08398H20.5659C21.2124 5.08504 21.8319 5.3426 22.2888 5.80005C22.7457 6.25749 23.0027 6.8774 23.0029 7.52393L23.0007 7.52197ZM9.70093 5.08398H14.3008V3.20898C14.3008 3.20582 14.3003 3.20263 14.2991 3.19971C14.2979 3.19678 14.2962 3.19434 14.2939 3.19214C14.2917 3.18991 14.2891 3.18797 14.2861 3.18677C14.2832 3.18557 14.28 3.18505 14.2769 3.18506H9.72778C9.72462 3.18499 9.72143 3.18556 9.71851 3.18677C9.71558 3.18797 9.71314 3.18987 9.71094 3.19214C9.70653 3.19671 9.70395 3.20263 9.70386 3.20898L9.70093 5.08398ZM21.1089 7.52197C21.1089 7.37663 21.051 7.23729 20.9482 7.13452C20.8455 7.03175 20.7061 6.97412 20.5608 6.97412H3.43579C3.29053 6.97439 3.1513 7.03205 3.04858 7.13477C2.94587 7.23748 2.8882 7.37672 2.88794 7.52197V13.261H21.1079L21.1089 7.52197Z"/>
</svg>
