<svg xmlns="http://www.w3.org/2000/svg" width="62.104" height="70" viewBox="0 0 62.104 70">
  <g transform="translate(-2364.423 -272.976)">
    <circle cx="13.129" cy="13.129" r="13.129" transform="translate(2396.042 312.001)" fill="#ff8272"/>
    <g transform="translate(2364.423 272.976)">
      <path d="M2404.646,300.109a1.509,1.509,0,0,1,0,3.017h-28.123a1.509,1.509,0,0,1-.078-3.017c.026,0,.052,0,.078,0Zm-5.534,9.167h0a1.509,1.509,0,0,0-1.509-1.509h-21.08a1.509,1.509,0,0,0-.078,3.017H2397.6A1.509,1.509,0,0,0,2399.112,309.276Zm-10.036,9.238a1.509,1.509,0,0,0,0-3.017h-12.552a1.509,1.509,0,0,0,0,3.017Zm4.9,21.45h-21.105a5.431,5.431,0,0,1-5.431-5.431V281.424a5.431,5.431,0,0,1,5.431-5.431H2408.3a5.431,5.431,0,0,1,5.432,5.431v26.345a1.509,1.509,0,0,0,3.017,0V281.424a8.448,8.448,0,0,0-8.448-8.448h-35.427a8.448,8.448,0,0,0-8.448,8.448v53.1a8.447,8.447,0,0,0,8.444,8.452h21.1a1.509,1.509,0,0,0,0-3.017Zm18.377,3.012a14.173,14.173,0,1,1,14.173-14.173A14.189,14.189,0,0,1,2412.354,342.976Zm0-25.342a11.169,11.169,0,1,0,11.169,11.169A11.182,11.182,0,0,0,2412.354,317.634Z" transform="translate(-2364.423 -272.976)"/>
    </g>
    <g transform="translate(2407.377 323.91)">
      <g transform="translate(0 0)">
        <rect width="2.238" height="12.323" rx="1.119" transform="translate(0.136 1.582) rotate(-45)"/>
        <rect width="2.238" height="12.323" rx="1.119" transform="translate(9.05 0.145) rotate(47.258)"/>
      </g>
    </g>
  </g>
</svg>
