<svg xmlns="http://www.w3.org/2000/svg" viewBox="0 0 50 44.059">
	<g transform="translate(0 0.001)">
		<circle fill="#ff8272" cx="8.071" cy="8.071" r="8.071" transform="translate(32.416 22.733)"/>
		<path d="M227.469,149.8a.791.791,0,0,1-.532-.205L211.02,135.155a21.336,21.336,0,0,1-6.562-10.955,13.745,13.745,0,0,1-.405-5.081c.7-7.744,6.234-13.373,13.15-13.373a12.662,12.662,0,0,1,10.292,5.394A13.148,13.148,0,0,1,238,105.746c6.923,0,12.452,5.629,13.157,13.385a13.808,13.808,0,0,1-.414,5.092.792.792,0,1,1-1.528-.416,12.257,12.257,0,0,0,.364-4.521c-.63-6.933-5.5-11.956-11.577-11.956a11.548,11.548,0,0,0-9.847,5.676.792.792,0,0,1-1.374-.015,11.071,11.071,0,0,0-9.59-5.662c-6.076,0-10.942,5.024-11.57,11.945a12.231,12.231,0,0,0,.363,4.532,19.784,19.784,0,0,0,6.088,10.172l15.395,13.97,5.239-4.673a.792.792,0,1,1,1.054,1.182l-5.77,5.148A.79.79,0,0,1,227.469,149.8Zm16.416-3.682a10.089,10.089,0,1,1,10.089-10.089A10.089,10.089,0,0,1,243.884,146.122Zm0-18.6a8.506,8.506,0,1,0,8.506,8.506A8.506,8.506,0,0,0,243.884,127.527Zm-2.707,12.194a.792.792,0,0,1-.578-1.332l2.185-2.337-2.262-2.262a.792.792,0,0,1,1.12-1.12l2.224,2.224,2.148-2.3a.792.792,0,1,1,1.157,1.081l-2.185,2.337,2.262,2.262a.792.792,0,1,1-1.12,1.12l-2.224-2.224-2.148,2.3A.789.789,0,0,1,241.177,139.721Z" transform="translate(-203.974 -105.746)"/>
	</g>
</svg>