<svg xmlns="http://www.w3.org/2000/svg" width="50" height="50" viewBox="0 0 50 50">
  <g transform="translate(-1780 -438)">
    <rect width="50" height="50" transform="translate(1780 438)" fill="none"/>
    <g transform="translate(1781.298 437.999)">
      <path d="M8.177,0A8.177,8.177,0,1,1,0,8.177,8.177,8.177,0,0,1,8.177,0Z" transform="translate(29.245 3.82)" fill="#ff8272"/>
      <path id="Контур_12969" data-name="Контур 12969" d="M125.965,255.513c-1.977,2.763-4.2,4.168-6.616,4.175h-.018c-4.054,0-7-4-7.121-4.171a.858.858,0,1,1,1.389-1.008c.025.035,2.561,3.463,5.732,3.463h.02c1.827-.008,3.582-1.171,5.217-3.457a.858.858,0,0,1,1.4,1Zm12.68-20.012a10.139,10.139,0,0,1-2.923-2.806.859.859,0,0,0-1.409.982,11.835,11.835,0,0,0,3.51,3.335.877.877,0,0,0,.189.086c.117.038,2.844.949,2.987,3.549-.04.4-1.065,7.318-21.9,7.461h-.018c-20.842-.141-21.868-7.062-21.907-7.461.143-2.6,2.871-3.511,2.984-3.548a.864.864,0,0,0,.192-.086c5.606-3.45,6.031-10.131,6.047-10.441.318-14.549,11.416-15.028,12.7-15.034a12.772,12.772,0,0,1,3.441.594.858.858,0,1,0,.508-1.64,14.406,14.406,0,0,0-3.938-.672h-.043c-.573,0-14.025.264-14.384,16.684,0,.06-.4,6.008-5.153,9-.666.24-3.917,1.592-4.074,5.154,0,.368.311,9.012,23.633,9.171h.03c23.29-.161,23.6-8.8,23.6-9.213-.159-3.525-3.409-4.871-4.074-5.113Zm-17.767-14.846a10.968,10.968,0,1,1,10.968,10.969,10.967,10.967,0,0,1-10.968-10.969Zm1.717,0a9.251,9.251,0,1,0,9.251-9.251,9.251,9.251,0,0,0-9.251,9.251Zm8.058.021-2.472,2.644a.858.858,0,1,0,1.254,1.172l2.432-2.6,2.518,2.518a.859.859,0,1,0,1.216-1.214l-2.56-2.559,2.472-2.644a.858.858,0,0,0-1.254-1.172l-2.432,2.6-2.519-2.518a.858.858,0,1,0-1.214,1.214Z" transform="translate(-95.453 -209.687)"/>
    </g>
  </g>
</svg>
