<svg xmlns="http://www.w3.org/2000/svg" viewBox="0 0 50.003 50">
  <g transform="translate(-924.998 -452)">
    <g transform="translate(925 452.499)">
      <circle cx="8.356" cy="8.356" r="8.356" transform="translate(32.501 30.806)" fill="#ff8272"/>
      <path d="M153.063,981.664h-21.8a3.362,3.362,0,0,1-3.357-3.357V949.335h40.067V956.8a.84.84,0,0,0,1.679,0V943.96a4.621,4.621,0,0,0-4.615-4.616H159.96v-4.081a.839.839,0,0,0-1.678,0v4.082h-20.7v-4.082a.84.84,0,1,0-1.679,0v4.082h-4.647a5.042,5.042,0,0,0-5.036,5.036v33.928a5.042,5.042,0,0,0,5.036,5.036h21.8a.839.839,0,0,0,0-1.678ZM127.9,944.378a3.362,3.362,0,0,1,3.357-3.357h33.772a2.94,2.94,0,0,1,2.936,2.937v3.7H127.9Zm37.6,17.475a10.723,10.723,0,1,0,10.723,10.723A10.723,10.723,0,0,0,165.5,961.853Zm0,19.768a9.045,9.045,0,1,1,9.044-9.044,9.045,9.045,0,0,1-9.044,9.044Zm3.864-6.658a.839.839,0,0,1-1.186,1.186l-2.366-2.366-2.286,2.445a.839.839,0,1,1-1.226-1.143l2.324-2.486-2.406-2.406a.839.839,0,0,1,1.187-1.187l2.366,2.366,2.286-2.445a.839.839,0,0,1,1.226,1.143l-2.324,2.486Z" transform="translate(-126.222 -934.424)"/>
    </g>
  </g>
</svg>
