<svg xmlns="http://www.w3.org/2000/svg" viewBox="0 0 50 50">
  <g transform="translate(-1008 -1018)">
    <g transform="translate(1007.998 1020.996)">
      <path d="M8.345,0A8.345,8.345,0,1,1,0,8.345,8.345,8.345,0,0,1,8.345,0Z" transform="translate(32.03 25.732)" fill="#ff8272"/>
      <path id="Контур_13065" data-name="Контур 13065" d="M401.175,267.237l-8.834-8.571a.834.834,0,0,0-1.236.083l-5.134,6.509-8.685-9.493a.818.818,0,0,0-.635-.271.834.834,0,0,0-.622.3l-13.287,15.911V249.832a3.342,3.342,0,0,1,3.338-3.338h33.581a2.924,2.924,0,0,1,2.921,2.921v12.767a.834.834,0,0,0,1.669,0V249.414a4.594,4.594,0,0,0-4.589-4.589h-33.58a5.013,5.013,0,0,0-5.007,5.007v33.733a5.013,5.013,0,0,0,5.007,5.007h21.681a.834.834,0,1,0,0-1.669H366.082a3.342,3.342,0,0,1-3.338-3.338v-9.252L376.7,257.6l10.681,11.675a.834.834,0,1,0,1.231-1.127l-1.5-1.639,4.73-6,7.023,6.812a10.671,10.671,0,1,0,2.31-.083Zm-.758,19.626a8.994,8.994,0,1,1,8.994-8.994,8.994,8.994,0,0,1-8.994,8.994Zm3.553-6.62a.834.834,0,1,1-1.18,1.18l-2.353-2.353-2.272,2.431a.834.834,0,1,1-1.219-1.139l2.311-2.472-2.393-2.393a.834.834,0,1,1,1.18-1.18l2.353,2.353,2.272-2.431a.834.834,0,1,1,1.219,1.139l-2.31,2.472Z" transform="translate(-361.073 -244.823)"/>
    </g>
  </g>
</svg>
