<svg xmlns="http://www.w3.org/2000/svg" viewBox="0 0 50 48.98">
  <g transform="translate(-1674 -370)">
    <circle cx="8.5" cy="8.5" r="8.5" transform="translate(1706 401)" fill="#ff8272"/>
    <path d="M375.515,287.636a.938.938,0,0,1-.665-.275l-6.336-6.336-6.1,6.1a.94.94,0,0,1-1.6-.665V239.6a.94.94,0,0,1,.94-.94h42.565a.94.94,0,0,1,.94.94v21.9a.94.94,0,1,1-1.881,0V240.537H362.692v43.65l4.9-4.905a1.3,1.3,0,0,1,1.834,0l6.084,6.084,6.124-6.124a1.3,1.3,0,0,1,1.834,0l4.308,4.308a.94.94,0,0,1-1.33,1.33l-3.9-3.9-6.376,6.376A.938.938,0,0,1,375.515,287.636Zm24.511-.064a10.786,10.786,0,1,1,10.785-10.786A10.786,10.786,0,0,1,400.026,287.572Zm0-19.691a8.905,8.905,0,1,0,8.9,8.9,8.905,8.905,0,0,0-8.9-8.9Zm-1.231,13.608a.941.941,0,0,1-.665-.275l-2.946-2.946a.94.94,0,0,1,1.33-1.33l2.225,2.225,4.746-5.749a.94.94,0,1,1,1.431,1.219l-5.407,6.526a.942.942,0,0,1-.678.33Zm-7.033-17.4h0L370.191,264a.94.94,0,1,1,0-1.881h0l21.567.086a.94.94,0,1,1,0,1.881Zm0-8.824h0l-21.567-.064a.94.94,0,0,1,0-1.881h0l21.567.064a.94.94,0,0,1,0,1.881Z" transform="translate(1313.189 131.344)" fill="#101928"/>
  </g>
</svg>
