<svg xmlns="http://www.w3.org/2000/svg" width="50" height="50" viewBox="0 0 50 50">
  <g transform="translate(-1207 -313)">
    <rect width="50" height="50" transform="translate(1207 313)" fill="none"/>
    <g transform="translate(1206.99 314.001)">
      <circle id="Эллипс_1174" data-name="Эллипс 1174" cx="8.018" cy="8.018" r="8.018" transform="translate(27.801 29.568)" fill="#ff8272"/>
      <path d="M253.935,111.4l-6.369,6.208a.784.784,0,1,1-1.095-1.123l6.369-6.208a.215.215,0,0,0-.12-.367l-15-2.18a1.783,1.783,0,0,1-1.343-.976l-6.709-13.6a.215.215,0,0,0-.386,0l-6.709,13.6a1.784,1.784,0,0,1-1.343.976l-15,2.182a.215.215,0,0,0-.118.367l10.856,10.582a1.782,1.782,0,0,1,.513,1.579l-2.563,14.941a.216.216,0,0,0,.314.227l11.137-5.856a.784.784,0,1,1,.73,1.389L215.957,139a1.784,1.784,0,0,1-2.588-1.88l2.563-14.941a.214.214,0,0,0-.062-.191l-10.856-10.582a1.783,1.783,0,0,1,.988-3.042l15-2.18a.217.217,0,0,0,.162-.118l6.707-13.6a1.783,1.783,0,0,1,3.2,0l6.71,13.595a.216.216,0,0,0,.162.118l15,2.18a1.784,1.784,0,0,1,.989,3.042Zm-5.2,16.144a10.022,10.022,0,1,1-10.022-10.022,10.022,10.022,0,0,1,10.022,10.022Zm-1.569,0A8.453,8.453,0,1,0,238.71,136a8.453,8.453,0,0,0,8.453-8.453Zm-7.362-.018,2.172-2.324a.784.784,0,1,0-1.146-1.071l-2.136,2.285-2.211-2.211a.784.784,0,1,0-1.109,1.109l2.251,2.249-2.172,2.324a.784.784,0,1,0,1.146,1.071l2.136-2.285,2.211,2.211a.784.784,0,1,0,1.109-1.109Z" transform="translate(-204.465 -91.474)"/>
    </g>
  </g>
</svg>
