<svg xmlns="http://www.w3.org/2000/svg" width="50" height="50" viewBox="0 0 50 50">
  <g id="payment_slim_color" transform="translate(-1115 -434)">
    <rect id="Прямоугольник_10171" data-name="Прямоугольник 10171" width="50" height="50" transform="translate(1115 434)" fill="none"/>
    <g id="payment_slim_color-2" data-name="payment_slim_color" transform="translate(22 60)">
      <g id="color" transform="translate(294.887 -813.804)">
        <path id="Объединение_1" data-name="Объединение 1" d="M2130.113,923.434v-13.32c0-4.037,6.179-7.31,13.8-7.31s13.8,3.272,13.8,7.31v13.32c0,4.037-6.179,7.31-13.8,7.31S2130.113,927.472,2130.113,923.434Z" transform="translate(-1310.619 306)" fill="#ff8272"/>
      </g>
      <path id="payment_slim" d="M4093.9,2696.488c-7.009,0-12.5,2.93-12.5,6.671v10.359c0,3.742,5.49,6.672,12.5,6.672s12.5-2.93,12.5-6.672v-10.359C4106.4,2699.417,4100.906,2696.488,4093.9,2696.488Zm0,1.974c6.2,0,10.523,2.475,10.523,4.7s-4.321,4.7-10.523,4.7-10.525-2.476-10.525-4.7S4087.7,2698.462,4093.9,2698.462Zm0,19.753c-6.2,0-10.525-2.475-10.525-4.7v-1.26c2.2,1.837,6.05,3.034,10.525,3.034s8.32-1.2,10.523-3.034v1.26c0,2.218-4.318,4.692-10.523,4.692Zm10.523-9.594c0,2.222-4.321,4.7-10.523,4.7s-10.525-2.475-10.525-4.7V2706.8c2.2,1.837,6.05,3.034,10.525,3.034s8.32-1.2,10.523-3.034Zm-1.154-34.666h-45.43a.987.987,0,0,0-.987.987v33.138a.987.987,0,0,0,.987.987h18.317a.987.987,0,1,0,0-1.974h-17.33v-24.663h43.456v16.47a.987.987,0,0,0,1.975,0v-23.958a.986.986,0,0,0-.985-.993Zm-.987,1.974v4.527h-43.456v-4.527Z" transform="translate(-2963.851 -2296.95)" fill="#101928"/>
    </g>
  </g>
</svg>
