<svg 
	xmlns="http://www.w3.org/2000/svg" 
	viewBox="0 0 115.338 90.738"
>
  <path d="M115.116,102.351a2.634,2.634,0,0,1-3.694.465L67.409,68.639A16.967,16.967,0,0,1,41.986,48.9L27.8,37.88A56.742,56.742,0,0,0,10.61,57.133c9.836,17.924,28.049,29,47.916,29A53.124,53.124,0,0,0,76.97,82.826l5.3,4.115a56.719,56.719,0,0,1-23.744,5.192c-22.409,0-41.98-13.05-51.866-32.339a5.9,5.9,0,0,1,0-5.321,60.5,60.5,0,0,1,16.619-20.1L1.349,17.343a2.633,2.633,0,0,1,3.229-4.159L87.491,77.567a56.59,56.59,0,0,0,18.952-20.434c-9.836-17.924-28.048-29-47.917-29A53.149,53.149,0,0,0,38.171,32.19l-5.166-4.012a56.757,56.757,0,0,1,25.521-6.045c22.409,0,41.98,13.05,51.866,32.338a5.9,5.9,0,0,1,0,5.322A60.427,60.427,0,0,1,92.12,81.162l22.531,17.495A2.633,2.633,0,0,1,115.116,102.351Z" transform="translate(-0.331 -12.631)"/>
</svg>
