<svg 
	xmlns="http://www.w3.org/2000/svg" 
	viewBox="0 0 105 70"
>
  <path d="M109.866,55.339C99.98,36.05,80.409,23,58,23S16.015,36.059,6.134,55.34a5.9,5.9,0,0,0,0,5.321C16.02,79.95,35.591,93,58,93s41.985-13.059,51.866-32.34A5.9,5.9,0,0,0,109.866,55.339ZM58,87C38.133,87,19.919,75.924,10.083,58,19.919,40.076,38.131,29,58,29s38.081,11.076,47.917,29C96.083,75.924,77.869,87,58,87ZM75.5,57.333a17,17,0,0,1-34,0,17.233,17.233,0,0,1,.122-1.965,10.489,10.489,0,0,0,13.514-14.7A17,17,0,0,1,75.5,57.333Z" transform="translate(-5.5 -23)"/>
</svg>
