<svg xmlns="http://www.w3.org/2000/svg" width="24" height="24" viewBox="0 0 24 24">
  <g id="_2" data-name="2" transform="translate(-16 -215)">
    <rect id="Прямоугольник_9586" data-name="Прямоугольник 9586" width="24" height="24" transform="translate(16 215)" fill="none"/>
    <g id="_2-2" data-name="2" transform="translate(17 215)">
      <path id="Контур_12826" data-name="Контур 12826" d="M27.439,17H10.967a.967.967,0,0,0-.967.967V36.517a.967.967,0,0,0,.967.968H27.439a.967.967,0,0,0,.967-.967V17.968A.967.967,0,0,0,27.439,17ZM11.448,36.036V18.448H26.958V36.036Z" transform="translate(-10 -13.484)" />
      <path id="Контур_12827" data-name="Контур 12827" d="M39.03,41H29.724a.724.724,0,1,0,0,1.448H39.03a.724.724,0,1,0,0-1.448Z" transform="translate(-25.067 -32.517)" />
      <path id="Контур_12828" data-name="Контур 12828" d="M39.03,63H29.724a.724.724,0,1,0,0,1.448H39.03a.724.724,0,1,0,0-1.448Z" transform="translate(-25.067 -49.965)" />
      <path id="Контур_12829" data-name="Контур 12829" d="M35.721,85h-6a.724.724,0,0,0,0,1.448h6a.724.724,0,0,0,0-1.448Z" transform="translate(-25.068 -67.413)" />
      <path id="Контур_12830" data-name="Контур 12830" d="M42.312,0H24.724a.724.724,0,1,0,0,1.448H41.587V18.3a.724.724,0,0,0,1.448,0V.724A.724.724,0,0,0,42.312,0Z" transform="translate(-21.105)" />
    </g>
  </g>
</svg>
