<svg viewBox="0 0 24 24" xmlns="http://www.w3.org/2000/svg">
<path d="M21.6895 6.18418L12.9185 1.23618C12.6418 1.08001 12.3291 0.998615 12.0114 1.00002C11.6937 1.00142 11.3818 1.08557 11.1065 1.24418L2.31348 6.30818C2.03482 6.46848 1.80332 6.6994 1.64233 6.97766C1.48135 7.25593 1.39655 7.57171 1.39648 7.89318V16.1652C1.39646 16.4879 1.48181 16.8049 1.64392 17.084C1.80603 17.3631 2.03912 17.5943 2.31949 17.7542L11.1015 22.7542C11.3774 22.9114 11.6894 22.9941 12.007 22.9941C12.3245 22.9941 12.6366 22.9114 12.9125 22.7542L21.6935 17.7602C21.9744 17.6005 22.2079 17.3692 22.3704 17.0899C22.5329 16.8106 22.6185 16.4933 22.6185 16.1702V7.77018C22.6183 7.44587 22.5319 7.12743 22.3681 6.84751C22.2044 6.56758 21.9691 6.33624 21.6865 6.17718L21.6895 6.18418ZM12.0075 11.8702L8.83447 10.1142L17.0525 5.45918L20.2395 7.25918L12.0075 11.8702ZM11.9285 2.67018C11.956 2.65449 11.9872 2.64624 12.019 2.64624C12.0507 2.64624 12.0819 2.65449 12.1095 2.67018L15.3785 4.51318L7.14447 9.17818L3.82349 7.34018L11.9285 2.67018ZM3.13947 16.3242C3.11166 16.308 3.08864 16.2848 3.07266 16.2569C3.05669 16.229 3.04832 16.1973 3.04846 16.1652V8.79218L11.1885 13.2982V20.9122L3.13947 16.3242ZM20.8815 16.3352L12.8335 20.9132V13.2942L20.9735 8.73018V16.1752C20.9736 16.2077 20.965 16.2397 20.9487 16.2678C20.9324 16.2959 20.9088 16.3192 20.8805 16.3352H20.8815Z"/>
<path d="M8.63458 13.1404L5.83456 11.5524C5.64467 11.4447 5.41979 11.4169 5.20938 11.475C4.99896 11.5332 4.82026 11.6725 4.71258 11.8624C4.60491 12.0523 4.57705 12.2772 4.63519 12.4876C4.69333 12.698 4.83269 12.8767 5.02258 12.9844L7.82257 14.5724C8.01246 14.6801 8.23737 14.7079 8.44778 14.6498C8.6582 14.5917 8.8369 14.4523 8.94458 14.2624C9.05226 14.0725 9.08008 13.8476 9.02194 13.6372C8.9638 13.4268 8.82448 13.2481 8.63458 13.1404Z"/>
</svg>
