<svg xmlns="http://www.w3.org/2000/svg" viewBox="0 0 66.282 70.001">
	<g transform="translate(-13.601)">
		<g transform="translate(13.601 20.051)">
			<g transform="translate(0)">
				<path d="M78.516,193.87h-3V150.329a3.68,3.68,0,0,0-3.675-3.675h-6.7a3.68,3.68,0,0,0-3.675,3.675V193.87H53.85V170.057a3.679,3.679,0,0,0-3.675-3.675h-6.7a3.68,3.68,0,0,0-3.675,3.675V193.87H32.182V181.537a3.68,3.68,0,0,0-3.675-3.675H21.8a3.68,3.68,0,0,0-3.675,3.675V193.87h-3.16a1.367,1.367,0,1,0,0,2.734H78.516a1.367,1.367,0,0,0,0-2.734Zm-49.068,0H20.863V181.537a.942.942,0,0,1,.941-.941h6.7a.942.942,0,0,1,.941.941V193.87Zm21.668,0H42.531V170.057a.942.942,0,0,1,.941-.941h6.7a.942.942,0,0,1,.941.941Zm21.668,0H64.2V150.329a.942.942,0,0,1,.941-.941h6.7a.942.942,0,0,1,.941.941V193.87Z" transform="translate(-13.601 -146.654)"/>
			</g>
		</g>
			<g transform="translate(25.324)">
				<path d="M149.536,1.438A1.362,1.362,0,0,0,148.1,0c-.022,0-.044,0-.066,0h-8.272a1.367,1.367,0,0,0,0,2.734h5.107L131.355,16.25l-5.1-5.1a1.367,1.367,0,0,0-1.934,0L99.747,35.732a1.367,1.367,0,0,0,1.934,1.933l23.611-23.612,5.1,5.1a1.367,1.367,0,0,0,1.934,0L146.8,4.668V9.291a1.367,1.367,0,0,0,2.734,0V1.5C149.539,1.482,149.537,1.46,149.536,1.438Z" transform="translate(-99.346)"/>
			</g>
			<g transform="translate(20.716 40.102)">
				<g transform="translate(0)">
					<circle cx="1.367" cy="1.367" r="1.367"/>
				</g>
			</g>
		</g>
	</svg>