<svg xmlns="http://www.w3.org/2000/svg" width="24" height="24" viewBox="0 0 24 24">
  <g transform="translate(-309 -619)">
    <rect width="24" height="24" transform="translate(309 619)" fill="none"/>
    <path id="Безымянный-1" d="M305.871,217.094a1.341,1.341,0,0,1-1.341,1.341H285.212a1.341,1.341,0,0,1,0-2.682H304.53a1.341,1.341,0,0,1,1.341,1.341Zm-20.659-7.856H304.53a1.341,1.341,0,1,0,0-2.682H285.212a1.341,1.341,0,0,0,0,2.682Zm19.318,16.095H285.212a1.341,1.341,0,0,0,0,2.682H304.53a1.341,1.341,0,1,0,0-2.682Z" transform="translate(26.129 413.694)"/>
  </g>
</svg>
