<svg xmlns="http://www.w3.org/2000/svg" viewBox="0 0 24 24">
  <g transform="translate(-561 -712)">
    <path d="M1901.128-76.814v10.161a.714.714,0,0,1-.714.714H1894.7a.713.713,0,0,1-.714-.714v-5h-4.29v5a.714.714,0,0,1-.714.714h-5.708a.713.713,0,0,1-.714-.714V-76.814a.714.714,0,0,1,.714-.714.714.714,0,0,1,.713.714v9.448h4.28v-5a.714.714,0,0,1,.714-.713h5.718a.713.713,0,0,1,.713.713v5h4.287v-9.448a.715.715,0,0,1,.714-.714A.715.715,0,0,1,1901.128-76.814Zm2.015-.835L1892.362-89a.715.715,0,0,0-.517-.222h0a.715.715,0,0,0-.518.222l-10.791,11.351a.713.713,0,0,0,.026,1.009.714.714,0,0,0,1.009-.025l10.273-10.806,10.264,10.805a.71.71,0,0,0,.518.222.71.71,0,0,0,.491-.2A.713.713,0,0,0,1903.143-77.649Z" transform="translate(-1318.84 801.522)"/>
  </g>
</svg>
