<svg xmlns="http://www.w3.org/2000/svg" width="24" height="24" viewBox="0 0 24 24">
  <g transform="translate(-43 -620)">
    <rect width="24" height="24" transform="translate(43 620)" fill="none"/>
    <path d="M133.259,305.576a.735.735,0,0,1-1.01.057l-1.069-.9V315.9a.736.736,0,0,1-.736.736h-5.891a.736.736,0,0,1-.736-.736v-6.642H119.4V315.9a.736.736,0,0,1-.736.736h-5.883a.736.736,0,0,1-.736-.736V304.726l-1.079.908a.736.736,0,0,1-1.007-1.07l11.123-11.7a.737.737,0,0,1,.533-.229h0a.736.736,0,0,1,.533.229l11.113,11.7A.736.736,0,0,1,133.259,305.576Z" transform="translate(-66.603 327.364)"/>
  </g>
</svg>
