<svg viewBox="0 0 24 24"  xmlns="http://www.w3.org/2000/svg">
<path fill-rule="evenodd" clip-rule="evenodd" d="M10.8905 6.58294C8.64896 7.02906 6.80467 8.99533 6.46494 11.3012C6.2097 13.0339 6.85656 14.825 8.19287 16.0856C9.00917 16.8558 9.3514 17.2977 9.45692 17.7181C9.4999 17.8893 9.65384 18.0094 9.83039 18.0094L11.9828 18.009L13.9355 18.0087C14.2382 18.0087 14.5109 17.8259 14.626 17.546C14.7429 17.2616 15.1528 16.7508 15.6897 16.2206C16.748 15.1755 17.3447 14.0785 17.5308 12.8364C17.9614 9.95984 15.9232 7.13079 13.0199 6.57525C12.0514 6.39 11.8566 6.39065 10.8905 6.58294ZM13.7857 8.95503C14.7884 9.49573 15.3249 10.3029 15.5253 11.572C15.6055 12.0804 15.404 12.376 14.9774 12.376C14.6235 12.376 14.382 12.0997 14.3792 11.6912C14.3762 11.2557 14.0548 10.5519 13.7173 10.2416C13.3821 9.9334 12.7418 9.66766 12.3345 9.66766C11.7476 9.66766 11.452 9.03769 11.8514 8.63826C12.1112 8.37837 12.9807 8.52083 13.7857 8.95503ZM9.61487 19.8004C9.61487 20.5737 9.83674 21.0914 10.2855 21.365C10.5978 21.5554 10.8308 21.5837 12.0923 21.584L12.9455 21.5843C13.3264 21.5844 13.6917 21.4332 13.961 21.1639C14.3707 20.7541 14.3816 20.7234 14.3816 19.9722C14.3816 19.5463 14.0363 19.2011 13.6105 19.2011H11.9982H10.2142C9.88319 19.2011 9.61487 19.4694 9.61487 19.8004Z"/>
<g opacity="0.5">
<path fill-rule="evenodd" clip-rule="evenodd" d="M11.9987 0.9375C12.505 0.9375 12.9154 1.34791 12.9154 1.85417V4.14583C12.9154 4.65209 12.505 5.0625 11.9987 5.0625C11.4924 5.0625 11.082 4.65209 11.082 4.14583V1.85417C11.082 1.34791 11.4924 0.9375 11.9987 0.9375Z" />
<path fill-rule="evenodd" clip-rule="evenodd" d="M23 11.9362C23 12.4425 22.5896 12.8529 22.0833 12.8529L19.7917 12.8529C19.2854 12.8529 18.875 12.4425 18.875 11.9362C18.875 11.4299 19.2854 11.0195 19.7917 11.0195L22.0833 11.0195C22.5896 11.0195 23 11.4299 23 11.9362Z" />
<path fill-rule="evenodd" clip-rule="evenodd" d="M5.125 11.9362C5.125 12.4425 4.71459 12.8529 4.20833 12.8529L1.91667 12.8529C1.41041 12.8529 1 12.4425 1 11.9362C1 11.4299 1.41041 11.0195 1.91667 11.0195L4.20833 11.0195C4.71459 11.0195 5.125 11.4299 5.125 11.9362Z" />
<path fill-rule="evenodd" clip-rule="evenodd" d="M4.01849 3.95599C4.37647 3.598 4.95687 3.598 5.31485 3.95599L7.14818 5.78932C7.50616 6.1473 7.50616 6.7277 7.14818 7.08568C6.7902 7.44366 6.2098 7.44366 5.85182 7.08568L4.01849 5.25235C3.6605 4.89437 3.6605 4.31397 4.01849 3.95599Z" />
<path fill-rule="evenodd" clip-rule="evenodd" d="M19.9815 3.95599C19.6235 3.598 19.0431 3.598 18.6852 3.95599L16.8518 5.78932C16.4938 6.1473 16.4938 6.7277 16.8518 7.08568C17.2098 7.44366 17.7902 7.44366 18.1482 7.08568L19.9815 5.25235C20.3395 4.89437 20.3395 4.31397 19.9815 3.95599Z"/>
<path fill-rule="evenodd" clip-rule="evenodd" d="M7.14948 16.788C6.7915 16.43 6.2111 16.43 5.85312 16.788L4.47812 18.163C4.12014 18.521 4.12014 19.1014 4.47812 19.4594C4.8361 19.8174 5.4165 19.8174 5.77448 19.4594L7.14948 18.0844C7.50746 17.7264 7.50746 17.146 7.14948 16.788Z" />
<path fill-rule="evenodd" clip-rule="evenodd" d="M16.8505 16.788C17.2085 16.43 17.7889 16.43 18.1469 16.788L19.5219 18.163C19.8799 18.521 19.8799 19.1014 19.5219 19.4594C19.1639 19.8174 18.5835 19.8174 18.2255 19.4594L16.8505 18.0844C16.4925 17.7264 16.4925 17.146 16.8505 16.788Z" />
</g>
</svg>
