<svg xmlns="http://www.w3.org/2000/svg" width="24" height="24" viewBox="0 0 24 24">
  <g transform="translate(-653 -824)">
    <rect width="24" height="24" transform="translate(653 824)" fill="none"/>
    <path d="M351.105,367.152c-5.532,0-11.411-1.662-11.411-4.743,0-1.664,1.728-3.06,4.866-3.932a.751.751,0,0,1,.4,1.447c-2.288.635-3.766,1.611-3.766,2.485,0,1.354,3.77,3.242,9.91,3.242s9.909-1.888,9.909-3.242c0-.836-1.386-1.785-3.53-2.417a.751.751,0,1,1,.425-1.44c2.971.877,4.607,2.247,4.607,3.858C362.516,365.49,356.637,367.152,351.105,367.152Zm4.02-17.071a3.853,3.853,0,1,0-3.853,3.853A3.858,3.858,0,0,0,355.126,350.081Zm-1.5,0a2.351,2.351,0,1,1-2.352-2.352A2.354,2.354,0,0,1,353.624,350.081Zm-1.735,12.895c.26-.336,6.361-8.278,6.361-12.869a6.955,6.955,0,1,0-13.911,0c0,4.591,6.1,12.533,6.362,12.869a.751.751,0,0,0,1.188,0Zm4.859-12.869c0,3.305-3.929,9.047-5.453,11.149-1.524-2.1-5.454-7.844-5.454-11.149a5.454,5.454,0,1,1,10.907,0Z" transform="translate(313.857 480.848)"/>
  </g>
</svg>
