<svg viewBox="0 0 20 20" xmlns="http://www.w3.org/2000/svg">
    <g>
        <path
            d="M5.00065 18.332C4.54232 18.332 4.1501 18.169 3.82398 17.8429C3.49732 17.5162 3.33398 17.1237 3.33398 16.6654V8.33203C3.33398 7.8737 3.49732 7.4812 3.82398 7.15453C4.1501 6.82842 4.54232 6.66536 5.00065 6.66536H5.83398V4.9987C5.83398 3.84592 6.24037 2.86314 7.05315 2.05036C7.86537 1.23814 8.84787 0.832031 10.0007 0.832031C11.1534 0.832031 12.1362 1.23814 12.949 2.05036C13.7612 2.86314 14.1673 3.84592 14.1673 4.9987V6.66536H15.0007C15.459 6.66536 15.8515 6.82842 16.1782 7.15453C16.5043 7.4812 16.6673 7.8737 16.6673 8.33203V16.6654C16.6673 17.1237 16.5043 17.5162 16.1782 17.8429C15.8515 18.169 15.459 18.332 15.0007 18.332H5.00065ZM5.00065 16.6654H15.0007V8.33203H5.00065V16.6654ZM10.0007 14.1654C10.459 14.1654 10.8515 14.0023 11.1782 13.6762C11.5043 13.3495 11.6673 12.957 11.6673 12.4987C11.6673 12.0404 11.5043 11.6479 11.1782 11.3212C10.8515 10.9951 10.459 10.832 10.0007 10.832C9.54232 10.832 9.1501 10.9951 8.82398 11.3212C8.49732 11.6479 8.33398 12.0404 8.33398 12.4987C8.33398 12.957 8.49732 13.3495 8.82398 13.6762C9.1501 14.0023 9.54232 14.1654 10.0007 14.1654ZM7.50065 6.66536H12.5007V4.9987C12.5007 4.30425 12.2576 3.71398 11.7715 3.22786C11.2854 2.74175 10.6951 2.4987 10.0007 2.4987C9.30621 2.4987 8.71593 2.74175 8.22982 3.22786C7.74371 3.71398 7.50065 4.30425 7.50065 4.9987V6.66536Z" />
    </g>
</svg>