<svg xmlns="http://www.w3.org/2000/svg" width="17.173" height="22" viewBox="0 0 17.173 22">
	<path d="M28.236,6.792h-2.3V4.96a4.96,4.96,0,1,0-9.92,0V6.792h-2.3A1.328,1.328,0,0,0,12.391,8.12V20.672A1.328,1.328,0,0,0,13.719,22H28.236a1.328,1.328,0,0,0,1.328-1.328V8.12a1.328,1.328,0,0,0-1.328-1.328ZM17.345,4.96h0a3.632,3.632,0,1,1,7.264,0h0V6.792H17.345Zm10.844,15a.664.664,0,0,1-.664.664H14.43a.664.664,0,0,1-.664-.664V8.831a.664.664,0,0,1,.664-.664H27.525a.664.664,0,0,1,.664.664ZM22.4,13.685a1.422,1.422,0,0,1-.759,1.258v.923a.664.664,0,1,1-1.328,0v-.923A1.422,1.422,0,1,1,22.4,13.685Z" transform="translate(-12.391)"/>
</svg>