<svg viewBox="0 0 20 20" xmlns="http://www.w3.org/2000/svg">
    <g>
        <path
            d="M4.9987 6.66536H12.4987V4.9987C12.4987 4.30425 12.2556 3.71398 11.7695 3.22786C11.2834 2.74175 10.6931 2.4987 9.9987 2.4987C9.30425 2.4987 8.71398 2.74175 8.22786 3.22786C7.74175 3.71398 7.4987 4.30425 7.4987 4.9987H5.83203C5.83203 3.84592 6.23842 2.86314 7.0512 2.05036C7.86342 1.23814 8.84592 0.832031 9.9987 0.832031C11.1515 0.832031 12.1343 1.23814 12.947 2.05036C13.7593 2.86314 14.1654 3.84592 14.1654 4.9987V6.66536H14.9987C15.457 6.66536 15.8495 6.82842 16.1762 7.15453C16.5023 7.4812 16.6654 7.8737 16.6654 8.33203V16.6654C16.6654 17.1237 16.5023 17.5162 16.1762 17.8429C15.8495 18.169 15.457 18.332 14.9987 18.332H4.9987C4.54036 18.332 4.14814 18.169 3.82203 17.8429C3.49536 17.5162 3.33203 17.1237 3.33203 16.6654V8.33203C3.33203 7.8737 3.49536 7.4812 3.82203 7.15453C4.14814 6.82842 4.54036 6.66536 4.9987 6.66536ZM4.9987 16.6654H14.9987V8.33203H4.9987V16.6654ZM9.9987 14.1654C10.457 14.1654 10.8495 14.0023 11.1762 13.6762C11.5023 13.3495 11.6654 12.957 11.6654 12.4987C11.6654 12.0404 11.5023 11.6479 11.1762 11.3212C10.8495 10.9951 10.457 10.832 9.9987 10.832C9.54036 10.832 9.14814 10.9951 8.82203 11.3212C8.49536 11.6479 8.33203 12.0404 8.33203 12.4987C8.33203 12.957 8.49536 13.3495 8.82203 13.6762C9.14814 14.0023 9.54036 14.1654 9.9987 14.1654Z" />
    </g>
</svg>