<svg xmlns="http://www.w3.org/2000/svg" viewBox="0 0 24 24">
    <path
        d="M12,5.336A4.345,4.345,0,1,0,16.345,9.68,4.345,4.345,0,0,0,12,5.336Zm0,7.283A2.938,2.938,0,1,1,14.938,9.68,2.938,2.938,0,0,1,12,12.618ZM12,0A12,12,0,1,0,24,12,12,12,0,0,0,12,0Zm0,22.552a10.5,10.5,0,0,1-6.483-2.23,5.828,5.828,0,0,1,3.509-4.155,9.846,9.846,0,0,0,2.95.484,19.024,19.024,0,0,0,2.926-.468c2.033.875,2.522,2.136,3.458,4.235A10.5,10.5,0,0,1,12,22.552Zm7.659-3.3c-1.049-2.308-2.291-4.224-4.759-4.661a13.823,13.823,0,0,1-2.974.49,9.31,9.31,0,0,1-2.9-.529c-2.238.447-3.862,2.471-4.688,4.7a10.552,10.552,0,1,1,15.322,0Z" />
</svg>