<svg viewBox="0 0 20 20" xmlns="http://www.w3.org/2000/svg">
    <g>
        <path
            d="M15.3333 17.1667L14.1667 16L15.4792 14.6667H12V13H15.4792L14.1667 11.6667L15.3333 10.5L18.6667 13.8333L15.3333 17.1667ZM3.66667 14.6667C3.20833 14.6667 2.81611 14.5036 2.49 14.1775C2.16333 13.8508 2 13.4583 2 13V4.66667C2 4.20833 2.16333 3.81583 2.49 3.48917C2.81611 3.16306 3.20833 3 3.66667 3H14.5C14.9583 3 15.3508 3.16306 15.6775 3.48917C16.0036 3.81583 16.1667 4.20833 16.1667 4.66667V8.91667C16.0278 8.88889 15.8889 8.86806 15.75 8.85417C15.6111 8.84028 15.4722 8.83333 15.3333 8.83333C15.1944 8.83333 15.0556 8.83667 14.9167 8.84333C14.7778 8.85056 14.6389 8.86806 14.5 8.89583V5.83333L9 9.66667L3.66667 5.85417V13H10.3958C10.3681 13.1389 10.3506 13.2778 10.3433 13.4167C10.3367 13.5556 10.3333 13.6944 10.3333 13.8333C10.3333 13.9722 10.3403 14.1111 10.3542 14.25C10.3681 14.3889 10.3889 14.5278 10.4167 14.6667H3.66667ZM4.875 4.66667L9 7.625L13.25 4.66667H4.875Z" />
    </g>
</svg>