<svg xmlns="http://www.w3.org/2000/svg" width="24" height="24" viewBox="0 0 24 24">
  <g id="favorites" transform="translate(-1507 -23)">
    <rect id="Прямоугольник_10067" data-name="Прямоугольник 10067" width="24" height="24" transform="translate(1507 23)" fill="none"/>
    <path id="favorites-2" data-name="favorites" d="M21,8.5C21,5.8,19.621,4,17.282,4A4.15,4.15,0,0,0,13,8H11A4.15,4.15,0,0,0,6.718,4C4.378,4,3,5.8,3,8.5c0,2.93,2.4,6.212,9,11.246C18.6,14.711,21,11.429,21,8.5ZM17.282,2C20.862,2,23,4.8,23,8.5c0,3.816-2.885,7.664-10.4,13.3l-.6.45-.6-.45C3.886,16.164,1,12.317,1,8.5,1,4.8,3.139,2,6.718,2A6.391,6.391,0,0,1,12,4.742,6.39,6.39,0,0,1,17.282,2Z" transform="translate(1507 22.9)"/>
  </g>
</svg>
