<svg xmlns="http://www.w3.org/2000/svg" width="24" height="24" viewBox="0 0 24 24">
  <g id="Сгруппировать_5463" data-name="Сгруппировать 5463" transform="translate(-1441 -31)">
    <rect id="Прямоугольник_10066" data-name="Прямоугольник 10066" width="24" height="24" transform="translate(1441 31)" fill="none"/>
    <path id="shop.cart" d="M398.021,275.193H385.81a.933.933,0,0,1-.919-.77l-2.125-11.956a1.013,1.013,0,0,0-.98-.78h-1.624a.933.933,0,0,1,0-1.866h1.624a2.888,2.888,0,0,1,2.807,2.266c0,.011,0,.022.007.034l1.991,11.206H398.02a1.344,1.344,0,0,0,1.342-1.342v-7.01h-9.848a.933.933,0,1,1,0-1.866H400.3a.933.933,0,0,1,.933.933v7.943A3.212,3.212,0,0,1,398.021,275.193Zm-7.509,3.738a2.018,2.018,0,1,1-2.018-2.018A2.018,2.018,0,0,1,390.512,278.931Zm-1.333,0a.674.674,0,1,0-.674.674.674.674,0,0,0,.674-.674Zm10.772,0a2.018,2.018,0,1,1-2.018-2.018,2.018,2.018,0,0,1,2.018,2.018Zm-1.331,0a.673.673,0,1,0-.2.477.674.674,0,0,0,.2-.477Z" transform="translate(1062.771 -227.322)"/>
  </g>
</svg>
