<svg xmlns="http://www.w3.org/2000/svg" viewBox="0 0 24 24">
  <g id="profile" transform="translate(-1406 -56)">
    <rect id="Прямоугольник_10224" data-name="Прямоугольник 10224" width="24" height="24" transform="translate(1406 56)" fill="none"/>
    <path id="Безымянный-1" d="M299.988,253.676a11,11,0,1,0,11,11A11,11,0,0,0,299.988,253.676Zm-6.394,17.461a4.024,4.024,0,0,1,2.34-2.469.952.952,0,1,0-.608-1.8,6.069,6.069,0,0,0-3.065,2.587,9.1,9.1,0,1,1,15.475-.033,5.654,5.654,0,0,0-3-2.56.952.952,0,1,0-.565,1.819,3.722,3.722,0,0,1,2.226,2.451,9.075,9.075,0,0,1-12.8.011Zm6.423-13.329a4.572,4.572,0,0,0-4.385,4.826c0,2.658,2.213,5.365,4.385,5.365,2.144,0,4.328-2.661,4.328-5.272C304.347,259.969,302.444,257.808,300.018,257.808Zm0,8.288c-1.025,0-2.482-1.79-2.482-3.462a2.666,2.666,0,0,1,2.482-2.923c1.36,0,2.425,1.325,2.425,3.015S300.908,266.1,300.018,266.1Z" transform="translate(1118.012 -196.676)"/>
  </g>
</svg>
