<svg viewBox="0 0 24 24" xmlns="http://www.w3.org/2000/svg">
<path fill-rule="evenodd" clip-rule="evenodd" d="M10.7738 1.78685C11.5446 1.40428 12.45 1.40439 13.2207 1.78715L17.2378 3.78221L19.9614 5.14108C21.5169 5.91716 22.4998 7.50612 22.4997 9.24449L22.5 15.3044C22.5003 17.04 21.5206 18.6271 19.969 19.4046L17.0241 20.8804L17.0206 20.8821L13.9831 22.3884C12.6936 23.0278 11.1786 23.0247 9.8917 22.3798L4.03374 19.4486C2.48867 18.6768 1.50655 17.1011 1.50232 15.371C1.50008 14.4578 1.49892 13.3497 1.50136 12.2077V9.26354C1.50136 7.55749 2.44852 5.9925 3.95995 5.20121L5.5448 4.37148C6.07395 4.09445 6.70485 4.09242 7.23577 4.36605L11.3933 6.50875L14.981 8.35782C15.8961 8.82943 16.4713 9.77242 16.4718 10.8018L16.4725 12.1114C16.4728 12.5971 16.473 12.9944 16.4731 13.3194L16.9084 13.1099C16.9088 12.7312 16.9091 12.1095 16.9091 11.0953V10.7719C16.9091 9.74378 16.3368 8.80403 15.4239 8.33361C14.6642 7.94211 13.7464 7.4699 12.7809 6.97495C10.7166 5.91665 8.96582 5.00393 8.4432 4.731C7.6924 4.33889 7.74463 3.29033 8.46277 2.93389L10.7738 1.78685ZM12.4048 3.42987C12.1479 3.30228 11.8461 3.30225 11.5892 3.42977L10.7329 3.8548C11.514 4.26002 12.5216 4.78084 13.6177 5.34278C14.5846 5.83847 15.5036 6.31128 16.2641 6.70322C17.7884 7.48875 18.7433 9.05832 18.7433 10.7719V11.0953C18.7433 12.4291 18.7427 13.0851 18.7422 13.4028C18.7414 13.9319 18.4372 14.4098 17.9643 14.6373L16.6774 15.2565C15.7507 15.7023 14.639 15.0092 14.639 13.976C14.639 13.5812 14.6389 12.9919 14.6384 12.1124L14.6377 10.8029C14.6375 10.4597 14.4457 10.1454 14.1407 9.98818L10.5531 8.13912L6.39552 5.99641L4.81067 6.82614C3.90381 7.30091 3.33551 8.23991 3.33551 9.26354V12.2087L3.33551 12.2106C3.33308 13.3495 3.33424 14.455 3.33647 15.3665C3.33899 16.4003 3.92584 17.3445 4.85337 17.8078L7.60996 19.1848L10.7134 20.74C11.4855 21.1269 12.3945 21.1288 13.1683 20.7452L16.2023 19.2406L16.2058 19.2389L19.1472 17.7649C20.0782 17.2983 20.666 16.3461 20.6658 15.3047L20.6655 9.24434C20.6656 8.20133 20.0759 7.24795 19.1426 6.7823L12.4048 3.42987Z" />
</svg>
