<svg viewBox="0 0 24 24" xmlns="http://www.w3.org/2000/svg">
<path d="M13.1295 1C12.551 1 12.0819 1.46904 12.0819 2.04763C12.0819 2.62621 12.551 3.09525 13.1295 3.09525H15.004C18.2624 3.09525 20.9038 5.73668 20.9038 8.99504V10.8695C20.9038 11.4481 21.3728 11.9171 21.9514 11.9171C22.53 11.9171 22.999 11.4481 22.999 10.8695V8.99504C22.999 4.5795 19.4195 1 15.004 1H13.1295Z"/>
<path d="M7.07085 10.8706C7.07085 10.292 7.53989 9.82298 8.11847 9.82298H13.1309C13.7095 9.82298 14.1785 10.292 14.1785 10.8706V15.3818C14.1785 15.9604 13.7095 16.4294 13.1309 16.4294C12.5523 16.4294 12.0833 15.9604 12.0833 15.3818V13.3998L8.35802 17.1251C7.94889 17.5342 7.28557 17.5342 6.87645 17.1251C6.46732 16.7159 6.46732 16.0526 6.87645 15.6435L10.6017 11.9182H8.11847C7.53989 11.9182 7.07085 11.4492 7.07085 10.8706Z"/>
<path fill-rule="evenodd" clip-rule="evenodd" d="M5.63161 5.35624C3.07364 5.35624 1 7.42989 1 9.98785V18.3684C1 20.9264 3.07364 23 5.63161 23H14.0121C16.5701 23 18.6438 20.9264 18.6438 18.3684V9.98785C18.6438 7.42989 16.5701 5.35624 14.0121 5.35624H5.63161ZM14.0121 7.45149H5.63161C4.23082 7.45149 3.09525 8.58706 3.09525 9.98785V18.3684C3.09525 19.7692 4.23082 20.9047 5.63161 20.9047H14.0121C15.4129 20.9047 16.5485 19.7692 16.5485 18.3684V9.98785C16.5485 8.58706 15.4129 7.45149 14.0121 7.45149Z"/>
</svg>
