<svg viewBox="0 0 24 24" xmlns="http://www.w3.org/2000/svg">
<path d="M5.2934 14.3742C5.2934 13.845 5.72239 13.416 6.25157 13.416H9.1261C9.65528 13.416 10.0843 13.845 10.0843 14.3742C10.0843 14.9034 9.65528 15.3324 9.1261 15.3324H6.25157C5.72239 15.3324 5.2934 14.9034 5.2934 14.3742Z"/>
<path d="M6.25157 17.2487C5.72239 17.2487 5.2934 17.6777 5.2934 18.2069C5.2934 18.7361 5.72239 19.1651 6.25157 19.1651H9.1261C9.65528 19.1651 10.0843 18.7361 10.0843 18.2069C10.0843 17.6777 9.65528 17.2487 9.1261 17.2487H6.25157Z" />
<path d="M12.0006 18.2069C12.0006 17.6777 12.4296 17.2487 12.9588 17.2487H15.8333C16.3625 17.2487 16.7915 17.6777 16.7915 18.2069C16.7915 18.7361 16.3625 19.1651 15.8333 19.1651H12.9588C12.4296 19.1651 12.0006 18.7361 12.0006 18.2069Z" />
<path fill-rule="evenodd" clip-rule="evenodd" d="M8.12738 1.91825C8.12738 1.41111 7.71626 1 7.20913 1C6.70199 1 6.29087 1.41111 6.29087 1.91825V3.87452H6.25095C3.62707 3.87452 1.5 6.0016 1.5 8.62547V18.2072C1.5 20.8311 3.62707 22.9582 6.25095 22.9582H17.749C20.3729 22.9582 22.5 20.8311 22.5 18.2072V8.62548C22.5 6.0016 20.3729 3.87452 17.749 3.87452H16.7509V1.91825C16.7509 1.41111 16.3398 1 15.8327 1C15.3256 1 14.9144 1.41111 14.9144 1.91825V3.87452H8.12738V1.91825ZM6.25095 5.71103C4.64134 5.71103 3.3365 7.01587 3.3365 8.62547V8.6654H20.6635V8.62548C20.6635 7.01587 19.3587 5.71103 17.749 5.71103H6.25095ZM3.3365 10.5019H20.6635V18.2072C20.6635 19.8168 19.3587 21.1217 17.749 21.1217H6.25095C4.64134 21.1217 3.3365 19.8168 3.3365 18.2072V10.5019Z" />
</svg>
