<svg viewBox="0 0 24 24"  xmlns="http://www.w3.org/2000/svg">
<path d="M9.07494 9.00098C9.61357 9.00098 10.0502 9.44869 10.0502 10.001C10.0502 10.2636 10.1007 10.5237 10.1987 10.7663C10.2967 11.009 10.4404 11.2295 10.6215 11.4152C10.8026 11.6009 11.0176 11.7482 11.2543 11.8487C11.4909 11.9492 11.7446 12.001 12.0007 12.001C12.2569 12.001 12.5105 11.9492 12.7472 11.8487C12.9838 11.7482 13.1988 11.6009 13.38 11.4152C13.5611 11.2295 13.7048 11.009 13.8028 10.7663C13.9008 10.5237 13.9513 10.2636 13.9513 10.001C13.9513 9.44869 14.3879 9.00098 14.9265 9.00098C15.4651 9.00098 15.9018 9.44869 15.9018 10.001C15.9018 10.5263 15.8009 11.0464 15.6048 11.5317C15.4088 12.017 15.1214 12.458 14.7592 12.8294C14.3969 13.2008 13.9669 13.4955 13.4936 13.6965C13.0203 13.8975 12.513 14.001 12.0007 14.001C11.4884 14.001 10.9812 13.8975 10.5079 13.6965C10.0346 13.4955 9.60452 13.2008 9.24227 12.8294C8.88003 12.458 8.59268 12.017 8.39663 11.5317C8.20059 11.0464 8.09968 10.5263 8.09968 10.001C8.09968 9.44869 8.53632 9.00098 9.07494 9.00098Z" />
<path fill-rule="evenodd" clip-rule="evenodd" d="M16.8766 5.03176C19.1051 5.28581 20.909 7.08541 21.1765 9.41677L21.9528 16.1831C22.4303 20.3445 19.2593 24.001 15.1728 24.001H8.82822C4.74172 24.001 1.57068 20.3445 2.04815 16.1831L2.82449 9.41677C3.092 7.08524 4.89616 5.28555 7.12487 5.0317C7.12457 5.0215 7.12442 5.01125 7.12442 5.00098C7.12442 4.34437 7.25055 3.69419 7.49561 3.08756C7.74067 2.48093 8.09985 1.92973 8.55266 1.46544C9.00547 1.00115 9.54303 0.632851 10.1346 0.381577C10.7263 0.130304 11.3604 0.000976562 12.0007 0.000976562C12.6411 0.000976562 13.2752 0.130304 13.8668 0.381579C14.4584 0.632852 14.996 1.00115 15.4488 1.46544C15.9016 1.92974 16.2608 2.48093 16.5058 3.08756C16.7509 3.69419 16.877 4.34437 16.877 5.00098C16.877 5.01127 16.8769 5.02153 16.8766 5.03176ZM14.9265 5.00098C14.9265 4.60701 14.8508 4.2169 14.7038 3.85293C14.5568 3.48895 14.3413 3.15823 14.0696 2.87966C13.7979 2.60108 13.4754 2.3801 13.1204 2.22934C12.7654 2.07857 12.3849 2.00098 12.0007 2.00098C11.6165 2.00098 11.2361 2.07857 10.8811 2.22934C10.5261 2.3801 10.2036 2.60108 9.93189 2.87966C9.6602 3.15823 9.44469 3.48895 9.29766 3.85293C9.15062 4.2169 9.07494 4.60701 9.07494 5.00098L14.9265 5.00098ZM7.6674 7.00098C6.18377 7.00098 4.935 8.13961 4.76166 9.65045L3.98531 16.4168C3.64426 19.3892 5.90929 22.001 8.82822 22.001H15.1728C18.0917 22.001 20.3567 19.3892 20.0157 16.4168L19.2393 9.65045C19.066 8.13961 17.8172 7.00098 16.3336 7.00098H7.6674Z" />
</svg>
