<svg viewBox="0 0 24 24" xmlns="http://www.w3.org/2000/svg">
<path fill-rule="evenodd" clip-rule="evenodd" d="M10.2814 2C9.12165 2 8.18145 2.9402 8.18145 4.1V4.67273C8.18145 4.73718 8.18435 4.80095 8.19003 4.86392H5.7C3.3804 4.86392 1.5 6.74432 1.5 9.06392V12.3094C1.5 13.4049 2.33886 14.3045 3.40928 14.4008V17.8455C3.40928 20.1651 5.28968 22.0455 7.60927 22.0455H16.3911C18.7107 22.0455 20.5911 20.1651 20.5911 17.8455V14.4008C21.6613 14.3043 22.5 13.4048 22.5 12.3094V9.06392C22.5 6.74432 20.6196 4.86392 18.3 4.86392H15.8092C15.8149 4.80095 15.8178 4.73718 15.8178 4.67273V4.1C15.8178 2.9402 14.8776 2 13.7178 2H10.2814ZM13.7178 4.1L10.2814 4.1V4.67273L13.7178 4.67273V4.1ZM5.50928 14.6V17.8455C5.50928 19.0053 6.44948 19.9455 7.60927 19.9455H16.3911C17.5509 19.9455 18.4911 19.0053 18.4911 17.8455V14.6H5.50928ZM5.7 6.96392H18.3C19.4598 6.96392 20.4 7.90412 20.4 9.06392V12.3094L3.6 12.3094V9.06392C3.6 7.90412 4.5402 6.96392 5.7 6.96392Z" />
</svg>
