<svg viewBox="0 0 24 24" xmlns="http://www.w3.org/2000/svg">
<path d="M9.2858 21.0798C8.96918 21.0707 8.65703 21.0026 8.3654 20.879C7.72649 20.6152 7.11204 20.2956 6.52916 19.9241C5.1899 19.0327 4.60659 18.305 5.12994 16.8049C5.20386 16.6482 5.23729 16.4754 5.22715 16.3024C5.2421 16.1056 5.21077 15.908 5.13567 15.7255C5.06057 15.543 4.94379 15.3805 4.79467 15.2512C4.60446 15.0257 4.33674 14.8795 4.04418 14.8414C3.58089 14.7952 3.14232 14.6103 2.78579 14.3108C2.49296 13.9901 2.27202 13.6105 2.13773 13.1974C2.00345 12.7844 1.95892 12.3474 2.00713 11.9158C1.94535 10.9756 2.0663 10.0324 2.3633 9.13826C2.52258 8.82697 2.75744 8.56063 3.04634 8.36363C3.33524 8.16664 3.66896 8.04529 4.01692 8.0107C4.29581 7.973 4.55812 7.85644 4.77301 7.67471C4.98789 7.49299 5.1464 7.25367 5.22988 6.98491C5.29949 6.68712 5.29135 6.37643 5.20626 6.08269C5.04316 5.70123 4.99927 5.27937 5.08035 4.87251C5.16143 4.46566 5.36369 4.09284 5.66055 3.80305C6.50976 3.09141 7.47308 2.52834 8.50987 2.13761V2.13761C8.96328 1.96505 9.46239 1.95446 9.92272 2.10763C10.2824 2.25658 10.6034 2.4856 10.8613 2.77726C10.9985 2.93529 11.1636 3.0668 11.3483 3.16522C11.5489 3.26955 11.7718 3.32401 11.9979 3.32401C12.2241 3.32401 12.4469 3.26955 12.6476 3.16522C12.8308 3.06147 12.9961 2.92894 13.1373 2.77271C13.3458 2.51144 13.6152 2.30525 13.9218 2.1722C14.2285 2.03914 14.5631 1.98328 14.8963 2.0095C16.0456 2.28854 17.1198 2.81574 18.0436 3.5541C18.4286 3.8026 18.7379 4.15211 18.9377 4.56444C19.152 5.09012 19.1589 5.67756 18.9568 6.20807C18.8974 6.46025 18.8866 6.72143 18.925 6.97764C18.9993 7.26989 19.1583 7.53366 19.382 7.73587C19.6058 7.93808 19.8842 8.06972 20.1824 8.11428C20.3934 8.15632 20.5986 8.22311 20.7939 8.31326C21.1849 8.5329 21.4963 8.87068 21.6834 9.27818C22.0775 10.6981 22.0897 12.1969 21.7189 13.623C21.61 13.9106 21.4314 14.1666 21.1992 14.3681C20.8467 14.6894 20.4013 14.8904 19.9271 14.9423C19.6636 15.0054 19.423 15.141 19.2324 15.3337C19.0419 15.5263 18.9089 15.7684 18.8486 16.0326C18.8002 16.3408 18.8263 16.6561 18.925 16.9521C19.0276 17.1998 19.078 17.4661 19.073 17.7342C19.068 18.0023 19.0077 18.2665 18.8959 18.5103C18.5665 19.0996 18.0745 19.5815 17.4785 19.8986C16.8728 20.3003 16.2255 20.6354 15.5478 20.8981C15.1398 21.027 14.7018 21.0256 14.2947 20.894C13.8876 20.7624 13.5316 20.5072 13.2763 20.1639C13.0938 19.925 12.8412 19.7491 12.5539 19.6608C12.2665 19.5725 11.9587 19.5762 11.6736 19.6715C11.3277 19.7864 11.0325 20.018 10.8386 20.3266C10.6527 20.5499 10.4221 20.7319 10.1617 20.8608C9.89125 21.0023 9.59101 21.0774 9.2858 21.0798V21.0798ZM9.11589 3.8512C8.32624 4.15505 7.58755 4.57755 6.9253 5.10414C6.88896 5.14049 6.82717 5.20045 6.9253 5.50574C7.13272 6.16295 7.1444 6.86632 6.95892 7.53006C6.77281 8.12245 6.42348 8.65038 5.951 9.05327C5.47852 9.45617 4.90203 9.71771 4.28768 9.80788C4.03964 9.84513 4.00874 9.90419 3.97967 9.96143C3.84186 10.5773 3.78898 11.2092 3.82248 11.8395C3.79458 12.2169 3.85075 12.5958 3.98694 12.9489C4.10742 13.0085 4.23817 13.0446 4.37218 13.0552C5.03091 13.1614 5.63513 13.4851 6.08849 13.9746C6.40612 14.2729 6.65599 14.6359 6.82121 15.039C6.98642 15.4422 7.06313 15.8762 7.04614 16.3115C7.05589 16.6848 6.98813 17.0561 6.84716 17.4018C6.79427 17.5219 6.76349 17.6506 6.7563 17.7816C6.77447 17.8198 6.89441 17.9797 7.54041 18.4094C8.01358 18.7066 8.51008 18.9649 9.02504 19.1817C9.10921 19.2203 9.19812 19.2474 9.28943 19.2626C9.33994 19.244 9.38693 19.2169 9.42845 19.1827C9.83797 18.606 10.4208 18.1751 11.0921 17.9524C11.7271 17.7391 12.4124 17.7266 13.0547 17.9166C13.697 18.1067 14.2652 18.4901 14.6819 19.0146C14.8482 19.2154 14.9299 19.1881 14.9872 19.1708C15.5047 18.9586 16.0004 18.6966 16.4672 18.3886C16.7567 18.2262 17.0174 18.0172 17.2386 17.7698C17.2475 17.7489 17.2548 17.7273 17.2604 17.7053C17.2604 17.7053 17.2604 17.6962 17.2041 17.5236C16.9978 16.9091 16.9558 16.2513 17.0824 15.6156C17.2185 15.0238 17.5171 14.4819 17.9446 14.0507C18.372 13.6196 18.9114 13.3163 19.5019 13.1751C19.6553 13.1434 19.807 13.1037 19.9562 13.0561L20.0244 12.9725C20.2199 11.9991 20.2199 10.9966 20.0244 10.0232C20.0012 9.98069 19.9704 9.9428 19.9335 9.91146C19.9499 9.92509 19.8753 9.90601 19.809 9.89147C19.1769 9.78028 18.5906 9.48814 18.1212 9.05047C17.6517 8.61279 17.3193 8.04836 17.1641 7.42557C17.0325 6.80915 17.0639 6.16907 17.255 5.56843C17.2866 5.48376 17.2954 5.39226 17.2804 5.30312C17.18 5.1787 17.0604 5.07106 16.9261 4.98421C16.2716 4.4708 15.5324 4.07569 14.7418 3.81668C14.6991 3.81668 14.6219 3.86938 14.3902 4.08925C14.118 4.37222 13.8024 4.60993 13.4553 4.79341C13.0051 5.02034 12.508 5.13855 12.0038 5.13855C11.4997 5.13855 11.0026 5.02034 10.5524 4.79341C10.1979 4.61524 9.87695 4.377 9.60381 4.08925C9.50521 3.99019 9.40085 3.89705 9.29125 3.81032C9.23185 3.81991 9.17324 3.83388 9.11589 3.85211V3.8512ZM11.9997 15.4647C11.4836 15.468 10.9719 15.3687 10.4944 15.1725C10.0169 14.9764 9.58313 14.6873 9.21829 14.3221C8.85345 13.957 8.5648 13.5229 8.3691 13.0453C8.1734 12.5676 8.07455 12.0558 8.07829 11.5396C8.05627 10.7779 8.27257 10.0283 8.69704 9.39539C8.98731 8.94711 9.36534 8.56225 9.80834 8.264C10.2513 7.96575 10.7501 7.76029 11.2747 7.65999C11.8345 7.57234 12.4057 7.58959 12.9592 7.71087V7.71087C13.7027 7.90059 14.3749 8.30268 14.8936 8.86804C15.4124 9.4334 15.7554 10.1376 15.8806 10.8946C16.0059 11.6516 15.908 12.4287 15.599 13.131C15.29 13.8334 14.7831 14.4305 14.1404 14.8496C13.5081 15.2721 12.7599 15.4871 11.9997 15.4647ZM11.9525 9.41901C11.8428 9.41636 11.733 9.42335 11.6245 9.43991C11.3387 9.49441 11.0668 9.60614 10.8253 9.76836C10.5838 9.93059 10.3775 10.14 10.2189 10.3839C9.98578 10.7226 9.87198 11.1292 9.89546 11.5396C9.89132 11.8175 9.94286 12.0933 10.0471 12.3509C10.1512 12.6085 10.306 12.8426 10.5021 13.0394C10.6982 13.2362 10.9318 13.3917 11.189 13.4968C11.4462 13.6019 11.7219 13.6544 11.9997 13.6512C12.4068 13.6735 12.8098 13.56 13.1455 13.3286C13.4951 13.1011 13.7704 12.7762 13.9374 12.394C14.1045 12.0118 14.1559 11.589 14.0853 11.1779C14.0148 10.7668 13.8253 10.3853 13.5405 10.0807C13.2556 9.77601 12.8877 9.56146 12.4822 9.46353V9.46353C12.3075 9.43159 12.1301 9.41668 11.9525 9.41901V9.41901Z" />
</svg>
