<svg viewBox="0 0 24 24" xmlns="http://www.w3.org/2000/svg">
<path d="M16 14C16 14.5523 15.5523 15 15 15H8C7.44772 15 7 14.5523 7 14C7 13.4477 7.44772 13 8 13H15C15.5523 13 16 13.4477 16 14Z" />
<path d="M7 18C7 17.4477 7.44772 17 8 17H12C12.5523 17 13 17.4477 13 18C13 18.5523 12.5523 19 12 19H8C7.44772 19 7 18.5523 7 18Z"/>
<path fill-rule="evenodd" clip-rule="evenodd" d="M12.5218 1.99971C12.4965 1.448 12.0523 1 11.5 1H7C4.79086 1 3 2.79086 3 5V19C3 21.2091 4.79086 23 7 23H17C19.2091 23 21 21.2091 21 19V10.5C21 9.94771 20.552 9.50354 20.0003 9.47822C17.7302 9.37402 15.8159 8.87474 14.4706 7.52941C13.1253 6.18408 12.626 4.26981 12.5218 1.99971ZM7 3H10.587C10.7918 5.15781 11.4161 7.30334 13.0564 8.94362C14.6967 10.5839 16.8422 11.2082 19 11.413V19C19 20.1046 18.1046 21 17 21H7C5.89543 21 5 20.1046 5 19V5C5 3.89543 5.89543 3 7 3Z" />
<path fill-rule="evenodd" clip-rule="evenodd" d="M19.9996 6.47413C20.551 6.50457 21 6.05228 21 5.5V5C21 2.79086 19.2091 1 17 1H16.5C15.9477 1 15.4954 1.44897 15.5259 2.00042C15.6293 3.8746 16.0347 4.85088 16.5919 5.40809C17.1491 5.9653 18.1254 6.37068 19.9996 6.47413Z"/>
</svg>
