<svg  viewBox="0 0 24 24" xmlns="http://www.w3.org/2000/svg">
<path d="M6.03719 8.80989H17.925C18.3705 8.80989 18.5936 8.27132 18.2786 7.95634L17.1903 6.86809C17.0028 6.68055 16.7484 6.5752 16.4832 6.5752H7.47899C7.21377 6.5752 6.95942 6.68055 6.77188 6.86809L5.68363 7.95634C5.36865 8.27132 5.59173 8.80989 6.03719 8.80989Z" fill="url(#paint0_linear_905_363)"/>
<path fill-rule="evenodd" clip-rule="evenodd" d="M6.83604 3C6.12732 3 5.44741 3.28056 4.94493 3.78036L1.79054 6.91788C0.801368 7.90176 0.731857 9.47974 1.63068 10.5468L9.92966 20.3991C11.0011 21.6711 12.9601 21.6711 14.0316 20.3991L22.3693 10.5008C23.2437 9.46281 23.2047 7.93525 22.2786 6.9432L19.3924 3.85167C18.8853 3.30842 18.1754 3 17.4322 3H6.83604ZM6.20567 5.04788C6.37317 4.88128 6.5998 4.78776 6.83604 4.78776H17.4322C17.6799 4.78776 17.9166 4.89056 18.0856 5.07165L20.9718 8.16319C21.2805 8.49387 21.2935 9.00305 21.002 9.34905L12.6643 19.2473C12.3071 19.6713 11.6541 19.6713 11.297 19.2473L2.99799 9.39504C2.69839 9.03935 2.72156 8.51336 3.05128 8.1854L6.20567 5.04788Z" fill="url(#paint1_linear_905_363)"/>
<defs>
<linearGradient id="paint0_linear_905_363" x1="20.4725" y1="3" x2="4.82965" y2="18.6429" gradientUnits="userSpaceOnUse">
<stop stop-color="#FB8916"/>
<stop offset="1" stop-color="#FB185B"/>
</linearGradient>
<linearGradient id="paint1_linear_905_363" x1="20.4725" y1="3" x2="4.82965" y2="18.6429" gradientUnits="userSpaceOnUse">
<stop stop-color="#FB8916"/>
<stop offset="1" stop-color="#FB185B"/>
</linearGradient>
</defs>
</svg>
