<svg viewBox="0 0 24 24" xmlns="http://www.w3.org/2000/svg">
<path fill-rule="evenodd" clip-rule="evenodd" d="M7.859 11C7.53497 11 7.21708 11.0269 6.90735 11.0787C4.12329 11.5442 1.99854 14.018 1.99854 17V20C1.99854 21.1046 2.87314 22 3.95202 22H14.6962C15.7751 22 16.6497 21.1046 16.6497 20V17C16.6497 14.0179 14.5247 11.5439 11.7404 11.0786C11.4309 11.0269 11.1131 11 10.7892 11H7.859ZM3.99854 17C3.99854 14.7462 5.77103 13 7.859 13H10.7892C12.8772 13 14.6497 14.7462 14.6497 17V20H3.99854V17Z" />
<path fill-rule="evenodd" clip-rule="evenodd" d="M7.859 9.3125C7.67001 9.22955 7.48908 9.13104 7.31775 9.01854C6.28635 8.3413 5.60289 7.15713 5.60289 5.80952C5.60289 3.70558 7.26881 2 9.32382 2C11.3788 2 13.0448 3.70558 13.0448 5.80952C13.0448 7.15711 12.3613 8.34126 11.33 9.0185C11.1588 9.1309 10.978 9.22934 10.7892 9.31224C10.3395 9.5097 9.84414 9.61905 9.32382 9.61905C8.80373 9.61905 8.30855 9.5098 7.859 9.3125ZM11.0448 5.80952C11.0448 6.85352 10.2302 7.61905 9.32382 7.61905C8.41748 7.61905 7.60289 6.85352 7.60289 5.80952C7.60289 4.76553 8.41748 4 9.32382 4C10.2302 4 11.0448 4.76553 11.0448 5.80952Z"/>
<path d="M15.4874 5.33203C14.9736 5.33203 14.5571 5.75843 14.5571 6.28441C14.5571 6.8104 14.9736 7.23679 15.4874 7.23679H21.0688C21.5825 7.23679 21.999 6.8104 21.999 6.28441C21.999 5.75843 21.5825 5.33203 21.0688 5.33203H15.4874Z" />
<path d="M16.4179 11.0465C16.4179 10.5205 16.8344 10.0941 17.3482 10.0941H21.0691C21.5828 10.0941 21.9993 10.5205 21.9993 11.0465C21.9993 11.5725 21.5828 11.9989 21.0691 11.9989H17.3482C16.8344 11.9989 16.4179 11.5725 16.4179 11.0465Z" />
<path d="M19.2072 14.8562C18.6934 14.8562 18.2769 15.2826 18.2769 15.8086C18.2769 16.3345 18.6934 16.7609 19.2072 16.7609H21.0676C21.5814 16.7609 21.9979 16.3345 21.9979 15.8086C21.9979 15.2826 21.5814 14.8562 21.0676 14.8562H19.2072Z" />
</svg>
