<svg viewBox="0 0 24 24" xmlns="http://www.w3.org/2000/svg">
<path d="M17.5454 11.3146C17.5454 10.7424 17.0816 10.2786 16.5094 10.2786C15.9372 10.2786 15.4734 10.7424 15.4734 11.3146V15.4587C15.4734 16.0309 15.9372 16.4947 16.5094 16.4947C17.0816 16.4947 17.5454 16.0309 17.5454 15.4587V11.3146Z" />
<path fill-rule="evenodd" clip-rule="evenodd" d="M6.00291 5.67563C5.44465 5.67563 4.91218 5.78602 4.42612 5.98615C4.91179 5.78639 5.44378 5.67621 6.00149 5.67621H17.7134C20.0021 5.67621 21.8574 7.53158 21.8574 9.82028V17.5321C21.8574 19.8208 20.0021 21.6762 17.7134 21.6762H6.00149C3.71279 21.6762 1.85742 19.8208 1.85742 17.5321V9.82028C1.85742 8.62637 2.36231 7.55037 3.17023 6.79416C3.54861 6.36193 4.02341 6.00184 4.58105 5.74986L11.4155 2.66163C13.5012 1.7192 15.956 2.64597 16.8984 4.73164L17.3249 5.67563H6.00291ZM17.7134 7.74825H6.00149C4.85714 7.74825 3.92946 8.67593 3.92946 9.82028V17.5321C3.92946 18.6765 4.85714 19.6042 6.00149 19.6042H17.7134C18.8577 19.6042 19.7854 18.6765 19.7854 17.5321V9.82028C19.7854 8.67593 18.8577 7.74825 17.7134 7.74825Z" />
</svg>
