<svg viewBox="0 0 24 24" xmlns="http://www.w3.org/2000/svg">
<path fill-rule="evenodd" clip-rule="evenodd" d="M2 4.85027C2 3.27611 3.27611 2 4.85027 2H8.39255C9.9667 2 11.2428 3.27611 11.2428 4.85027V8.39255C11.2428 9.9667 9.9667 11.2428 8.39255 11.2428H4.85027C3.27611 11.2428 2 9.9667 2 8.39255V4.85027ZM4.85027 4.029C4.3967 4.029 4.029 4.3967 4.029 4.85027V8.39255C4.029 8.84612 4.3967 9.21381 4.85027 9.21381H8.39255C8.84612 9.21381 9.21381 8.84612 9.21381 8.39255V4.85027C9.21381 4.3967 8.84612 4.029 8.39255 4.029H4.85027Z"/>
<path fill-rule="evenodd" clip-rule="evenodd" d="M12.7574 4.85027C12.7574 3.27611 14.0335 2 15.6077 2H19.1499C20.7241 2 22.0002 3.27611 22.0002 4.85027V8.39255C22.0002 9.9667 20.7241 11.2428 19.1499 11.2428H15.6077C14.0335 11.2428 12.7574 9.9667 12.7574 8.39255V4.85027ZM15.6077 4.029C15.1541 4.029 14.7864 4.3967 14.7864 4.85027V8.39255C14.7864 8.84612 15.1541 9.21381 15.6077 9.21381H19.1499C19.6035 9.21381 19.9712 8.84612 19.9712 8.39255V4.85027C19.9712 4.3967 19.6035 4.029 19.1499 4.029H15.6077Z" />
<path fill-rule="evenodd" clip-rule="evenodd" d="M12.7574 15.6075C12.7574 14.0333 14.0335 12.7572 15.6077 12.7572H19.1499C20.7241 12.7572 22.0002 14.0333 22.0002 15.6075V19.1497C22.0002 20.7239 20.7241 22 19.1499 22H15.6077C14.0335 22 12.7574 20.7239 12.7574 19.1497V15.6075ZM15.6077 14.7862C15.1541 14.7862 14.7864 15.1539 14.7864 15.6075V19.1497C14.7864 19.6033 15.1541 19.971 15.6077 19.971H19.1499C19.6035 19.971 19.9712 19.6033 19.9712 19.1497V15.6075C19.9712 15.1539 19.6035 14.7862 19.1499 14.7862H15.6077Z" />
<path fill-rule="evenodd" clip-rule="evenodd" d="M2 15.6075C2 14.0333 3.27611 12.7572 4.85027 12.7572H8.39255C9.9667 12.7572 11.2428 14.0333 11.2428 15.6075V19.1497C11.2428 20.7239 9.9667 22 8.39255 22H4.85027C3.27611 22 2 20.7239 2 19.1497V15.6075ZM4.85027 14.7862C4.3967 14.7862 4.029 15.1539 4.029 15.6075V19.1497C4.029 19.6033 4.3967 19.971 4.85027 19.971H8.39255C8.84612 19.971 9.21381 19.6033 9.21381 19.1497V15.6075C9.21381 15.1539 8.84612 14.7862 8.39255 14.7862H4.85027Z" />
</svg>
