<svg viewBox="0 0 24 24" xmlns="http://www.w3.org/2000/svg">
<path d="M9.16106 8.13522C9.90248 7.92474 10.3329 7.15307 10.1224 6.41165C9.91193 5.67023 9.14026 5.23982 8.39884 5.4503C7.65742 5.66079 7.22701 6.43246 7.43749 7.17388C7.64797 7.9153 8.41964 8.34571 9.16106 8.13522Z" />
<path fill-rule="evenodd" clip-rule="evenodd" d="M4.79866 3.28594C5.85171 1.27785 8.37256 0.5622 10.3237 1.71744L14.5086 4.19536C15.1636 4.58319 15.6447 5.20771 15.8526 5.93999L15.9852 6.40702L21.012 11.5893C22.1693 12.7825 22.1223 14.6932 20.9075 15.8279L19.1191 17.4985C19.0995 17.5168 19.0793 17.5342 19.0586 17.5507C19.1041 18.8836 18.2412 20.1264 16.9005 20.507L9.07559 22.7285C7.49755 23.1765 5.85512 22.2604 5.40713 20.6823L2.31311 9.78375C2.10522 9.05146 2.18642 8.26731 2.53994 7.59317L4.79866 3.28594ZM9.3148 3.42131C8.33925 2.84368 7.07882 3.20151 6.5523 4.20556L4.29358 8.51278C4.17574 8.73749 4.14868 8.99888 4.21797 9.24297L7.31199 20.1416C7.46132 20.6676 8.0088 20.9729 8.53481 20.8236L16.3597 18.6022C16.8857 18.4528 17.1911 17.9054 17.0418 17.3793L13.9478 6.48076C13.8785 6.23667 13.7181 6.0285 13.4998 5.89922L9.3148 3.42131ZM18.5229 15.3458L17.1267 10.4278L19.5907 12.968C19.9764 13.3657 19.9607 14.0026 19.5558 14.3809L18.5229 15.3458Z" />
</svg>
