<svg viewBox="0 0 24 24" xmlns="http://www.w3.org/2000/svg">
<path d="M7 18C7 17.4477 7.44772 17 8 17H14C14.5523 17 15 17.4477 15 18C15 18.5523 14.5523 19 14 19H8C7.44772 19 7 18.5523 7 18Z" />
<path d="M11 15C11.5523 15 12 14.5523 12 14C12 13.4477 11.5523 13 11 13H8C7.44772 13 7 13.4477 7 14C7 14.5523 7.44772 15 8 15H11Z" />
<path fill-rule="evenodd" clip-rule="evenodd" d="M21 19C21 21.2091 19.2091 23 17 23H7C4.79086 23 3 21.2091 3 19V5C3 2.92893 4.574 1.22549 6.59102 1.02065C6.72549 1.007 6.86193 1 7 1H17C19.2091 1 21 2.79086 21 5V19ZM5 7H19V19C19 20.1046 18.1046 21 17 21H7C5.89543 21 5 20.1046 5 19V7ZM19 5C19 3.89543 18.1046 3 17 3H7C6.93096 3 6.86275 3.0035 6.79551 3.01033C5.787 3.11275 5 3.96447 5 5H19Z" />
</svg>
