<svg viewBox="0 0 24 24" xmlns="http://www.w3.org/2000/svg">
<path fill-rule="evenodd" clip-rule="evenodd" d="M14.1738 4.00138C14.1738 2.89681 15.0834 1.97633 16.1521 2.25555C16.4977 2.34582 16.8374 2.45984 17.1687 2.5971C18.1182 2.9904 18.981 3.56687 19.7077 4.29359C20.4344 5.02031 21.0109 5.88305 21.4042 6.83255C21.5415 7.16394 21.6555 7.50363 21.7457 7.84915C22.025 8.91785 21.1045 9.82747 19.9999 9.82747H16.1738C15.0693 9.82747 14.1738 8.93203 14.1738 7.82747V4.00138ZM16.1738 7.82747V4.35542C16.2509 4.38359 16.3274 4.4134 16.4034 4.44486C17.1102 4.73765 17.7525 5.1668 18.2935 5.7078C18.8345 6.2488 19.2636 6.89106 19.5564 7.59792C19.5879 7.67387 19.6177 7.7504 19.6459 7.82747H16.1738Z"/>
<path fill-rule="evenodd" clip-rule="evenodd" d="M19.1304 12.3335C20.235 12.3335 21.1517 13.2388 20.918 14.3184C20.666 15.4827 20.1932 16.5955 19.5184 17.5955C18.4674 19.1531 16.9735 20.3671 15.2257 21.0839C13.4779 21.8008 11.5546 21.9884 9.69914 21.6229C7.84367 21.2575 6.13931 20.3554 4.80159 19.0308C3.46387 17.7062 2.55287 16.0185 2.1838 14.1812C1.81472 12.344 2.00414 10.4396 2.72811 8.7089C3.45208 6.97822 4.67808 5.49898 6.25107 4.45825C7.26637 3.7865 8.39679 3.31691 9.57945 3.06837C10.6604 2.8412 11.5652 3.75745 11.5652 4.86202V10.3335C11.5652 11.438 12.4607 12.3335 13.5652 12.3335H19.1304ZM17.8606 16.4768C18.3072 15.8148 18.6413 15.0908 18.8543 14.3335H13.5652C11.3561 14.3335 9.56522 12.5426 9.56522 10.3335V5.12785C8.7824 5.33978 8.03547 5.67577 7.35465 6.12621C6.11024 6.94955 5.14335 8.11771 4.57319 9.48072C4.00311 10.8435 3.85427 12.3419 4.14463 13.7874C4.43501 15.2329 5.15227 16.5634 6.20882 17.6096C7.26559 18.656 8.61437 19.3708 10.0856 19.6606C11.557 19.9504 13.0819 19.8015 14.4667 19.2335C15.8513 18.6656 17.0316 17.7052 17.8606 16.4768Z"/>
</svg>
