<svg xmlns="http://www.w3.org/2000/svg" viewBox="0 0 24 24">
    <rect fill="none"/>
    <path d="M11.84,0A11.844,11.844,0,0,0,1.429,17.483L0,23.68l6.2-1.429A11.84,11.84,0,1,0,11.84,0Zm0,22.251a9.154,9.154,0,0,1-5.378-1.495L1.9,21.781,2.972,17.3A8.449,8.449,0,0,1,1.429,11.84,10.411,10.411,0,1,1,11.84,22.251ZM12.924,11.84A1.221,1.221,0,1,1,11.7,10.619,1.221,1.221,0,0,1,12.924,11.84Zm-5.138,0a1.221,1.221,0,1,1-1.221-1.221A1.221,1.221,0,0,1,7.786,11.84Zm10.248,0a1.221,1.221,0,1,1-1.221-1.221,1.221,1.221,0,0,1,1.221,1.221Z"/>
</svg>
