<svg xmlns="http://www.w3.org/2000/svg" width="24" height="24" viewBox="0 0 24 24">
  <g id="Сгруппировать_5290" data-name="Сгруппировать 5290" transform="translate(-26 -405)">
    <rect id="Прямоугольник_9991" data-name="Прямоугольник 9991" width="24" height="24" transform="translate(26 405)" fill="none"/>
    <path id="Безымянный-1" d="M401.5,271.538l-.927-12.677a2.409,2.409,0,0,0-2.393-2.224h-1.321a6.417,6.417,0,0,0-1.266-3.415,4.177,4.177,0,0,0-3.379-1.472,3.926,3.926,0,0,0-3.127,1.366,6.615,6.615,0,0,0-1.332,3.521H386.42a2.409,2.409,0,0,0-2.393,2.224l-.928,12.677a3.922,3.922,0,0,0,3.911,4.208h10.582a3.922,3.922,0,0,0,3.911-4.208Zm-11.248-17.427a2.427,2.427,0,0,1,1.962-.828,2.68,2.68,0,0,1,2.2.919,4.727,4.727,0,0,1,.909,2.436H389.3A4.959,4.959,0,0,1,390.255,254.111Zm9.087,19.34a2.363,2.363,0,0,1-1.75.763H387.01a2.39,2.39,0,0,1-2.384-2.564l.928-12.676a.87.87,0,0,1,.865-.8h1.252c0,.4.017.756.039,1.056H387a.766.766,0,1,0,0,1.532h2.865a.766.766,0,0,0,0-1.532h-.624c-.025-.309-.041-.667-.041-1.056h6.189c-.01.409-.038.771-.068,1.056h-.6a.766.766,0,1,0,0,1.532H397.6a.766.766,0,0,0,0-1.532h-.728c.028-.3.052-.658.059-1.056h1.257a.87.87,0,0,1,.865.8l.927,12.677A2.365,2.365,0,0,1,399.341,273.451Z" transform="translate(-354.088 153.254)" />
  </g>
</svg>
