<svg viewBox="0 0 20 20" xmlns="http://www.w3.org/2000/svg">
    <g>
        <path
            d="M1.66797 8.33464C1.66797 7.11241 1.91464 5.9563 2.40797 4.8663C2.90075 3.77575 3.60547 2.83464 4.52214 2.04297L5.70964 3.20964C4.95964 3.86241 4.3763 4.62964 3.95964 5.5113C3.54297 6.39352 3.33464 7.33464 3.33464 8.33464H1.66797ZM16.668 8.33464C16.668 7.33464 16.4596 6.39352 16.043 5.5113C15.6263 4.62964 15.043 3.86241 14.293 3.20964L15.4805 2.04297C16.3971 2.83464 17.1021 3.77575 17.5955 4.8663C18.0882 5.9563 18.3346 7.11241 18.3346 8.33464H16.668ZM3.33464 15.8346V14.168H5.0013V8.33464C5.0013 7.18186 5.34852 6.15741 6.04297 5.2613C6.73741 4.36575 7.64019 3.77908 8.7513 3.5013V2.91797C8.7513 2.57075 8.87297 2.27575 9.1163 2.03297C9.35908 1.78964 9.65408 1.66797 10.0013 1.66797C10.3485 1.66797 10.6435 1.78964 10.8863 2.03297C11.1296 2.27575 11.2513 2.57075 11.2513 2.91797V3.5013C12.3624 3.77908 13.2652 4.36575 13.9596 5.2613C14.6541 6.15741 15.0013 7.18186 15.0013 8.33464V14.168H16.668V15.8346H3.33464ZM10.0013 18.3346C9.54297 18.3346 9.15075 18.1716 8.82464 17.8455C8.49797 17.5188 8.33464 17.1263 8.33464 16.668H11.668C11.668 17.1263 11.5049 17.5188 11.1788 17.8455C10.8521 18.1716 10.4596 18.3346 10.0013 18.3346ZM6.66797 14.168H13.3346V8.33464C13.3346 7.41797 13.0082 6.63325 12.3555 5.98047C11.7027 5.32769 10.918 5.0013 10.0013 5.0013C9.08464 5.0013 8.29991 5.32769 7.64714 5.98047C6.99436 6.63325 6.66797 7.41797 6.66797 8.33464V14.168Z" />
    </g>
</svg>