<svg viewBox="0 0 20 20" xmlns="http://www.w3.org/2000/svg">
<mask id="mask0_5418_1614" style="mask-type:alpha" maskUnits="userSpaceOnUse" x="0" y="0" width="20" height="20">
<rect width="20" height="20" fill="#D9D9D9"/>
</mask>
<g mask="url(#mask0_5418_1614)">
<path d="M3.33268 15.8346V14.168H4.99935V8.33464C4.99935 7.8763 5.05852 7.42491 5.17685 6.98047C5.29463 6.53602 5.47157 6.11241 5.70768 5.70964L6.95768 6.95964C6.86046 7.18186 6.78768 7.40741 6.73935 7.6363C6.69046 7.86575 6.66602 8.09852 6.66602 8.33464V14.168H11.8327L1.16602 3.5013L2.33268 2.33464L17.666 17.668L16.4993 18.8346L13.4577 15.8346H3.33268ZM14.9993 12.6263L13.3327 10.9596V8.33464C13.3327 7.41797 13.0063 6.63325 12.3535 5.98047C11.7007 5.32769 10.916 5.0013 9.99935 5.0013C9.62435 5.0013 9.27379 5.06047 8.94768 5.1788C8.62102 5.29658 8.31879 5.45964 8.04102 5.66797L6.83268 4.45964C7.11046 4.2513 7.40907 4.06019 7.72852 3.8863C8.04796 3.71297 8.38824 3.58464 8.74935 3.5013V2.91797C8.74935 2.57075 8.87102 2.27575 9.11435 2.03297C9.35713 1.78964 9.65213 1.66797 9.99935 1.66797C10.3466 1.66797 10.6416 1.78964 10.8843 2.03297C11.1277 2.27575 11.2493 2.57075 11.2493 2.91797V3.5013C12.3327 3.77908 13.2285 4.3588 13.9368 5.24047C14.6452 6.12269 14.9993 7.15408 14.9993 8.33464V12.6263ZM9.99935 18.3346C9.54102 18.3346 9.14879 18.1716 8.82268 17.8455C8.49602 17.5188 8.33268 17.1263 8.33268 16.668H11.666C11.666 17.1263 11.503 17.5188 11.1768 17.8455C10.8502 18.1716 10.4577 18.3346 9.99935 18.3346Z"/>
</g>
</svg>
