<svg xmlns="http://www.w3.org/2000/svg" width="21" height="21" viewBox="0 0 21 21">
  <g transform="translate(-404 -559)">
    <rect width="21" height="21" transform="translate(404 559)" fill="none"/>
    <path d="M322.87,302.783H309.841a2.014,2.014,0,0,1-1.986-2.037V285.854a2.009,2.009,0,0,1,1.981-2.033h1.917v1.429h-1.917a.6.6,0,0,0-.589.6v14.892a.6.6,0,0,0,.6.611h13.029a.6.6,0,0,0,.6-.611V285.854a.6.6,0,0,0-.589-.6h-1.939v-1.429h1.939a2.009,2.009,0,0,1,1.981,2.033v14.892A2.014,2.014,0,0,1,322.87,302.783Zm-1.5-10.974a.627.627,0,0,0-.617-.637l-8.784-.027h0a.635.635,0,0,0,0,1.27l8.784.027h0a.627.627,0,0,0,.617-.633Zm0,3.688a.627.627,0,0,0-.616-.638l-8.784-.037h0a.635.635,0,0,0,0,1.27l8.784.037h0a.627.627,0,0,0,.616-.636Zm-.8-9.434v-3.1a.627.627,0,0,0-.619-.635h-7.184a.627.627,0,0,0-.619.635v3.1a.627.627,0,0,0,.619.635h7.184a.611.611,0,0,0,.439-.187.643.643,0,0,0,.18-.451Zm-7.184-2.468h5.95v1.831h-5.95Z" transform="translate(98.144 276.928)" />
  </g>
</svg>
