<svg xmlns="http://www.w3.org/2000/svg" width="24" height="24" viewBox="0 0 24 24">
  <g id="services" transform="translate(-404 -559)">
    <rect width="24" height="24" transform="translate(404 559)" fill="none"/>
    <path d="M325.519,305.783H310.191a2.338,2.338,0,0,1-2.336-2.336V286.371a2.333,2.333,0,0,1,2.331-2.331h2.255v1.638h-2.255a.694.694,0,0,0-.693.693v17.076a.7.7,0,0,0,.7.7h15.328a.7.7,0,0,0,.7-.7V286.371a.694.694,0,0,0-.693-.693h-2.281v-1.638h2.281a2.333,2.333,0,0,1,2.331,2.331v17.076A2.339,2.339,0,0,1,325.519,305.783ZM323.75,293.2a.728.728,0,0,0-.726-.73l-10.334-.031h0a.728.728,0,0,0,0,1.456l10.334.031h0A.728.728,0,0,0,323.75,293.2Zm0,4.229a.728.728,0,0,0-.725-.731l-10.334-.042h0a.728.728,0,0,0,0,1.456l10.334.042h0A.728.728,0,0,0,323.75,297.425Zm-.942-10.818v-3.558a.728.728,0,0,0-.728-.728h-8.451a.728.728,0,0,0-.728.728v3.558a.728.728,0,0,0,.728.728h8.451A.728.728,0,0,0,322.808,286.607Zm-8.451-2.83h7v2.1h-7Z" transform="translate(98.144 276.928)"/>
  </g>
</svg>
