<svg xmlns="http://www.w3.org/2000/svg" width="24.003" height="24" viewBox="0 0 24.003 24">
  <g id="order" transform="translate(-14.997 -75)">
    <rect id="Прямоугольник_9871" data-name="Прямоугольник 9871" width="24" height="24" transform="translate(15 75)" fill="none"/>
    <path id="orders" d="M299.576,527.468h-14.46a.71.71,0,0,1-.694-.56L281.9,515.252A1.594,1.594,0,0,0,280.35,514h-.661a.71.71,0,0,1,0-1.42h.661a3.023,3.023,0,0,1,2.939,2.371l2.4,11.1h13.888a1.986,1.986,0,0,0,1.984-1.984v-7.2a.71.71,0,0,1,1.42,0v7.2a3.409,3.409,0,0,1-3.406,3.4Zm-5.73-5.069v-8.423a.71.71,0,0,0-1.42,0V522.4a.71.71,0,1,0,1.42,0Zm-.352.5a.71.71,0,0,0,.005-1l-3.051-3.085a.711.711,0,1,0-1.01,1l3.051,3.085a.71.71,0,0,0,1,.005Zm.146.119,3.051-3.085a.711.711,0,0,0-1.01-1l-3.051,3.085a.711.711,0,1,0,1.01,1ZM286,527.385h2.959m1.2,3.754a2.113,2.113,0,1,1-2.113-2.113A2.113,2.113,0,0,1,290.164,531.139Zm-1.394,0a.706.706,0,1,0-.706.706.706.706,0,0,0,.706-.706Zm12.114,0a2.113,2.113,0,1,1-2.113-2.113,2.113,2.113,0,0,1,2.113,2.113Zm-1.394,0a.706.706,0,1,0-.706.706A.706.706,0,0,0,299.49,531.139Z" transform="translate(-263.982 -435.981)" />
  </g>
</svg>
