<svg xmlns="http://www.w3.org/2000/svg" width="102" height="116" viewBox="0 0 102 116">
  <path d="M74.5,43h-47a2.5,2.5,0,0,1,0-5h47a2.5,2.5,0,0,1,0,5ZM65,60.5A2.5,2.5,0,0,0,62.5,58h-35a2.5,2.5,0,0,0,0,5h35A2.5,2.5,0,0,0,65,60.5ZM27.5,78a2.5,2.5,0,0,0,0,5h19a2.5,2.5,0,0,0,0-5Zm76.522-42.294a4.944,4.944,0,0,0-3.8,1.793,2.483,2.483,0,0,0-.24.278l-.057.081c-.018.026-.036.05-.053.076L67.332,84.412a2.464,2.464,0,0,0-.309.634h0l-3,7.7a2.561,2.561,0,0,0-.1.256l-.027.071,0,0a2.483,2.483,0,0,0,3.966,2.648l.005,0,6.912-4.969a2.613,2.613,0,0,0,.23-.165l.05-.036v0a2.471,2.471,0,0,0,.486-.5L108.2,43.418a2.458,2.458,0,0,0,.285-.559,4.924,4.924,0,0,0,.52-2.175A4.978,4.978,0,0,0,104.022,35.706ZM95,92.061v9.557A14.382,14.382,0,0,1,80.618,116H21.382A14.382,14.382,0,0,1,7,101.618V21.382A14.382,14.382,0,0,1,21.382,7H27V3a3,3,0,0,1,3-3H73a3,3,0,0,1,3,3V7h4.618A14.382,14.382,0,0,1,95,21.382v8.647a2.5,2.5,0,1,1-5,0V21.382A9.383,9.383,0,0,0,80.618,12H76v4a3,3,0,0,1-3,3H30a3,3,0,0,1-3-3V12H21.382A9.383,9.383,0,0,0,12,21.382v80.236A9.383,9.383,0,0,0,21.382,111H80.618A9.383,9.383,0,0,0,90,101.618V92.061a2.5,2.5,0,0,1,5,0ZM32,14H71V5H32Z" transform="translate(-7)"/>
</svg>
