<svg viewBox="0 0 21 20" xmlns="http://www.w3.org/2000/svg">
<rect y="4.94531" width="17.5925" height="7.74169" rx="3.87085" transform="rotate(-16.3323 0 4.94531)" fill-opacity="0.5"/>
<path fill-rule="evenodd" clip-rule="evenodd" d="M4.4707 3.93359C2.26156 3.93359 0.470703 5.72445 0.470703 7.93359V15.9336C0.470703 18.1427 2.26156 19.9336 4.4707 19.9336H16.4707C18.6798 19.9336 20.4707 18.1427 20.4707 15.9336V7.93359C20.4707 5.72445 18.6798 3.93359 16.4707 3.93359H4.4707ZM17.4707 9.43359C17.4707 8.88131 17.023 8.43359 16.4707 8.43359C15.9184 8.43359 15.4707 8.88131 15.4707 9.43359V14.4336C15.4707 14.9859 15.9184 15.4336 16.4707 15.4336C17.023 15.4336 17.4707 14.9859 17.4707 14.4336V9.43359Z" />
</svg>
