<svg viewBox="0 0 23 17"  xmlns="http://www.w3.org/2000/svg">
<path opacity="0.5" d="M6.62891 3.18781H18.3537C19.3626 3.18781 20.1804 4.00565 20.1804 5.01453V13.5897L21.515 13.3344C22.5059 13.1448 23.1555 12.1878 22.9659 11.1969L21.2539 2.24939C21.0643 1.25851 20.1074 0.608911 19.1165 0.798508L6.62891 3.18781Z"/>
<path d="M1.91266 3.1875C0.903805 3.1875 0.0859375 4.00534 0.0859375 5.01423V5.92759H20.1799V5.01423C20.1799 4.00534 19.3621 3.1875 18.3532 3.1875H1.91266Z"/>
<path fill-rule="evenodd" clip-rule="evenodd" d="M20.1799 7.75431H0.0859375V15.0612C0.0859375 16.0701 0.903805 16.8879 1.91266 16.8879H18.3532C19.3621 16.8879 20.1799 16.0701 20.1799 15.0612V7.75431ZM2.141 13.2345C2.141 12.8562 2.44773 12.5495 2.82603 12.5495H7.39284C7.77114 12.5495 8.07786 12.8562 8.07786 13.2345C8.07786 13.6128 7.77114 13.9195 7.39284 13.9195H2.82603C2.44773 13.9195 2.141 13.6128 2.141 13.2345Z"/>
</svg>
