<svg viewBox="0 0 16 16" xmlns="http://www.w3.org/2000/svg">
    <path fill-rule="evenodd" clip-rule="evenodd"
        d="M2.94071 9.4058C2.58137 9.4058 2.29249 9.69914 2.29249 10.058C2.29249 10.4168 2.58137 10.7101 2.94071 10.7101H6.10277C6.4621 10.7101 6.75099 10.4168 6.75099 10.058C6.75099 9.69914 6.4621 9.4058 6.10277 9.4058H2.94071Z" />
    <path fill-rule="evenodd" clip-rule="evenodd"
        d="M2.3083 2C1.02517 2 0 3.04651 0 4.31884V11.3333C0 12.6057 1.02517 13.6522 2.3083 13.6522H13.6917C14.9748 13.6522 16 12.6057 16 11.3333V4.31884C16 3.04651 14.9748 2 13.6917 2H2.3083ZM13.6917 3.21739C14.2252 3.21739 14.671 3.60464 14.7646 4.11812C14.7764 4.18308 14.7826 4.25015 14.7826 4.31884V4.78261H1.21739V4.31884C1.21739 4.25015 1.2236 4.18308 1.23543 4.11812C1.32897 3.60464 1.77484 3.21739 2.3083 3.21739H13.6917ZM14.7826 11.3333C14.7826 11.943 14.2928 12.4348 13.6917 12.4348H2.3083C1.70717 12.4348 1.21739 11.943 1.21739 11.3333V6.4058H14.7826V11.3333Z" />
</svg>