<svg viewBox="0 0 16 16" xmlns="http://www.w3.org/2000/svg">
    <path
        d="M1.45455 2.5C0.651234 2.5 0 3.15664 0 3.96667V4.7H16V3.96667C16 3.15664 15.3488 2.5 14.5455 2.5H1.45455Z" />
    <path fill-rule="evenodd" clip-rule="evenodd"
        d="M16 6.16667H0V12.0333C0 12.8434 0.651234 13.5 1.45455 13.5H14.5455C15.3488 13.5 16 12.8434 16 12.0333V6.16667ZM1.63636 10.5667C1.63636 10.2629 1.88059 10.0167 2.18182 10.0167H5.81818C6.11941 10.0167 6.36364 10.2629 6.36364 10.5667C6.36364 10.8704 6.11941 11.1167 5.81818 11.1167H2.18182C1.88059 11.1167 1.63636 10.8704 1.63636 10.5667Z" />
</svg>