<svg xmlns="http://www.w3.org/2000/svg" viewBox="0 0 24 24">
  <g id="pay-white" transform="translate(-19 -278)">
    <rect transform="translate(19 278)" fill="none"/>
    <path d="M24,13.763a3.124,3.124,0,0,0-2.81-3.1V5.74H20.5c-.02,0-.04-.006-.06-.006H3.12a1.614,1.614,0,1,1,0-3.229H18.071a.753.753,0,1,0,0-1.505H3.12A3.121,3.121,0,0,0,.01,3.917H0V19.536a2.906,2.906,0,0,0,2.9,2.9H18.287a2.906,2.906,0,0,0,2.9-2.9V16.867A3.124,3.124,0,0,0,24,13.763Zm-5.713,7.17H2.9a1.4,1.4,0,0,1-1.4-1.4V6.784A3.1,3.1,0,0,0,3.12,7.24H19.685v3.4H15.83a3.12,3.12,0,1,0,0,6.239h3.855v2.653A1.4,1.4,0,0,1,18.287,20.934Zm2.593-5.556H15.83a1.614,1.614,0,0,1,0-3.229h5.05a1.614,1.614,0,1,1,0,3.229Z" transform="translate(19 278.3)" />
  </g>
</svg>
