<svg viewBox="0 0 24 24"  xmlns="http://www.w3.org/2000/svg">
<path d="M19.9912 11.0034H18.9619V8.13037C18.9619 7.62646 18.7621 7.14318 18.4058 6.78687C18.0494 6.43055 17.5659 6.23047 17.062 6.23047H3.67725C3.17725 6.23047 2.91895 5.88346 2.91895 5.19946C2.91947 4.90984 3.03485 4.63219 3.23975 4.42749C3.44464 4.22279 3.72258 4.10769 4.01221 4.10742H15.3071C15.5612 4.10742 15.8047 4.00656 15.9844 3.8269C16.164 3.64724 16.2651 3.40349 16.2651 3.14941C16.2651 2.89534 16.164 2.65183 15.9844 2.47217C15.8047 2.29251 15.5612 2.19141 15.3071 2.19141H4.01318C3.21574 2.19246 2.45109 2.50985 1.88721 3.07373C1.32333 3.63761 1.00643 4.40202 1.00537 5.19946C1.00537 5.26846 1.01802 5.33041 1.02002 5.39941C1.01142 5.43233 1.00473 5.46582 1 5.49951C1 5.91551 1 9.61155 1 9.86255V18.1624C1.00185 19.1249 1.38491 20.0476 2.06543 20.7283C2.74595 21.409 3.66882 21.7923 4.63135 21.7944H16.2842C17.2471 21.7928 18.1701 21.4098 18.8511 20.729C19.532 20.0482 19.9151 19.1252 19.917 18.1624V17.0195H19.9873C20.7851 17.0195 21.5501 16.7025 22.1143 16.1384C22.6784 15.5743 22.9951 14.8092 22.9951 14.0115C22.9951 13.2137 22.6784 12.4486 22.1143 11.8845C21.5501 11.3204 20.7851 11.0034 19.9873 11.0034H19.9912ZM18.0054 18.1624C18.0046 18.6174 17.8233 19.0536 17.5015 19.3752C17.1796 19.6969 16.7431 19.8779 16.2881 19.8784H4.63525C4.18048 19.8776 3.74433 19.6967 3.42285 19.375C3.10137 19.0533 2.92045 18.6171 2.91992 18.1624V8.0354C3.16892 8.10765 3.42678 8.14539 3.68604 8.14746L17.0552 8.12744V11.0005H16.3682C15.5703 11.0005 14.8049 11.3174 14.2407 11.8816C13.6765 12.4458 13.3599 13.2111 13.3599 14.009C13.3599 14.8069 13.6765 15.572 14.2407 16.1362C14.8049 16.7004 15.5703 17.0176 16.3682 17.0176H18.0142L18.0054 18.1624ZM19.9912 15.1035H16.3589C16.2116 15.1098 16.0647 15.0862 15.9268 15.0342C15.7888 14.9821 15.6626 14.9028 15.5562 14.8008C15.4497 14.6988 15.365 14.5761 15.3071 14.4404C15.2492 14.3048 15.2192 14.1589 15.2192 14.0115C15.2192 13.864 15.2492 13.7182 15.3071 13.5825C15.365 13.4469 15.4497 13.3242 15.5562 13.2222C15.6626 13.1201 15.7888 13.0408 15.9268 12.9888C16.0647 12.9367 16.2116 12.9131 16.3589 12.9194H19.9912C20.2752 12.928 20.5448 13.047 20.7427 13.251C20.9405 13.4549 21.0513 13.7278 21.0513 14.012C21.0513 14.2961 20.9405 14.569 20.7427 14.7729C20.5448 14.9769 20.2752 15.0959 19.9912 15.1045V15.1035Z"/>
</svg>
