<svg xmlns="http://www.w3.org/2000/svg" width="24" height="24" viewBox="0 0 24 24">
  <g id="Сгруппировать_5728" data-name="Сгруппировать 5728" transform="translate(-19 -278)">
    <rect id="Прямоугольник_10163" data-name="Прямоугольник 10163" width="24" height="24" transform="translate(19 278)" fill="none"/>
    <path id="Безымянный-1" d="M4062.465,2619.73h-17.681a3.163,3.163,0,0,0-3.159,3.159v15.163a3.163,3.163,0,0,0,3.159,3.16h17.681a3.164,3.164,0,0,0,3.159-3.16v-15.163a3.163,3.163,0,0,0-3.16-3.159Zm-17.681,1.5h17.681a1.66,1.66,0,0,1,1.658,1.659V2625h-21v-2.107a1.661,1.661,0,0,1,1.657-1.659Zm17.681,18.48h-17.681a1.661,1.661,0,0,1-1.659-1.659V2628.2h21v9.85a1.66,1.66,0,0,1-1.658,1.658Z" transform="translate(-4022.624 -2339.73)" fill="#fff"/>
  </g>
</svg>
