<svg
	xmlns="http://www.w3.org/2000/svg"

	viewBox="0 0 419.414 419.414"
	>
	<path d="M85.401,1.068l0.213-0.64C62.866,0.28,41.049,9.454,25.241,25.815C-8.22,59.003-8.441,113.032,24.747,146.493
		c0.164,0.166,0.329,0.331,0.495,0.495c15.892,16.03,37.589,24.955,60.16,24.747c47.128,0,85.333-38.205,85.333-85.333
		S132.53,1.068,85.401,1.068z M85.615,129.921v0.213c-12.057,0.312-23.682-4.493-32-13.227c-8.2-8.26-12.67-19.511-12.373-31.147
		c-0.297-11.635,4.173-22.887,12.373-31.147c8.511-8.421,20.027-13.104,32-13.013c24.389,0,44.16,19.771,44.16,44.16
		C129.775,110.15,110.004,129.921,85.615,129.921z"/>

		<path d="M394.387,273.281c-16.036-16.018-37.786-24.999-60.452-24.96c-47.128,0.081-85.268,38.351-85.187,85.479
			c0.039,22.598,9.039,44.257,25.027,60.227c33.343,33.306,87.373,33.276,120.68-0.067
			C427.76,360.617,427.73,306.587,394.387,273.281z M334.148,378.242c-0.071,0-0.142,0-0.213-0.001
			c-11.548-0.154-22.576-4.826-30.72-13.013c-8.402-8.298-13.226-19.553-13.44-31.36c0-24.507,19.867-44.373,44.374-44.373
			c24.507,0,44.373,19.867,44.373,44.374S358.654,378.242,334.148,378.242z"/>

			<path d="M380.228,38.828c-3.88-3.634-8.978-5.688-14.293-5.76c-5.61-0.147-11.052,1.922-15.147,5.76L38.255,352.855
				c-3.634,3.88-5.688,8.978-5.76,14.293c0.119,5.37,2.163,10.518,5.76,14.507c8.241,7.856,21.199,7.856,29.44,0L380.228,68.268
				c3.734-3.988,5.796-9.257,5.76-14.72C385.921,48.104,383.873,42.872,380.228,38.828z"/>
</svg>
