<svg viewBox="0 0 20 20" xmlns="http://www.w3.org/2000/svg">
<mask id="mask0_5275_2133" style="mask-type:alpha" maskUnits="userSpaceOnUse" x="0" y="0" width="20" height="20">
<rect width="20" height="20" fill="#D9D9D9"/>
</mask>
<g mask="url(#mask0_5275_2133)">
<path d="M5.83268 19.1654C5.37435 19.1654 4.98213 19.0023 4.65602 18.6762C4.32935 18.3495 4.16602 17.957 4.16602 17.4987V2.4987C4.16602 2.04036 4.32935 1.64786 4.65602 1.3212C4.98213 0.995087 5.37435 0.832031 5.83268 0.832031H14.166C14.6243 0.832031 15.0168 0.995087 15.3435 1.3212C15.6696 1.64786 15.8327 2.04036 15.8327 2.4987V5.83203H14.166V4.9987H5.83268V14.9987H14.166V14.1654H15.8327V17.4987C15.8327 17.957 15.6696 18.3495 15.3435 18.6762C15.0168 19.0023 14.6243 19.1654 14.166 19.1654H5.83268ZM5.83268 17.4987H14.166V16.6654H5.83268V17.4987ZM14.9993 13.332C14.0827 13.332 13.298 13.0056 12.6452 12.3529C11.9924 11.7001 11.666 10.9154 11.666 9.9987C11.666 9.08203 11.9924 8.29731 12.6452 7.64453C13.298 6.99175 14.0827 6.66536 14.9993 6.66536C15.916 6.66536 16.7007 6.99175 17.3535 7.64453C18.0063 8.29731 18.3327 9.08203 18.3327 9.9987C18.3327 10.9154 18.0063 11.7001 17.3535 12.3529C16.7007 13.0056 15.916 13.332 14.9993 13.332ZM14.9993 12.082C15.166 12.082 15.3291 12.0612 15.4885 12.0195C15.6485 11.9779 15.8049 11.9154 15.9577 11.832L13.166 9.04037C13.0827 9.19314 13.0202 9.34925 12.9785 9.5087C12.9368 9.6687 12.916 9.83203 12.916 9.9987C12.916 10.582 13.1174 11.0751 13.5202 11.4779C13.923 11.8806 14.416 12.082 14.9993 12.082ZM16.8327 10.957C16.916 10.8043 16.9785 10.6479 17.0202 10.4879C17.0618 10.3284 17.0827 10.1654 17.0827 9.9987C17.0827 9.41537 16.8813 8.92231 16.4785 8.51953C16.0757 8.11675 15.5827 7.91536 14.9993 7.91536C14.8327 7.91536 14.6696 7.9362 14.5102 7.97786C14.3502 8.01953 14.1938 8.08203 14.041 8.16537L16.8327 10.957ZM5.83268 3.33203H14.166V2.4987H5.83268V3.33203Z"/>
</g>
</svg>
