<svg viewBox="0 0 24 24" xmlns="http://www.w3.org/2000/svg">
    <path
        d="M17.4937 22.7243H3.29619C2.422 22.7243 1.58357 22.377 0.965423 21.7589C0.347276 21.1407 0 20.3023 0 19.4281V9.91018C0 9.47733 0.0852804 9.04863 0.250927 8.64872C0.416574 8.24881 0.659348 7.88549 0.965423 7.57941C1.2715 7.27334 1.63482 7.03056 2.03473 6.86492C2.43464 6.69927 2.86334 6.61399 3.29619 6.61399H4.27698C4.4198 6.61449 4.56147 6.58682 4.69348 6.5323C4.8255 6.47778 4.94525 6.39763 5.0461 6.29649L6.78406 4.55853C7.08925 4.25136 7.45238 4.00764 7.85239 3.84184C8.25239 3.67604 8.68133 3.59143 9.11434 3.59262H13.3435C13.6365 3.59262 13.9174 3.70905 14.1246 3.91622C14.3318 4.12339 14.4482 4.4043 14.4482 4.69729C14.4482 4.99027 14.3318 5.27118 14.1246 5.47836C13.9174 5.68553 13.6365 5.80195 13.3435 5.80195H9.11239C8.96964 5.8016 8.82822 5.82968 8.69637 5.88438C8.56452 5.93907 8.44482 6.01938 8.34424 6.12067L6.60629 7.85863C6.30094 8.16553 5.9377 8.40873 5.53771 8.57434C5.13772 8.73996 4.70892 8.82454 4.276 8.82332H3.29522C3.00708 8.82385 2.73087 8.93884 2.52732 9.14277C2.32376 9.3467 2.20957 9.62302 2.20957 9.91116V19.4291C2.2101 19.7169 2.32455 19.9927 2.52805 20.1962C2.73155 20.3997 3.00743 20.5142 3.29522 20.5147H17.4966C17.7844 20.5142 18.0603 20.3997 18.2638 20.1962C18.4673 19.9927 18.5817 19.7169 18.5823 19.4291V11.6491C18.5823 11.3561 18.6987 11.0752 18.9059 10.868C19.113 10.6609 19.3939 10.5445 19.6869 10.5445C19.9799 10.5445 20.2611 10.6609 20.4682 10.868C20.6754 11.0752 20.7918 11.3561 20.7918 11.6491V19.4291C20.7917 19.862 20.7063 20.2906 20.5404 20.6905C20.3746 21.0905 20.1315 21.4539 19.8252 21.7598C19.5189 22.0658 19.1555 22.3084 18.7554 22.4739C18.3553 22.6393 17.9266 22.7246 17.4937 22.7243ZM21.0284 7.79669V1.85466C21.0284 1.56168 20.912 1.28053 20.7048 1.07335C20.4976 0.866179 20.2167 0.75 19.9237 0.75C19.6307 0.75 19.3498 0.866179 19.1426 1.07335C18.9355 1.28053 18.819 1.56168 18.819 1.85466V7.79669C18.819 8.08968 18.9355 8.37058 19.1426 8.57776C19.3498 8.78493 19.6307 8.90135 19.9237 8.90135C20.2167 8.90135 20.4976 8.78493 20.7048 8.57776C20.912 8.37058 21.0284 8.08968 21.0284 7.79669ZM24 4.82507C24 4.68 23.9714 4.5365 23.9159 4.40247C23.8604 4.26844 23.779 4.14658 23.6764 4.044C23.5738 3.94142 23.452 3.86005 23.3179 3.80453C23.1839 3.74902 23.0404 3.7204 22.8953 3.7204H16.9533C16.6603 3.7204 16.3792 3.83683 16.172 4.044C15.9648 4.25117 15.8484 4.53208 15.8484 4.82507C15.8484 5.11805 15.9648 5.39921 16.172 5.60638C16.3792 5.81355 16.6603 5.92973 16.9533 5.92973H22.8953C23.1873 5.92974 23.4672 5.81421 23.6742 5.60833C23.8812 5.40245 23.9984 5.12311 24 4.83116V4.82507ZM15.1993 14.0143C15.1993 13.0488 14.9131 12.1051 14.3767 11.3024C13.8404 10.4996 13.0779 9.87411 12.1859 9.50465C11.294 9.1352 10.3126 9.03856 9.36575 9.2269C8.41887 9.41525 7.54914 9.88008 6.86648 10.5627C6.18382 11.2454 5.71874 12.1151 5.5304 13.062C5.34205 14.0089 5.43869 14.9905 5.80815 15.8824C6.1776 16.7744 6.80337 17.5366 7.60609 18.073C8.40882 18.6094 9.35258 18.8958 10.318 18.8958C11.6126 18.8958 12.8541 18.3815 13.7695 17.466C14.685 16.5506 15.1993 15.3089 15.1993 14.0143ZM12.9899 14.0143C12.9899 14.5427 12.8331 15.0595 12.5395 15.4989C12.2459 15.9382 11.8287 16.2806 11.3405 16.4828C10.8523 16.685 10.3149 16.7381 9.79665 16.635C9.27835 16.5319 8.80228 16.2773 8.42862 15.9037C8.05495 15.53 7.80063 15.0539 7.69754 14.5356C7.59444 14.0173 7.64723 13.48 7.84946 12.9918C8.05169 12.5036 8.39427 12.0863 8.83366 11.7927C9.27305 11.4992 9.78956 11.3426 10.318 11.3426C11.0266 11.3426 11.7063 11.624 12.2074 12.1251C12.7085 12.6262 12.9899 13.3056 12.9899 14.0143Z"/>
</svg>
