<svg viewBox="0 0 63 63" xmlns="http://www.w3.org/2000/svg" >
<g >
<path d="M36.9481 11.4353C38.8265 10.8293 40.3803 9.96367 41.8452 8.70687L42.5761 8.07981L42.9945 8.53098C45.2471 10.9598 46.5648 13.9462 46.8061 17.1687C46.8475 17.7217 46.864 18.2064 46.8428 18.2459C46.7899 18.3443 13.7026 18.3374 13.6406 18.2389C13.6134 18.1955 13.6335 17.8617 13.6852 17.4969C13.9666 15.5164 15.1644 13.8038 16.885 12.9221C16.9735 12.8768 17.0539 12.8344 17.1289 12.7949C17.3006 12.7045 17.4442 12.6289 17.593 12.5654C18.3545 12.2406 19.2517 12.2341 24.7408 12.1944L26.4299 12.1819C33.0666 12.1314 34.4613 12.1208 35.775 11.7893C36.1245 11.7011 36.4683 11.5901 36.9035 11.4497L36.9481 11.4353Z"/>
<path d="M52.4214 24.1727L51.0066 24.1727L51.0066 24.155C51.0066 22.6233 49.7649 21.3817 48.2333 21.3817L12.2611 21.3817C10.7295 21.3817 9.48784 22.6233 9.48784 24.155L9.48784 24.1727L8.07356 24.1727C6.53709 24.1727 5.29346 25.4219 5.3003 26.9584L5.32338 32.1439C5.32497 32.5026 5.32645 32.8459 5.32787 33.1745C5.3535 39.1218 5.35847 40.2765 5.64989 41.3538C5.7201 41.6133 5.80694 41.8684 5.91471 42.1849C5.93941 42.2574 5.96521 42.3332 5.99216 42.413C7.21131 46.0223 10.4692 49.0995 14.1939 50.16C14.2534 50.1769 14.3103 50.1933 14.3652 50.2091C14.537 50.2585 14.6894 50.3023 14.843 50.3412C16.0548 50.648 17.3443 50.6479 28.8024 50.6475C29.2672 50.6474 29.7486 50.6474 30.2475 50.6474C30.7463 50.6474 31.2278 50.6474 31.6925 50.6475C43.1507 50.6479 44.4402 50.648 45.6519 50.3412C45.8056 50.3023 45.958 50.2585 46.1297 50.2091C46.1847 50.1933 46.2416 50.1769 46.3011 50.16C50.0258 49.0995 53.2837 46.0223 54.5028 42.413C54.5297 42.3332 54.5555 42.2574 54.5802 42.1849C54.688 41.8684 54.7749 41.6133 54.8451 41.3538C55.1365 40.2765 55.1415 39.1218 55.1671 33.1745C55.1685 32.8458 55.17 32.5026 55.1716 32.1439L55.1947 26.9584C55.2015 25.4219 53.9579 24.1727 52.4214 24.1727Z" />
</g>
</svg>
