<svg viewBox="0 0 51 43" xmlns="http://www.w3.org/2000/svg">
<path d="M31.9481 3.43534C33.8265 2.82934 35.3803 1.96367 36.8452 0.706869L37.5761 0.0798063L37.9945 0.530977C40.2471 2.95976 41.5648 5.94618 41.8061 9.16872C41.8475 9.72167 41.864 10.2064 41.8428 10.2459C41.7899 10.3443 8.70257 10.3374 8.64059 10.2389C8.61339 10.1955 8.63347 9.86166 8.68522 9.49685C8.9666 7.51637 10.1644 5.8038 11.885 4.92214C11.9735 4.87677 12.0539 4.83444 12.1289 4.79493C12.3006 4.70454 12.4442 4.62891 12.593 4.56544C13.3545 4.24063 14.2517 4.23414 19.7408 4.19438L21.4299 4.18188C28.0666 4.13139 29.4613 4.12078 30.775 3.78925C31.1245 3.70105 31.4683 3.59014 31.9035 3.44971L31.9481 3.43534Z"/>
<path d="M47.4214 16.1727L46.0066 16.1727L46.0066 16.155C46.0066 14.6233 44.7649 13.3817 43.2333 13.3817L7.26112 13.3817C5.72948 13.3817 4.48784 14.6233 4.48784 16.155L4.48784 16.1727L3.07356 16.1727C1.53709 16.1727 0.293463 17.4219 0.300301 18.9584L0.32338 24.1439C0.324974 24.5026 0.326453 24.8459 0.327869 25.1745C0.353496 31.1218 0.358472 32.2765 0.649887 33.3538C0.720102 33.6133 0.806945 33.8684 0.914713 34.1849C0.939413 34.2574 0.965212 34.3332 0.992162 34.413C2.21131 38.0223 5.46917 41.0995 9.19387 42.16C9.25342 42.1769 9.31032 42.1933 9.36524 42.2091C9.53697 42.2585 9.68937 42.3023 9.84303 42.3412C11.0548 42.648 12.3443 42.6479 23.8024 42.6475C24.2672 42.6474 24.7486 42.6474 25.2475 42.6474C25.7463 42.6474 26.2278 42.6474 26.6925 42.6475C38.1507 42.6479 39.4402 42.648 40.6519 42.3412C40.8056 42.3023 40.958 42.2585 41.1297 42.2091C41.1847 42.1933 41.2416 42.1769 41.3011 42.16C45.0258 41.0995 48.2837 38.0223 49.5028 34.413C49.5297 34.3332 49.5555 34.2574 49.5802 34.1849C49.688 33.8684 49.7749 33.6133 49.8451 33.3538C50.1365 32.2765 50.1415 31.1218 50.1671 25.1745C50.1685 24.8458 50.17 24.5026 50.1716 24.1439L50.1947 18.9584C50.2015 17.4219 48.9579 16.1727 47.4214 16.1727Z"/>
</svg>
