<svg viewBox="0 0 42 42" xmlns="http://www.w3.org/2000/svg">
<path fill-rule="evenodd" clip-rule="evenodd" d="M20.1733 1C18.781 1 17.6523 2.12869 17.6523 3.52101V5.68056C16.8947 6.00645 16.3642 6.7596 16.3642 7.63664V8.50454L14.8529 9.63798C13.3717 10.7489 12.5 12.4923 12.5 14.3439V38.4797C12.5 39.872 13.6287 41.0007 15.021 41.0007H26.7945C28.1868 41.0007 29.3155 39.872 29.3155 38.4797V14.3439C29.3155 12.4923 28.4437 10.7489 26.9625 9.63798L25.4513 8.50454V7.31462C25.4513 6.62037 25.0596 6.0176 24.4852 5.71519V3.52101C24.4852 2.12869 23.3565 1 21.9642 1H20.1733ZM22.8045 5.50823H19.3329V3.52101C19.3329 3.0569 19.7092 2.68067 20.1733 2.68067H21.9642C22.4283 2.68067 22.8045 3.0569 22.8045 3.52101V5.50823ZM18.4926 7.18891H22.8045H23.6449C23.7143 7.18891 23.7706 7.24519 23.7706 7.31462V8.08437H18.0449V7.63664C18.0449 7.38936 18.2453 7.18891 18.4926 7.18891ZM17.4846 9.76504H24.3308L25.9541 10.9825C27.0121 11.776 27.6348 13.0214 27.6348 14.3439V38.4797C27.6348 38.9438 27.2586 39.32 26.7945 39.32H15.021C14.5569 39.32 14.1807 38.9438 14.1807 38.4797V14.3439C14.1807 13.0214 14.8033 11.776 15.8613 10.9825L17.4846 9.76504ZM17.4033 16.3325C17.4033 15.8684 17.0271 15.4922 16.563 15.4922C16.0989 15.4922 15.7227 15.8684 15.7227 16.3325V31.1453C15.7227 31.6094 16.0989 31.9856 16.563 31.9856C17.0271 31.9856 17.4033 31.6094 17.4033 31.1453V16.3325Z"/>
</svg>
