<svg viewBox="0 0 22 52" xmlns="http://www.w3.org/2000/svg">
<path fill-rule="evenodd" clip-rule="evenodd" d="M9.40385 0.15918C8.01154 0.15918 6.88285 1.28787 6.88285 2.68019V6.18498C5.90369 6.53106 5.20217 7.46488 5.20217 8.56254V9.82304L2.5131 11.8399C1.03189 12.9508 0.160156 14.6942 0.160156 16.5457V49.3188C0.160156 50.7112 1.28885 51.8399 2.68116 51.8399H19.0677C20.46 51.8399 21.5887 50.7112 21.5887 49.3188V16.5457C21.5887 14.6942 20.717 12.9508 19.2358 11.8399L16.5467 9.82304V8.14237C16.5467 7.2809 16.0282 6.54052 15.2862 6.21634V2.68019C15.2862 1.28787 14.1575 0.15918 12.7652 0.15918H9.40385ZM13.6055 6.04153H8.56352V2.68019C8.56352 2.21608 8.93975 1.83985 9.40385 1.83985H12.7652C13.2293 1.83985 13.6055 2.21608 13.6055 2.68019V6.04153ZM3.5215 13.1844L6.32262 11.0835H15.4263L18.2274 13.1844C19.2854 13.9779 19.9081 15.2232 19.9081 16.5457V49.3188C19.9081 49.783 19.5318 50.1592 19.0677 50.1592H2.68116C2.21706 50.1592 1.84083 49.7829 1.84083 49.3188V16.5457C1.84083 15.2232 2.46349 13.9779 3.5215 13.1844ZM14.866 8.14237V9.40288H6.88285V8.56254C6.88285 8.09844 7.25908 7.72221 7.72318 7.72221H14.4459C14.6779 7.72221 14.866 7.91032 14.866 8.14237ZM6.042 19.9072C6.042 19.4431 5.66577 19.0669 5.20166 19.0669C4.73756 19.0669 4.36133 19.4431 4.36133 19.9072V39.235C4.36133 39.6991 4.73756 40.0753 5.20166 40.0753C5.66577 40.0753 6.042 39.6991 6.042 39.235V19.9072Z" />
</svg>
