<svg viewBox="0 0 233 210"  xmlns="http://www.w3.org/2000/svg">
<rect x="5" y="43.459" width="79.0471" height="77.7126" rx="12" transform="rotate(-15 5 43.459)" fill="#F5F6F7"/>
<path d="M54.672 57.7428C55.8673 56.9701 56.7881 56.077 57.5739 54.9282L57.9661 54.3549L58.3418 54.5911C60.3642 55.8625 61.8396 57.6969 62.6091 59.8967C62.7412 60.2741 62.8432 60.6086 62.8357 60.6402C62.8173 60.7186 39.7676 66.8896 39.706 66.8325C39.679 66.8074 39.6306 66.5711 39.5986 66.3073C39.4249 64.8752 39.9397 63.4586 40.9737 62.5233C41.0269 62.4752 41.0749 62.4307 41.1198 62.3892C41.2225 62.2942 41.3085 62.2147 41.4003 62.1427C41.8701 61.7743 42.4939 61.6023 46.3101 60.5501L47.4844 60.2261C52.0981 58.9522 53.0676 58.6845 53.9209 58.2083C54.1479 58.0816 54.3666 57.9402 54.6436 57.7612L54.672 57.7428Z" fill="#D9DCE0"/>
<path d="M67.828 63.7275L66.8424 63.9916L66.8391 63.9792C66.5532 62.9123 65.4566 62.2791 64.3896 62.565L39.3317 69.2792C38.2648 69.5651 37.6316 70.6618 37.9175 71.7287L37.9208 71.7411L36.9356 72.0051C35.8653 72.2919 35.2322 73.3942 35.5237 74.4632L36.5077 78.071C36.5758 78.3206 36.6409 78.5595 36.7032 78.7882C37.8311 82.9262 38.0501 83.7296 38.4542 84.4256C38.5515 84.5933 38.6596 84.7548 38.7938 84.9552C38.8245 85.0011 38.8566 85.0491 38.8903 85.0996C40.4132 87.3862 43.257 88.9218 46.0495 88.9652C46.0942 88.9659 46.1369 88.9667 46.1781 88.9675C46.3069 88.9698 46.4213 88.9719 46.5356 88.9703C47.4369 88.9578 48.3352 88.7171 56.3168 86.5781C56.6405 86.4914 56.9759 86.4015 57.3234 86.3084C57.6709 86.2153 58.0062 86.1254 58.33 86.0387C66.3117 83.9003 67.21 83.6597 67.9968 83.2198C68.0966 83.164 68.1946 83.105 68.305 83.0386C68.3403 83.0173 68.3769 82.9953 68.4152 82.9724C70.8119 81.5385 72.5069 78.7868 72.6825 76.045C72.6863 75.9844 72.6902 75.9268 72.6938 75.8717C72.7098 75.6311 72.7227 75.4372 72.7232 75.2433C72.7251 74.4385 72.513 73.6332 71.4208 69.4855C71.3605 69.2564 71.2974 69.017 71.2316 68.7668L70.2798 65.1503C69.9978 64.0787 68.8983 63.4407 67.828 63.7275Z" fill="#D9DCE0"/>
<g filter="url(#filter0_d_3427_9825)">
<rect width="78.9581" height="77.8024" rx="12" transform="matrix(0.967014 0.254736 -0.26296 0.964811 98.459 37.3613)" fill="white"/>
<path d="M122.921 90.0041C121.48 89.6239 120.545 88.2448 120.727 86.7675L121.372 81.5383C121.387 81.4146 121.46 81.305 121.569 81.243C121.655 81.1944 121.757 81.1796 121.853 81.2005C127.454 82.4195 130.622 81.6772 131.357 78.9738C131.651 77.8955 131.489 76.9689 130.871 76.1941C130.262 75.3876 129.25 74.7973 127.833 74.4234C126.263 74.0091 124.656 74.0096 123.01 74.4251C121.104 74.9063 118.944 74.3609 118.037 72.6323C117.202 71.041 117.723 69.025 119.401 68.3444C122.671 67.0175 126.134 66.8365 129.79 67.8014C133.331 68.7362 135.927 70.3562 137.578 72.6614C139.229 74.9667 139.627 77.6892 138.773 80.829C137.482 85.5754 133.901 87.9406 128.032 87.9247C127.202 87.9225 126.422 88.371 126.065 89.1191C125.643 90.001 124.651 90.4608 123.707 90.2116L122.921 90.0041ZM119.55 101.25C117.444 100.694 116.2 98.5394 116.772 96.4375C117.344 94.3356 119.515 93.0823 121.621 93.6382L121.818 93.6901C123.924 94.246 125.168 96.4006 124.596 98.5025C124.024 100.604 121.853 101.858 119.747 101.302L119.55 101.25Z" fill="#4395FD"/>
</g>
<defs>
<filter id="filter0_d_3427_9825" x="20.7305" y="0.0175781" width="211.352" height="209.865" filterUnits="userSpaceOnUse" color-interpolation-filters="sRGB">
<feFlood flood-opacity="0" result="BackgroundImageFix"/>
<feColorMatrix in="SourceAlpha" type="matrix" values="0 0 0 0 0 0 0 0 0 0 0 0 0 0 0 0 0 0 127 0" result="hardAlpha"/>
<feOffset dy="20"/>
<feGaussianBlur stdDeviation="30"/>
<feComposite in2="hardAlpha" operator="out"/>
<feColorMatrix type="matrix" values="0 0 0 0 0.403922 0 0 0 0 0.462745 0 0 0 0 0.54902 0 0 0 0.16 0"/>
<feBlend mode="normal" in2="BackgroundImageFix" result="effect1_dropShadow_3427_9825"/>
<feBlend mode="normal" in="SourceGraphic" in2="effect1_dropShadow_3427_9825" result="shape"/>
</filter>
</defs>
</svg>
