<svg viewBox="0 0 232 211" xmlns="http://www.w3.org/2000/svg">
<rect x="5" y="44.459" width="79.0471" height="77.7126" rx="12" transform="rotate(-15 5 44.459)" fill="#F5F6F7"/>
<path d="M54.672 58.7428C55.8673 57.9701 56.7881 57.077 57.5739 55.9281L57.9661 55.3549L58.3418 55.5911C60.3642 56.8625 61.8396 58.6969 62.6091 60.8967C62.7412 61.2741 62.8432 61.6086 62.8357 61.6402C62.8173 61.7186 39.7676 67.8896 39.706 67.8325C39.679 67.8074 39.6306 67.5711 39.5986 67.3073C39.4249 65.8752 39.9397 64.4586 40.9737 63.5233C41.0269 63.4752 41.0749 63.4307 41.1198 63.3892C41.2225 63.2942 41.3085 63.2147 41.4003 63.1427C41.8701 62.7743 42.4939 62.6023 46.3101 61.5501L47.4844 61.2261C52.0981 59.9522 53.0676 59.6845 53.9209 59.2083C54.1479 59.0816 54.3666 58.9402 54.6436 58.7612L54.672 58.7428Z" fill="#D9DCE0"/>
<path d="M67.828 64.7275L66.8424 64.9916L66.8391 64.9792C66.5532 63.9123 65.4566 63.2791 64.3896 63.565L39.3317 70.2792C38.2648 70.5651 37.6316 71.6618 37.9175 72.7287L37.9208 72.7411L36.9356 73.0051C35.8653 73.2919 35.2322 74.3942 35.5237 75.4632L36.5077 79.071C36.5758 79.3206 36.6409 79.5595 36.7032 79.7882C37.8311 83.9262 38.0501 84.7296 38.4542 85.4256C38.5515 85.5933 38.6596 85.7548 38.7938 85.9552C38.8245 86.0011 38.8566 86.0491 38.8903 86.0996C40.4132 88.3862 43.257 89.9218 46.0495 89.9652C46.0942 89.9659 46.1369 89.9667 46.1781 89.9675C46.3069 89.9698 46.4213 89.9719 46.5356 89.9703C47.437 89.9578 48.3352 89.7171 56.317 87.5781C56.6406 87.4913 56.9759 87.4015 57.3234 87.3084C57.6708 87.2153 58.0061 87.1254 58.3298 87.0387C66.3117 84.9003 67.21 84.6597 67.9968 84.2198C68.0966 84.164 68.1946 84.105 68.305 84.0386C68.3403 84.0173 68.3769 83.9953 68.4152 83.9724C70.8119 82.5385 72.5069 79.7868 72.6825 77.045C72.6863 76.9844 72.6902 76.9268 72.6938 76.8717C72.7098 76.6311 72.7227 76.4372 72.7232 76.2433C72.7251 75.4385 72.513 74.6332 71.4208 70.4855C71.3605 70.2564 71.2974 70.017 71.2316 69.7668L70.2798 66.1503C69.9978 65.0787 68.8983 64.4407 67.828 64.7275Z" fill="#D9DCE0"/>
<g filter="url(#filter0_d_3427_9845)">
<rect width="78.9581" height="77.8024" rx="12" transform="matrix(0.967024 0.254699 -0.262922 0.964821 98.0039 38)" fill="white"/>
<path fill-rule="evenodd" clip-rule="evenodd" d="M122.933 64.44C132.694 63.9571 140.999 71.4792 141.482 81.2411C141.676 85.1501 140.585 88.8256 138.582 91.8587L146.207 99.4834C147.574 100.85 147.574 103.066 146.207 104.433C144.84 105.8 142.624 105.8 141.257 104.433L133.65 96.826C131.072 98.5542 128.006 99.6264 124.681 99.7909C114.919 100.274 106.614 92.7516 106.131 82.9897C105.649 73.2279 113.171 64.9229 122.933 64.44ZM134.491 81.5869C134.199 75.6863 129.179 71.1396 123.278 71.4314C117.378 71.7233 112.831 76.7433 113.123 82.6439C113.415 88.5445 118.435 93.0913 124.335 92.7994C130.236 92.5075 134.783 87.4875 134.491 81.5869Z" fill="#4395FD"/>
</g>
<defs>
<filter id="filter0_d_3427_9845" x="20.2773" y="0.65625" width="211.352" height="209.863" filterUnits="userSpaceOnUse" color-interpolation-filters="sRGB">
<feFlood flood-opacity="0" result="BackgroundImageFix"/>
<feColorMatrix in="SourceAlpha" type="matrix" values="0 0 0 0 0 0 0 0 0 0 0 0 0 0 0 0 0 0 127 0" result="hardAlpha"/>
<feOffset dy="20"/>
<feGaussianBlur stdDeviation="30"/>
<feComposite in2="hardAlpha" operator="out"/>
<feColorMatrix type="matrix" values="0 0 0 0 0.403922 0 0 0 0 0.462745 0 0 0 0 0.54902 0 0 0 0.16 0"/>
<feBlend mode="normal" in2="BackgroundImageFix" result="effect1_dropShadow_3427_9845"/>
<feBlend mode="normal" in="SourceGraphic" in2="effect1_dropShadow_3427_9845" result="shape"/>
</filter>
</defs>
</svg>
