<svg xmlns="http://www.w3.org/2000/svg" width="24" height="24" viewBox="0 0 24 24">
  <g id="profile" transform="translate(-16 -77)">
    <rect width="24" height="24" transform="translate(16 77)" fill="none"/>
    <path d="M28.945,591.961H8.165a1.612,1.612,0,0,1-1.61-1.61V571.682a1.612,1.612,0,0,1,1.61-1.61h20.78a1.612,1.612,0,0,1,1.61,1.61V590.35a1.612,1.612,0,0,1-1.61,1.61ZM8.165,571.5a.185.185,0,0,0-.184.185v18.669a.185.185,0,0,0,.184.184h20.78a.185.185,0,0,0,.184-.184V571.682a.185.185,0,0,0-.184-.185ZM16.8,585.262H11.008a.79.79,0,0,1-.788-.788V577.56a.79.79,0,0,1,.788-.788H16.8a.789.789,0,0,1,.788.788v6.915a.789.789,0,0,1-.788.787Zm-5.152-1.426h4.514V578.2H11.645Zm15.616-4.571a.713.713,0,0,0-.713-.713H21.11a.713.713,0,0,0,0,1.426h5.439a.713.713,0,0,0,.713-.713Zm-2.719,3.011a.713.713,0,0,0-.713-.713H21.11a.713.713,0,0,0,0,1.426h2.72a.713.713,0,0,0,.712-.713Z" transform="translate(9.445 -492.072)"/>
  </g>
</svg>
