<svg viewBox="0 0 20 20" xmlns="http://www.w3.org/2000/svg">
    <path
        d="M10.0443 16.6654C8.18316 16.6654 6.59983 16.0195 5.29427 14.7279C3.98871 13.4362 3.33594 11.8598 3.33594 9.9987V9.85287L2.0026 11.1862L0.835938 10.0195L4.16927 6.6862L7.5026 10.0195L6.33594 11.1862L5.0026 9.85287V9.9987C5.0026 11.3876 5.49219 12.5681 6.47135 13.5404C7.45052 14.5126 8.64149 14.9987 10.0443 14.9987C10.4054 14.9987 10.7595 14.957 11.1068 14.8737C11.454 14.7904 11.7943 14.6654 12.1276 14.4987L13.3776 15.7487C12.8498 16.0543 12.3082 16.2834 11.7526 16.4362C11.197 16.589 10.6276 16.6654 10.0443 16.6654ZM15.8359 13.3112L12.5026 9.97786L13.6693 8.8112L15.0026 10.1445V9.9987C15.0026 8.60981 14.513 7.42925 13.5339 6.45703C12.5547 5.48481 11.3637 4.9987 9.96094 4.9987C9.59982 4.9987 9.24566 5.04036 8.89844 5.1237C8.55121 5.20703 8.21094 5.33203 7.8776 5.4987L6.6276 4.2487C7.15538 3.94314 7.69705 3.71398 8.2526 3.5612C8.80816 3.40842 9.3776 3.33203 9.96094 3.33203C11.822 3.33203 13.4054 3.97786 14.7109 5.26953C16.0165 6.5612 16.6693 8.13759 16.6693 9.9987V10.1445L18.0026 8.8112L19.1693 9.97786L15.8359 13.3112Z" />
</svg>