<svg width="24" height="24" viewBox="0 0 24 24" xmlns="http://www.w3.org/2000/svg">
<path d="M22.442 11.889C22.1781 11.5114 21.822 11.2075 21.4075 11.0064C20.993 10.8053 20.534 10.7136 20.074 10.74C19.8846 10.7403 19.6958 10.7614 19.511 10.803L20.516 6.91301C20.7585 5.97169 20.6748 4.97599 20.2788 4.0883C19.8827 3.2006 19.1975 2.4733 18.335 2.02501C16.4423 1.02354 14.3334 0.5 12.192 0.5C10.0506 0.5 7.94175 1.02354 6.04901 2.02501C5.1865 2.4733 4.50134 3.2006 4.10525 4.0883C3.70917 4.97599 3.62554 5.97169 3.86801 6.91301L4.87301 10.803C4.6182 10.7506 4.35794 10.7294 4.09801 10.74C3.67326 10.7418 3.2554 10.8475 2.88098 11.0481C2.50656 11.2487 2.18698 11.5379 1.95018 11.8905C1.71339 12.2432 1.56659 12.6484 1.52263 13.0709C1.47867 13.4934 1.53888 13.9202 1.69801 14.314C2.60253 16.5313 4.18996 18.4028 6.23001 19.657L4.45201 22.067C4.32637 22.2594 4.27908 22.4926 4.31983 22.7187C4.36059 22.9449 4.48629 23.1469 4.67119 23.2833C4.85609 23.4197 5.08617 23.4803 5.31427 23.4525C5.54238 23.4248 5.75122 23.3108 5.89801 23.134L7.85201 20.486C9.22286 21.0523 10.6918 21.3432 12.175 21.342H12.217C13.7002 21.3432 15.1692 21.0523 16.54 20.486L18.494 23.134C18.6408 23.3108 18.8496 23.4248 19.0777 23.4525C19.3058 23.4803 19.5359 23.4197 19.7208 23.2833C19.9057 23.1469 20.0314 22.9449 20.0722 22.7187C20.1129 22.4926 20.0656 22.2594 19.94 22.067L18.162 19.657C20.2021 18.4028 21.7895 16.5313 22.694 14.314C22.8553 13.9206 22.9171 13.4936 22.874 13.0706C22.8309 12.6476 22.6843 12.2418 22.447 11.889H22.442ZM6.87601 3.62001C8.51319 2.75095 10.3385 2.29652 12.192 2.29652C14.0456 2.29652 15.8708 2.75095 17.508 3.62001C18.0114 3.87875 18.4115 4.30153 18.6421 4.81848C18.8726 5.33542 18.9199 5.91557 18.776 6.46301L17.216 12.5C15.7405 13.5234 13.9877 14.0718 12.192 14.0718C10.3963 14.0718 8.64349 13.5234 7.16801 12.5L5.60801 6.46201C5.46438 5.91472 5.51176 5.33479 5.7423 4.81806C5.97285 4.30133 6.37278 3.87871 6.87601 3.62001V3.62001ZM21.026 13.634C20.31 15.3831 19.0895 16.8793 17.5199 17.932C15.9504 18.9847 14.1029 19.5463 12.213 19.545H12.171C10.2811 19.5463 8.43363 18.9847 6.86408 17.932C5.29452 16.8793 4.07397 15.3831 3.35801 13.634C3.3089 13.5126 3.29035 13.381 3.30397 13.2508C3.31759 13.1206 3.36297 12.9957 3.43613 12.8871C3.50929 12.7785 3.60799 12.6895 3.72357 12.6279C3.83914 12.5664 3.96806 12.5341 4.09901 12.534C4.25755 12.511 4.41933 12.5288 4.5691 12.5857C4.71887 12.6425 4.85168 12.7366 4.95501 12.859C5.88322 13.8395 7.00712 14.6139 8.25385 15.1321C9.50058 15.6503 10.8423 15.9007 12.192 15.867C13.5417 15.9007 14.8834 15.6503 16.1302 15.1321C17.3769 14.6139 18.5008 13.8395 19.429 12.859C19.5048 12.7594 19.6022 12.6784 19.714 12.6221C19.8258 12.5658 19.9489 12.5357 20.074 12.534C20.2384 12.5083 20.4067 12.5276 20.5609 12.59C20.7152 12.6523 20.8496 12.7553 20.95 12.888C21.0242 12.9962 21.0701 13.1213 21.0834 13.2518C21.0967 13.3823 21.0769 13.5141 21.026 13.635V13.634Z"/>
</svg>
