<svg viewBox="0 0 11 12" xmlns="http://www.w3.org/2000/svg">
<path d="M6.25 7.53906H0.429688V6.3125H6.25C6.81771 6.3125 7.28385 6.22135 7.64844 6.03906C8.01302 5.85677 8.28125 5.59896 8.45312 5.26562C8.63021 4.93229 8.71875 4.53906 8.71875 4.08594C8.71875 3.71615 8.63542 3.36198 8.46875 3.02344C8.30729 2.6849 8.04427 2.40625 7.67969 2.1875C7.32031 1.96875 6.84375 1.85938 6.25 1.85938H3.54688V12H2.04688V0.625H6.25C7.10938 0.625 7.83333 0.773438 8.42188 1.07031C9.01042 1.36198 9.45573 1.76823 9.75781 2.28906C10.0651 2.80469 10.2188 3.39844 10.2188 4.07031C10.2188 4.79948 10.0651 5.42448 9.75781 5.94531C9.45573 6.46094 9.01042 6.85677 8.42188 7.13281C7.83333 7.40365 7.10938 7.53906 6.25 7.53906ZM6.15625 8.60938V9.84375H0.429688V8.60938H6.15625Z"/>
</svg>
