<svg viewBox="0 0 233 210" xmlns="http://www.w3.org/2000/svg">
<rect x="5" y="43.459" width="79.0471" height="77.7126" rx="12" transform="rotate(-15 5 43.459)" fill="#F5F6F7"/>
<path opacity="0.2" d="M51.7401 56.1534C45.394 54.7356 40.1958 53.5532 40.1885 53.5258L45.8406 48.4651C46.3148 48.0406 46.9627 47.8671 47.5855 47.9978L58.9625 50.3856L69.9401 52.711C70.6764 52.8669 71.2628 53.423 71.4575 54.15L74.393 65.1088L77.3481 76.1298C77.5427 76.8556 77.3141 77.6293 76.7562 78.1327L67.9956 86.038L59.6409 93.5127C59.1649 93.9386 58.5141 94.1115 57.8894 93.978L46.7405 91.5956L35.7101 89.2536C34.9784 89.0982 34.3955 88.5509 34.1986 87.8293C33.6389 85.7783 32.4219 81.3026 31.1638 76.5677L28.2938 65.8564C28.1026 65.1432 28.3201 64.3827 28.8593 63.8782L35.6596 57.5167L47.4396 60.1754L59.2194 62.8341L60.7169 68.4106C62.3519 74.5001 62.3589 74.5387 62.3589 74.5387L66.8013 70.6595C66.8013 70.6595 66.6488 70.0751 65.2093 64.7028L63.637 58.8349C63.637 58.8349 58.0862 57.5712 51.7401 56.1534Z" fill="#67768C"/>
<g filter="url(#filter0_d_3982_1122)">
<rect width="78.9581" height="77.8024" rx="12" transform="matrix(0.967014 0.254736 -0.26296 0.964811 98.4609 37.3613)" fill="white"/>
<path d="M138.413 62.3409C139.102 63.5366 138.69 65.0651 137.493 65.7547L135.847 66.7032C144.072 71.3583 148.45 81.1238 145.887 90.6703C142.845 102.003 131.176 108.722 119.831 105.688C108.486 102.654 101.747 91.0124 104.789 79.6794C105.674 76.3843 107.292 73.4728 109.422 71.0793C110.34 70.0475 111.921 69.9544 112.952 70.8714C113.984 71.7884 114.075 73.3682 113.157 74.4C111.533 76.2249 110.298 78.4453 109.619 80.9712C107.295 89.6296 112.442 98.5365 121.127 100.859C129.813 103.182 138.733 98.0369 141.057 89.3786C143.377 80.7391 138.257 71.8521 129.606 69.5059C128.963 69.3507 128.383 68.9426 128.028 68.325C127.339 67.1293 127.75 65.6009 128.947 64.9112L134.998 61.4246C136.195 60.7349 137.724 61.1452 138.413 62.3409Z" fill="#4395FD"/>
<path fill-rule="evenodd" clip-rule="evenodd" d="M136.798 88.238C135.103 94.5511 128.601 98.2975 122.276 96.6059C115.95 94.9143 112.196 88.4251 113.891 82.1121C115.586 75.799 122.088 72.0525 128.413 73.7442C134.739 75.4358 138.493 81.9249 136.798 88.238ZM127.649 76.5894C128.182 76.7321 128.499 77.2802 128.356 77.8136L126.417 85.0336L128.306 88.2983C128.582 88.7761 128.419 89.3877 127.94 89.6644C127.462 89.9411 126.85 89.7781 126.574 89.3002L124.478 85.6768C124.345 85.4471 124.309 85.1739 124.378 84.9174L126.423 77.2969C126.567 76.7635 127.115 76.4467 127.649 76.5894Z" fill="#4395FD"/>
</g>
<defs>
<filter id="filter0_d_3982_1122" x="20.7344" y="0.0175781" width="211.348" height="209.865" filterUnits="userSpaceOnUse" color-interpolation-filters="sRGB">
<feFlood flood-opacity="0" result="BackgroundImageFix"/>
<feColorMatrix in="SourceAlpha" type="matrix" values="0 0 0 0 0 0 0 0 0 0 0 0 0 0 0 0 0 0 127 0" result="hardAlpha"/>
<feOffset dy="20"/>
<feGaussianBlur stdDeviation="30"/>
<feComposite in2="hardAlpha" operator="out"/>
<feColorMatrix type="matrix" values="0 0 0 0 0.403922 0 0 0 0 0.462745 0 0 0 0 0.54902 0 0 0 0.16 0"/>
<feBlend mode="normal" in2="BackgroundImageFix" result="effect1_dropShadow_3982_1122"/>
<feBlend mode="normal" in="SourceGraphic" in2="effect1_dropShadow_3982_1122" result="shape"/>
</filter>
</defs>
</svg>
