<svg viewBox="0 0 233 211" xmlns="http://www.w3.org/2000/svg">
  <rect x="5" y="44.459" width="79.047" height="77.713" rx="12" transform="rotate(-15 5 44.459)" fill="#F7F7F8"/>
  <path d="M52.151 59.641c-5.379-1.157-9.785-2.122-9.79-2.145l3.969-3.5a4 4 0 0 1 3.436-.92l8.537 1.723 7.897 1.61a4 4 0 0 1 3.066 2.884l2.07 7.729 2.087 7.784a4 4 0 0 1-1.207 4.026l-6.393 5.68-6.269 5.521a4 4 0 0 1-3.45.917l-8.339-1.715-7.953-1.624a3.987 3.987 0 0 1-3.053-2.859c-.532-1.958-1.33-4.91-2.15-7.993a2521.36 2521.36 0 0 0-2.018-7.549 4.004 4.004 0 0 1 1.154-3.987l4.756-4.379 9.985 2.17 9.984 2.172 1.248 4.647c1.363 5.074 1.369 5.106 1.369 5.106l3.785-3.255s-.127-.487-1.327-4.963l-1.31-4.89s-4.705-1.032-10.084-2.19Z" fill="#D9DCE0"/>
  <g filter="url(#a)">
    <rect width="78.958" height="77.802" rx="12" transform="matrix(.96606 .25831 -.26653 .96383 99 38)" fill="#fff"/>
    <path fill-rule="evenodd" clip-rule="evenodd" d="M138.698 91.97a17.66 17.66 0 0 0 2.942-10.697c-.484-9.786-8.809-17.327-18.595-16.843-9.787.484-17.327 8.81-16.843 18.596.484 9.786 8.809 17.327 18.596 16.843a17.656 17.656 0 0 0 8.952-2.947l7.508 7.508a3.5 3.5 0 1 0 4.95-4.95l-7.51-7.51Zm-4.049-10.351c-.293-5.925-5.334-10.49-11.259-10.197-5.924.293-10.49 5.333-10.197 11.258.293 5.925 5.334 10.49 11.259 10.197a10.696 10.696 0 0 0 6.471-2.581 3.489 3.489 0 0 1 1.148-1.15 10.707 10.707 0 0 0 2.578-7.527Z" fill="#4395FD"/>
  </g>
  <defs>
    <filter id="a" x="21.027" y=".689" width="211.488" height="210.006" filterUnits="userSpaceOnUse" color-interpolation-filters="sRGB">
      <feFlood flood-opacity="0" result="BackgroundImageFix"/>
      <feColorMatrix in="SourceAlpha" values="0 0 0 0 0 0 0 0 0 0 0 0 0 0 0 0 0 0 127 0" result="hardAlpha"/>
      <feOffset dy="20"/>
      <feGaussianBlur stdDeviation="30"/>
      <feComposite in2="hardAlpha" operator="out"/>
      <feColorMatrix values="0 0 0 0 0.403922 0 0 0 0 0.462745 0 0 0 0 0.54902 0 0 0 0.16 0"/>
      <feBlend in2="BackgroundImageFix" result="effect1_dropShadow_4024_202"/>
      <feBlend in="SourceGraphic" in2="effect1_dropShadow_4024_202" result="shape"/>
    </filter>
  </defs>
</svg>
