<svg viewBox="0 0 24 28" xmlns="http://www.w3.org/2000/svg">
<path d="M2.67318 13.1452C2.5332 12.6521 2.58788 12.1241 2.82592 11.6702L5.37176 6.81546C6.16947 5.29428 8.07907 4.75216 9.55707 5.62728L14.274 8.42018C14.7151 8.68133 15.039 9.10185 15.179 9.59493L18.5537 21.4824C18.8554 22.545 18.2386 23.6509 17.176 23.9526L8.51811 26.4105C7.45553 26.7121 6.34959 26.0953 6.04793 25.0327L2.67318 13.1452Z" stroke="white" stroke-width="2"/>
<path d="M15.501 10.5L21.089 16.261C21.8683 17.0644 21.8366 18.3509 21.0187 19.115L19.0008 21" stroke="white" stroke-width="2" stroke-linecap="round"/>
<circle cx="8.61435" cy="10.2716" r="1.5" transform="rotate(-15.8488 8.61435 10.2716)" fill="white"/>
</svg>
