<svg viewBox="0 0 40 40" xmlns="http://www.w3.org/2000/svg" >
<g opacity="0.5">
<path d="M7.49502 17.762C9.7598 17.762 11.5958 15.9261 11.5958 13.6613C11.5958 11.3965 9.7598 9.56055 7.49502 9.56055C5.23025 9.56055 3.39429 11.3965 3.39429 13.6613C3.39429 15.9261 5.23025 17.762 7.49502 17.762Z" />
<path d="M7.29069 18.7874C3.72367 18.7874 0.832031 21.679 0.832031 25.246V28.9367C0.832031 30.1257 1.79591 31.0896 2.98492 31.0896H7.4472V27.331C7.4472 24.2921 8.5528 21.5114 10.3837 19.3692C9.56659 18.9956 8.658 18.7874 7.70077 18.7874H7.29069Z" />
<path d="M32.501 17.762C34.7657 17.762 36.6017 15.9261 36.6017 13.6613C36.6017 11.3965 34.7657 9.56055 32.501 9.56055C30.2362 9.56055 28.4002 11.3965 28.4002 13.6613C28.4002 15.9261 30.2362 17.762 32.501 17.762Z" />
<path d="M32.2966 18.7874C31.3399 18.7874 30.4318 18.9954 29.615 19.3686C31.4462 21.5109 32.5521 24.2918 32.5521 27.331V31.0896H37.0125C38.2015 31.0896 39.1654 30.1257 39.1654 28.9367V25.246C39.1654 21.679 36.2737 18.7874 32.7067 18.7874H32.2966Z" />
</g>
<path d="M19.9978 16.6767C23.2223 16.6767 25.8362 14.0628 25.8362 10.8383C25.8362 7.61391 23.2223 5 19.9978 5C16.7734 5 14.1595 7.61391 14.1595 10.8383C14.1595 14.0628 16.7734 16.6767 19.9978 16.6767Z" />
<path d="M19.7091 18.136C14.6306 18.136 10.5137 22.253 10.5137 27.3314V32.5859C10.5137 34.2788 11.886 35.6511 13.5788 35.6511H26.4231C28.116 35.6511 29.4883 34.2788 29.4883 32.5859V27.3314C29.4883 22.253 25.3714 18.136 20.2929 18.136H19.7091Z" />
</svg>
