<svg xmlns="http://www.w3.org/2000/svg" width="24" height="24" viewBox="0 0 24 24">
  <g transform="translate(-606 -762)">
    <rect width="24" height="24" transform="translate(606 762)" fill="none"/>
    <path d="M339.191,344.687a.722.722,0,0,0-.722.722v8.607h-4.859v-4.8a.722.722,0,0,0-.722-.722H328.7a.722.722,0,0,0-.722.722v4.8h-4.859v-8.89a.722.722,0,1,0-1.444,0v9.612a.722.722,0,0,0,.722.722h16.794a.722.722,0,0,0,.722-.722v-9.329A.722.722,0,0,0,339.191,344.687Zm-7.026,9.329h-2.742v-4.077h2.742Zm9.632-16.168-2.268-3.917a.723.723,0,0,0-.625-.36H322.752a.722.722,0,0,0-.621.354l-2.332,3.936a3.545,3.545,0,0,0,.534,4.328c1.608,1.547,3.779.766,5.063-.088a3.932,3.932,0,0,0,2.634,1.07h.008a4.583,4.583,0,0,0,2.744-1.045,4.271,4.271,0,0,0,2.739,1.069l.122,0a4.538,4.538,0,0,0,2.672-1.075c2.6,1.742,4.225.8,4.981.038A3.568,3.568,0,0,0,341.8,337.848Zm-1.523,3.287c-.31.311-1.255,1.258-3.577-.522a.725.725,0,0,0-.981.1,3.347,3.347,0,0,1-2.129,1.04,3.177,3.177,0,0,1-2.287-1.106.724.724,0,0,0-.513-.213h-.015a.722.722,0,0,0-.519.236,3.5,3.5,0,0,1-2.218,1.059h0a2.8,2.8,0,0,1-2.038-1.062.723.723,0,0,0-1-.064c-.022.019-2.276,1.88-3.659.548a2.088,2.088,0,0,1-.293-2.551l2.122-3.582h15.324l2.059,3.557A2.122,2.122,0,0,1,340.274,341.136Z" transform="translate(287.203 429.429)"/>
  </g>
</svg>
