<svg viewBox="0 0 16 16" xmlns="http://www.w3.org/2000/svg">
<path d="M10.208 9.971C10.0657 10.1132 9.87271 10.1931 9.6715 10.1931C9.4703 10.1931 9.27733 10.1132 9.135 9.971L7.57 8.406C7.48749 8.32153 7.42615 8.21873 7.391 8.106C7.383 8.084 7.376 8.06 7.37 8.037C7.364 8.014 7.363 8.014 7.361 8C7.35204 7.95386 7.34735 7.907 7.347 7.86V3.931C7.3433 3.82908 7.36018 3.72745 7.39663 3.63219C7.43308 3.53694 7.48836 3.45001 7.55916 3.37659C7.62996 3.30317 7.71483 3.24478 7.8087 3.20489C7.90257 3.16501 8.00351 3.14445 8.1055 3.14445C8.2075 3.14445 8.30844 3.16501 8.40231 3.20489C8.49618 3.24478 8.58105 3.30317 8.65185 3.37659C8.72265 3.45001 8.77792 3.53694 8.81437 3.63219C8.85083 3.72745 8.86771 3.82908 8.864 3.931V7.554L10.208 8.9C10.3496 9.04224 10.4291 9.23479 10.4291 9.4355C10.4291 9.63622 10.3496 9.82876 10.208 9.971ZM8 1.517C9.28222 1.517 10.5356 1.89722 11.6018 2.60958C12.6679 3.32194 13.4988 4.33445 13.9895 5.51906C14.4802 6.70368 14.6086 8.00719 14.3584 9.26477C14.1083 10.5223 13.4908 11.6775 12.5842 12.5842C11.6775 13.4908 10.5224 14.1083 9.26477 14.3584C8.0072 14.6086 6.70368 14.4802 5.51907 13.9895C4.33445 13.4988 3.32195 12.6679 2.60959 11.6018C1.89722 10.5356 1.517 9.28222 1.517 8C1.517 6.2806 2.20003 4.63163 3.41583 3.41583C4.63163 2.20003 6.28061 1.517 8 1.517ZM8 0C6.41775 0 4.87103 0.469192 3.55544 1.34824C2.23985 2.22729 1.21447 3.47672 0.608967 4.93853C0.00346625 6.40034 -0.15496 8.00887 0.153721 9.56072C0.462403 11.1126 1.22433 12.538 2.34315 13.6569C3.46197 14.7757 4.88743 15.5376 6.43928 15.8463C7.99113 16.155 9.59966 15.9965 11.0615 15.391C12.5233 14.7855 13.7727 13.7602 14.6518 12.4446C15.5308 11.129 16 9.58225 16 8C16 5.87827 15.1571 3.84344 13.6569 2.34315C12.1566 0.842855 10.1217 0 8 0V0Z" />
</svg>
