<svg xmlns="http://www.w3.org/2000/svg" width="60.792" height="70" viewBox="0 0 60.792 70">
  <circle cx="10.129" cy="10.129" r="10.129" transform="translate(39.619 46.025)" fill="#ff8272"/>
  <path d="M40.223,27.133a1.509,1.509,0,0,1,0,3.017H12.1a1.509,1.509,0,1,1,0-3.017ZM34.689,36.3h0a1.509,1.509,0,0,0-1.509-1.509H12.1a1.509,1.509,0,1,0,0,3.017H33.18A1.509,1.509,0,0,0,34.689,36.3ZM24.653,45.538a1.509,1.509,0,0,0,0-3.017H12.1a1.509,1.509,0,0,0,0,3.017Zm35.7,23.91a1.509,1.509,0,0,1-2.134,0h0l-6.155-6.155a11.616,11.616,0,1,1,2.148-2.119l6.142,6.141a1.509,1.509,0,0,1,0,2.133ZM45.056,62.643a8.586,8.586,0,1,0-8.586-8.586h0a8.6,8.6,0,0,0,8.586,8.586Zm-15.5,4.34H8.448a5.431,5.431,0,0,1-5.431-5.431V8.448A5.431,5.431,0,0,1,8.448,3.017H43.875a5.431,5.431,0,0,1,5.431,5.431V34.793a1.509,1.509,0,0,0,3.017,0V8.448A8.448,8.448,0,0,0,43.875,0H8.448A8.448,8.448,0,0,0,0,8.448v53.1A8.448,8.448,0,0,0,8.448,70h21.1a1.509,1.509,0,0,0,0-3.017Z"/>
</svg>
