<svg viewBox="0 0 24 24" xmlns="http://www.w3.org/2000/svg">
<path d="M18.8088 2.65479H17.2372V1.99986C17.2372 1.73468 17.1318 1.48044 16.9443 1.29293C16.7568 1.10542 16.5025 1 16.2373 1H8.52411C8.25893 1 8.00469 1.10542 7.81718 1.29293C7.62967 1.48044 7.52425 1.73468 7.52425 1.99986V2.65577H5.9527C5.16995 2.65683 4.41957 2.96837 3.86609 3.52185C3.3126 4.07534 3.00106 4.82572 3 5.60847V20.0434C3.00106 20.8272 3.31283 21.5785 3.86706 22.1327C4.4213 22.6869 5.1728 22.9989 5.9566 23H18.797C19.5808 22.9989 20.3319 22.6869 20.8861 22.1327C21.4403 21.5785 21.7521 20.8272 21.7532 20.0434V5.60847C21.7526 4.82555 21.4419 4.07477 20.8885 3.52088C20.3352 2.96699 19.5848 2.65514 18.8019 2.65381L18.8088 2.65479ZM9.52396 2.99678H15.2453V4.25148H9.52396V2.99678ZM19.7686 20.0444C19.7683 20.2998 19.6666 20.5446 19.4859 20.7252C19.3052 20.9057 19.0603 21.0071 18.8048 21.0071H5.9649C5.7097 21.0066 5.4648 20.9049 5.28434 20.7244C5.10388 20.544 5.00219 20.2996 5.00166 20.0444V5.60944C5.00193 5.35522 5.10311 5.11133 5.28287 4.93156C5.46264 4.7518 5.70629 4.65086 5.96051 4.6506H7.53255V5.25036C7.53255 5.51554 7.63797 5.77003 7.82548 5.95754C8.01299 6.14505 8.26723 6.25022 8.53241 6.25022H16.2461C16.5113 6.25022 16.7656 6.14505 16.9531 5.95754C17.1406 5.77003 17.246 5.51554 17.246 5.25036V4.6506H18.818C19.0724 4.65086 19.3159 4.75207 19.4957 4.93205C19.6755 5.11203 19.7769 5.35602 19.7769 5.61042L19.7686 20.0444ZM18.0979 11.2637C18.0963 11.5278 17.9904 11.7805 17.803 11.9667C17.6157 12.1529 17.3622 12.2574 17.0981 12.2574L7.66339 12.2293C7.41356 12.2084 7.18085 12.0943 7.01114 11.9098C6.84143 11.7253 6.74702 11.4839 6.74702 11.2331C6.74702 10.9824 6.84143 10.7408 7.01114 10.5562C7.18085 10.3717 7.41356 10.2577 7.66339 10.2367L17.0981 10.2648C17.3622 10.2664 17.6149 10.3723 17.8011 10.5597C17.9873 10.747 18.0921 11.0005 18.0921 11.2646L18.0979 11.2637ZM18.0979 15.1239C18.0961 15.3879 17.9899 15.6405 17.8026 15.8265C17.6152 16.0125 17.362 16.117 17.0981 16.117L7.66339 16.0789C7.41356 16.0579 7.18085 15.9439 7.01114 15.7593C6.84143 15.5748 6.74702 15.3332 6.74702 15.0824C6.74702 14.8317 6.84143 14.5903 7.01114 14.4058C7.18085 14.2212 7.41356 14.1072 7.66339 14.0862L17.0981 14.1241C17.362 14.1259 17.6146 14.2321 17.8006 14.4195C17.9866 14.6068 18.0911 14.86 18.0911 15.1239H18.0979Z"/>
</svg>
