<svg viewBox="0 0 14 14" xmlns="http://www.w3.org/2000/svg">
<path opacity="0.5" d="M10.612 4.18864C11.1148 4.24743 11.5271 3.82571 11.5271 3.31944C11.5271 1.96942 10.5363 0.875 9.3142 0.875C8.8559 0.875 8.47857 1.24756 8.51207 1.70463C8.58568 2.70882 8.80039 3.25064 9.08844 3.56883C9.35866 3.86733 9.80703 4.09453 10.612 4.18864Z"/>
<path fill-rule="evenodd" clip-rule="evenodd" d="M6.50813 0.875C6.79977 0.875 7.03433 1.13633 7.0477 1.45816C7.10273 2.78239 7.36638 3.89904 8.07681 4.68382C8.78724 5.4686 9.79811 5.75984 10.9969 5.82063C11.2882 5.8354 11.5248 6.0945 11.5248 6.41667V11.375C11.5248 12.6637 10.5791 13.7083 9.41251 13.7083H4.13181C2.96523 13.7083 2.01953 12.6637 2.01953 11.375V3.20833C2.01953 1.91967 2.96523 0.875 4.13181 0.875H6.50813ZM3.60374 8.45833C3.60374 8.13617 3.84017 7.875 4.13181 7.875H7.30023C7.59188 7.875 7.8283 8.13617 7.8283 8.45833C7.8283 8.7805 7.59188 9.04167 7.30023 9.04167H4.13181C3.84017 9.04167 3.60374 8.7805 3.60374 8.45833ZM3.60374 10.7917C3.60374 10.4695 3.84017 10.2083 4.13181 10.2083H9.41251C9.70416 10.2083 9.94059 10.4695 9.94059 10.7917C9.94059 11.1138 9.70416 11.375 9.41251 11.375H4.13181C3.84017 11.375 3.60374 11.1138 3.60374 10.7917Z"/>
</svg>
