<svg viewBox="0 0 42 42" xmlns="http://www.w3.org/2000/svg">
<path fill-rule="evenodd" clip-rule="evenodd" d="M13.1818 6H19.7364C19.9429 9.56222 20.7941 12.9862 23.3131 15.5051C25.832 18.0241 29.256 18.8753 32.8182 19.0817V31.8182C32.8182 34.1277 30.9459 36 28.6364 36H13.1818C10.8723 36 9 34.1277 9 31.8182V10.1818C9 7.87226 10.8723 6 13.1818 6ZM20.1364 4C20.9899 4 21.6763 4.69237 21.7155 5.545C21.8765 9.05334 22.6481 12.0118 24.7273 14.0909C26.8064 16.1701 29.7648 16.9417 33.2732 17.1027C34.1258 17.1418 34.8182 17.8283 34.8182 18.6818V31.8182C34.8182 35.2323 32.0505 38 28.6364 38H13.1818C9.76769 38 7 35.2323 7 31.8182V10.1818C7 6.76769 9.76769 4 13.1818 4H20.1364ZM28.3461 6C30.8182 6 32.8222 8.00406 32.8222 10.4762V10.8331C30.3541 10.6381 29.4641 10.0872 29.0996 9.72269L27.8188 11.0035L29.0995 9.72269C28.735 9.35816 28.1842 8.46811 27.9891 6H28.3461ZM33.8212 12.8895C34.3732 12.907 34.8222 12.457 34.8222 11.9048V10.4762C34.8222 6.89949 31.9228 4 28.3461 4H26.9175C26.3652 4 25.9153 4.44905 25.9327 5.00106C26.0415 8.44297 26.7238 10.1753 27.6853 11.1369C28.6469 12.0985 30.3793 12.7808 33.8212 12.8895ZM13.4375 24.7188C13.4375 24.1665 13.8852 23.7188 14.4375 23.7188H27.1875C27.7398 23.7188 28.1875 24.1665 28.1875 24.7188C28.1875 25.271 27.7398 25.7188 27.1875 25.7188H14.4375C13.8852 25.7188 13.4375 25.271 13.4375 24.7188ZM14.4375 27.9688C13.8852 27.9688 13.4375 28.4165 13.4375 28.9688C13.4375 29.521 13.8852 29.9688 14.4375 29.9688H27.1875C27.7398 29.9688 28.1875 29.521 28.1875 28.9688C28.1875 28.4165 27.7398 27.9688 27.1875 27.9688H14.4375Z"/>
</svg>
