<svg viewBox="0 0 24 24" xmlns="http://www.w3.org/2000/svg">
<path d="M22.2188 8.45557C22.2067 7.45837 21.8022 6.50611 21.0933 5.80469C20.3843 5.10326 19.4279 4.70902 18.4307 4.70752H17.2778C17.1294 3.41182 16.5094 2.21604 15.5361 1.3479C14.5629 0.479764 13.3042 0 12 0C10.6958 0 9.43711 0.479764 8.46387 1.3479C7.49063 2.21604 6.87105 3.41182 6.72266 4.70752H5.56982C4.57247 4.7085 3.61541 5.10242 2.90625 5.80371C2.19709 6.50501 1.79286 7.45731 1.78076 8.45459L1.09375 17.3186V17.3955C1.09639 19.1451 1.79262 20.8224 3.02979 22.0596C4.26695 23.2967 5.94374 23.993 7.69336 23.9956H16.3057C18.0553 23.993 19.7326 23.2967 20.9697 22.0596C22.2069 20.8224 22.9031 19.1451 22.9058 17.3955L22.2188 8.45557ZM11.9995 2.01147C12.7705 2.01275 13.517 2.28341 14.1099 2.77637C14.7027 3.26933 15.1047 3.95383 15.2466 4.71167H8.75342C8.89514 3.95375 9.29727 3.26911 9.89014 2.77612C10.483 2.28313 11.2294 2.01256 12.0005 2.01147H11.9995ZM16.3057 21.9927H7.69336C6.48233 21.9909 5.3213 21.5115 4.46143 20.6587C3.60155 19.8059 3.11243 18.6485 3.10059 17.4375L3.78662 8.57861V8.50146C3.78715 8.02954 3.97489 7.57711 4.30859 7.24341C4.64229 6.90971 5.09448 6.72221 5.56641 6.72168H18.4277C18.8997 6.72194 19.3523 6.90941 19.686 7.24316C20.0198 7.57692 20.2073 8.02946 20.2075 8.50146L20.8965 17.4385C20.8839 18.6489 20.3949 19.8056 19.5352 20.6577C18.6754 21.5098 17.5142 21.9887 16.3037 21.9905L16.3057 21.9927ZM16.6865 8.90161C16.6865 10.1447 16.1929 11.3368 15.314 12.2158C14.435 13.0948 13.2426 13.5886 11.9995 13.5886C10.7564 13.5886 9.56453 13.0948 8.68555 12.2158C7.80656 11.3368 7.3125 10.1447 7.3125 8.90161C7.3125 8.63507 7.41846 8.37939 7.60693 8.19092C7.79541 8.00244 8.05084 7.89648 8.31738 7.89648C8.58393 7.89648 8.83985 8.00244 9.02832 8.19092C9.21679 8.37939 9.32275 8.63507 9.32275 8.90161C9.32275 9.6116 9.60441 10.2924 10.1064 10.7944C10.6085 11.2965 11.2895 11.5786 11.9995 11.5786C12.7095 11.5786 13.3905 11.2965 13.8926 10.7944C14.3946 10.2924 14.6768 9.6116 14.6768 8.90161C14.6768 8.63507 14.7827 8.37939 14.9712 8.19092C15.1597 8.00244 15.4151 7.89648 15.6816 7.89648C15.9482 7.89648 16.2036 8.00244 16.3921 8.19092C16.5806 8.37939 16.6865 8.63507 16.6865 8.90161Z" />
</svg>
