<svg xmlns="http://www.w3.org/2000/svg" viewBox="0 0 18.286 18">
  <path fill="none" d="M.143 0h18v18h-18z"/>
  <path d="m18.248 1.763-2.854 14.572a.889.889 0 0 1-.949.666 1.019 1.019 0 0 1-.665-.209l-6.18-5.13-3.025-1.525L.691 9.101S0 8.901 0 8.334c0-.476.711-.7.711-.7l16.241-6.452a3.1 3.1 0 0 1 .858-.181c.222 0 .476.1.476.381a2.228 2.228 0 0 1-.038.381Z" fill="#fff"/>
  <path d="m9.904 14.013-2.5 2.461a.477.477 0 0 1-.254.088.36.36 0 0 1-.16-.031l.7-4.351Z" fill="#b0bec5"/>
  <path d="M15.136 4.835a.365.365 0 0 0-.511-.068L5 10.527s1.536 4.3 1.77 5.041.423.762.423.762l.7-4.351 7.171-6.634a.364.364 0 0 0 .072-.51Z" fill="#cfd8dc"/>
</svg>
