<svg xmlns="http://www.w3.org/2000/svg" viewBox="0 0 42 42">
  <g transform="translate(143 -360)">
    <rect width="100%" height="100%" rx="16" transform="translate(-143 360)" fill="rgba(94,181,247,0.2)"/>
    <g fill="#5eb5f7">
      <path d="m-112 372.877-3.282 16.773a1.023 1.023 0 0 1-1.092.766 1.173 1.173 0 0 1-.766-.24l-7.116-5.9-3.482-1.755-4.462-1.193s-.8-.23-.8-.888c0-.548.818-.809.818-.809l18.694-7.426a3.572 3.572 0 0 1 .988-.205c.256 0 .548.11.548.438a2.564 2.564 0 0 1-.048.439Z"/>
      <path d="m-121.6 386.975-2.876 2.833a.549.549 0 0 1-.292.1.415.415 0 0 1-.184-.033l.809-5.008Z"/>
      <path d="M-115.578 376.413a.42.42 0 0 0-.589-.078l-11.078 6.629s1.768 4.947 2.038 5.8.487.877.487.877l.809-5.008 8.254-7.636a.419.419 0 0 0 .079-.584Z"/>
    </g>
  </g>
</svg>
