<svg xmlns="http://www.w3.org/2000/svg" viewBox="0 0 112.196 112.196">
  <path d="M56.1,0A56.1,56.1,0,1,1,0,56.1,56.1,56.1,0,0,1,56.1,0ZM53.979,80.7h4.4a3.714,3.714,0,0,0,2.009-.878A3.222,3.222,0,0,0,61,77.89s-.086-5.908,2.656-6.778c2.7-.857,6.174,5.71,9.853,8.235,2.782,1.911,4.9,1.492,4.9,1.492l9.837-.137s5.146-.317,2.706-4.363c-.2-.331-1.421-2.993-7.314-8.463-6.168-5.725-5.342-4.8,2.088-14.7,4.525-6.031,6.334-9.713,5.769-11.29-.539-1.5-3.867-1.1-3.867-1.1l-11.076.069a2.514,2.514,0,0,0-1.43.252,3.1,3.1,0,0,0-.978,1.189,64.131,64.131,0,0,1-4.091,8.636c-4.932,8.375-6.9,8.817-7.71,8.3-1.875-1.212-1.407-4.869-1.407-7.467,0-8.116,1.231-11.5-2.4-12.376a18.912,18.912,0,0,0-5.169-.514c-3.952-.041-7.3.012-9.191.94-1.26.617-2.232,1.992-1.64,2.071A4.971,4.971,0,0,1,45.8,43.52c1.135,1.544,1.1,5.012,1.1,5.012s.652,9.554-1.523,10.741c-1.493.814-3.541-.848-7.938-8.446a70.631,70.631,0,0,1-3.954-8.194,3.291,3.291,0,0,0-.913-1.234,4.59,4.59,0,0,0-1.7-.687l-10.525.069s-1.58.044-2.16.731c-.516.611-.041,1.875-.041,1.875s8.24,19.278,17.57,28.993c8.555,8.907,18.27,8.322,18.27,8.322Z"/>
</svg>
