<svg
	xmlns="http://www.w3.org/2000/svg"

	viewBox="0 0 23 23"
>
	<defs>
		<path id="zv83a" d="M30 399.5c0-6.351 5.149-11.5 11.5-11.5S53 393.149 53 399.5 47.851 411 41.5 411 30 405.851 30 399.5z"/>
		<path id="zv83b" d="M41.066 404.544h.902s.273-.03.412-.18c.128-.138.124-.397.124-.397s-.018-1.21.545-1.39c.554-.175 1.265 1.171 2.02 1.689.57.392 1.003.306 1.003.306l2.017-.028s1.055-.065.554-.895c-.04-.067-.29-.613-1.499-1.735-1.264-1.173-1.095-.983.428-3.013.928-1.237 1.299-1.992 1.183-2.315-.11-.308-.793-.226-.793-.226l-2.27.014s-.169-.023-.294.051a.636.636 0 0 0-.2.244s-.36.957-.839 1.77c-1.01 1.717-1.415 1.808-1.58 1.701-.385-.248-.289-.998-.289-1.53 0-1.664.252-2.358-.491-2.537-.247-.06-.429-.1-1.06-.106-.81-.008-1.496.003-1.884.193-.258.126-.458.408-.336.425.15.02.49.091.67.337.233.316.224 1.027.224 1.027s.134 1.959-.312 2.202c-.306.167-.726-.174-1.627-1.732a14.48 14.48 0 0 1-.81-1.68s-.068-.164-.188-.252a.94.94 0 0 0-.349-.141l-2.157.014s-.324.009-.443.15c-.106.125-.009.384-.009.384s1.69 3.952 3.602 5.944c1.754 1.826 3.746 1.706 3.746 1.706z"/>
	</defs>
	<g transform="translate(-30 -388)">
		<use fill="#4d76a1" href="#zv83a"/>
		<use fill="#fff" href="#zv83b"/>
	</g>
</svg>
