<svg xmlns="http://www.w3.org/2000/svg" width="40" height="40" viewBox="0 0 40 40">
  <g transform="translate(-643.5 -53)">
    <path d="M8,0H32a8,8,0,0,1,8,8V32a8,8,0,0,1-8,8H8a8,8,0,0,1-8-8V8A8,8,0,0,1,8,0Z" transform="translate(643.5 53)" fill="#006aff" opacity="0.1"/>
    <g transform="translate(651.5 61)">
      <path d="M12.024,0a11.77,11.77,0,0,0-12,11.5,11.282,11.282,0,0,0,4,8.559V23.5a.5.5,0,0,0,.765.424l2.787-1.741A12.381,12.381,0,0,0,12.024,23a11.77,11.77,0,0,0,12-11.5A11.77,11.77,0,0,0,12.024,0Z" transform="translate(-0.025 0)" fill="#006aff"/>
      <path d="M101.268,170.9a.5.5,0,0,0-.64-.14l-5.2,2.836L92.2,170.816a.5.5,0,0,0-.679.026l-6,6a.5.5,0,0,0,.593.792l5.2-2.836,3.237,2.776a.5.5,0,0,0,.679-.026l6-6A.5.5,0,0,0,101.268,170.9Z" transform="translate(-81.371 -162.695)" fill="#fff"/>
    </g>
  </g>
</svg>
