<svg xmlns="http://www.w3.org/2000/svg" width="40" height="40" viewBox="0 0 40 40">
  <g id="whatsapp" transform="translate(-766 -434)">
    <rect id="Прямоугольник_8581" data-name="Прямоугольник 8581" width="40" height="40" rx="8" transform="translate(766 434)" fill="#23d364" opacity="0.1"/>
    <path id="контур" d="M22,10a12,12,0,0,0-9.717,19.038l-1.65,4.338,4.761-1.356A12,12,0,1,0,22,10Zm6.378,16.971L27.1,28.249c-1.344,1.344-4.908-.135-8.067-3.294s-4.575-6.726-3.3-8.07l1.278-1.278a1.342,1.342,0,0,1,1.815,0l1.884,1.884a1.251,1.251,0,0,1-.471,2.082,1.222,1.222,0,0,0-.807,1.482,5.8,5.8,0,0,0,3.5,3.5,1.28,1.28,0,0,0,1.479-.807,1.253,1.253,0,0,1,2.085-.471l1.881,1.884a1.342,1.342,0,0,1,0,1.815Z" transform="translate(764 432)" fill="#23d364"/>
  </g>
</svg>
