<svg xmlns="http://www.w3.org/2000/svg" width="40" height="40" viewBox="0 0 40 40">
  <g transform="translate(-948 -264)">
    <rect width="40" height="40" rx="8" transform="translate(948 264)" fill="rgba(70,128,194,0.1)"/>
    <path d="M29.682,52.49h1.435a1.21,1.21,0,0,0,.655-.286,1.05,1.05,0,0,0,.2-.63s-.028-1.925.865-2.208,2.012,1.86,3.21,2.683a2.272,2.272,0,0,0,1.6.486l3.205-.045s1.677-.1.882-1.422a10.71,10.71,0,0,0-2.383-2.757c-2.01-1.865-1.741-1.564.68-4.79,1.474-1.965,2.064-3.165,1.88-3.678-.176-.489-1.26-.36-1.26-.36l-3.609.022a.819.819,0,0,0-.466.082,1.011,1.011,0,0,0-.319.387,20.9,20.9,0,0,1-1.333,2.814c-1.607,2.729-2.249,2.873-2.512,2.7-.611-.395-.458-1.586-.458-2.433,0-2.644.4-3.747-.781-4.032a6.162,6.162,0,0,0-1.684-.167,7.778,7.778,0,0,0-2.995.306c-.411.2-.727.649-.534.675a1.619,1.619,0,0,1,1.065.536,3.482,3.482,0,0,1,.357,1.633s.212,3.113-.5,3.5c-.486.265-1.154-.276-2.586-2.752A23.013,23.013,0,0,1,23,40.086a1.072,1.072,0,0,0-.3-.4,1.5,1.5,0,0,0-.555-.224l-3.429.022s-.515.014-.7.238c-.168.2-.013.611-.013.611s2.685,6.281,5.725,9.446a8.234,8.234,0,0,0,5.953,2.711Z" transform="translate(938.061 238.145)" fill="#4680c2" fill-rule="evenodd"/>
  </g>
</svg>
