<svg xmlns="http://www.w3.org/2000/svg" viewBox="0 0 40 40">
  <g id="call" transform="translate(-799.5 -415)">
    <rect width="100%" height="100%" rx="8" transform="translate(799.5 415)" fill="#1ed760" opacity="0.1"/>
    <path d="M23.534,19.084,20.873,17.31l-2.365-1.577a1.048,1.048,0,0,0-1.407.228l-1.464,1.881a1.042,1.042,0,0,1-1.331.276,17.04,17.04,0,0,1-4.759-3.667A17.162,17.162,0,0,1,5.881,9.694a1.042,1.042,0,0,1,.276-1.331L8.039,6.9a1.048,1.048,0,0,0,.228-1.407L6.739,3.2,4.917.467A1.048,1.048,0,0,0,3.506.149L1.4,1.41A2.568,2.568,0,0,0,.238,2.919c-.575,2.1-.691,6.718,6.717,14.126s12.03,7.292,14.125,6.717A2.567,2.567,0,0,0,22.59,22.6l1.261-2.1A1.048,1.048,0,0,0,23.534,19.084Z" transform="translate(808 423)" fill="#1ed760"/>
  </g>
</svg>
