<svg xmlns="http://www.w3.org/2000/svg" viewBox="0 0 116 116">
  <path d="M70.6,32.689H47.643A14.146,14.146,0,0,0,33.512,46.82V69.775A14.147,14.147,0,0,0,47.643,83.906H70.6A14.147,14.147,0,0,0,84.713,69.775V46.82A14.147,14.147,0,0,0,70.6,32.689Zm9.589,37.086A9.6,9.6,0,0,1,70.6,79.347H47.643a9.6,9.6,0,0,1-9.588-9.572V46.82a9.6,9.6,0,0,1,9.588-9.588H70.6a9.6,9.6,0,0,1,9.589,9.588ZM59.113,45.1a13.193,13.193,0,1,0,13.2,13.193A13.194,13.194,0,0,0,59.113,45.1Zm0,21.842a8.65,8.65,0,1,1,8.649-8.649A8.649,8.649,0,0,1,59.113,66.939Zm16.1-24.72a3.33,3.33,0,1,1-2.357-.973A3.335,3.335,0,0,1,75.214,42.219ZM58,0a58,58,0,1,0,58,58A58,58,0,0,0,58,0Zm0,112.083A54.083,54.083,0,1,1,112.083,58,54.083,54.083,0,0,1,58,112.083Z" transform="translate(0 0)"/>
</svg>
