<svg xmlns="http://www.w3.org/2000/svg" viewBox="0 0 512 512">
  <path d="M256,0C397.385,0,512,114.615,512,256S397.385,512,256,512,0,397.385,0,256,114.615,0,256,0Zm-7.163,108.447c-78.029,3.712-139.6,68.7-139.369,146.811a145.9,145.9,0,0,0,15.95,66.1l-15.557,75.514a5.7,5.7,0,0,0,6.9,6.7l74-17.53a145.826,145.826,0,0,0,62.962,15.284c79.753,1.219,146.251-62.105,148.74-141.829A146.542,146.542,0,0,0,248.837,108.447ZM337.13,335.936a114.814,114.814,0,0,1-132.2,21.638l-10.3-5.134-45.37,10.747,9.549-46.356-5.075-9.943a114.83,114.83,0,0,1,21.132-133.214A114.737,114.737,0,0,1,337.13,335.936Zm-10.015-49.354-28.384-8.149a10.585,10.585,0,0,0-10.468,2.76l-6.942,7.07a10.335,10.335,0,0,1-11.24,2.374c-13.427-5.434-41.672-30.548-48.881-43.106a10.336,10.336,0,0,1,.817-11.462l6.058-7.839a10.58,10.58,0,0,0,1.305-10.747l-11.941-27.008a10.585,10.585,0,0,0-16.527-3.784c-7.921,6.7-17.32,16.88-18.461,28.16-2.015,19.887,6.515,44.954,38.762,75.055,37.257,34.778,67.094,39.369,86.523,34.664,11.019-2.667,19.825-13.365,25.379-22.126a10.589,10.589,0,0,0-6-15.862Z"/>
</svg>
