<svg xmlns="http://www.w3.org/2000/svg" width="40" height="40" viewBox="0 0 40 40">
  <g transform="translate(-766 -506)">
    <rect width="40" height="40" rx="8" transform="translate(766 506)" fill="#7c3baf" opacity="0.1"/>
    <path d="M27.194,10H22.4A8.421,8.421,0,0,0,14,18.4V22a8.428,8.428,0,0,0,4.8,7.587V33.6a.4.4,0,0,0,.69.27l3.479-3.479h4.228a8.421,8.421,0,0,0,8.4-8.4V18.4a8.421,8.421,0,0,0-8.4-8.4Zm3.149,15.743-1.229,1.2c-1.289,1.259-4.618-.18-7.557-3.179s-4.228-6.357-3-7.617l1.2-1.2a1.252,1.252,0,0,1,1.709.03l1.739,1.8a1.174,1.174,0,0,1-.45,1.949,1.149,1.149,0,0,0-.78,1.379,5.476,5.476,0,0,0,3.239,3.329,1.238,1.238,0,0,0,1.409-.75,1.174,1.174,0,0,1,1.949-.42l1.739,1.8A1.184,1.184,0,0,1,30.343,25.743ZM25.875,15.7a1.46,1.46,0,0,0-.36.03.407.407,0,0,1-.09-.81,2.27,2.27,0,0,1,.45-.03,4.006,4.006,0,0,1,3.988,3.988,2.27,2.27,0,0,1-.03.45.407.407,0,0,1-.81-.09c0-.12.03-.24.03-.36A3.161,3.161,0,0,0,25.875,15.7Zm2.4,3.209a.39.39,0,1,1-.78,0,1.6,1.6,0,0,0-1.589-1.589.39.39,0,0,1,0-.78,2.355,2.355,0,0,1,2.369,2.369ZM31.333,20.2a.421.421,0,0,1-.51.3.385.385,0,0,1-.27-.48,4.5,4.5,0,0,0,.12-1.11,4.812,4.812,0,0,0-4.8-4.8h-.36a.391.391,0,0,1-.06-.78c.15,0,.3-.03.42-.03a5.618,5.618,0,0,1,5.608,5.608A6.3,6.3,0,0,1,31.333,20.2Z" transform="translate(761.2 505.4)" fill="#7c3baf"/>
  </g>
</svg>
