<svg 
	xmlns="http://www.w3.org/2000/svg" 
	viewBox="0 0 116 116">
	<path d="M82.25,0H33.75A33.75,33.75,0,0,0,0,33.75v48.5A33.75,33.75,0,0,0,33.75,116h48.5A33.75,33.75,0,0,0,116,82.25V33.75A33.75,33.75,0,0,0,82.25,0ZM109,77.938A31.062,31.062,0,0,1,77.938,109H38.062A31.062,31.062,0,0,1,7,77.938V38.062A31.062,31.062,0,0,1,38.062,7H77.938A31.062,31.062,0,0,1,109,38.062ZM58,28.5A29.5,29.5,0,1,0,87.5,58,29.5,29.5,0,0,0,58,28.5ZM58,80A22,22,0,1,1,80,58,22,22,0,0,1,58,80ZM96,27a7,7,0,1,1-7-7A7,7,0,0,1,96,27Z"/>
</svg>