<svg xmlns="http://www.w3.org/2000/svg" viewBox="0 0 89.758 89.758">
  <path d="M58.255,23.88H31.5a7.753,7.753,0,0,0-7.744,7.744V58.376A7.754,7.754,0,0,0,31.5,66.121H58.255A7.754,7.754,0,0,0,66,58.376V31.624A7.753,7.753,0,0,0,58.255,23.88ZM44.879,58.906A13.906,13.906,0,1,1,58.785,45,13.921,13.921,0,0,1,44.879,58.906ZM59.232,33.97a3.29,3.29,0,1,1,3.29-3.29A3.294,3.294,0,0,1,59.232,33.97Zm-14.353,3A8.03,8.03,0,1,0,52.908,45,8.04,8.04,0,0,0,44.879,36.971ZM44.879,0A44.879,44.879,0,1,0,89.758,44.879,44.88,44.88,0,0,0,44.879,0Zm27,58.376A13.634,13.634,0,0,1,58.255,72H31.5a13.635,13.635,0,0,1-13.62-13.62V31.624A13.636,13.636,0,0,1,31.5,18H58.255a13.635,13.635,0,0,1,13.62,13.62Z"/>
</svg>
