<svg xmlns="http://www.w3.org/2000/svg" viewBox="0 0 40 40">
  <g transform="translate(-16 -716)">
    <path d="M8,0H32a8,8,0,0,1,8,8V32a8,8,0,0,1-8,8H8a8,8,0,0,1-8-8V8A8,8,0,0,1,8,0Z" transform="translate(16 716)" fill="#037aff" opacity="0.1"/>
    <g transform="translate(-94 101)">
      <path d="M149.452,380.063v11.1a2.2,2.2,0,0,1-2.271,2.119H129.4a2.2,2.2,0,0,1-2.271-2.119v-11.1a.739.739,0,0,1,.739-.739H148.71a.739.739,0,0,1,.742.739Zm-2.271-7.718h-2.323v-2.326a.739.739,0,1,0-1.478,0v2.326H133.2v-2.326a.739.739,0,1,0-1.478,0v2.326H129.4a2.274,2.274,0,0,0-2.271,2.271v2.529a.739.739,0,0,0,.739.739H148.71a.739.739,0,0,0,.739-.739v-2.529a2.274,2.274,0,0,0-2.271-2.272Z" transform="translate(-8.332 251.72)" fill="#037aff"/>
    </g>
  </g>
</svg>
