<svg viewBox="0 0 24 24" xmlns="http://www.w3.org/2000/svg">
<path d="M19.5 14.5858C19.5 14.851 19.6054 15.1054 19.7929 15.2929C20.4229 15.9229 21.5 15.4766 21.5 14.5857V8.00004C21.5 5.23861 19.2614 3.00004 16.5 3.00004L8.9139 3.00002C8.02299 3.00003 7.57714 4.07717 8.20711 4.70714C8.39464 4.89468 8.649 5.00004 8.91422 5.00004H16.5C18.1569 5.00004 19.5 6.34318 19.5 8.00004V14.5858Z"/>
<path d="M2.5 9.41461C2.5 8.52371 3.57714 8.07714 4.20711 8.70711C4.39464 8.89464 4.5 9.149 4.5 9.41421V16C4.5 17.6569 5.84315 19 7.5 19L15.0858 19C15.351 19 15.6054 19.1054 15.7929 19.2929C16.4229 19.9229 15.9767 21 15.0858 21L7.5 21C4.73858 21 2.5 18.7615 2.5 16V9.41461Z"/>
<path d="M4.18537 3.2718C3.78319 2.89329 3.15032 2.91246 2.7718 3.31464C2.39329 3.71681 2.41246 4.34969 2.81464 4.7282L19.8146 20.7282C20.2168 21.1067 20.8497 21.0875 21.2282 20.6854C21.6067 20.2832 21.5875 19.6503 21.1854 19.2718L4.18537 3.2718Z"/>
</svg>
