<svg xmlns="http://www.w3.org/2000/svg" width="40" height="40" viewBox="0 0 40 40">
  <g transform="translate(-53 -138)">
    <rect width="40" height="40" rx="8" transform="translate(53 138)" fill="#ff8272" opacity="0.1"/>
    <g transform="translate(37 -87)">
      <g transform="translate(24 233)">
        <rect width="24" height="24" fill="none"/>
        <ellipse cx="9.5" cy="9" rx="9.5" ry="9" transform="translate(3 4)" fill="#ff8272"/>
        <path d="M11.891,0A11.894,11.894,0,0,0,1.435,17.558L0,23.781l6.223-1.435A11.891,11.891,0,1,0,11.891,0Zm0,22.346a9.193,9.193,0,0,1-5.4-1.5l-4.583,1.03,1.079-4.5a8.485,8.485,0,0,1-1.55-5.482A10.455,10.455,0,1,1,11.891,22.346Zm1.089-10.455a1.226,1.226,0,1,1-1.226-1.226A1.226,1.226,0,0,1,12.979,11.891Zm-5.16,0a1.226,1.226,0,1,1-1.226-1.226A1.226,1.226,0,0,1,7.82,11.891Zm10.291,0a1.226,1.226,0,1,1-1.226-1.226,1.226,1.226,0,0,1,1.226,1.226Z" transform="translate(0 0)" fill="#101928"/>
      </g>
    </g>
  </g>
</svg>
