<svg xmlns="http://www.w3.org/2000/svg" width="24" height="24" viewBox="0 0 24 24">
  <g transform="translate(563 -1498)">
    <rect width="24" height="24" transform="translate(-563 1498)" fill="none"/>
    <path d="M321.164,381.065v3.851a2.1,2.1,0,0,1-1.793,2.13H302.834a2.1,2.1,0,0,1-1.794-2.13v-3.851a.757.757,0,1,1,1.514,0v3.851a.9.9,0,0,0,.305.616h16.486a.9.9,0,0,0,.3-.616v-3.851a.757.757,0,1,1,1.514,0Zm1.438-9.932v7.141a.757.757,0,0,1-.757.757H300.359a.757.757,0,0,1-.757-.757v-7.141a2.355,2.355,0,0,1,2.352-2.352h4.926V365.49a.757.757,0,0,1,.757-.757h6.929a.757.757,0,0,1,.757.757v3.291h4.926A2.355,2.355,0,0,1,322.6,371.133Zm-14.208-2.352h5.415v-2.533h-5.415Zm12.694,2.352a.839.839,0,0,0-.838-.838h-18.3a.839.839,0,0,0-.838.838v6.384h19.972Z" transform="translate(-862.102 1134.167)"/>
  </g>
</svg>
