<svg xmlns="http://www.w3.org/2000/svg" width="24" height="24" viewBox="0 0 24 24">
  <g transform="translate(-34 -87)">
    <rect width="24" height="24" transform="translate(34 87)" fill="none"/>
    <path d="M46.077,608.544a1.16,1.16,0,0,1-1.141-1.356l1.176-6.86-4.983-4.857a1.16,1.16,0,0,1,.642-1.978l6.887-1,3.08-6.241a1.16,1.16,0,0,1,2.08,0l3.079,6.241,6.887,1a1.16,1.16,0,0,1,.643,1.978l-4.984,4.857,1.177,6.86a1.159,1.159,0,0,1-1.682,1.222l-6.16-3.239-6.16,3.239a1.158,1.158,0,0,1-.541.134ZM42.424,594.8l4.74,4.62a1.16,1.16,0,0,1,.334,1.027l-1.119,6.524,5.859-3.08a1.16,1.16,0,0,1,1.079,0l5.86,3.081-1.119-6.524a1.158,1.158,0,0,1,.333-1.026l4.741-4.621-6.551-.952a1.157,1.157,0,0,1-.873-.635l-2.93-5.936-2.93,5.936a1.158,1.158,0,0,1-.873.635ZM63.585,594.865ZM52.575,586.865Z" transform="translate(-6.779 -498.106)"/>
  </g>
</svg>
