<svg xmlns="http://www.w3.org/2000/svg" width="32" height="32" viewBox="0 0 32 32">
  <rect width="32" height="32" fill="none"/>
  <path d="M556.915,145.666c-2.711,0-5.578-3.581-5.578-6.966,0-3.478,2.45-6.2,5.578-6.2,3.083,0,5.5,2.782,5.5,6.334C562.413,142.153,559.587,145.666,556.915,145.666Zm0-11.746c-2.369,0-4.155,2.055-4.155,4.78,0,2.8,2.379,5.543,4.155,5.543,1.7,0,4.074-2.727,4.074-5.412C560.989,136.077,559.2,133.92,556.915,133.92Zm-.09,22.577c-4.742,0-9.5-1.983-10.836-3.413a1.514,1.514,0,0,1-.489-1.131,7.65,7.65,0,0,1,4.967-6.654.712.712,0,0,1,.453,1.349h0a6.236,6.236,0,0,0-4,5.339c.424.791,4.916,3.087,9.9,3.087h.049c5.045-.016,9.548-2.366,9.952-3.165a6.031,6.031,0,0,0-3.838-5.255.712.712,0,1,1,.423-1.36h0a7.4,7.4,0,0,1,4.839,6.557,1.517,1.517,0,0,1-.481,1.151c-1.324,1.45-6.108,3.48-10.89,3.5Z" transform="translate(-540.9 -128.5)"/>
</svg>
