<svg xmlns="http://www.w3.org/2000/svg" width="32" height="32" viewBox="0 0 32 32">
  <g transform="translate(-540 -254)">
    <rect width="32" height="32" transform="translate(540 254)" fill="none"/>
    <g id="master" transform="translate(1.6 1)">
      <circle cx="7.597" cy="7.597" r="7.597" transform="translate(551.061 265.807)" fill="#ff8272"/>
      <path d="M26.337,187.641l5.154,7.087a.635.635,0,0,0,.51.262h.005a.638.638,0,0,0,.51-.254L40.669,183.9a1.683,1.683,0,0,1,.588,1.036,3.332,3.332,0,0,1-.887,2.241.638.638,0,0,0,.936.867,4.579,4.579,0,0,0,1.216-3.272,3.2,3.2,0,0,0-1.646-2.3.638.638,0,0,0-.847.157L34.108,190.5l-5.773-7.868a.637.637,0,0,0-.9-.13,3.875,3.875,0,0,0-1.134,5.076.649.649,0,0,0,.036.064Zm1.387-3.68,5.483,7.471a.6.6,0,0,0,.111.117l-1.3,1.731-4.623-6.356a2.587,2.587,0,0,1,.331-2.963Zm12.539,11.948a3.967,3.967,0,0,0-3.889,3.219l-1.648-2.235,5.038-6.705a.638.638,0,1,0-1.019-.766L31.4,199.187a3.966,3.966,0,1,0-.705,3.021.642.642,0,0,0,.121-.121l3.107-4.132,3.044,4.128c.009.011.02.019.029.03a3.961,3.961,0,1,0,3.264-6.2ZM27.5,202.557a2.682,2.682,0,1,1,2.687-2.682,2.682,2.682,0,0,1-2.687,2.682Zm12.758,0a2.682,2.682,0,1,1,2.682-2.682,2.682,2.682,0,0,1-2.682,2.682Z" transform="translate(518.97 74.63)"/>
    </g>
  </g>
</svg>
