<svg xmlns="http://www.w3.org/2000/svg" width="32" height="32" viewBox="0 0 32 32">
  <g transform="translate(-538 -417)">
    <rect width="32" height="32" transform="translate(538 417)" fill="none"/>
    <g transform="translate(541.315 419.802)">
      <rect width="16.481" height="14.172" transform="translate(7.687 12.145)" fill="#ff8272"/>
      <path d="M-490.042,218.253a.768.768,0,0,0-.768.768v9.5h-5.056v-5.317a.768.768,0,0,0-.768-.768h-4.607a.768.768,0,0,0-.768.768v5.313h-5.056v-9.814a.768.768,0,0,0-.768-.768.768.768,0,0,0-.768.768v10.579a.768.768,0,0,0,.768.768h17.777a.768.768,0,0,0,.768-.768V219.016a.768.768,0,0,0-.755-.763Zm-10.428,5.719h3.079v4.548h-3.079Zm13.623-13.26-2.5-4.31a.768.768,0,0,0-.658-.382H-507.78a.768.768,0,0,0-.658.375L-511,210.725a3.871,3.871,0,0,0,.582,4.726c1.764,1.7,4.154.826,5.554-.11a4.3,4.3,0,0,0,2.9,1.186h.009a5.025,5.025,0,0,0,3.021-1.159,4.68,4.68,0,0,0,3.015,1.186h.134a4.974,4.974,0,0,0,2.94-1.191c2.859,1.923,4.635.887,5.462.058a3.9,3.9,0,0,0,.543-4.706Zm-1.629,3.619c-.347.347-1.4,1.4-3.977-.573a.768.768,0,0,0-1.039.1,3.713,3.713,0,0,1-2.365,1.155,3.491,3.491,0,0,1-2.54-1.225.768.768,0,0,0-.548-.225h-.014a.768.768,0,0,0-.548.247,3.875,3.875,0,0,1-2.471,1.178h0a3.116,3.116,0,0,1-2.262-1.178.768.768,0,0,0-1.056-.068c-.025.021-2.523,2.084-4.069.6a2.328,2.328,0,0,1-.329-2.845l2.344-3.957h16.9l2.275,3.93a2.367,2.367,0,0,1-.3,2.862Z" transform="translate(511.54 -206.021)"/>
    </g>
  </g>
</svg>
