<svg xmlns="http://www.w3.org/2000/svg" width="32" height="32" viewBox="0 0 32 32">
  <rect width="32" height="32" fill="none"/>
  <path d="M565.982,144.216a.763.763,0,0,0-.763.763h0v9.489h-5.044v-5.306a.763.763,0,0,0-.763-.763h-4.6a.763.763,0,0,0-.763.763h0v5.307H549v-9.8a.763.763,0,0,0-.763-.763h0a.763.763,0,0,0-.763.763h0v10.562a.763.763,0,0,0,.763.763h17.749a.763.763,0,0,0,.763-.763h0V144.98a.763.763,0,0,0-.762-.764Zm-10.412,5.709h3.074v4.544H555.57Zm13.6-13.241-2.493-4.308a.763.763,0,0,0-.661-.381H548.27a.763.763,0,0,0-.657.374l-2.562,4.324a3.866,3.866,0,0,0,.581,4.719c1.761,1.695,4.147.825,5.545-.113a4.3,4.3,0,0,0,2.891,1.191h.008a5.013,5.013,0,0,0,3.016-1.156,4.667,4.667,0,0,0,3.011,1.183h.133a4.965,4.965,0,0,0,2.935-1.188c2.854,1.92,4.624.886,5.453.058a3.888,3.888,0,0,0,.547-4.7Zm-1.626,3.619c-.346.347-1.4,1.4-3.971-.572a.766.766,0,0,0-1.037.105,3.7,3.7,0,0,1-2.36,1.156,3.484,3.484,0,0,1-2.537-1.223.766.766,0,0,0-.542-.225h-.014a.766.766,0,0,0-.547.246,3.869,3.869,0,0,1-2.467,1.176h0a3.108,3.108,0,0,1-2.257-1.177.763.763,0,0,0-1.051-.067c-.025.021-2.522,2.084-4.063.6a2.323,2.323,0,0,1-.327-2.837l2.34-3.951h16.865l2.271,3.923a2.362,2.362,0,0,1-.3,2.847Z" transform="translate(-541.152 -127.995)"/>
</svg>
