<svg xmlns="http://www.w3.org/2000/svg" width="32" height="32" viewBox="0 0 32 32">
  <rect width="32" height="32" fill="none"/>
  <path d="M548.339,137.994l5.763,7.924a.71.71,0,0,0,.571.293h.006a.714.714,0,0,0,.57-.284l9.115-12.114a1.875,1.875,0,0,1,.658,1.159,3.722,3.722,0,0,1-.992,2.506.714.714,0,0,0,1.047.97,5.116,5.116,0,0,0,1.36-3.659,3.579,3.579,0,0,0-1.84-2.574.714.714,0,0,0-.947.176l-6.621,8.8-6.455-8.8a.712.712,0,0,0-1-.154l-.012.009a4.334,4.334,0,0,0-1.268,5.676.624.624,0,0,0,.04.072Zm1.55-4.115,6.131,8.351a.669.669,0,0,0,.124.131l-1.456,1.935-5.169-7.107a2.894,2.894,0,0,1,.37-3.313Zm14.02,13.36a4.436,4.436,0,0,0-4.349,3.6l-1.842-2.5,5.633-7.5a.713.713,0,0,0-1.14-.857h0L554,150.9a4.435,4.435,0,1,0-.789,3.378.718.718,0,0,0,.135-.135l3.474-4.62,3.4,4.615c.01.012.022.021.032.033a4.429,4.429,0,1,0,3.65-6.936Zm-14.265,7.434a3,3,0,1,1,3-3A3,3,0,0,1,549.644,154.673Zm14.265,0a3,3,0,1,1,3-3A3,3,0,0,1,563.909,154.673Z" transform="translate(-540.695 -128.097)"/>
</svg>
