<svg xmlns="http://www.w3.org/2000/svg" width="32" height="32" viewBox="0 0 32 32">
  <g transform="translate(-538 -244)">
    <g transform="translate(542.597 247.997)">
      <path d="M421.891,298.419c-5.237,0-10,5.137-10,7.674,0,1.734,0,1.734,10.109,2.419,5.224.354,9.371-2.963,9.371-5.5S427.128,298.419,421.891,298.419Z" transform="translate(-409.37 -285.25)" fill="#ff8272"/>
      <path d="M420.788,298.419c-2.711,0-5.578-3.581-5.578-6.966,0-3.478,2.45-6.2,5.578-6.2,3.083,0,5.5,2.782,5.5,6.334C426.286,294.906,423.46,298.419,420.788,298.419Zm0-11.746c-2.369,0-4.155,2.055-4.155,4.78,0,2.8,2.379,5.543,4.155,5.543,1.7,0,4.074-2.727,4.074-5.412C424.862,288.83,423.073,286.673,420.788,286.673Zm-.09,22.577c-4.742,0-9.5-1.983-10.836-3.413a1.513,1.513,0,0,1-.489-1.131,7.651,7.651,0,0,1,4.967-6.654.712.712,0,0,1,.453,1.349h0a6.235,6.235,0,0,0-4,5.339c.424.791,4.916,3.087,9.9,3.087h.049c5.045-.016,9.548-2.366,9.952-3.165a6.031,6.031,0,0,0-3.838-5.255.712.712,0,1,1,.423-1.36,7.4,7.4,0,0,1,4.839,6.557,1.521,1.521,0,0,1-.481,1.151c-1.324,1.45-6.108,3.48-10.89,3.5ZM410.782,304.707ZM430.711,304.631Z" transform="translate(-409.37 -285.25)" fill="#101928"/>
    </g>
    <rect width="32" height="32" transform="translate(538 244)" fill="none"/>
  </g>
</svg>
