<svg viewBox="0 0 32 32" xmlns="http://www.w3.org/2000/svg">
    <g>
        <path fill-rule="evenodd" clip-rule="evenodd"
            d="M9.76711 2.66602C8.13738 2.66602 6.57439 3.31343 5.42199 4.46583L3.17484 6.71298C0.939299 8.94852 0.764866 12.5155 2.77162 14.9585L13.5606 28.093C14.7898 29.5893 17.0799 29.5893 18.309 28.093L29.098 14.9585C31.1047 12.5155 30.9303 8.94851 28.6948 6.71297L26.4476 4.46582C25.2952 3.31343 23.7322 2.66602 22.1025 2.66602H9.76711ZM9.53006 7.74189C8.77952 7.74189 8.17109 8.35032 8.17109 9.10086C8.17109 9.8514 8.77952 10.4598 9.53006 10.4598H22.4015C23.1521 10.4598 23.7605 9.8514 23.7605 9.10086C23.7605 8.35032 23.1521 7.74189 22.4015 7.74189H9.53006Z"
            fill="url(#paint0_linear_8552_5526)" />
    </g>
    <defs>
        <linearGradient id="paint0_linear_8552_5526" x1="24.2697" y1="5.2313" x2="10.1308" y2="29.5493"
            gradientUnits="userSpaceOnUse">
            <stop stop-color="#FB7E1C" />
            <stop offset="1" stop-color="#FF1A46" />
        </linearGradient>
    </defs>
</svg>