<svg xmlns="http://www.w3.org/2000/svg"  viewBox="0 0 110.008 116">
	<path class="a" d="M12.458,23.133V98.586A17.415,17.415,0,0,0,29.872,116H81.849a15.7,15.7,0,0,0,15.7-15.7V23.133ZM90.411,99.539a9.387,9.387,0,0,1-9.387,9.387H30.592a11.1,11.1,0,0,1-11.1-11.1V30.285h70.92Z"/>
	<rect class="a" x="11.839" y="67.194" width="50" height="7" rx="3.5" transform="translate(-33.855 107.533) rotate(-90)"/>
	<rect class="a" x="26.256" y="66.106" width="57.391" height="7" rx="3.5" transform="translate(-14.654 124.557) rotate(-90)"/>
	<rect class="a" y="13.532" width="110.008" height="7" rx="3.5" transform="translate(110.008 34.063) rotate(180)"/><rect class="a" x="48.929" y="67.194" width="50" height="7" rx="3.5" transform="matrix(0, -1, 1, 0, 3.235, 144.623)"/>
	<path class="a" d="M77.429,8.594A8.594,8.594,0,0,0,68.835,0h-26.9a8.593,8.593,0,0,0-8.593,8.594v11.4h7V10.275A3.274,3.274,0,0,1,43.614,7h23.54a3.275,3.275,0,0,1,3.275,3.275v9.719h7Z"/>
</svg>
