<svg viewBox="0 0 20 20" xmlns="http://www.w3.org/2000/svg">
<mask id="mask0_3190_43" style="mask-type:alpha" x="0" y="0" width="20" height="20">
<rect width="20" height="20" fill="#D9D9D9"/>
</mask>
<g mask="url(#mask0_3190_43)">
<path d="M5.83984 17.5C5.38151 17.5 4.98929 17.3369 4.66318 17.0108C4.33651 16.6842 4.17318 16.2917 4.17318 15.8333V5H3.33984V3.33333H7.50651V2.5H12.5065V3.33333H16.6732V5H15.8398V15.8333C15.8398 16.2917 15.6768 16.6842 15.3507 17.0108C15.024 17.3369 14.6315 17.5 14.1732 17.5H5.83984ZM14.1732 5H5.83984V15.8333H14.1732V5ZM7.50651 14.1667H9.17318V6.66667H7.50651V14.1667ZM10.8398 14.1667H12.5065V6.66667H10.8398V14.1667Z" />
</g>
</svg>
