<svg xmlns="http://www.w3.org/2000/svg" width="18" height="18" viewBox="0 0 18 18">
  <g transform="translate(-49 -208)">
    <rect width="18" height="18" transform="translate(49 208)" fill="none"/>
    <path d="M315.455,301.269c-2.034,0-4.184-2.686-4.184-5.226a4.39,4.39,0,0,1,4.184-4.653c2.312,0,4.124,2.087,4.124,4.751C319.579,298.633,317.459,301.269,315.455,301.269Zm0-8.812a3.3,3.3,0,0,0-3.118,3.586c0,2.1,1.785,4.159,3.118,4.159,1.279,0,3.058-2.046,3.058-4.061,0-2.066-1.343-3.685-3.058-3.685Zm-.409,16.933h-.015c-3.3-.089-6.757-1.431-7.8-2.58a1.116,1.116,0,0,1-.345-.824,5.739,5.739,0,0,1,3.726-4.992.533.533,0,1,1,.339,1.011,4.679,4.679,0,0,0-3,4.006c.3.566,3.446,2.213,7.1,2.312a.533.533,0,0,1-.014,1.067ZM307.947,305.987Zm16.711-1.079h-7.882v1.067h7.881Zm-3.407-3.407h-1.067v7.882h1.067Z" transform="translate(-257.891 -83.39)"/>
  </g>
</svg>
