<svg xmlns="http://www.w3.org/2000/svg" viewBox="0 0 115.594 116.081">
	<path d="M44.974,66.852H58a33.406,33.406,0,1,0-17.254-4.8A44.973,44.973,0,0,0,0,106.826H0A9.174,9.174,0,0,0,9.175,116H78.3a2.5,2.5,0,0,0,0-5H9.175A4.16,4.16,0,0,1,5,106.877,40.019,40.019,0,0,1,44.974,66.852Zm-15.4-33.414A28.428,28.428,0,1,1,58,61.866v-.014h-.549A28.456,28.456,0,0,1,29.572,33.438Zm86.022,45.193a16.748,16.748,0,0,1-14.22,16.533v7.309a2.5,2.5,0,0,1-5,0V92.851a2.5,2.5,0,0,1,2.5-2.5,11.72,11.72,0,1,0-11.72-11.72,2.5,2.5,0,0,1-5,0,16.72,16.72,0,0,1,33.44,0Zm-14.22,34.974a2.5,2.5,0,1,1-2.5-2.5A2.5,2.5,0,0,1,101.374,113.605Z" transform="translate(0 -0.024)"/>
</svg>
