<svg xmlns="http://www.w3.org/2000/svg" width="24" height="24" viewBox="0 0 24 24">
  <g transform="translate(894 -1735)">
    <rect width="24" height="24" transform="translate(-894 1735)" fill="none"/>
    <path id="контур" d="M396.593,272.946c-2.713,0-5.581-3.582-5.581-6.969,0-3.48,2.453-6.206,5.581-6.206,3.084,0,5.5,2.783,5.5,6.336C402.094,269.433,399.267,272.946,396.593,272.946Zm0-11.741c-2.365,0-4.148,2.052-4.148,4.772,0,2.8,2.375,5.535,4.148,5.535,1.7,0,4.067-2.723,4.067-5.4C400.66,263.359,398.874,261.205,396.593,261.205Zm-.09,22.567c-4.742,0-9.5-1.983-10.836-3.413a1.519,1.519,0,0,1-.49-1.134,7.658,7.658,0,0,1,4.969-6.657.717.717,0,1,1,.456,1.359,6.228,6.228,0,0,0-3.99,5.33c.429.791,4.919,3.081,9.889,3.081h.049c5.033-.016,9.533-2.361,9.942-3.159a5.981,5.981,0,0,0-3.835-5.248.717.717,0,1,1,.428-1.368,7.4,7.4,0,0,1,4.842,6.559,1.529,1.529,0,0,1-.482,1.155c-1.324,1.449-6.109,3.48-10.89,3.495ZM406.506,279.148Z" transform="translate(-1278.578 1475.228)"/>
  </g>
</svg>
