<svg
	xmlns="http://www.w3.org/2000/svg"

	width="21.911"
	height="21.97"
	viewBox="0 0 21.911 21.97"
>
	<g transform="translate(-0.003)">
		<path d="M65.875,63.731h0m-.519,1.052.7,1.424.309.625.69.1,1.572.229L67.491,68.27l-.5.487.118.687.269,1.566-1.406-.739-.617-.324-.617.324-1.406.739.269-1.566.118-.687-.5-.486-1.138-1.109,1.572-.229.69-.1.308-.625.7-1.425m0-2.055a.739.739,0,0,0-.67.417l-1.221,2.476-2.734.4a.747.747,0,0,0-.414,1.274l1.978,1.928-.467,2.722a.745.745,0,0,0,1.084.787l2.445-1.285L67.8,72.73a.745.745,0,0,0,1.084-.787l-.467-2.722L70.4,67.292a.747.747,0,0,0-.414-1.274l-2.733-.4-1.223-2.476a.739.739,0,0,0-.67-.417Z" transform="translate(-48.707 -50.847)"/>
		<path d="M30.507,0a6.351,6.351,0,1,0,6.351,6.351A6.351,6.351,0,0,0,30.507,0Zm0,11.379a5.028,5.028,0,1,1,5.028-5.028,5.028,5.028,0,0,1-5.028,5.028Z" transform="translate(-19.578)"/>
		<path d="M11.044,60.82l-.688-.662A10.982,10.982,0,0,0,.006,70.017a.659.659,0,0,0,.66.718h0a.665.665,0,0,0,.658-.6,9.658,9.658,0,0,1,9.605-8.665l.116,0Z" transform="translate(0 -48.764)"/>
	</g>
</svg>
