<svg viewBox="0 0 20 20" xmlns="http://www.w3.org/2000/svg">
<path d="M10 20C15.5228 20 20 15.5228 20 10C20 4.47715 15.5228 0 10 0C4.47715 0 0 4.47715 0 10C0 15.5228 4.47715 20 10 20Z" fill="#F74969"/>
<path d="M10 3C8.61553 3 7.26215 3.41054 6.11101 4.17971C4.95987 4.94888 4.06266 6.04213 3.53285 7.32122C3.00303 8.6003 2.86441 10.0078 3.13451 11.3656C3.4046 12.7235 4.07129 13.9708 5.05026 14.9497C6.02922 15.9287 7.2765 16.5954 8.63437 16.8655C9.99224 17.1356 11.3997 16.997 12.6788 16.4672C13.9579 15.9373 15.0511 15.0401 15.8203 13.889C16.5895 12.7378 17 11.3845 17 10C17 8.14348 16.2625 6.36301 14.9497 5.05025C13.637 3.7375 11.8565 3 10 3V3ZM10 4.32737C11.2666 4.3275 12.4963 4.75374 13.4913 5.5375L5.5375 13.4912C4.8817 12.6547 4.47438 11.6505 4.36207 10.5935C4.24977 9.53648 4.437 8.46918 4.90239 7.51349C5.36778 6.5578 6.09256 5.75226 6.99395 5.18887C7.89535 4.62548 8.93702 4.32695 10 4.32737ZM10 15.6726C8.71628 15.6736 7.4706 15.2368 6.4685 14.4345L14.431 6.472C15.0957 7.30617 15.5115 8.31095 15.6308 9.37088C15.75 10.4308 15.5677 11.5029 15.1049 12.4638C14.6421 13.4248 13.9175 14.2357 13.0145 14.8033C12.1115 15.3709 11.0666 15.6722 10 15.6726Z" fill="white"/>
</svg>
