<svg viewBox="0 0 20 20" xmlns="http://www.w3.org/2000/svg">
<path d="M10 20C15.5228 20 20 15.5228 20 10C20 4.47715 15.5228 0 10 0C4.47715 0 0 4.47715 0 10C0 15.5228 4.47715 20 10 20Z" fill="#FFC107"/>
<path d="M11.932 11.7246C11.8075 11.8491 11.6386 11.919 11.4626 11.919C11.2865 11.919 11.1177 11.8491 10.9931 11.7246L9.62375 10.3552C9.55156 10.2813 9.49788 10.1914 9.46713 10.0927C9.46013 10.0735 9.454 10.0525 9.44875 10.0324C9.4435 10.0122 9.44263 10.0122 9.44088 10C9.43303 9.95963 9.42893 9.91862 9.42863 9.8775V6.43962C9.42539 6.35044 9.44016 6.26152 9.47205 6.17817C9.50395 6.09482 9.55231 6.01875 9.61426 5.95451C9.67621 5.89028 9.75047 5.83918 9.83261 5.80428C9.91474 5.76938 10.0031 5.7514 10.0923 5.7514C10.1816 5.7514 10.2699 5.76938 10.352 5.80428C10.4342 5.83918 10.5084 5.89028 10.5704 5.95451C10.6323 6.01875 10.6807 6.09482 10.7126 6.17817C10.7445 6.26152 10.7592 6.35044 10.756 6.43962V9.60975L11.932 10.7875C12.0559 10.912 12.1255 11.0804 12.1255 11.2561C12.1255 11.4317 12.0559 11.6002 11.932 11.7246ZM10 4.32737C11.1219 4.32737 12.2187 4.66007 13.1515 5.28338C14.0844 5.9067 14.8115 6.79264 15.2408 7.82918C15.6702 8.86572 15.7825 10.0063 15.5636 11.1067C15.3447 12.2071 14.8045 13.2178 14.0112 14.0111C13.2178 14.8045 12.2071 15.3447 11.1067 15.5636C10.0063 15.7825 8.86572 15.6702 7.82918 15.2408C6.79265 14.8115 5.9067 14.0844 5.28339 13.1515C4.66007 12.2187 4.32738 11.1219 4.32738 10C4.32738 8.49553 4.92503 7.05267 5.98885 5.98885C7.05267 4.92502 8.49553 4.32737 10 4.32737ZM10 3C8.61553 3 7.26215 3.41054 6.11101 4.17971C4.95987 4.94888 4.06266 6.04213 3.53285 7.32122C3.00303 8.6003 2.86441 10.0078 3.13451 11.3656C3.4046 12.7235 4.07129 13.9708 5.05026 14.9497C6.02922 15.9287 7.2765 16.5954 8.63437 16.8655C9.99224 17.1356 11.3997 16.997 12.6788 16.4672C13.9579 15.9373 15.0511 15.0401 15.8203 13.889C16.5895 12.7378 17 11.3845 17 10C17 8.14348 16.2625 6.36301 14.9497 5.05025C13.637 3.7375 11.8565 3 10 3V3Z" fill="white"/>
</svg>
