<svg viewBox="0 0 20 20" xmlns="http://www.w3.org/2000/svg">
<path d="M10 20C15.5228 20 20 15.5228 20 10C20 4.47715 15.5228 0 10 0C4.47715 0 0 4.47715 0 10C0 15.5228 4.47715 20 10 20Z" fill="#30D158"/>
<path d="M9.99985 17C8.61539 17 7.26201 16.5893 6.11087 15.8202C4.95974 15.051 4.0627 13.9577 3.53289 12.6787C3.00308 11.3996 2.86439 9.99224 3.13449 8.63438C3.40458 7.27652 4.07128 6.0292 5.05024 5.05024C6.0292 4.07128 7.27652 3.40458 8.63438 3.13449C9.99224 2.86439 11.3996 3.00308 12.6787 3.53289C13.9577 4.0627 15.051 4.95995 15.8202 6.11109C16.5893 7.26222 16.9998 8.6156 16.9998 10.0001C16.9998 11.8566 16.2624 13.6369 14.9497 14.9497C13.6369 16.2624 11.8563 17 9.99985 17ZM9.99985 4.19704C8.85188 4.19687 7.7298 4.53712 6.77523 5.17478C5.82067 5.81245 5.07649 6.71892 4.6371 7.77947C4.19771 8.84001 4.08271 10.007 4.30663 11.1329C4.53054 12.2588 5.08338 13.2931 5.89511 14.1048C6.70685 14.9165 7.7411 15.4694 8.86701 15.6933C9.99293 15.9172 11.1599 15.8022 12.2204 15.3628C13.281 14.9234 14.1875 14.1792 14.8251 13.2247C15.4628 12.2701 15.803 11.148 15.8029 10.0001C15.8026 8.46109 15.1911 6.98525 14.1029 5.89704C13.0147 4.80882 11.5388 4.19727 9.99985 4.19704ZM9.47498 12.3161L13.3127 8.53526C13.3743 8.48161 13.4242 8.41603 13.4594 8.34236C13.4947 8.26869 13.5144 8.18855 13.5175 8.10695C13.5207 8.02535 13.5071 7.94384 13.4776 7.86769C13.4481 7.79155 13.4033 7.7223 13.346 7.66411C13.2887 7.60592 13.22 7.56 13.1444 7.52932C13.0687 7.49863 12.9876 7.48389 12.9059 7.48574C12.8243 7.48759 12.7439 7.50612 12.6697 7.54021C12.5955 7.5743 12.529 7.62325 12.4744 7.68398L9.05756 11.0483L7.52974 9.52582C7.47526 9.46558 7.40919 9.41697 7.33535 9.38312C7.26151 9.34927 7.18157 9.33082 7.10037 9.32886C7.01916 9.32691 6.93841 9.34154 6.86303 9.3718C6.78765 9.40206 6.71912 9.44733 6.6618 9.50489C6.60448 9.56244 6.55952 9.63104 6.52957 9.70654C6.49962 9.78205 6.48541 9.8629 6.4877 9.94409C6.48999 10.0253 6.50866 10.1052 6.54281 10.1789C6.57697 10.2526 6.6259 10.3186 6.68637 10.3728L8.6331 12.3134C8.74514 12.4242 8.89655 12.4864 9.05415 12.4864C9.21174 12.4864 9.36293 12.4242 9.47498 12.3134V12.3161Z" fill="white"/>
</svg>
