<svg viewBox="0 0 40 40" xmlns="http://www.w3.org/2000/svg">
<path d="M5 34.334C5 36.5431 6.79086 38.334 9 38.334H10.2368C11.4959 38.334 12.6814 37.7412 13.4368 36.734L16.2737 32.9515C17.8737 30.8182 21.0737 30.8182 22.6737 32.9515L25.5105 36.734C26.2659 37.7412 27.4515 38.334 28.7105 38.334H29.9474C32.1565 38.334 33.9474 36.5431 33.9474 34.334V29.6849C33.9474 29.1326 33.4997 28.6849 32.9474 28.6849H6C5.44771 28.6849 5 29.1326 5 29.6849V34.334Z"/>
<path fill-rule="evenodd" clip-rule="evenodd" d="M9 1.66699C6.79086 1.66699 5 3.45785 5 5.66699V23.8249C5 24.3772 5.44771 24.8249 6 24.8249H32.9474C33.4997 24.8249 33.9474 24.3772 33.9474 23.8249V5.66699C33.9474 3.45785 32.1565 1.66699 29.9474 1.66699H9ZM12.7174 10.3171C12.1652 10.3171 11.7174 10.7648 11.7174 11.3171C11.7174 11.8693 12.1652 12.3171 12.7174 12.3171H26.2262C26.7785 12.3171 27.2262 11.8693 27.2262 11.3171C27.2262 10.7648 26.7785 10.3171 26.2262 10.3171H12.7174ZM11.7174 17.1064C11.7174 16.5542 12.1652 16.1064 12.7174 16.1064H18.5069C19.0592 16.1064 19.5069 16.5542 19.5069 17.1064C19.5069 17.6587 19.0592 18.1064 18.5069 18.1064H12.7174C12.1652 18.1064 11.7174 17.6587 11.7174 17.1064ZM24.2962 16.1064C23.7439 16.1064 23.2962 16.5542 23.2962 17.1064C23.2962 17.6587 23.7439 18.1064 24.2962 18.1064H26.226C26.7783 18.1064 27.226 17.6587 27.226 17.1064C27.226 16.5542 26.7783 16.1064 26.226 16.1064H24.2962Z"/>
</svg>
