<svg xmlns="http://www.w3.org/2000/svg" viewBox="0 0 314.808 60.507"><defs><style>.a{fill:#ff8272;}.b{fill:none;stroke:#000;stroke-linecap:round;stroke-miterlimit:10;stroke-width:0.75px;}.c,.d,.e{fill:#de1f1f;}.c,.f,.i,.l,.o{opacity:0.2;}.d,.g,.j,.m,.p{opacity:0.5;}.f,.g,.h{fill:#2cde1f;}.i,.j,.k{fill:#1f88de;}.l,.m,.n{fill:#d81fde;}.o,.p,.q{fill:#fe0;}</style></defs><path class="a" d="M285.089,22.327a15.417,15.417,0,0,0-4.872-3.189,15.235,15.235,0,0,0-19.98,7.946,14.871,14.871,0,0,0,0,11.658,14.944,14.944,0,0,0,8.09,7.947,15.574,15.574,0,0,0,16.762-3.19,14.819,14.819,0,0,0,3.277-4.757,14.882,14.882,0,0,0,0-11.658A14.862,14.862,0,0,0,285.089,22.327ZM282.74,36.509a9.381,9.381,0,0,1-4.872,4.872,8.783,8.783,0,0,1-3.567.725,9.064,9.064,0,0,1-6.5-2.7,9.63,9.63,0,0,1-1.942-2.9,8.751,8.751,0,0,1-.726-3.567,8.963,8.963,0,0,1,.726-3.6A9.542,9.542,0,0,1,267.8,26.41a9.06,9.06,0,0,1,6.5-2.7,8.806,8.806,0,0,1,3.567.724,9.452,9.452,0,0,1,2.9,1.973,9.328,9.328,0,0,1,1.972,2.929,9,9,0,0,1,.725,3.6A8.778,8.778,0,0,1,282.74,36.509Zm36.818,9.762,1.021,1.577h-7.06l-6.585-11.632L300.52,47.848h-7.167l.968-1.476h0l8.408-13.6L294.6,19.554l-.986-1.572h6.856l6.52,10.865,6.829-10.839v-.026h6.858l-.905,1.472-8.52,13.158,8.294,13.66ZM253.871,32.3a14.414,14.414,0,0,0-1.024-4.863c-.043-.109-.077-.221-.123-.328l-.009-.026c-.046-.106-.1-.2-.151-.308a14.813,14.813,0,0,0-1.237-2.219c-.123-.181-.262-.35-.393-.525-.148-.2-.288-.4-.445-.59-.259-.314-.537-.612-.822-.9-.042-.043-.079-.09-.122-.133-.025-.025-.046-.053-.071-.078-.29-.285-.6-.55-.906-.81-.026-.022-.05-.047-.076-.068-.306-.253-.628-.486-.954-.714-.07-.048-.135-.1-.206-.15-.292-.2-.6-.375-.909-.552-.111-.064-.217-.135-.331-.2-.467-.252-.949-.488-1.451-.7a15.169,15.169,0,0,0-5.906-1.16,12.449,12.449,0,0,0-3.647.608c-.107.033-.2.073-.309.108a14.8,14.8,0,0,0-5.179,2.765V5.566h-5.974V32.942a14.338,14.338,0,0,0,1.187,5.8,15.291,15.291,0,0,0,19.827,7.947,15.74,15.74,0,0,0,1.449-.7c.121-.065.234-.141.353-.21.3-.173.6-.348.89-.54.071-.048.136-.1.205-.151.327-.227.649-.461.955-.714.024-.019.045-.041.068-.061.314-.261.622-.529.914-.817.025-.025.046-.053.071-.078.042-.041.078-.087.119-.129.287-.294.566-.594.827-.909.14-.17.264-.352.4-.527.148-.2.3-.386.441-.59a13.692,13.692,0,0,0,.738-1.2h0c.181-.327.34-.667.5-1.008.049-.106.106-.2.153-.312l.009-.025c.04-.094.07-.193.109-.288a14.391,14.391,0,0,0,1.069-5.486v-.029c-.008-.209-.03-.409-.039-.614Zm-6.668,4.19a9.691,9.691,0,0,1-1.943,2.91,9.052,9.052,0,0,1-6.5,2.7,8.783,8.783,0,0,1-3.567-.725,9.441,9.441,0,0,1-2.111-1.276,9.322,9.322,0,0,1-.419-14c.149-.125.29-.252.457-.373a10.523,10.523,0,0,1,1.771-1.035,12.019,12.019,0,0,1,1.973-.708,7.518,7.518,0,0,1,1.887-.265,9.16,9.16,0,0,1,9.174,9.192A8.811,8.811,0,0,1,247.2,36.491Z" transform="translate(-5.864 -4.392)"/><path d="M68.43,34.854l5.975,1.334a11.966,11.966,0,0,1-1.773,4.552,14.873,14.873,0,0,1-3.37,3.684,16.611,16.611,0,0,1-4.534,2.494,14.98,14.98,0,0,1-5.2.928,15.3,15.3,0,0,1-5.928-1.16,15.46,15.46,0,0,1-4.881-3.19,14.82,14.82,0,0,1-3.281-4.757,14.321,14.321,0,0,1-1.19-5.8,14.472,14.472,0,0,1,1.19-5.857,14.855,14.855,0,0,1,3.284-4.757A15.468,15.468,0,0,1,53.6,19.136a15.281,15.281,0,0,1,5.929-1.16,14.743,14.743,0,0,1,4.56.724,16.37,16.37,0,0,1,7.514,5.076,12.091,12.091,0,0,1,2.147,3.711L54.88,37.754l-2.558-5.046,12.9-6.96a7.44,7.44,0,0,0-2.443-1.45,9,9,0,0,0-3.256-.58,8.833,8.833,0,0,0-3.577.725,9.467,9.467,0,0,0-2.908,1.972,9.323,9.323,0,0,0-1.977,2.931,8.98,8.98,0,0,0-.726,3.6,8.782,8.782,0,0,0,.724,3.567,9.377,9.377,0,0,0,4.873,4.873,9.063,9.063,0,0,0,6.583.2,9.516,9.516,0,0,0,2.668-1.479A8.966,8.966,0,0,0,68.43,34.854ZM38.244,32.3c0,.209.026.41.026.617v.029A14.4,14.4,0,0,1,37.2,38.43c-.038.094-.068.192-.107.286l-.01.025c-.047.108-.1.208-.154.314-.155.341-.314.68-.494,1.006q-.341.619-.738,1.2c-.138.2-.294.4-.443.593-.132.174-.256.355-.4.524-.261.315-.54.615-.827.909-.041.042-.077.088-.119.13-.025.025-.046.052-.071.077-.293.289-.6.559-.918.821-.022.018-.041.039-.063.057-.308.254-.631.489-.959.717-.069.048-.132.1-.2.147-.289.194-.591.369-.9.544-.117.067-.229.142-.349.207-.466.252-.947.487-1.449.7A15.286,15.286,0,0,1,9.176,38.74,14.352,14.352,0,0,1,8,32.94V5.566h5.973V21.46a14.806,14.806,0,0,1,5.18-2.767c.1-.034.2-.074.308-.107a12.454,12.454,0,0,1,3.647-.608,15.169,15.169,0,0,1,5.906,1.16q.742.314,1.451.7c.115.062.222.134.335.2.307.177.614.354.9.55.072.048.139.1.21.153.325.227.645.459.949.71.028.023.054.05.082.073.308.259.613.522.9.806.025.025.046.053.071.078.044.044.083.093.127.138.283.291.559.587.816.9.16.191.3.4.451.6.129.173.266.339.388.518a14.952,14.952,0,0,1,1.244,2.215c.048.1.1.2.15.3l.009.025c.046.109.081.222.124.332A14.4,14.4,0,0,1,38.244,32.3Zm-5.948.617A9.143,9.143,0,0,0,23.2,23.721h-.076a7.474,7.474,0,0,0-1.887.266,11.806,11.806,0,0,0-1.973.708A10.38,10.38,0,0,0,17.5,25.728c-.167.121-.308.248-.457.373a9.321,9.321,0,0,0-.457,13.174h0a9.22,9.22,0,0,0,.875.825,9.516,9.516,0,0,0,2.111,1.276,8.783,8.783,0,0,0,3.567.725,9.056,9.056,0,0,0,6.5-2.7,9.691,9.691,0,0,0,1.943-2.91,8.822,8.822,0,0,0,.717-3.579Zm76.878-5.829a14.5,14.5,0,0,1,1.189,5.858V47.268H104.4V44.229a14.858,14.858,0,0,1-2.895,1.88,15.217,15.217,0,0,1-2.7,1.1,12.34,12.34,0,0,1-3.567.638,15.236,15.236,0,0,1-5.916-1.16,14.944,14.944,0,0,1-8.09-7.947,14.338,14.338,0,0,1-1.19-5.8v-.114a14.852,14.852,0,0,1,14.85-14.85c.057,0,.111.008.167.008s.119-.008.179-.008a15.109,15.109,0,0,1,13.947,9.108Zm-4.844,5.744a9.392,9.392,0,0,0-.687-3.519,9.064,9.064,0,0,0-1.989-2.892,9.8,9.8,0,0,0-2.938-1.969,8.7,8.7,0,0,0-3.52-.725,9.115,9.115,0,0,0-6.516,2.7,9.542,9.542,0,0,0-1.95,2.929,8.964,8.964,0,0,0-.727,3.6,8.753,8.753,0,0,0,.728,3.567,9.651,9.651,0,0,0,1.949,2.9,9.115,9.115,0,0,0,6.52,2.7,7.68,7.68,0,0,0,1.895-.265,12.169,12.169,0,0,0,1.978-.7,10.584,10.584,0,0,0,1.776-1.015c.087-.062.156-.132.238-.2A9.425,9.425,0,0,0,104.33,32.828Zm85.608,2.955a6.079,6.079,0,0,1-1.827,4.525,6.223,6.223,0,0,1-4.553,1.8,6.154,6.154,0,0,1-6.323-5.98V18.554h-5.973V35.606c0,.108.013.213.016.32.006.262.016.522.039.779.026.28.065.557.11.831.012.072.021.144.033.215a12.248,12.248,0,0,0,2.5,5.524c.019.026.036.053.055.078.118.15.245.289.369.433.159.179.314.363.484.532l.006.007a12.29,12.29,0,0,0,15.062,1.829v6.678a6.077,6.077,0,0,1-1.827,4.524,6.226,6.226,0,0,1-4.523,1.8V64.9a11.792,11.792,0,0,0,4.726-.985,12.669,12.669,0,0,0,3.945-2.668,12.8,12.8,0,0,0,2.668-3.915,11.587,11.587,0,0,0,.986-4.727V18.554h-5.973ZM155.022,11.018h0V5.454h-5.973V38.278a8.425,8.425,0,0,0,.725,3.48,9.355,9.355,0,0,0,4.785,4.79,8.425,8.425,0,0,0,3.48.725h6.9V41.531h-6.9a2.8,2.8,0,0,1-2.175-.928,3.321,3.321,0,0,1-.841-2.32V24.3h9.916V18.554h-9.918ZM136.173,35.783a6.083,6.083,0,0,1-1.827,4.525,6.233,6.233,0,0,1-4.553,1.8,6.154,6.154,0,0,1-6.324-5.979V18.554H117.5v16.99a11.551,11.551,0,0,0,.986,4.727,12.731,12.731,0,0,0,6.584,6.583,11.587,11.587,0,0,0,4.727.986,11.793,11.793,0,0,0,4.756-.986,12.642,12.642,0,0,0,6.612-6.583,11.587,11.587,0,0,0,.986-4.727V18.554h-5.974Z" transform="translate(-5.864 -4.392)"/><path class="b" d="M8.82,5.392A97.974,97.974,0,0,1,12.081,28.74C12.211,41.261,17.2,46,23.132,45.827c12.443-.359,19.051-19.7,29.645-24.131s17.087,2.944,16.695,4.668-23.395,2.707-21.88,8.6,6.277,11.331,15.75,9.163c3.75-.859,7.6-4.044,8.282-5.976,1.07-3.016-3.693-.758-2.674,1.932,1.079,2.848,18.327,7.435,24.392,5.087,0,0,14.038-3.962,13.647-15.456S95.054,19.3,92.119,20.229s-13.207,7.288-4.255,14.918,21.268,10.021,25.777,5.234c3.63-3.855,1.614-19.761,7.875-19.663S114.961,37.3,122.69,41.506s17.021,3.473,17.119-11.593,19.216-16.7,12.375-22.94c-1.663-1.516-1.663,1.853-1.125,11s-1.027,29.351,11.2,20.937,22.06-15.554,16.386-18.293-7.924,5.059,3.718,9.2,20.543-6.946,15.065-7.337-8.653,34.1-8.653,34.1,1.316,8.45,9.24,2.776" transform="translate(-5.864 -4.392)"/><circle class="c" cx="192.224" cy="53.866" r="2.566"/><circle class="d" cx="192.224" cy="53.866" r="2.177"/><circle class="e" cx="192.224" cy="53.866" r="1.719"/><circle class="c" cx="184.954" cy="27.086" r="2.566"/><circle class="d" cx="184.954" cy="27.086" r="2.177"/><circle class="e" cx="184.954" cy="27.086" r="1.719"/><circle class="c" cx="156.263" cy="30.875" r="2.566"/><circle class="d" cx="156.263" cy="30.875" r="2.177"/><circle class="e" cx="156.263" cy="30.875" r="1.719"/><circle class="c" cx="144.511" cy="2.566" r="2.566"/><circle class="d" cx="144.511" cy="2.566" r="2.177"/><circle class="e" cx="144.511" cy="2.566" r="1.719"/><circle class="c" cx="121.273" cy="41.278" r="2.566"/><circle class="d" cx="121.273" cy="41.278" r="2.177"/><circle class="e" cx="121.273" cy="41.278" r="1.719"/><circle class="c" cx="107.066" cy="34.745" r="2.566"/><circle class="d" cx="107.066" cy="34.745" r="2.177"/><circle class="e" cx="107.066" cy="34.745" r="1.719"/><circle class="c" cx="89.619" cy="12.712" r="2.566"/><circle class="d" cx="89.619" cy="12.712" r="2.177"/><circle class="e" cx="89.619" cy="12.712" r="1.719"/><circle class="c" cx="89.619" cy="37.711" r="2.566"/><circle class="d" cx="89.619" cy="37.711" r="2.177"/><circle class="e" cx="89.619" cy="37.711" r="1.719"/><circle class="c" cx="60.106" cy="35.619" r="2.566"/><circle class="d" cx="60.106" cy="35.619" r="2.177"/><circle class="e" cx="60.106" cy="35.619" r="1.719"/><circle class="c" cx="51.384" cy="27.618" r="2.566"/><circle class="d" cx="51.384" cy="27.618" r="2.177"/><circle class="e" cx="51.384" cy="27.618" r="1.719"/><circle class="c" cx="44.532" cy="20.494" r="2.566"/><circle class="d" cx="44.532" cy="20.494" r="2.177"/><circle class="e" cx="44.532" cy="20.494" r="1.719"/><circle class="c" cx="13.455" cy="38.184" r="2.566"/><circle class="d" cx="13.455" cy="38.184" r="2.177"/><circle class="e" cx="13.455" cy="38.184" r="1.719"/><circle class="c" cx="2.566" cy="7.531" r="2.566"/><circle class="d" cx="2.566" cy="7.531" r="2.177"/><circle class="e" cx="2.566" cy="7.531" r="1.719"/><circle class="f" cx="186.673" cy="33.707" r="2.566"/><circle class="g" cx="186.673" cy="33.707" r="2.177"/><circle class="h" cx="186.673" cy="33.707" r="1.719"/><circle class="f" cx="169.683" cy="23.793" r="2.566"/><circle class="g" cx="169.683" cy="23.793" r="2.177"/><circle class="h" cx="169.683" cy="23.793" r="1.719"/><circle class="f" cx="146.23" cy="19.719" r="2.566"/><circle class="g" cx="146.23" cy="19.719" r="2.177"/><circle class="h" cx="146.23" cy="19.719" r="1.719"/><circle class="f" cx="135.318" cy="28.805" r="2.566"/><circle class="g" cx="135.318" cy="28.805" r="2.177"/><circle class="h" cx="135.318" cy="28.805" r="1.719"/><circle class="f" cx="112.478" cy="17.152" r="2.566"/><circle class="g" cx="112.478" cy="17.152" r="2.177"/><circle class="h" cx="112.478" cy="17.152" r="1.719"/><circle class="f" cx="78.239" cy="17.61" r="2.566"/><circle class="g" cx="78.239" cy="17.61" r="2.177"/><circle class="h" cx="78.239" cy="17.61" r="1.719"/><circle class="f" cx="99.452" cy="28.964" r="2.566"/><circle class="g" cx="99.452" cy="28.964" r="2.177"/><circle class="h" cx="99.452" cy="28.964" r="1.719"/><circle class="f" cx="69.718" cy="41.735" r="2.566"/><circle class="g" cx="69.718" cy="41.735" r="2.177"/><circle class="h" cx="69.718" cy="41.735" r="1.719"/><circle class="f" cx="42.355" cy="36.464" r="2.566"/><circle class="g" cx="42.355" cy="36.464" r="2.177"/><circle class="h" cx="42.355" cy="36.464" r="1.719"/><circle class="f" cx="57.082" cy="18.775" r="2.566"/><circle class="g" cx="57.082" cy="18.775" r="2.177"/><circle class="h" cx="57.082" cy="18.775" r="1.719"/><circle class="f" cx="25.7" cy="36.007" r="2.566"/><circle class="g" cx="25.7" cy="36.007" r="2.177"/><circle class="h" cx="25.7" cy="36.007" r="1.719"/><circle class="f" cx="4.17" cy="21.227" r="2.566"/><circle class="g" cx="4.17" cy="21.227" r="2.177"/><circle class="h" cx="4.17" cy="21.227" r="1.719"/><circle class="i" cx="182.777" cy="44.646" r="2.566"/><circle class="j" cx="182.777" cy="44.646" r="2.177"/><circle class="k" cx="182.777" cy="44.646" r="1.719"/><circle class="i" cx="171.403" cy="15.891" r="2.566"/><circle class="j" cx="171.403" cy="15.891" r="2.177"/><circle class="k" cx="171.403" cy="15.891" r="1.719"/><circle class="i" cx="145.358" cy="30.187" r="2.566"/><circle class="j" cx="145.358" cy="30.187" r="2.177"/><circle class="k" cx="145.358" cy="30.187" r="1.719"/><circle class="i" cx="133.142" cy="19.508" r="2.566"/><circle class="j" cx="133.142" cy="19.508" r="2.177"/><circle class="k" cx="133.142" cy="19.508" r="1.719"/><circle class="i" cx="118.707" cy="23.722" r="2.566"/><circle class="j" cx="118.707" cy="23.722" r="2.177"/><circle class="k" cx="118.707" cy="23.722" r="1.719"/><circle class="i" cx="78.239" cy="25.899" r="2.566"/><circle class="j" cx="78.239" cy="25.899" r="2.177"/><circle class="k" cx="78.239" cy="25.899" r="1.719"/><circle class="i" cx="102.89" cy="23.06" r="2.566"/><circle class="j" cx="102.89" cy="23.06" r="2.177"/><circle class="k" cx="102.89" cy="23.06" r="1.719"/><circle class="i" cx="78.239" cy="38.185" r="2.566"/><circle class="j" cx="78.239" cy="38.185" r="2.177"/><circle class="k" cx="78.239" cy="38.185" r="1.719"/><circle class="i" cx="50.055" cy="37.338" r="2.566"/><circle class="j" cx="50.055" cy="37.338" r="2.177"/><circle class="k" cx="50.055" cy="37.338" r="1.719"/><circle class="i" cx="65.131" cy="19.508" r="2.566"/><circle class="j" cx="65.131" cy="19.508" r="2.177"/><circle class="k" cx="65.131" cy="19.508" r="1.719"/><circle class="i" cx="33.826" cy="33.83" r="2.566"/><circle class="j" cx="33.826" cy="33.83" r="2.177"/><circle class="k" cx="33.826" cy="33.83" r="1.719"/><circle class="i" cx="8.456" cy="27.618" r="2.566"/><circle class="j" cx="8.456" cy="27.618" r="2.177"/><circle class="k" cx="8.456" cy="27.618" r="1.719"/><circle class="l" cx="182.777" cy="55.585" r="2.566"/><circle class="m" cx="182.777" cy="55.585" r="2.177"/><circle class="n" cx="182.777" cy="55.585" r="1.719"/><circle class="l" cx="177.722" cy="24.18" r="2.566"/><circle class="m" cx="177.722" cy="24.18" r="2.177"/><circle class="n" cx="177.722" cy="24.18" r="1.719"/><circle class="l" cx="151.13" cy="38.185" r="2.566"/><circle class="m" cx="151.13" cy="38.185" r="2.177"/><circle class="n" cx="151.13" cy="38.185" r="1.719"/><circle class="l" cx="141.225" cy="14.586" r="2.566"/><circle class="m" cx="141.225" cy="14.586" r="2.177"/><circle class="n" cx="141.225" cy="14.586" r="1.719"/><circle class="l" cx="114.655" cy="35.144" r="2.566"/><circle class="m" cx="114.655" cy="35.144" r="2.177"/><circle class="n" cx="114.655" cy="35.144" r="1.719"/><circle class="l" cx="82.767" cy="31.53" r="2.566"/><circle class="m" cx="82.767" cy="31.53" r="2.177"/><circle class="n" cx="82.767" cy="31.53" r="1.719"/><circle class="l" cx="96.885" cy="19.508" r="2.566"/><circle class="m" cx="96.885" cy="19.508" r="2.177"/><circle class="n" cx="96.885" cy="19.508" r="1.719"/><circle class="l" cx="84.486" cy="43.448" r="2.566"/><circle class="m" cx="84.486" cy="43.448" r="2.177"/><circle class="n" cx="84.486" cy="43.448" r="1.719"/><circle class="l" cx="57.929" cy="42.469" r="2.566"/><circle class="m" cx="57.929" cy="42.469" r="2.177"/><circle class="n" cx="57.929" cy="42.469" r="1.719"/><circle class="l" cx="59.259" cy="25.899" r="2.566"/><circle class="m" cx="59.259" cy="25.899" r="2.177"/><circle class="n" cx="59.259" cy="25.899" r="1.719"/><circle class="l" cx="36.393" cy="22.946" r="2.566"/><circle class="m" cx="36.393" cy="22.946" r="2.177"/><circle class="n" cx="36.393" cy="22.946" r="1.719"/><circle class="l" cx="5.889" cy="35.161" r="2.566"/><circle class="m" cx="5.889" cy="35.161" r="2.177"/><circle class="n" cx="5.889" cy="35.161" r="1.719"/><circle class="o" cx="190.047" cy="18.775" r="2.566"/><circle class="p" cx="190.047" cy="18.775" r="2.177"/><circle class="q" cx="190.047" cy="18.775" r="1.719"/><circle class="o" cx="165.398" cy="31.214" r="2.566"/><circle class="p" cx="165.398" cy="31.214" r="2.177"/><circle class="q" cx="165.398" cy="31.214" r="1.719"/><circle class="o" cx="147.077" cy="9.25" r="2.566"/><circle class="p" cx="147.077" cy="9.25" r="2.177"/><circle class="q" cx="147.077" cy="9.25" r="1.719"/><circle class="o" cx="129.478" cy="36.396" r="2.566"/><circle class="p" cx="129.478" cy="36.396" r="2.177"/><circle class="q" cx="129.478" cy="36.396" r="1.719"/><circle class="o" cx="111.631" cy="26.787" r="2.566"/><circle class="p" cx="111.631" cy="26.787" r="2.177"/><circle class="q" cx="111.631" cy="26.787" r="1.719"/><circle class="o" cx="86.205" cy="19.329" r="2.566"/><circle class="p" cx="86.205" cy="19.329" r="2.177"/><circle class="q" cx="86.205" cy="19.329" r="1.719"/><circle class="o" cx="98.604" cy="37.338" r="2.566"/><circle class="p" cx="98.604" cy="37.338" r="2.177"/><circle class="q" cx="98.604" cy="37.338" r="1.719"/><circle class="o" cx="66.85" cy="33.442" r="2.566"/><circle class="p" cx="66.85" cy="33.442" r="2.177"/><circle class="q" cx="66.85" cy="33.442" r="1.719"/><circle class="o" cx="43.203" cy="27.618" r="2.566"/><circle class="p" cx="43.203" cy="27.618" r="2.177"/><circle class="q" cx="43.203" cy="27.618" r="1.719"/><circle class="o" cx="49.665" cy="14.431" r="2.566"/><circle class="p" cx="49.665" cy="14.431" r="2.177"/><circle class="q" cx="49.665" cy="14.431" r="1.719"/><circle class="o" cx="21.366" cy="43.455" r="2.566"/><circle class="p" cx="21.366" cy="43.455" r="2.177"/><circle class="q" cx="21.366" cy="43.455" r="1.719"/><circle class="o" cx="7.608" cy="13.584" r="2.566"/><circle class="p" cx="7.608" cy="13.584" r="2.177"/><circle class="q" cx="7.608" cy="13.584" r="1.719"/></svg>