<svg xmlns="http://www.w3.org/2000/svg" viewBox="0 0 313.284 74.801"><defs><style>.a{fill:#ff8272;}.b{fill:#fff;}.c{fill:#ff3e3b;}.d{fill:#eefaff;}.e{fill:#fdfffd;}</style></defs><path class="a" d="M276.793-53.6a15.417,15.417,0,0,0-4.872-3.189,15.235,15.235,0,0,0-19.98,7.946,14.5,14.5,0,0,0-1.19,5.858,14.338,14.338,0,0,0,1.19,5.8,14.944,14.944,0,0,0,8.09,7.947,15.574,15.574,0,0,0,16.762-3.19,14.8,14.8,0,0,0,3.277-4.757,14.357,14.357,0,0,0,1.189-5.8,14.5,14.5,0,0,0-1.189-5.858A14.846,14.846,0,0,0,276.793-53.6Zm-2.349,14.182a9.381,9.381,0,0,1-4.872,4.872,8.783,8.783,0,0,1-3.567.725,9.065,9.065,0,0,1-6.5-2.7,9.648,9.648,0,0,1-1.942-2.9,8.768,8.768,0,0,1-.726-3.567,8.963,8.963,0,0,1,.726-3.6,9.56,9.56,0,0,1,1.942-2.929,9.06,9.06,0,0,1,6.5-2.7,8.8,8.8,0,0,1,3.567.724,9.44,9.44,0,0,1,2.9,1.973,9.311,9.311,0,0,1,1.972,2.929,8.979,8.979,0,0,1,.725,3.6A8.778,8.778,0,0,1,274.444-39.415Zm36.818,9.762,1.021,1.577h-7.06l-6.585-11.632-6.414,11.632h-7.167l.968-1.476h0l8.408-13.6L286.3-56.37l-.986-1.572h6.856l6.52,10.865,6.829-10.839v-.026h6.858l-.9,1.472-8.52,13.158,8.294,13.66Zm-65.687-13.97a14.4,14.4,0,0,0-1.024-4.863c-.043-.109-.077-.221-.123-.328l-.009-.026c-.046-.106-.1-.2-.151-.308a14.813,14.813,0,0,0-1.237-2.219c-.123-.181-.262-.35-.393-.525-.148-.2-.288-.4-.445-.59-.259-.314-.537-.612-.822-.9-.042-.043-.079-.09-.122-.133-.025-.025-.046-.053-.071-.078-.29-.285-.6-.55-.906-.81-.026-.022-.05-.047-.076-.068-.306-.253-.628-.486-.954-.714-.07-.048-.135-.1-.206-.15-.292-.2-.6-.375-.909-.552-.111-.064-.217-.135-.331-.2-.467-.252-.949-.488-1.451-.7a15.165,15.165,0,0,0-5.906-1.16,12.454,12.454,0,0,0-3.647.608c-.107.033-.2.073-.309.108a14.822,14.822,0,0,0-5.179,2.765V-70.358H215.33v27.376a14.355,14.355,0,0,0,1.187,5.8,15.292,15.292,0,0,0,19.827,7.947,15.74,15.74,0,0,0,1.449-.7c.121-.065.234-.141.353-.21.3-.173.6-.348.89-.54.071-.048.136-.1.205-.151.327-.227.649-.461.955-.714.024-.019.045-.041.068-.061.314-.261.622-.529.914-.817.025-.025.046-.053.071-.078.042-.041.078-.087.119-.129.287-.294.566-.594.827-.909.14-.17.264-.352.4-.527.148-.2.3-.386.441-.59a13.692,13.692,0,0,0,.738-1.2h0c.181-.327.34-.667.5-1.008.049-.106.106-.2.153-.312l.009-.025c.04-.094.07-.193.109-.288a14.372,14.372,0,0,0,1.069-5.486v-.029c-.008-.209-.03-.409-.039-.614Zm-6.668,4.19a9.691,9.691,0,0,1-1.943,2.91,9.052,9.052,0,0,1-6.5,2.7,8.79,8.79,0,0,1-3.567-.725,9.441,9.441,0,0,1-2.111-1.276,9.322,9.322,0,0,1-1.243-13.124,9.22,9.22,0,0,1,.824-.876c.149-.125.29-.252.457-.373a10.6,10.6,0,0,1,1.771-1.035,12.019,12.019,0,0,1,1.973-.708,7.531,7.531,0,0,1,1.887-.265,8.995,8.995,0,0,1,3.6.727,9.015,9.015,0,0,1,4.848,4.859,8.991,8.991,0,0,1,.726,3.606A8.811,8.811,0,0,1,238.907-39.433Z" transform="translate(0.301 85.826)"/><path class="b" d="M60.134-41.07l5.975,1.334a11.949,11.949,0,0,1-1.773,4.552,14.854,14.854,0,0,1-3.37,3.684,16.582,16.582,0,0,1-4.534,2.494,14.976,14.976,0,0,1-5.2.928,15.3,15.3,0,0,1-5.928-1.16,15.471,15.471,0,0,1-4.881-3.19,14.82,14.82,0,0,1-3.281-4.757,14.338,14.338,0,0,1-1.19-5.8,14.472,14.472,0,0,1,1.19-5.857A14.871,14.871,0,0,1,40.426-53.6a15.468,15.468,0,0,1,4.881-3.189,15.285,15.285,0,0,1,5.929-1.16,14.738,14.738,0,0,1,4.56.724,16.365,16.365,0,0,1,7.514,5.076,12.091,12.091,0,0,1,2.147,3.711L46.584-38.17l-2.558-5.046,12.9-6.96a7.43,7.43,0,0,0-2.443-1.45,9,9,0,0,0-3.256-.58,8.833,8.833,0,0,0-3.577.725,9.467,9.467,0,0,0-2.908,1.972,9.323,9.323,0,0,0-1.977,2.931,9,9,0,0,0-.726,3.6,8.8,8.8,0,0,0,.724,3.567,9.384,9.384,0,0,0,4.873,4.873,9.063,9.063,0,0,0,6.583.2,9.516,9.516,0,0,0,2.668-1.479A8.962,8.962,0,0,0,60.134-41.07ZM29.948-43.628c0,.209.026.41.026.617v.029a14.383,14.383,0,0,1-1.07,5.488c-.038.094-.068.192-.107.286l-.01.025c-.047.108-.1.208-.154.314-.155.341-.314.68-.494,1.006q-.341.619-.738,1.2c-.138.2-.294.4-.443.593-.132.174-.256.355-.4.524-.261.315-.54.615-.827.909-.041.042-.077.088-.119.13-.025.025-.046.052-.071.077-.293.289-.6.559-.918.821-.022.018-.041.039-.063.057-.308.254-.631.489-.959.717-.069.048-.132.1-.2.147-.289.194-.591.369-.9.544-.117.067-.229.142-.349.207-.466.252-.947.487-1.449.7a15.182,15.182,0,0,1-5.9,1.16A15.071,15.071,0,0,1,.88-37.184,14.369,14.369,0,0,1-.3-42.984V-70.358H5.672v15.894a14.806,14.806,0,0,1,5.18-2.767c.1-.034.2-.074.308-.107a12.454,12.454,0,0,1,3.647-.608,15.165,15.165,0,0,1,5.906,1.16q.744.314,1.451.7c.115.062.222.134.335.2.307.177.614.354.9.55.072.048.139.1.21.153.325.227.645.459.949.71.028.023.054.05.082.073.308.259.613.522.9.806.025.025.046.053.071.078.044.044.083.093.127.138.283.291.559.587.816.9.16.191.3.4.451.6.129.173.266.339.388.518a14.952,14.952,0,0,1,1.244,2.215c.048.1.1.2.15.3l.009.025c.046.109.081.222.124.332A14.378,14.378,0,0,1,29.948-43.628ZM24-43.011A9.143,9.143,0,0,0,14.906-52.2H14.83a7.48,7.48,0,0,0-1.887.266,11.838,11.838,0,0,0-1.973.708A10.38,10.38,0,0,0,9.2-50.2c-.167.121-.308.248-.457.373a9.322,9.322,0,0,0-.457,13.174h0a9.342,9.342,0,0,0,.875.825,9.539,9.539,0,0,0,2.111,1.276,8.79,8.79,0,0,0,3.567.725,9.056,9.056,0,0,0,6.5-2.7,9.672,9.672,0,0,0,1.943-2.91A8.822,8.822,0,0,0,24-43.011Zm76.878-5.829a14.5,14.5,0,0,1,1.189,5.858v14.326H96.1v-3.039a14.829,14.829,0,0,1-2.9,1.88,15.186,15.186,0,0,1-2.7,1.1,12.34,12.34,0,0,1-3.567.638,15.239,15.239,0,0,1-5.916-1.16,14.944,14.944,0,0,1-8.09-7.947,14.338,14.338,0,0,1-1.19-5.8V-43.1a14.852,14.852,0,0,1,14.85-14.85c.057,0,.111.008.167.008s.119-.008.179-.008a15.109,15.109,0,0,1,13.947,9.108ZM96.034-43.1a9.392,9.392,0,0,0-.687-3.519,9.064,9.064,0,0,0-1.989-2.892,9.8,9.8,0,0,0-2.938-1.969A8.7,8.7,0,0,0,86.9-52.2a9.115,9.115,0,0,0-6.516,2.7,9.542,9.542,0,0,0-1.95,2.929,8.981,8.981,0,0,0-.727,3.6,8.753,8.753,0,0,0,.728,3.567,9.67,9.67,0,0,0,1.949,2.9,9.116,9.116,0,0,0,6.52,2.7,7.674,7.674,0,0,0,1.9-.265,12.136,12.136,0,0,0,1.978-.7,10.544,10.544,0,0,0,1.776-1.015c.087-.062.156-.132.238-.2A9.418,9.418,0,0,0,96.034-43.1Zm85.608,2.955a6.076,6.076,0,0,1-1.827,4.525,6.223,6.223,0,0,1-4.553,1.8,6.154,6.154,0,0,1-6.323-5.98V-57.37h-5.973v17.052c0,.108.013.213.016.32.006.262.016.522.039.779.026.28.065.557.11.831.012.072.021.144.033.215a12.248,12.248,0,0,0,2.5,5.524c.019.026.036.053.055.078.118.15.245.289.369.433.159.179.314.363.484.532l.006.007A12.29,12.29,0,0,0,181.64-29.77v6.678a6.077,6.077,0,0,1-1.827,4.524,6.222,6.222,0,0,1-4.523,1.8v5.743a11.785,11.785,0,0,0,4.726-.985,12.657,12.657,0,0,0,3.945-2.668,12.787,12.787,0,0,0,2.668-3.915,11.584,11.584,0,0,0,.986-4.727V-57.37h-5.973ZM146.726-64.906h0V-70.47h-5.973v32.824a8.441,8.441,0,0,0,.725,3.48,9.355,9.355,0,0,0,4.785,4.79,8.429,8.429,0,0,0,3.48.725h6.9v-5.742h-6.9a2.8,2.8,0,0,1-2.175-.928,3.321,3.321,0,0,1-.841-2.32V-51.624h9.916V-57.37h-9.918ZM127.877-40.141a6.083,6.083,0,0,1-1.827,4.525,6.231,6.231,0,0,1-4.553,1.8,6.155,6.155,0,0,1-6.324-5.979V-57.37H109.2v16.99a11.551,11.551,0,0,0,.986,4.727,12.731,12.731,0,0,0,6.584,6.583,11.587,11.587,0,0,0,4.727.986,11.789,11.789,0,0,0,4.756-.986,12.642,12.642,0,0,0,6.612-6.583,11.584,11.584,0,0,0,.986-4.727V-57.37h-5.974Z" transform="translate(0.301 85.826)"/><path class="c" d="M72.61-72.386,72.6-72.4a8.873,8.873,0,0,0-5.011-6.23l.19-3.725C81.281-86.4,92.956-76.609,95.219-63.04l-25.65,6.29c-.486-5.765-.279-11.362,3.041-15.636Z" transform="translate(0.301 85.826)"/><circle class="d" cx="63.999" cy="5.136" r="4.402"/><path class="d" d="M67.955-54.088l.629,2.565a2.2,2.2,0,0,0,2.662,1.613L96.9-56.2a2.2,2.2,0,0,0,1.614-2.661l-.629-2.565a2.2,2.2,0,0,0-2.662-1.614l-25.65,6.29A2.2,2.2,0,0,0,67.955-54.088Z" transform="translate(0.301 85.826)"/><path d="M98.593-61.6l.629,2.565a2.939,2.939,0,0,1-2.151,3.549l-9.619,2.358a.733.733,0,0,1-.887-.537.734.734,0,0,1,.538-.888l9.618-2.358A1.469,1.469,0,0,0,97.8-58.687l-.629-2.565a1.469,1.469,0,0,0-1.774-1.075L69.746-56.038h0a1.467,1.467,0,0,0-1.075,1.774L69.3-51.7a1.469,1.469,0,0,0,1.774,1.076L87.686-54.7a.733.733,0,0,1,.887.537.735.735,0,0,1-.538.888L71.421-49.2a2.938,2.938,0,0,1-3.549-2.152l-.629-2.565a2.938,2.938,0,0,1,1.55-3.329c-.393-5.12-.263-10.84,3.016-15.3a8.168,8.168,0,0,0-3.958-5.13,5.143,5.143,0,0,1-2.93,1.969,5.14,5.14,0,0,1-6.21-3.764,5.141,5.141,0,0,1,3.764-6.211,5.137,5.137,0,0,1,5.69,2.453,20.461,20.461,0,0,1,16.5,2.321A25.581,25.581,0,0,1,95.822-63.835,2.939,2.939,0,0,1,98.593-61.6ZM62.825-84.253a3.672,3.672,0,0,0-2.689,4.436,3.671,3.671,0,0,0,4.436,2.689,3.669,3.669,0,0,0,2.689-4.436A3.681,3.681,0,0,0,62.825-84.253Zm21.066,4.594A18.886,18.886,0,0,0,68.7-81.848a5.121,5.121,0,0,1-.164,2.879,9.648,9.648,0,0,1,4.391,5.088q.442-.47.93-.9a.735.735,0,0,1,1.036.06.735.735,0,0,1-.06,1.036c-4.542,4.043-5.038,9.931-4.6,16.021l24.142-5.92A24.006,24.006,0,0,0,83.891-79.659Z" transform="translate(0.301 85.826)"/><path class="e" d="M271.033-59.451c-5.182-.937-10.653-.908-14.915,2.186-3.525,2.559-3.757,4.16-4.434,5.823a3.4,3.4,0,0,0-.248,2.509,3.134,3.134,0,0,0,1.115-.056,5.135,5.135,0,0,0,1.31-.522q.243-.13.483-.279c.209-.129.416-.264.623-.4.239-.162.477-.328.714-.492a6.375,6.375,0,0,1,3.057-1.411,2.575,2.575,0,0,1,1.059.166,5,5,0,0,1,2.231,2.294c.305.5.6,1,.917,1.448.1.131.191.256.292.375a3.391,3.391,0,0,0,.65.606,2.086,2.086,0,0,0,1.238.384,2.46,2.46,0,0,0,1.092-.29c1.493-.754,2.678-2.674,4.411-2.009a2.618,2.618,0,0,1,.973.7,8.75,8.75,0,0,1,.6.746l.015.02c.183.253.354.514.519.78l.025.04c.162.263.317.53.47.8l.04.069.057.1.312.554c.032.055.063.11.094.166.148.258.3.514.454.767.017.027.034.056.052.083q.233.374.491.729c.02.029.04.057.061.085a8.512,8.512,0,0,0,.556.675l.075.083a6.818,6.818,0,0,0,.65.6c.019.016.034.035.054.05s.041.03.061.045.048.041.074.061c.06.046.125.087.188.13l.044.03a4.061,4.061,0,0,0,2,.688h.045a3.252,3.252,0,0,0,.356,0c.044,0,.088-.008.132-.012.061-.006.122-.007.182-.016.02,0,.037-.011.056-.014s.068-.007.1-.013c.095-.019.176-.054.266-.078s.211-.054.308-.091.2-.094.3-.144.184-.087.269-.14.18-.129.268-.2.16-.117.233-.184.159-.161.237-.244.139-.142.2-.22c.011-.014.025-.025.036-.039.062-.077.116-.165.175-.247s.121-.163.177-.251c.066-.1.127-.213.189-.322.053-.091.108-.18.158-.275.007-.014.015-.026.022-.039.053-.1.1-.211.152-.316s.095-.191.14-.29l.018-.037c.051-.115.1-.236.15-.354.042-.1.084-.193.125-.292.06-.146.118-.3.177-.445.036-.092.073-.182.108-.274l.264-.681a1.263,1.263,0,0,0,.046-.7C281.962-53.382,278.941-58.021,271.033-59.451Z" transform="translate(0.301 85.826)"/><path class="e" d="M227.905-61.184a15.154,15.154,0,0,1,13.4,4.046c1.9,1.759,3.913,3.163,4.631,7.923.426,2.831,1.268,5.815-.353,5.749-3.068-.123-3.684-2.728-4-2.931a5.153,5.153,0,0,1-1.049-.942c-.121-.138-.241-.281-.357-.429q-.226-.289-.444-.594c-.169-.235-.335-.472-.5-.708a6.371,6.371,0,0,0-2.382-2.381,2.565,2.565,0,0,0-1.051-.209,4.986,4.986,0,0,0-2.886,1.382c-.458.362-.908.735-1.361,1.041q-.2.137-.4.251a3.422,3.422,0,0,1-.82.345,2.085,2.085,0,0,1-1.294-.067,2.463,2.463,0,0,1-.926-.65s-1.283-1.994-5.13-2.385-1.7-3.783-1.7-3.783-.688-2.723-.036-3.245A27,27,0,0,1,227.905-61.184Z" transform="translate(0.301 85.826)"/><path class="e" d="M292.23-57.943c-.034.056-.071.112-.1.169s-.057.122-.085.183-.057.117-.081.176-.045.126-.067.189-.045.121-.064.184-.036.129-.054.194-.035.124-.05.188-.029.133-.043.2-.028.126-.04.19-.026.139-.038.209-.023.126-.034.19c-.018.109-.035.217-.053.326-.012.075-.025.149-.038.223s-.025.153-.039.229-.024.124-.036.186-.026.14-.041.21-.029.123-.044.184-.032.137-.05.2l0,.019c-.015.055-.035.109-.051.164s-.04.133-.063.2-.048.119-.072.178-.049.129-.079.192-.061.116-.091.174-.063.123-.1.183-.077.112-.115.168-.069.107-.11.159l-.014.017-.01.013c-.017.022-.036.04-.054.061s-.06.069-.091.1-.057.055-.086.082-.064.057-.1.084-.052.042-.079.062c-.044.032-.088.063-.134.092l-.054.033a2.042,2.042,0,0,1-.191.1l-.014.006a1.8,1.8,0,0,1-.717.164h-.014a1.89,1.89,0,0,1-.249-.014l-.025-.006c-.043-.006-.082-.017-.123-.026s-.108-.023-.159-.04-.077-.03-.116-.046-.1-.039-.141-.063-.073-.042-.108-.064-.086-.053-.127-.083-.067-.053-.1-.081-.077-.065-.114-.1-.062-.062-.092-.094-.069-.077-.1-.117-.056-.07-.083-.107-.063-.086-.093-.13-.051-.077-.075-.117-.056-.093-.083-.141-.046-.083-.068-.125c-.01-.019-.022-.038-.032-.058s-.028-.062-.043-.093-.041-.086-.061-.13-.045-.105-.068-.159-.036-.087-.053-.132-.042-.109-.062-.164l-.048-.134c-.019-.056-.037-.112-.055-.168s-.029-.087-.043-.131-.034-.115-.051-.173c-.012-.042-.025-.083-.037-.124l-.049-.178c-.01-.038-.021-.076-.03-.113q-.026-.093-.048-.183l-.025-.1-.024-.095-.042-.163-.007-.022a3.23,3.23,0,0,0-.155-.46c-.013-.032-.033-.06-.048-.091a3.037,3.037,0,0,0-.188-.357c-.021-.034-.05-.063-.073-.1a2.857,2.857,0,0,0-.232-.3c-.041-.045-.09-.081-.134-.124a2.929,2.929,0,0,0-.24-.218c-.046-.035-.09-.061-.136-.091s-.086-.061-.128-.085-.088-.045-.132-.066-.082-.044-.122-.06-.085-.028-.127-.041-.078-.028-.116-.037-.082-.013-.123-.019-.074-.014-.11-.017-.079,0-.119,0-.072,0-.107,0a.514.514,0,0,1-.115.016c-.772-.116.784-1.863,5.017-1.966s4.313.67,4.156.879C292.216-57.619,292.23-57.943,292.23-57.943Z" transform="translate(0.301 85.826)"/><path class="e" d="M310.128-59.373c3.552.138,3.081,1.969,2.312,2.127-.39.08-.681-.4-1.072-.4-.76-.011-1.378,1.814-2.107,2.031a3.01,3.01,0,0,1-.336.078,3.211,3.211,0,0,1-1.3-.063c-.106-.025-.212-.055-.318-.088-1.057-.33-2.39-1.639-2.241-2.649C305.237-59.507,310.128-59.373,310.128-59.373Z" transform="translate(0.301 85.826)"/><path class="e" d="M217.387-71.5c-3.551.138-3.08,1.968-2.311,2.127.39.08.681-.4,1.072-.4.76-.01,1.378,1.815,2.107,2.031a2.8,2.8,0,0,0,.336.078,3.21,3.21,0,0,0,1.3-.062c.106-.026.212-.055.318-.088,1.057-.33,2.389-1.64,2.241-2.649C222.278-71.637,217.387-71.5,217.387-71.5Z" transform="translate(0.301 85.826)"/></svg>