<svg xmlns="http://www.w3.org/2000/svg" viewBox="0 0 419.768 419.768">
  <g>
    <rect fill="#fff" width="419.768" height="419.768" rx="209.884"/>
    <g>
      <path fill="#ef7f73" d="M444.324,216.241a21.945,21.945,0,1,1,0,.006Z" transform="translate(-185.986 102.406)"/>
      <path fill="#1d1d1b" d="M435.077,216.251a31.2,31.2,0,0,1,43.23-28.777,91.725,91.725,0,0,0,9.16-29.869,93.614,93.614,0,0,0,.742-11.761q0-3.585-.27-7.1a92.308,92.308,0,0,0-1.256-9.675q-.378-2.052-.839-4.074-.516-2.235-1.138-4.426-.933-3.288-2.1-6.47a92.032,92.032,0,0,0-7.3-15.348q-.445-.753-.907-1.494-.753-1.214-1.54-2.4-.4-.6-.807-1.2a92.879,92.879,0,0,0-10.1-12.3c-.764-.783-1.539-1.557-2.331-2.313a92.689,92.689,0,0,0-17.783-13.3q-.969-.558-1.948-1.089-1.963-1.068-3.982-2.039c-1.051-.507-2.117-.988-3.19-1.456q-2.778-1.212-5.649-2.243-2.67-.96-5.415-1.755-2.436-.708-4.925-1.287-2.053-.475-4.144-.853a92.308,92.308,0,0,0-9.6-1.243q-3.518-.267-7.105-.269a91.919,91.919,0,0,0-56.134,19.025V-23.237H303.53V146.422h.007a92.929,92.929,0,0,0,.735,11.183q.294,2.31.7,4.585.2,1.137.434,2.264a91.531,91.531,0,0,0,5.779,18.235q.492,1.128,1.013,2.241a92.267,92.267,0,0,0,10.716,17.514q.293.375.586.747,1.857,2.338,3.857,4.555c.563.622,1.133,1.239,1.712,1.845a92.329,92.329,0,0,0,20.058,15.9q1.983,1.167,4.027,2.236c.888.464,1.782.92,2.687,1.356q1.01.486,2.032.949,2.046.924,4.143,1.752,3.144,1.239,6.4,2.253t6.606,1.787a92.219,92.219,0,0,0,13.749,2.1q3.516.267,7.1.27t7.105-.27a92.259,92.259,0,0,0,11.5-1.606q1.126-.231,2.244-.489,3.351-.773,6.6-1.787,1.084-.336,2.157-.7a91.7,91.7,0,0,0,12-5.046A31.092,31.092,0,0,1,435.077,216.251Zm-24.169-16.3q-.66.183-1.324.349-1.329.331-2.678.6t-2.714.469q-1.368.2-2.747.337-2.763.27-5.576.272t-5.575-.272q-1.381-.135-2.747-.337a55.68,55.68,0,0,1-31.371-15.833q-.957-.956-1.859-1.95c-.065-.071-.128-.142-.193-.214q-.785-.873-1.531-1.771-.666-.8-1.3-1.624-.551-.715-1.076-1.446-1.113-1.548-2.113-3.159-.357-.576-.7-1.156a55.357,55.357,0,0,1-3.938-8.146q-.246-.639-.475-1.28-.513-1.429-.942-2.889-.735-2.475-1.243-5.021A56.215,56.215,0,0,1,395.86,89.709h0A56.725,56.725,0,0,1,406.9,90.787a55.74,55.74,0,0,1,28.656,15.363q1.461,1.461,2.8,3.009c.076.087.15.175.224.263q.708.825,1.379,1.676c.14.176.278.352.415.53a56.15,56.15,0,0,1,3.249,4.685q.453.728.881,1.468c.313.541.62,1.084.915,1.634q.967,1.809,1.8,3.681c.316.713.614,1.434.9,2.159.214.544.423,1.091.62,1.641a56.715,56.715,0,0,1,1.236,33.986q-.546,1.98-1.236,3.908-.231.642-.476,1.28a56.4,56.4,0,0,1-37.357,33.881Z" transform="translate(-185.986 102.406)"/>
    </g>
  </g>
</svg>
