<svg xmlns="http://www.w3.org/2000/svg" viewBox="0 0 385.569 385.569">
  <defs>
    <style>
      .a {
        fill: #1d1d1b;
      }

      .b {
        fill: #ef7f73;
      }

      .c {
        fill: #fff;
      }
    </style>
  </defs>
  <g>
    <path class="a" d="M602.165,251.226H316.6a50,50,0,0,1-50-50h0V-84.343a50,50,0,0,1,50-50H602.165a50,50,0,0,1,50,50V201.226a50,50,0,0,1-50,50Z" transform="translate(-266.596 134.343)"/>
    <g>
      <path class="b" d="M507.835,167.2a21.945,21.945,0,1,1,0,.006Z" transform="translate(-266.596 134.343)"/>
      <path class="c" d="M498.588,167.214a31.2,31.2,0,0,1,43.23-28.777,91.7,91.7,0,0,0,9.16-29.869,93.227,93.227,0,0,0,.742-11.761q0-3.585-.27-7.1a92.343,92.343,0,0,0-1.256-9.675q-.376-2.052-.839-4.074-.516-2.235-1.138-4.426-.933-3.287-2.1-6.47a91.949,91.949,0,0,0-7.3-15.348q-.446-.751-.907-1.494-.751-1.212-1.54-2.4-.4-.6-.807-1.2a92.787,92.787,0,0,0-10.1-12.3c-.764-.783-1.539-1.557-2.331-2.313a92.7,92.7,0,0,0-17.783-13.3q-.967-.557-1.948-1.089-1.964-1.066-3.982-2.039c-1.051-.507-2.117-.988-3.19-1.456q-2.778-1.21-5.649-2.243-2.67-.959-5.415-1.755-2.436-.708-4.925-1.287-2.054-.476-4.144-.853a92.816,92.816,0,0,0-9.6-1.243q-3.517-.267-7.1-.269A91.925,91.925,0,0,0,403.257,23.5V-72.274H367.041V97.385h.007a93.121,93.121,0,0,0,.735,11.183q.294,2.311.7,4.585.2,1.137.434,2.264a91.64,91.64,0,0,0,5.779,18.235q.492,1.128,1.013,2.241a92.307,92.307,0,0,0,10.716,17.514q.292.375.586.747,1.857,2.34,3.857,4.555c.563.622,1.133,1.239,1.712,1.845a92.3,92.3,0,0,0,20.058,15.9q1.983,1.167,4.027,2.236c.888.464,1.782.92,2.687,1.356q1.01.486,2.032.949,2.046.924,4.143,1.752,3.144,1.24,6.4,2.253t6.606,1.787a91.98,91.98,0,0,0,13.749,2.1q3.518.269,7.1.27t7.105-.27a92.072,92.072,0,0,0,11.5-1.606q1.126-.231,2.244-.489,3.351-.771,6.6-1.787,1.084-.336,2.157-.7a91.451,91.451,0,0,0,12-5.046A31.084,31.084,0,0,1,498.588,167.214Zm-24.169-16.3q-.658.183-1.324.349-1.329.333-2.678.6t-2.714.469q-1.366.2-2.747.337-2.762.27-5.576.272a55.721,55.721,0,0,1-5.575-.272q-1.382-.135-2.747-.337A55.677,55.677,0,0,1,419.687,136.5q-.956-.954-1.859-1.95c-.065-.071-.128-.142-.193-.214q-.784-.872-1.531-1.771-.664-.8-1.3-1.624-.55-.714-1.076-1.446-1.113-1.548-2.113-3.159-.357-.574-.7-1.156a55.51,55.51,0,0,1-3.938-8.146q-.246-.638-.475-1.28-.512-1.428-.942-2.889-.735-2.474-1.243-5.021a56.717,56.717,0,0,1-1.078-11.037,56.134,56.134,0,0,1,56.132-56.134h0A56.725,56.725,0,0,1,470.41,41.75a55.748,55.748,0,0,1,28.656,15.363q1.461,1.461,2.8,3.009c.076.087.15.175.224.263q.708.827,1.379,1.676.21.264.415.53a56.243,56.243,0,0,1,3.249,4.685q.453.729.881,1.468c.313.541.62,1.084.915,1.634q.968,1.809,1.8,3.681c.316.713.614,1.434.9,2.159.214.544.423,1.091.62,1.641a56.715,56.715,0,0,1,1.236,33.986q-.546,1.98-1.236,3.908-.23.644-.476,1.28a56.4,56.4,0,0,1-37.357,33.881Z" transform="translate(-266.596 134.343)"/>
    </g>
  </g>
</svg>
